<?xml version="1.0" encoding="utf-8" standalone="no"?>
<!DOCTYPE svg PUBLIC "-//W3C//DTD SVG 1.1//EN"
  "http://www.w3.org/Graphics/SVG/1.1/DTD/svg11.dtd">
<svg xmlns:xlink="http://www.w3.org/1999/xlink" width="576pt" height="288pt" viewBox="0 0 576 288" xmlns="http://www.w3.org/2000/svg" version="1.1">
 <metadata>
  <rdf:RDF xmlns:dc="http://purl.org/dc/elements/1.1/" xmlns:cc="http://creativecommons.org/ns#" xmlns:rdf="http://www.w3.org/1999/02/22-rdf-syntax-ns#">
   <cc:Work>
    <dc:type rdf:resource="http://purl.org/dc/dcmitype/StillImage"/>
    <dc:date>2025-04-29T13:42:53.306049</dc:date>
    <dc:format>image/svg+xml</dc:format>
    <dc:creator>
     <cc:Agent>
      <dc:title>Matplotlib v3.9.2, https://matplotlib.org/</dc:title>
     </cc:Agent>
    </dc:creator>
   </cc:Work>
  </rdf:RDF>
 </metadata>
 <defs>
  <style type="text/css">*{stroke-linejoin: round; stroke-linecap: butt}</style>
 </defs>
 <g id="figure_1">
  <g id="patch_1">
   <path d="M 0 288 
L 576 288 
L 576 0 
L 0 0 
z
" style="fill: #ffffff"/>
  </g>
  <g id="axes_1">
   <g id="patch_2">
    <path d="M 72 256.32 
L 518.4 256.32 
L 518.4 34.56 
L 72 34.56 
z
" style="fill: #ffffff"/>
   </g>
   <g id="patch_3">
    <path d="M 83.16 256.32 
L 83.16 256.32 
L 83.16 256.32 
L 83.16 256.32 
z
" clip-path="url(#p1342684c31)" style="fill: #3274a1; stroke: #3f3f3f; stroke-linejoin: miter"/>
   </g>
   <g id="patch_4">
    <path d="M 83.16 256.32 
L 83.16 256.32 
L 83.16 256.32 
L 83.16 256.32 
z
" clip-path="url(#p1342684c31)" style="fill: #e1812c; stroke: #3f3f3f; stroke-linejoin: miter"/>
   </g>
   <g id="matplotlib.axis_1">
    <g id="xtick_1">
     <g id="line2d_1">
      <defs>
       <path id="m90b72bc4ff" d="M 0 0 
L 0 3.5 
" style="stroke: #000000; stroke-width: 0.8"/>
      </defs>
      <g>
       <use xlink:href="#m90b72bc4ff" x="83.16" y="256.32" style="stroke: #000000; stroke-width: 0.8"/>
      </g>
     </g>
     <g id="text_1">
      <!-- 4 -->
      <g transform="translate(80.66 270.195) scale(0.1 -0.1)">
       <defs>
        <path id="SimHei-34" d="M 2000 1100 
L 75 1100 
L 75 1525 
L 2100 4450 
L 2475 4450 
L 2475 1525 
L 3075 1525 
L 3075 1100 
L 2475 1100 
L 2475 150 
L 2000 150 
L 2000 1100 
z
M 2000 1525 
L 2000 3500 
L 600 1525 
L 2000 1525 
z
" transform="scale(0.015625)"/>
       </defs>
       <use xlink:href="#SimHei-34"/>
      </g>
     </g>
    </g>
    <g id="xtick_2">
     <g id="line2d_2">
      <g>
       <use xlink:href="#m90b72bc4ff" x="105.48" y="256.32" style="stroke: #000000; stroke-width: 0.8"/>
      </g>
     </g>
     <g id="text_2">
      <!-- 5 -->
      <g transform="translate(102.98 270.195) scale(0.1 -0.1)">
       <defs>
        <path id="SimHei-35" d="M 550 1325 
Q 725 650 1150 575 
Q 1575 500 1837 662 
Q 2100 825 2212 1087 
Q 2325 1350 2312 1675 
Q 2300 2000 2137 2225 
Q 1975 2450 1725 2525 
Q 1475 2600 1162 2525 
Q 850 2450 650 2175 
L 225 2225 
Q 275 2375 700 4375 
L 2675 4375 
L 2675 3925 
L 1075 3925 
Q 950 3250 825 2850 
Q 1200 3025 1525 3012 
Q 1850 3000 2150 2862 
Q 2450 2725 2587 2487 
Q 2725 2250 2787 2012 
Q 2850 1775 2837 1500 
Q 2825 1225 2725 937 
Q 2625 650 2425 462 
Q 2225 275 1937 162 
Q 1650 50 1275 75 
Q 900 100 562 350 
Q 225 600 100 1200 
L 550 1325 
z
" transform="scale(0.015625)"/>
       </defs>
       <use xlink:href="#SimHei-35"/>
      </g>
     </g>
    </g>
    <g id="xtick_3">
     <g id="line2d_3">
      <g>
       <use xlink:href="#m90b72bc4ff" x="127.8" y="256.32" style="stroke: #000000; stroke-width: 0.8"/>
      </g>
     </g>
     <g id="text_3">
      <!-- 6 -->
      <g transform="translate(125.3 270.195) scale(0.1 -0.1)">
       <defs>
        <path id="SimHei-36" d="M 250 1612 
Q 275 1975 387 2225 
Q 500 2475 725 2850 
L 1750 4450 
L 2325 4450 
L 1275 2800 
Q 1950 2975 2350 2750 
Q 2750 2525 2887 2237 
Q 3025 1950 3037 1612 
Q 3050 1275 2937 950 
Q 2825 625 2537 362 
Q 2250 100 1737 75 
Q 1225 50 862 262 
Q 500 475 362 862 
Q 225 1250 250 1612 
z
M 1025 787 
Q 1250 550 1625 525 
Q 2000 500 2250 775 
Q 2500 1050 2500 1575 
Q 2500 2100 2187 2300 
Q 1875 2500 1487 2450 
Q 1100 2400 925 2075 
Q 750 1750 775 1387 
Q 800 1025 1025 787 
z
" transform="scale(0.015625)"/>
       </defs>
       <use xlink:href="#SimHei-36"/>
      </g>
     </g>
    </g>
    <g id="xtick_4">
     <g id="line2d_4">
      <g>
       <use xlink:href="#m90b72bc4ff" x="150.12" y="256.32" style="stroke: #000000; stroke-width: 0.8"/>
      </g>
     </g>
     <g id="text_4">
      <!-- 7 -->
      <g transform="translate(147.62 270.195) scale(0.1 -0.1)">
       <defs>
        <path id="SimHei-37" d="M 850 150 
Q 1300 2050 2425 3925 
L 275 3925 
L 275 4375 
L 2950 4375 
L 2950 3950 
Q 1775 2050 1400 150 
L 850 150 
z
" transform="scale(0.015625)"/>
       </defs>
       <use xlink:href="#SimHei-37"/>
      </g>
     </g>
    </g>
    <g id="xtick_5">
     <g id="line2d_5">
      <g>
       <use xlink:href="#m90b72bc4ff" x="172.44" y="256.32" style="stroke: #000000; stroke-width: 0.8"/>
      </g>
     </g>
     <g id="text_5">
      <!-- 8 -->
      <g transform="translate(169.94 270.195) scale(0.1 -0.1)">
       <defs>
        <path id="SimHei-38" d="M 175 1375 
Q 175 1675 325 1962 
Q 475 2250 825 2425 
Q 525 2600 425 2812 
Q 325 3025 312 3300 
Q 300 3575 387 3775 
Q 475 3975 650 4150 
Q 825 4325 1037 4387 
Q 1250 4450 1500 4450 
Q 1750 4450 1950 4400 
Q 2150 4350 2375 4187 
Q 2600 4025 2700 3725 
Q 2800 3425 2687 3025 
Q 2575 2625 2100 2400 
Q 2525 2275 2700 2012 
Q 2875 1750 2875 1375 
Q 2875 1000 2762 775 
Q 2650 550 2512 400 
Q 2375 250 2137 162 
Q 1900 75 1537 75 
Q 1175 75 912 162 
Q 650 250 475 425 
Q 300 600 237 837 
Q 175 1075 175 1375 
z
M 687 1400 
Q 675 1100 787 875 
Q 900 650 1200 587 
Q 1500 525 1825 600 
Q 2150 675 2275 950 
Q 2400 1225 2362 1500 
Q 2325 1775 2050 1962 
Q 1775 2150 1450 2125 
Q 1125 2100 912 1900 
Q 700 1700 687 1400 
z
M 775 3350 
Q 775 3100 950 2875 
Q 1125 2650 1500 2650 
Q 1875 2650 2062 2875 
Q 2250 3100 2237 3412 
Q 2225 3725 2012 3875 
Q 1800 4025 1437 4000 
Q 1075 3975 925 3787 
Q 775 3600 775 3350 
z
" transform="scale(0.015625)"/>
       </defs>
       <use xlink:href="#SimHei-38"/>
      </g>
     </g>
    </g>
    <g id="xtick_6">
     <g id="line2d_6">
      <g>
       <use xlink:href="#m90b72bc4ff" x="194.76" y="256.32" style="stroke: #000000; stroke-width: 0.8"/>
      </g>
     </g>
     <g id="text_6">
      <!-- 9 -->
      <g transform="translate(192.26 270.195) scale(0.1 -0.1)">
       <defs>
        <path id="SimHei-39" d="M 800 75 
Q 1350 1000 1700 1750 
Q 1075 1650 662 1912 
Q 250 2175 162 2625 
Q 75 3075 175 3437 
Q 275 3800 487 4037 
Q 700 4275 1000 4375 
Q 1300 4475 1537 4475 
Q 1775 4475 2025 4375 
Q 2275 4275 2475 4075 
Q 2675 3875 2750 3662 
Q 2825 3450 2825 3112 
Q 2825 2775 2575 2250 
Q 2325 1725 1350 75 
L 800 75 
z
M 662 2875 
Q 700 2550 937 2337 
Q 1175 2125 1450 2150 
Q 1725 2175 1887 2300 
Q 2050 2425 2200 2725 
Q 2300 3100 2250 3362 
Q 2200 3625 1987 3800 
Q 1775 3975 1525 3975 
Q 1375 4000 1137 3900 
Q 900 3800 762 3500 
Q 625 3200 662 2875 
z
" transform="scale(0.015625)"/>
       </defs>
       <use xlink:href="#SimHei-39"/>
      </g>
     </g>
    </g>
    <g id="xtick_7">
     <g id="line2d_7">
      <g>
       <use xlink:href="#m90b72bc4ff" x="217.08" y="256.32" style="stroke: #000000; stroke-width: 0.8"/>
      </g>
     </g>
     <g id="text_7">
      <!-- 10 -->
      <g transform="translate(212.08 270.195) scale(0.1 -0.1)">
       <defs>
        <path id="SimHei-31" d="M 1400 3600 
Q 1075 3275 575 2975 
L 575 3450 
Q 1200 3875 1600 4450 
L 1900 4450 
L 1900 150 
L 1400 150 
L 1400 3600 
z
" transform="scale(0.015625)"/>
        <path id="SimHei-30" d="M 225 2537 
Q 250 3200 412 3587 
Q 575 3975 875 4225 
Q 1175 4475 1612 4475 
Q 2050 4475 2375 4112 
Q 2700 3750 2800 3200 
Q 2900 2650 2862 1937 
Q 2825 1225 2612 775 
Q 2400 325 1975 150 
Q 1550 -25 1125 187 
Q 700 400 525 750 
Q 350 1100 275 1487 
Q 200 1875 225 2537 
z
M 750 2687 
Q 675 2000 800 1462 
Q 925 925 1212 700 
Q 1500 475 1800 612 
Q 2100 750 2237 1162 
Q 2375 1575 2375 2062 
Q 2375 2550 2337 2950 
Q 2300 3350 2112 3675 
Q 1925 4000 1612 4012 
Q 1300 4025 1062 3700 
Q 825 3375 750 2687 
z
" transform="scale(0.015625)"/>
       </defs>
       <use xlink:href="#SimHei-31"/>
       <use xlink:href="#SimHei-30" x="50"/>
      </g>
     </g>
    </g>
    <g id="xtick_8">
     <g id="line2d_8">
      <g>
       <use xlink:href="#m90b72bc4ff" x="239.4" y="256.32" style="stroke: #000000; stroke-width: 0.8"/>
      </g>
     </g>
     <g id="text_8">
      <!-- 11 -->
      <g transform="translate(234.4 270.195) scale(0.1 -0.1)">
       <use xlink:href="#SimHei-31"/>
       <use xlink:href="#SimHei-31" x="50"/>
      </g>
     </g>
    </g>
    <g id="xtick_9">
     <g id="line2d_9">
      <g>
       <use xlink:href="#m90b72bc4ff" x="261.72" y="256.32" style="stroke: #000000; stroke-width: 0.8"/>
      </g>
     </g>
     <g id="text_9">
      <!-- 12 -->
      <g transform="translate(256.72 270.195) scale(0.1 -0.1)">
       <defs>
        <path id="SimHei-32" d="M 300 250 
Q 325 625 650 925 
Q 975 1225 1475 1862 
Q 1975 2500 2125 2850 
Q 2275 3200 2237 3450 
Q 2200 3700 2000 3862 
Q 1800 4025 1537 4000 
Q 1275 3975 1037 3800 
Q 800 3625 675 3275 
L 200 3350 
Q 400 3925 712 4187 
Q 1025 4450 1450 4475 
Q 1700 4500 1900 4462 
Q 2100 4425 2312 4287 
Q 2525 4150 2662 3875 
Q 2800 3600 2762 3212 
Q 2725 2825 2375 2287 
Q 2025 1750 1025 600 
L 2825 600 
L 2825 150 
L 300 150 
L 300 250 
z
" transform="scale(0.015625)"/>
       </defs>
       <use xlink:href="#SimHei-31"/>
       <use xlink:href="#SimHei-32" x="50"/>
      </g>
     </g>
    </g>
    <g id="xtick_10">
     <g id="line2d_10">
      <g>
       <use xlink:href="#m90b72bc4ff" x="284.04" y="256.32" style="stroke: #000000; stroke-width: 0.8"/>
      </g>
     </g>
     <g id="text_10">
      <!-- 13 -->
      <g transform="translate(279.04 270.195) scale(0.1 -0.1)">
       <defs>
        <path id="SimHei-33" d="M 250 1225 
L 700 1300 
Q 800 975 1025 762 
Q 1250 550 1587 562 
Q 1925 575 2125 837 
Q 2325 1100 2300 1437 
Q 2275 1775 2037 1962 
Q 1800 2150 1275 2225 
L 1275 2550 
Q 1800 2600 2037 2825 
Q 2275 3050 2250 3412 
Q 2225 3775 1925 3937 
Q 1625 4100 1287 3975 
Q 950 3850 750 3275 
L 300 3350 
Q 450 3800 712 4100 
Q 975 4400 1425 4450 
Q 1875 4500 2212 4337 
Q 2550 4175 2687 3837 
Q 2825 3500 2725 3100 
Q 2625 2700 2150 2400 
Q 2500 2250 2687 1950 
Q 2875 1650 2812 1162 
Q 2750 675 2375 375 
Q 2000 75 1525 87 
Q 1050 100 700 387 
Q 350 675 250 1225 
z
" transform="scale(0.015625)"/>
       </defs>
       <use xlink:href="#SimHei-31"/>
       <use xlink:href="#SimHei-33" x="50"/>
      </g>
     </g>
    </g>
    <g id="xtick_11">
     <g id="line2d_11">
      <g>
       <use xlink:href="#m90b72bc4ff" x="306.36" y="256.32" style="stroke: #000000; stroke-width: 0.8"/>
      </g>
     </g>
     <g id="text_11">
      <!-- 14 -->
      <g transform="translate(301.36 270.195) scale(0.1 -0.1)">
       <use xlink:href="#SimHei-31"/>
       <use xlink:href="#SimHei-34" x="50"/>
      </g>
     </g>
    </g>
    <g id="xtick_12">
     <g id="line2d_12">
      <g>
       <use xlink:href="#m90b72bc4ff" x="328.68" y="256.32" style="stroke: #000000; stroke-width: 0.8"/>
      </g>
     </g>
     <g id="text_12">
      <!-- 15 -->
      <g transform="translate(323.68 270.195) scale(0.1 -0.1)">
       <use xlink:href="#SimHei-31"/>
       <use xlink:href="#SimHei-35" x="50"/>
      </g>
     </g>
    </g>
    <g id="xtick_13">
     <g id="line2d_13">
      <g>
       <use xlink:href="#m90b72bc4ff" x="351" y="256.32" style="stroke: #000000; stroke-width: 0.8"/>
      </g>
     </g>
     <g id="text_13">
      <!-- 16 -->
      <g transform="translate(346 270.195) scale(0.1 -0.1)">
       <use xlink:href="#SimHei-31"/>
       <use xlink:href="#SimHei-36" x="50"/>
      </g>
     </g>
    </g>
    <g id="xtick_14">
     <g id="line2d_14">
      <g>
       <use xlink:href="#m90b72bc4ff" x="373.32" y="256.32" style="stroke: #000000; stroke-width: 0.8"/>
      </g>
     </g>
     <g id="text_14">
      <!-- 17 -->
      <g transform="translate(368.32 270.195) scale(0.1 -0.1)">
       <use xlink:href="#SimHei-31"/>
       <use xlink:href="#SimHei-37" x="50"/>
      </g>
     </g>
    </g>
    <g id="xtick_15">
     <g id="line2d_15">
      <g>
       <use xlink:href="#m90b72bc4ff" x="395.64" y="256.32" style="stroke: #000000; stroke-width: 0.8"/>
      </g>
     </g>
     <g id="text_15">
      <!-- 18 -->
      <g transform="translate(390.64 270.195) scale(0.1 -0.1)">
       <use xlink:href="#SimHei-31"/>
       <use xlink:href="#SimHei-38" x="50"/>
      </g>
     </g>
    </g>
    <g id="xtick_16">
     <g id="line2d_16">
      <g>
       <use xlink:href="#m90b72bc4ff" x="417.96" y="256.32" style="stroke: #000000; stroke-width: 0.8"/>
      </g>
     </g>
     <g id="text_16">
      <!-- 19 -->
      <g transform="translate(412.96 270.195) scale(0.1 -0.1)">
       <use xlink:href="#SimHei-31"/>
       <use xlink:href="#SimHei-39" x="50"/>
      </g>
     </g>
    </g>
    <g id="xtick_17">
     <g id="line2d_17">
      <g>
       <use xlink:href="#m90b72bc4ff" x="440.28" y="256.32" style="stroke: #000000; stroke-width: 0.8"/>
      </g>
     </g>
     <g id="text_17">
      <!-- 20 -->
      <g transform="translate(435.28 270.195) scale(0.1 -0.1)">
       <use xlink:href="#SimHei-32"/>
       <use xlink:href="#SimHei-30" x="50"/>
      </g>
     </g>
    </g>
    <g id="xtick_18">
     <g id="line2d_18">
      <g>
       <use xlink:href="#m90b72bc4ff" x="462.6" y="256.32" style="stroke: #000000; stroke-width: 0.8"/>
      </g>
     </g>
     <g id="text_18">
      <!-- 21 -->
      <g transform="translate(457.6 270.195) scale(0.1 -0.1)">
       <use xlink:href="#SimHei-32"/>
       <use xlink:href="#SimHei-31" x="50"/>
      </g>
     </g>
    </g>
    <g id="xtick_19">
     <g id="line2d_19">
      <g>
       <use xlink:href="#m90b72bc4ff" x="484.92" y="256.32" style="stroke: #000000; stroke-width: 0.8"/>
      </g>
     </g>
     <g id="text_19">
      <!-- 22 -->
      <g transform="translate(479.92 270.195) scale(0.1 -0.1)">
       <use xlink:href="#SimHei-32"/>
       <use xlink:href="#SimHei-32" x="50"/>
      </g>
     </g>
    </g>
    <g id="xtick_20">
     <g id="line2d_20">
      <g>
       <use xlink:href="#m90b72bc4ff" x="507.24" y="256.32" style="stroke: #000000; stroke-width: 0.8"/>
      </g>
     </g>
     <g id="text_20">
      <!-- 23 -->
      <g transform="translate(502.24 270.195) scale(0.1 -0.1)">
       <use xlink:href="#SimHei-32"/>
       <use xlink:href="#SimHei-33" x="50"/>
      </g>
     </g>
    </g>
    <g id="text_21">
     <!-- 小时 -->
     <g transform="translate(285.2 283.296562) scale(0.1 -0.1)">
      <defs>
       <path id="SimHei-5c0f" d="M 3500 5150 
Q 3475 4800 3475 4200 
L 3475 175 
Q 3475 -300 3225 -425 
Q 2975 -550 2375 -600 
Q 2325 -300 2150 -25 
Q 2700 -25 2837 0 
Q 2975 25 2975 300 
L 2975 4200 
Q 2975 4650 2950 5150 
L 3500 5150 
z
M 2075 3400 
Q 1850 2775 1550 1962 
Q 1250 1150 1025 750 
Q 775 950 500 1000 
Q 925 1750 1175 2487 
Q 1425 3225 1500 3575 
Q 1800 3425 2075 3400 
z
M 4675 3600 
Q 5675 1800 5875 1150 
Q 5625 1100 5375 925 
Q 5000 2000 4225 3325 
Q 4425 3425 4675 3600 
z
" transform="scale(0.015625)"/>
       <path id="SimHei-65f6" d="M 2525 4575 
Q 2500 3675 2500 2400 
Q 2500 1125 2525 400 
L 2000 400 
L 2000 875 
L 1000 875 
L 1000 50 
L 475 50 
Q 500 1200 500 2350 
Q 500 3525 475 4575 
L 2525 4575 
z
M 4875 3825 
Q 4875 4575 4850 5225 
L 5400 5225 
Q 5375 4575 5375 3825 
Q 5750 3825 6175 3850 
L 6175 3375 
Q 5750 3400 5375 3400 
L 5375 50 
Q 5375 -325 5075 -425 
Q 4775 -525 4300 -575 
Q 4300 -275 4025 0 
Q 4500 -50 4687 -25 
Q 4875 0 4875 300 
L 4875 3400 
Q 3625 3400 2775 3375 
L 2775 3850 
Q 3575 3825 4875 3825 
z
M 2000 1300 
L 2000 2550 
L 1000 2550 
L 1000 1300 
L 2000 1300 
z
M 2000 2975 
L 2000 4150 
L 1000 4150 
L 1000 2975 
L 2000 2975 
z
M 3550 2725 
Q 3875 2200 4175 1600 
Q 3925 1525 3650 1375 
Q 3450 1975 3075 2500 
Q 3300 2600 3550 2725 
z
" transform="scale(0.015625)"/>
      </defs>
      <use xlink:href="#SimHei-5c0f"/>
      <use xlink:href="#SimHei-65f6" x="100"/>
     </g>
    </g>
   </g>
   <g id="matplotlib.axis_2">
    <g id="ytick_1">
     <g id="line2d_21">
      <defs>
       <path id="ma865f237e4" d="M 0 0 
L -3.5 0 
" style="stroke: #000000; stroke-width: 0.8"/>
      </defs>
      <g>
       <use xlink:href="#ma865f237e4" x="72" y="256.32" style="stroke: #000000; stroke-width: 0.8"/>
      </g>
     </g>
     <g id="text_22">
      <!-- 0 -->
      <g transform="translate(60 259.7575) scale(0.1 -0.1)">
       <use xlink:href="#SimHei-30"/>
      </g>
     </g>
    </g>
    <g id="ytick_2">
     <g id="line2d_22">
      <g>
       <use xlink:href="#ma865f237e4" x="72" y="221.611791" style="stroke: #000000; stroke-width: 0.8"/>
      </g>
     </g>
     <g id="text_23">
      <!-- 50 -->
      <g transform="translate(55 225.049291) scale(0.1 -0.1)">
       <use xlink:href="#SimHei-35"/>
       <use xlink:href="#SimHei-30" x="50"/>
      </g>
     </g>
    </g>
    <g id="ytick_3">
     <g id="line2d_23">
      <g>
       <use xlink:href="#ma865f237e4" x="72" y="186.903583" style="stroke: #000000; stroke-width: 0.8"/>
      </g>
     </g>
     <g id="text_24">
      <!-- 100 -->
      <g transform="translate(50 190.341083) scale(0.1 -0.1)">
       <use xlink:href="#SimHei-31"/>
       <use xlink:href="#SimHei-30" x="50"/>
       <use xlink:href="#SimHei-30" x="100"/>
      </g>
     </g>
    </g>
    <g id="ytick_4">
     <g id="line2d_24">
      <g>
       <use xlink:href="#ma865f237e4" x="72" y="152.195374" style="stroke: #000000; stroke-width: 0.8"/>
      </g>
     </g>
     <g id="text_25">
      <!-- 150 -->
      <g transform="translate(50 155.632874) scale(0.1 -0.1)">
       <use xlink:href="#SimHei-31"/>
       <use xlink:href="#SimHei-35" x="50"/>
       <use xlink:href="#SimHei-30" x="100"/>
      </g>
     </g>
    </g>
    <g id="ytick_5">
     <g id="line2d_25">
      <g>
       <use xlink:href="#ma865f237e4" x="72" y="117.487166" style="stroke: #000000; stroke-width: 0.8"/>
      </g>
     </g>
     <g id="text_26">
      <!-- 200 -->
      <g transform="translate(50 120.924666) scale(0.1 -0.1)">
       <use xlink:href="#SimHei-32"/>
       <use xlink:href="#SimHei-30" x="50"/>
       <use xlink:href="#SimHei-30" x="100"/>
      </g>
     </g>
    </g>
    <g id="ytick_6">
     <g id="line2d_26">
      <g>
       <use xlink:href="#ma865f237e4" x="72" y="82.778957" style="stroke: #000000; stroke-width: 0.8"/>
      </g>
     </g>
     <g id="text_27">
      <!-- 250 -->
      <g transform="translate(50 86.216457) scale(0.1 -0.1)">
       <use xlink:href="#SimHei-32"/>
       <use xlink:href="#SimHei-35" x="50"/>
       <use xlink:href="#SimHei-30" x="100"/>
      </g>
     </g>
    </g>
    <g id="ytick_7">
     <g id="line2d_27">
      <g>
       <use xlink:href="#ma865f237e4" x="72" y="48.070749" style="stroke: #000000; stroke-width: 0.8"/>
      </g>
     </g>
     <g id="text_28">
      <!-- 300 -->
      <g transform="translate(50 51.508249) scale(0.1 -0.1)">
       <use xlink:href="#SimHei-33"/>
       <use xlink:href="#SimHei-30" x="50"/>
       <use xlink:href="#SimHei-30" x="100"/>
      </g>
     </g>
    </g>
    <g id="text_29">
     <!-- 始发站至终点站耗时（分钟） -->
     <g transform="translate(44.75 210.44) rotate(-90) scale(0.1 -0.1)">
      <defs>
       <path id="SimHei-59cb" d="M 1750 5075 
Q 1650 4900 1587 4587 
Q 1525 4275 1475 3875 
L 2550 3875 
Q 2400 2150 1950 1100 
Q 2275 850 2725 425 
Q 2550 275 2375 50 
Q 2000 500 1750 675 
Q 1525 275 1250 -62 
Q 975 -400 700 -675 
Q 600 -525 250 -350 
Q 575 -125 862 200 
Q 1150 525 1375 975 
Q 800 1400 500 1550 
Q 875 2925 950 3425 
Q 650 3425 325 3400 
L 325 3900 
Q 675 3875 1025 3875 
Q 1175 4825 1175 5225 
Q 1550 5125 1750 5075 
z
M 5725 2050 
Q 5700 1650 5700 650 
Q 5700 -325 5725 -650 
L 5200 -650 
L 5200 -100 
L 3450 -100 
L 3450 -675 
L 2950 -675 
Q 2975 -300 2975 675 
Q 2975 1650 2950 2050 
L 5725 2050 
z
M 4400 4950 
Q 3750 3875 3250 3150 
Q 3875 3150 4250 3175 
Q 4625 3200 5200 3225 
Q 4875 3675 4625 3900 
Q 4825 4000 5025 4225 
Q 5750 3300 6125 2850 
Q 6000 2775 5725 2550 
Q 5575 2775 5450 2875 
Q 4575 2825 3937 2762 
Q 3300 2700 2825 2575 
Q 2775 2800 2600 3100 
Q 2875 3225 3237 3850 
Q 3600 4475 3825 5200 
Q 4025 5050 4400 4950 
z
M 5200 325 
L 5200 1600 
L 3450 1600 
L 3450 325 
L 5200 325 
z
M 1025 1775 
Q 1300 1550 1575 1400 
Q 1725 1725 1875 2337 
Q 2025 2950 2050 3425 
L 1400 3425 
Q 1300 2950 1025 1775 
z
" transform="scale(0.015625)"/>
       <path id="SimHei-53d1" d="M 3475 4925 
Q 3350 4650 3275 4362 
Q 3200 4075 3075 3575 
L 5075 3575 
Q 5325 3575 5825 3600 
L 5825 3125 
Q 5325 3150 5075 3150 
L 2975 3150 
Q 2825 2775 2650 2400 
L 5300 2400 
Q 4825 1250 3975 475 
Q 4650 0 5950 -150 
Q 5775 -350 5650 -650 
Q 5150 -550 4625 -362 
Q 4100 -175 3600 175 
Q 3200 -75 2625 -312 
Q 2050 -550 1450 -700 
Q 1400 -450 1200 -225 
Q 1750 -150 2300 37 
Q 2850 225 3275 500 
Q 2850 925 2325 1725 
Q 2050 1275 1625 850 
Q 1200 425 700 75 
Q 600 250 300 450 
Q 675 650 1037 975 
Q 1400 1300 1800 1837 
Q 2200 2375 2475 3150 
Q 1825 3150 1475 3125 
Q 1125 3100 950 3025 
Q 875 3250 750 3500 
Q 1000 3550 1112 3875 
Q 1225 4200 1350 4875 
Q 1550 4775 1900 4675 
Q 1775 4425 1675 4162 
Q 1575 3900 1450 3575 
L 2600 3575 
Q 2800 4375 2900 5100 
Q 3175 4950 3475 4925 
z
M 2675 2000 
Q 3025 1375 3650 750 
Q 4200 1200 4625 2000 
L 2675 2000 
z
M 4400 5075 
Q 4825 4600 5250 4100 
Q 5075 4000 4825 3775 
Q 4425 4350 4050 4750 
Q 4225 4875 4400 5075 
z
" transform="scale(0.015625)"/>
       <path id="SimHei-7ad9" d="M 4450 3925 
L 5175 3925 
Q 5575 3925 6050 3950 
L 6050 3475 
Q 5575 3500 5175 3500 
L 4450 3500 
L 4450 2275 
L 5700 2275 
Q 5675 1900 5675 1575 
L 5675 350 
Q 5675 -100 5700 -575 
L 5175 -575 
L 5175 -50 
L 3500 -50 
L 3500 -600 
L 3025 -600 
Q 3025 -150 3050 200 
L 3050 1525 
Q 3025 1850 3025 2275 
L 3975 2275 
L 3975 4550 
Q 3975 4775 3950 5225 
L 4475 5225 
Q 4450 4750 4450 4600 
L 4450 3925 
z
M 5175 350 
L 5175 1875 
L 3500 1875 
L 3500 350 
L 5175 350 
z
M 2725 2875 
Q 2575 2500 2450 1912 
Q 2325 1325 2200 775 
Q 2675 875 2875 925 
Q 2875 725 2925 525 
Q 2150 350 1587 212 
Q 1025 75 550 -100 
Q 500 150 325 450 
Q 1400 600 1750 700 
Q 1850 1025 1987 1662 
Q 2125 2300 2175 3025 
Q 2450 2925 2725 2875 
z
M 1900 3875 
Q 2250 3875 2950 3900 
L 2950 3425 
Q 2250 3450 1900 3450 
L 1400 3450 
Q 1000 3450 375 3425 
L 375 3900 
Q 1000 3875 1400 3875 
L 1900 3875 
z
M 1075 2950 
Q 1475 1650 1550 1250 
Q 1300 1175 1075 1125 
Q 975 1725 600 2800 
Q 800 2875 1075 2950 
z
M 1525 4050 
Q 1425 4475 1125 5000 
Q 1325 5075 1550 5200 
Q 1775 4875 2000 4225 
Q 1800 4125 1525 4050 
z
" transform="scale(0.015625)"/>
       <path id="SimHei-81f3" d="M 4250 3725 
Q 5275 2700 5575 2350 
Q 5350 2225 5175 2025 
Q 4950 2275 4750 2475 
Q 3925 2425 3475 2400 
L 3475 1450 
L 4275 1450 
Q 4800 1450 5250 1475 
L 5250 1000 
Q 4775 1025 4300 1025 
L 3475 1025 
L 3475 100 
L 4975 100 
Q 5550 100 5975 125 
L 5975 -350 
Q 5575 -325 4975 -325 
L 1325 -325 
Q 825 -325 450 -350 
L 450 125 
Q 850 100 1350 100 
L 2975 100 
L 2975 1025 
L 2025 1025 
Q 1550 1025 1150 1000 
L 1150 1475 
Q 1575 1450 2050 1450 
L 2975 1450 
L 2975 2375 
Q 2500 2350 1975 2300 
Q 1450 2250 1250 2175 
Q 1150 2425 1050 2650 
Q 1575 2800 2050 3350 
Q 2525 3900 2600 4275 
L 1700 4275 
Q 1150 4275 775 4250 
L 775 4725 
Q 1150 4700 1700 4700 
L 4700 4700 
Q 5225 4700 5650 4725 
L 5650 4250 
Q 5250 4275 4675 4275 
L 2800 4275 
Q 3000 4125 3225 3950 
Q 2900 3675 2537 3287 
Q 2175 2900 1950 2725 
Q 2700 2725 3300 2750 
Q 3900 2775 4475 2800 
Q 4250 3050 3900 3400 
Q 4075 3550 4250 3725 
z
" transform="scale(0.015625)"/>
       <path id="SimHei-7ec8" d="M 4075 4950 
Q 3950 4800 3750 4400 
L 5600 4400 
Q 5375 3825 5162 3450 
Q 4950 3075 4575 2625 
Q 4900 2350 5350 2100 
Q 5800 1850 6075 1775 
Q 5850 1575 5725 1325 
Q 4950 1700 4250 2325 
Q 4000 2100 3587 1837 
Q 3175 1575 2675 1300 
Q 2575 1550 2325 1725 
Q 2850 1900 3300 2162 
Q 3750 2425 3950 2625 
Q 3575 3100 3350 3625 
Q 3050 3100 2800 2750 
Q 2550 2950 2375 3025 
Q 2650 3325 2862 3662 
Q 3075 4000 3250 4375 
Q 3425 4750 3550 5200 
Q 3850 5025 4075 4950 
z
M 2225 1200 
Q 2075 1175 1587 1125 
Q 1100 1075 550 950 
Q 475 1175 350 1475 
Q 600 1550 862 1900 
Q 1125 2250 1375 2700 
Q 1225 2700 950 2650 
Q 675 2600 475 2500 
Q 375 2800 225 3025 
Q 550 3275 825 3875 
Q 1100 4475 1275 5075 
Q 1575 4900 1800 4825 
Q 1650 4600 1400 4125 
Q 1150 3650 825 3025 
Q 1000 3025 1600 3075 
Q 1900 3550 2075 3975 
Q 2400 3750 2575 3675 
Q 2325 3350 1962 2800 
Q 1600 2250 1075 1525 
Q 1300 1525 2200 1650 
Q 2200 1400 2225 1200 
z
M 3250 725 
Q 4900 150 5425 -125 
Q 5325 -325 5200 -625 
Q 4525 -225 4050 -62 
Q 3575 100 3025 250 
Q 3175 500 3250 725 
z
M 2350 100 
Q 1900 25 1387 -87 
Q 875 -200 475 -375 
Q 425 -125 275 175 
Q 1025 250 2375 575 
Q 2350 350 2350 100 
z
M 3725 1750 
Q 4175 1575 4550 1437 
Q 4925 1300 5275 1150 
Q 5150 975 5050 700 
Q 4750 850 4400 987 
Q 4050 1125 3525 1275 
Q 3675 1500 3725 1750 
z
M 4275 2950 
Q 4675 3375 4925 4000 
L 3650 4000 
Q 3925 3325 4275 2950 
z
" transform="scale(0.015625)"/>
       <path id="SimHei-70b9" d="M 3325 5200 
Q 3300 4925 3300 4375 
L 4900 4375 
Q 5275 4375 5725 4400 
L 5725 3925 
Q 5300 3950 4900 3950 
L 3300 3950 
L 3300 3225 
L 5225 3225 
Q 5200 2700 5200 2150 
Q 5200 1625 5225 1175 
L 1175 1175 
Q 1200 1625 1200 2175 
Q 1200 2725 1175 3225 
L 2775 3225 
L 2775 4500 
Q 2775 4900 2750 5200 
L 3325 5200 
z
M 4700 1600 
L 4700 2800 
L 1725 2800 
L 1725 1600 
L 4700 1600 
z
M 1500 750 
Q 1025 -250 825 -625 
Q 625 -475 325 -375 
Q 650 50 950 925 
Q 1200 800 1500 750 
z
M 5325 850 
Q 5775 150 6075 -350 
Q 5925 -425 5575 -625 
Q 5375 -150 4900 575 
Q 5150 700 5325 850 
z
M 3975 -575 
Q 3775 -100 3400 575 
Q 3575 675 3825 825 
Q 4350 -75 4450 -325 
Q 4200 -450 3975 -575 
z
M 2375 -575 
Q 2350 -300 1975 550 
Q 2200 625 2425 775 
Q 2800 -75 2900 -350 
Q 2625 -450 2375 -575 
z
" transform="scale(0.015625)"/>
       <path id="SimHei-8017" d="M 5675 4400 
Q 5500 4375 5150 4300 
Q 4800 4225 4475 4150 
L 4475 3225 
Q 5025 3300 5700 3400 
L 5725 2975 
Q 5250 2925 4475 2800 
L 4475 1975 
Q 4725 2000 5087 2050 
Q 5450 2100 5975 2175 
L 6025 1725 
Q 5500 1675 4475 1550 
L 4475 250 
Q 4475 0 4750 0 
L 5175 0 
Q 5375 0 5425 137 
Q 5475 275 5500 675 
Q 5725 525 6075 450 
Q 5925 -75 5812 -237 
Q 5700 -400 5425 -400 
L 4525 -400 
Q 4000 -400 4000 150 
L 4000 1475 
Q 3325 1400 2975 1325 
L 2925 1775 
Q 3400 1825 4000 1900 
L 4000 2750 
Q 3850 2750 3200 2625 
L 3150 3075 
Q 3400 3100 4000 3175 
L 4000 4050 
Q 3675 3975 3250 3850 
Q 3175 4125 3050 4325 
Q 3650 4400 4062 4487 
Q 4475 4575 4787 4675 
Q 5100 4775 5400 4925 
Q 5500 4675 5675 4400 
z
M 200 400 
Q 750 925 1012 1325 
Q 1275 1725 1425 2100 
Q 875 2100 400 2075 
L 400 2525 
Q 875 2500 1200 2500 
L 1525 2500 
L 1525 3050 
Q 1050 3050 575 3025 
L 575 3475 
Q 1050 3450 1525 3450 
L 1525 3950 
L 1250 3950 
Q 950 3950 500 3925 
L 500 4375 
Q 950 4350 1250 4350 
L 1525 4350 
Q 1525 4825 1500 5100 
L 2025 5100 
Q 2000 4825 2000 4350 
Q 2450 4350 2950 4375 
L 2950 3925 
Q 2450 3950 2000 3950 
L 2000 3450 
Q 2375 3450 2775 3475 
L 2775 3025 
Q 2350 3050 2000 3050 
L 2000 2500 
Q 2550 2500 2925 2525 
L 2925 2075 
Q 2525 2100 2000 2100 
L 2000 150 
Q 2000 -175 2025 -575 
L 1500 -575 
Q 1525 -175 1525 150 
L 1525 1350 
Q 1175 700 650 100 
Q 425 300 200 400 
z
M 2450 1750 
Q 2550 1575 2975 1000 
Q 2750 875 2550 675 
Q 2450 900 2075 1450 
Q 2225 1550 2450 1750 
z
" transform="scale(0.015625)"/>
       <path id="SimHei-ff08" d="M 5425 5100 
L 5700 4775 
Q 4275 3725 4325 2350 
Q 4350 1025 5675 50 
L 5400 -275 
Q 3875 825 3925 2500 
Q 3925 3875 5425 5100 
z
" transform="scale(0.015625)"/>
       <path id="SimHei-5206" d="M 1000 -650 
Q 825 -375 575 -225 
Q 975 -75 1300 137 
Q 1625 350 1875 662 
Q 2125 975 2250 1350 
Q 2375 1725 2425 2275 
Q 1850 2275 1500 2250 
L 1500 2775 
Q 1900 2750 2525 2750 
L 5025 2750 
Q 4975 2375 4950 2100 
L 4750 250 
Q 4700 -200 4350 -350 
Q 4000 -500 3575 -525 
Q 3550 -275 3325 50 
Q 3850 25 4037 87 
Q 4225 150 4275 525 
L 4450 2275 
L 2950 2275 
Q 2875 1625 2737 1187 
Q 2600 750 2350 425 
Q 2100 100 1750 -175 
Q 1400 -450 1000 -650 
z
M 3950 5175 
Q 4125 4650 4662 3975 
Q 5200 3300 6175 2800 
Q 5975 2625 5775 2275 
Q 5325 2600 4987 2887 
Q 4650 3175 4425 3425 
Q 4200 3675 3925 4137 
Q 3650 4600 3475 5000 
Q 3750 5075 3950 5175 
z
M 2700 4825 
Q 2475 4425 2325 4125 
Q 2175 3825 2025 3587 
Q 1875 3350 1575 2950 
Q 1275 2550 850 2125 
Q 625 2350 400 2475 
Q 900 2925 1187 3300 
Q 1475 3675 1737 4112 
Q 2000 4550 2200 5075 
Q 2400 4925 2700 4825 
z
" transform="scale(0.015625)"/>
       <path id="SimHei-949f" d="M 2850 3100 
Q 2850 3400 2825 3875 
L 4075 3875 
L 4075 4450 
Q 4075 4700 4050 5100 
L 4600 5100 
Q 4575 4800 4575 4425 
L 4575 3875 
L 5875 3875 
Q 5850 3375 5850 3150 
L 5850 1500 
Q 5850 1250 5875 925 
L 5375 925 
L 5375 1375 
L 4575 1375 
L 4575 400 
Q 4575 75 4600 -600 
L 4050 -600 
Q 4075 100 4075 400 
L 4075 1375 
L 3325 1375 
L 3325 925 
L 2800 925 
Q 2850 1225 2850 1450 
L 2850 3100 
z
M 925 3150 
Q 1275 3125 1650 3125 
Q 2025 3125 2400 3150 
L 2400 2725 
Q 2000 2750 1775 2750 
L 1775 2025 
Q 2150 2025 2575 2050 
L 2575 1600 
Q 2150 1625 1775 1625 
L 1775 425 
L 2400 925 
Q 2450 700 2575 475 
Q 2400 350 2087 100 
Q 1775 -150 1425 -475 
Q 1250 -250 1075 -75 
Q 1225 75 1300 550 
L 1300 1625 
Q 975 1625 575 1600 
L 575 2050 
Q 1000 2025 1300 2025 
L 1300 2750 
Q 1150 2750 925 2725 
L 925 3150 
z
M 1925 4925 
Q 1800 4725 1712 4537 
Q 1625 4350 1525 4175 
L 1875 4175 
Q 2200 4175 2550 4200 
L 2550 3750 
Q 2100 3775 1800 3775 
L 1300 3775 
Q 1125 3525 937 3300 
Q 750 3075 525 2850 
Q 425 3050 225 3225 
Q 600 3600 887 4062 
Q 1175 4525 1300 5100 
Q 1675 4975 1925 4925 
z
M 5375 1775 
L 5375 3475 
L 4575 3475 
L 4575 1775 
L 5375 1775 
z
M 4075 1775 
L 4075 3475 
L 3325 3475 
L 3325 1775 
L 4075 1775 
z
" transform="scale(0.015625)"/>
       <path id="SimHei-ff09" d="M 1000 5100 
Q 2500 3875 2500 2500 
Q 2550 825 1025 -275 
L 750 50 
Q 2075 1025 2100 2350 
Q 2150 3725 725 4775 
L 1000 5100 
z
" transform="scale(0.015625)"/>
      </defs>
      <use xlink:href="#SimHei-59cb"/>
      <use xlink:href="#SimHei-53d1" x="100"/>
      <use xlink:href="#SimHei-7ad9" x="200"/>
      <use xlink:href="#SimHei-81f3" x="300"/>
      <use xlink:href="#SimHei-7ec8" x="400"/>
      <use xlink:href="#SimHei-70b9" x="500"/>
      <use xlink:href="#SimHei-7ad9" x="600"/>
      <use xlink:href="#SimHei-8017" x="700"/>
      <use xlink:href="#SimHei-65f6" x="800"/>
      <use xlink:href="#SimHei-ff08" x="900"/>
      <use xlink:href="#SimHei-5206" x="1000"/>
      <use xlink:href="#SimHei-949f" x="1100"/>
      <use xlink:href="#SimHei-ff09" x="1200"/>
     </g>
    </g>
   </g>
   <g id="patch_5">
    <path d="M 74.232 219.818534 
L 83.16 219.818534 
L 83.16 218.707871 
L 74.232 218.707871 
L 74.232 219.818534 
z
" clip-path="url(#p1342684c31)" style="fill: #3274a1; stroke: #3f3f3f; stroke-linejoin: miter"/>
   </g>
   <g id="line2d_28">
    <path d="M 78.696 219.818534 
L 78.696 219.818534 
" clip-path="url(#p1342684c31)" style="fill: none; stroke: #3f3f3f"/>
   </g>
   <g id="line2d_29">
    <path d="M 78.696 218.707871 
L 78.696 218.395497 
" clip-path="url(#p1342684c31)" style="fill: none; stroke: #3f3f3f"/>
   </g>
   <g id="line2d_30">
    <path d="M 76.464 219.818534 
L 80.928 219.818534 
" clip-path="url(#p1342684c31)" style="fill: none; stroke: #3f3f3f; stroke-linecap: square"/>
   </g>
   <g id="line2d_31">
    <path d="M 76.464 218.395497 
L 80.928 218.395497 
" clip-path="url(#p1342684c31)" style="fill: none; stroke: #3f3f3f; stroke-linecap: square"/>
   </g>
   <g id="line2d_32">
    <defs>
     <path id="m7387954594" d="M 0 3 
C 0.795609 3 1.55874 2.683901 2.12132 2.12132 
C 2.683901 1.55874 3 0.795609 3 0 
C 3 -0.795609 2.683901 -1.55874 2.12132 -2.12132 
C 1.55874 -2.683901 0.795609 -3 0 -3 
C -0.795609 -3 -1.55874 -2.683901 -2.12132 -2.12132 
C -2.683901 -1.55874 -3 -0.795609 -3 0 
C -3 0.795609 -2.683901 1.55874 -2.12132 2.12132 
C -1.55874 2.683901 -0.795609 3 0 3 
z
" style="stroke: #3f3f3f"/>
    </defs>
    <g clip-path="url(#p1342684c31)">
     <use xlink:href="#m7387954594" x="78.696" y="222.456358" style="fill-opacity: 0; stroke: #3f3f3f"/>
    </g>
   </g>
   <g id="patch_6">
    <path d="M 96.552 219.633424 
L 105.48 219.633424 
L 105.48 216.434484 
L 96.552 216.434484 
L 96.552 219.633424 
z
" clip-path="url(#p1342684c31)" style="fill: #3274a1; stroke: #3f3f3f; stroke-linejoin: miter"/>
   </g>
   <g id="line2d_33">
    <path d="M 101.016 219.633424 
L 101.016 220.512698 
" clip-path="url(#p1342684c31)" style="fill: none; stroke: #3f3f3f"/>
   </g>
   <g id="line2d_34">
    <path d="M 101.016 216.434484 
L 101.016 215.838659 
" clip-path="url(#p1342684c31)" style="fill: none; stroke: #3f3f3f"/>
   </g>
   <g id="line2d_35">
    <path d="M 98.784 220.512698 
L 103.248 220.512698 
" clip-path="url(#p1342684c31)" style="fill: none; stroke: #3f3f3f; stroke-linecap: square"/>
   </g>
   <g id="line2d_36">
    <path d="M 98.784 215.838659 
L 103.248 215.838659 
" clip-path="url(#p1342684c31)" style="fill: none; stroke: #3f3f3f; stroke-linecap: square"/>
   </g>
   <g id="line2d_37"/>
   <g id="patch_7">
    <path d="M 118.872 216.752642 
L 127.8 216.752642 
L 127.8 215.294897 
L 118.872 215.294897 
L 118.872 216.752642 
z
" clip-path="url(#p1342684c31)" style="fill: #3274a1; stroke: #3f3f3f; stroke-linejoin: miter"/>
   </g>
   <g id="line2d_38">
    <path d="M 123.336 216.752642 
L 123.336 218.418636 
" clip-path="url(#p1342684c31)" style="fill: none; stroke: #3f3f3f"/>
   </g>
   <g id="line2d_39">
    <path d="M 123.336 215.294897 
L 123.336 214.577595 
" clip-path="url(#p1342684c31)" style="fill: none; stroke: #3f3f3f"/>
   </g>
   <g id="line2d_40">
    <path d="M 121.104 218.418636 
L 125.568 218.418636 
" clip-path="url(#p1342684c31)" style="fill: none; stroke: #3f3f3f; stroke-linecap: square"/>
   </g>
   <g id="line2d_41">
    <path d="M 121.104 214.577595 
L 125.568 214.577595 
" clip-path="url(#p1342684c31)" style="fill: none; stroke: #3f3f3f; stroke-linecap: square"/>
   </g>
   <g id="line2d_42"/>
   <g id="patch_8">
    <path d="M 141.192 216.101863 
L 150.12 216.101863 
L 150.12 213.145881 
L 141.192 213.145881 
L 141.192 216.101863 
z
" clip-path="url(#p1342684c31)" style="fill: #3274a1; stroke: #3f3f3f; stroke-linejoin: miter"/>
   </g>
   <g id="line2d_43">
    <path d="M 145.656 216.101863 
L 145.656 217.053447 
" clip-path="url(#p1342684c31)" style="fill: none; stroke: #3f3f3f"/>
   </g>
   <g id="line2d_44">
    <path d="M 145.656 213.145881 
L 145.656 211.407578 
" clip-path="url(#p1342684c31)" style="fill: none; stroke: #3f3f3f"/>
   </g>
   <g id="line2d_45">
    <path d="M 143.424 217.053447 
L 147.888 217.053447 
" clip-path="url(#p1342684c31)" style="fill: none; stroke: #3f3f3f; stroke-linecap: square"/>
   </g>
   <g id="line2d_46">
    <path d="M 143.424 211.407578 
L 147.888 211.407578 
" clip-path="url(#p1342684c31)" style="fill: none; stroke: #3f3f3f; stroke-linecap: square"/>
   </g>
   <g id="line2d_47"/>
   <g id="patch_9">
    <path d="M 163.512 215.887829 
L 172.44 215.887829 
L 172.44 214.380915 
L 163.512 214.380915 
L 163.512 215.887829 
z
" clip-path="url(#p1342684c31)" style="fill: #3274a1; stroke: #3f3f3f; stroke-linejoin: miter"/>
   </g>
   <g id="line2d_48">
    <path d="M 167.976 215.887829 
L 167.976 217.250127 
" clip-path="url(#p1342684c31)" style="fill: none; stroke: #3f3f3f"/>
   </g>
   <g id="line2d_49">
    <path d="M 167.976 214.380915 
L 167.976 213.524779 
" clip-path="url(#p1342684c31)" style="fill: none; stroke: #3f3f3f"/>
   </g>
   <g id="line2d_50">
    <path d="M 165.744 217.250127 
L 170.208 217.250127 
" clip-path="url(#p1342684c31)" style="fill: none; stroke: #3f3f3f; stroke-linecap: square"/>
   </g>
   <g id="line2d_51">
    <path d="M 165.744 213.524779 
L 170.208 213.524779 
" clip-path="url(#p1342684c31)" style="fill: none; stroke: #3f3f3f; stroke-linecap: square"/>
   </g>
   <g id="line2d_52"/>
   <g id="patch_10">
    <path d="M 185.832 215.399022 
L 194.76 215.399022 
L 194.76 213.001263 
L 185.832 213.001263 
L 185.832 215.399022 
z
" clip-path="url(#p1342684c31)" style="fill: #3274a1; stroke: #3f3f3f; stroke-linejoin: miter"/>
   </g>
   <g id="line2d_53">
    <path d="M 190.296 215.399022 
L 190.296 216.127894 
" clip-path="url(#p1342684c31)" style="fill: none; stroke: #3f3f3f"/>
   </g>
   <g id="line2d_54">
    <path d="M 190.296 213.001263 
L 190.296 211.673674 
" clip-path="url(#p1342684c31)" style="fill: none; stroke: #3f3f3f"/>
   </g>
   <g id="line2d_55">
    <path d="M 188.064 216.127894 
L 192.528 216.127894 
" clip-path="url(#p1342684c31)" style="fill: none; stroke: #3f3f3f; stroke-linecap: square"/>
   </g>
   <g id="line2d_56">
    <path d="M 188.064 211.673674 
L 192.528 211.673674 
" clip-path="url(#p1342684c31)" style="fill: none; stroke: #3f3f3f; stroke-linecap: square"/>
   </g>
   <g id="line2d_57"/>
   <g id="patch_11">
    <path d="M 208.152 217.510438 
L 217.08 217.510438 
L 217.08 215.410592 
L 208.152 215.410592 
L 208.152 217.510438 
z
" clip-path="url(#p1342684c31)" style="fill: #3274a1; stroke: #3f3f3f; stroke-linejoin: miter"/>
   </g>
   <g id="line2d_58">
    <path d="M 212.616 217.510438 
L 212.616 217.817027 
" clip-path="url(#p1342684c31)" style="fill: none; stroke: #3f3f3f"/>
   </g>
   <g id="line2d_59">
    <path d="M 212.616 215.410592 
L 212.616 213.247113 
" clip-path="url(#p1342684c31)" style="fill: none; stroke: #3f3f3f"/>
   </g>
   <g id="line2d_60">
    <path d="M 210.384 217.817027 
L 214.848 217.817027 
" clip-path="url(#p1342684c31)" style="fill: none; stroke: #3f3f3f; stroke-linecap: square"/>
   </g>
   <g id="line2d_61">
    <path d="M 210.384 213.247113 
L 214.848 213.247113 
" clip-path="url(#p1342684c31)" style="fill: none; stroke: #3f3f3f; stroke-linecap: square"/>
   </g>
   <g id="line2d_62"/>
   <g id="patch_12">
    <path d="M 230.472 216.619594 
L 239.4 216.619594 
L 239.4 215.896506 
L 230.472 215.896506 
L 230.472 216.619594 
z
" clip-path="url(#p1342684c31)" style="fill: #3274a1; stroke: #3f3f3f; stroke-linejoin: miter"/>
   </g>
   <g id="line2d_63">
    <path d="M 234.936 216.619594 
L 234.936 216.625379 
" clip-path="url(#p1342684c31)" style="fill: none; stroke: #3f3f3f"/>
   </g>
   <g id="line2d_64">
    <path d="M 234.936 215.896506 
L 234.936 215.537855 
" clip-path="url(#p1342684c31)" style="fill: none; stroke: #3f3f3f"/>
   </g>
   <g id="line2d_65">
    <path d="M 232.704 216.625379 
L 237.168 216.625379 
" clip-path="url(#p1342684c31)" style="fill: none; stroke: #3f3f3f; stroke-linecap: square"/>
   </g>
   <g id="line2d_66">
    <path d="M 232.704 215.537855 
L 237.168 215.537855 
" clip-path="url(#p1342684c31)" style="fill: none; stroke: #3f3f3f; stroke-linecap: square"/>
   </g>
   <g id="line2d_67">
    <g clip-path="url(#p1342684c31)">
     <use xlink:href="#m7387954594" x="234.936" y="217.840166" style="fill-opacity: 0; stroke: #3f3f3f"/>
     <use xlink:href="#m7387954594" x="234.936" y="217.75918" style="fill-opacity: 0; stroke: #3f3f3f"/>
     <use xlink:href="#m7387954594" x="234.936" y="214.265221" style="fill-opacity: 0; stroke: #3f3f3f"/>
    </g>
   </g>
   <g id="patch_13">
    <path d="M 252.792 216.480761 
L 261.72 216.480761 
L 261.72 214.944923 
L 252.792 214.944923 
L 252.792 216.480761 
z
" clip-path="url(#p1342684c31)" style="fill: #3274a1; stroke: #3f3f3f; stroke-linejoin: miter"/>
   </g>
   <g id="line2d_68">
    <path d="M 257.256 216.480761 
L 257.256 216.926183 
" clip-path="url(#p1342684c31)" style="fill: none; stroke: #3f3f3f"/>
   </g>
   <g id="line2d_69">
    <path d="M 257.256 214.944923 
L 257.256 214.010694 
" clip-path="url(#p1342684c31)" style="fill: none; stroke: #3f3f3f"/>
   </g>
   <g id="line2d_70">
    <path d="M 255.024 216.926183 
L 259.488 216.926183 
" clip-path="url(#p1342684c31)" style="fill: none; stroke: #3f3f3f; stroke-linecap: square"/>
   </g>
   <g id="line2d_71">
    <path d="M 255.024 214.010694 
L 259.488 214.010694 
" clip-path="url(#p1342684c31)" style="fill: none; stroke: #3f3f3f; stroke-linecap: square"/>
   </g>
   <g id="line2d_72"/>
   <g id="patch_14">
    <path d="M 275.112 216.660087 
L 284.04 216.660087 
L 284.04 215.05194 
L 275.112 215.05194 
L 275.112 216.660087 
z
" clip-path="url(#p1342684c31)" style="fill: #3274a1; stroke: #3f3f3f; stroke-linejoin: miter"/>
   </g>
   <g id="line2d_73">
    <path d="M 279.576 216.660087 
L 279.576 217.863305 
" clip-path="url(#p1342684c31)" style="fill: none; stroke: #3f3f3f"/>
   </g>
   <g id="line2d_74">
    <path d="M 279.576 215.05194 
L 279.576 214.022263 
" clip-path="url(#p1342684c31)" style="fill: none; stroke: #3f3f3f"/>
   </g>
   <g id="line2d_75">
    <path d="M 277.344 217.863305 
L 281.808 217.863305 
" clip-path="url(#p1342684c31)" style="fill: none; stroke: #3f3f3f; stroke-linecap: square"/>
   </g>
   <g id="line2d_76">
    <path d="M 277.344 214.022263 
L 281.808 214.022263 
" clip-path="url(#p1342684c31)" style="fill: none; stroke: #3f3f3f; stroke-linecap: square"/>
   </g>
   <g id="line2d_77"/>
   <g id="patch_15">
    <path d="M 297.432 217.177818 
L 306.36 217.177818 
L 306.36 211.358408 
L 297.432 211.358408 
L 297.432 217.177818 
z
" clip-path="url(#p1342684c31)" style="fill: #3274a1; stroke: #3f3f3f; stroke-linejoin: miter"/>
   </g>
   <g id="line2d_78">
    <path d="M 301.896 217.177818 
L 301.896 219.610285 
" clip-path="url(#p1342684c31)" style="fill: none; stroke: #3f3f3f"/>
   </g>
   <g id="line2d_79">
    <path d="M 301.896 211.358408 
L 301.896 207.983035 
" clip-path="url(#p1342684c31)" style="fill: none; stroke: #3f3f3f"/>
   </g>
   <g id="line2d_80">
    <path d="M 299.664 219.610285 
L 304.128 219.610285 
" clip-path="url(#p1342684c31)" style="fill: none; stroke: #3f3f3f; stroke-linecap: square"/>
   </g>
   <g id="line2d_81">
    <path d="M 299.664 207.983035 
L 304.128 207.983035 
" clip-path="url(#p1342684c31)" style="fill: none; stroke: #3f3f3f; stroke-linecap: square"/>
   </g>
   <g id="line2d_82"/>
   <g id="patch_16">
    <path d="M 319.752 216.40556 
L 328.68 216.40556 
L 328.68 213.524779 
L 319.752 213.524779 
L 319.752 216.40556 
z
" clip-path="url(#p1342684c31)" style="fill: #3274a1; stroke: #3f3f3f; stroke-linejoin: miter"/>
   </g>
   <g id="line2d_83">
    <path d="M 324.216 216.40556 
L 324.216 219.344188 
" clip-path="url(#p1342684c31)" style="fill: none; stroke: #3f3f3f"/>
   </g>
   <g id="line2d_84">
    <path d="M 324.216 213.524779 
L 324.216 210.886955 
" clip-path="url(#p1342684c31)" style="fill: none; stroke: #3f3f3f"/>
   </g>
   <g id="line2d_85">
    <path d="M 321.984 219.344188 
L 326.448 219.344188 
" clip-path="url(#p1342684c31)" style="fill: none; stroke: #3f3f3f; stroke-linecap: square"/>
   </g>
   <g id="line2d_86">
    <path d="M 321.984 210.886955 
L 326.448 210.886955 
" clip-path="url(#p1342684c31)" style="fill: none; stroke: #3f3f3f; stroke-linecap: square"/>
   </g>
   <g id="line2d_87"/>
   <g id="patch_17">
    <path d="M 342.072 215.349852 
L 351 215.349852 
L 351 212.975232 
L 342.072 212.975232 
L 342.072 215.349852 
z
" clip-path="url(#p1342684c31)" style="fill: #3274a1; stroke: #3f3f3f; stroke-linejoin: miter"/>
   </g>
   <g id="line2d_88">
    <path d="M 346.536 215.349852 
L 346.536 215.884937 
" clip-path="url(#p1342684c31)" style="fill: none; stroke: #3f3f3f"/>
   </g>
   <g id="line2d_89">
    <path d="M 346.536 212.975232 
L 346.536 211.025788 
" clip-path="url(#p1342684c31)" style="fill: none; stroke: #3f3f3f"/>
   </g>
   <g id="line2d_90">
    <path d="M 344.304 215.884937 
L 348.768 215.884937 
" clip-path="url(#p1342684c31)" style="fill: none; stroke: #3f3f3f; stroke-linecap: square"/>
   </g>
   <g id="line2d_91">
    <path d="M 344.304 211.025788 
L 348.768 211.025788 
" clip-path="url(#p1342684c31)" style="fill: none; stroke: #3f3f3f; stroke-linecap: square"/>
   </g>
   <g id="line2d_92"/>
   <g id="patch_18">
    <path d="M 364.392 215.607271 
L 373.32 215.607271 
L 373.32 211.56955 
L 364.392 211.56955 
L 364.392 215.607271 
z
" clip-path="url(#p1342684c31)" style="fill: #3274a1; stroke: #3f3f3f; stroke-linejoin: miter"/>
   </g>
   <g id="line2d_93">
    <path d="M 368.856 215.607271 
L 368.856 219.135939 
" clip-path="url(#p1342684c31)" style="fill: none; stroke: #3f3f3f"/>
   </g>
   <g id="line2d_94">
    <path d="M 368.856 211.56955 
L 368.856 207.855771 
" clip-path="url(#p1342684c31)" style="fill: none; stroke: #3f3f3f"/>
   </g>
   <g id="line2d_95">
    <path d="M 366.624 219.135939 
L 371.088 219.135939 
" clip-path="url(#p1342684c31)" style="fill: none; stroke: #3f3f3f; stroke-linecap: square"/>
   </g>
   <g id="line2d_96">
    <path d="M 366.624 207.855771 
L 371.088 207.855771 
" clip-path="url(#p1342684c31)" style="fill: none; stroke: #3f3f3f; stroke-linecap: square"/>
   </g>
   <g id="line2d_97"/>
   <g id="patch_19">
    <path d="M 386.712 215.989062 
L 395.64 215.989062 
L 395.64 213.4033 
L 386.712 213.4033 
L 386.712 215.989062 
z
" clip-path="url(#p1342684c31)" style="fill: #3274a1; stroke: #3f3f3f; stroke-linejoin: miter"/>
   </g>
   <g id="line2d_98">
    <path d="M 391.176 215.989062 
L 391.176 216.9956 
" clip-path="url(#p1342684c31)" style="fill: none; stroke: #3f3f3f"/>
   </g>
   <g id="line2d_99">
    <path d="M 391.176 213.4033 
L 391.176 212.900031 
" clip-path="url(#p1342684c31)" style="fill: none; stroke: #3f3f3f"/>
   </g>
   <g id="line2d_100">
    <path d="M 388.944 216.9956 
L 393.408 216.9956 
" clip-path="url(#p1342684c31)" style="fill: none; stroke: #3f3f3f; stroke-linecap: square"/>
   </g>
   <g id="line2d_101">
    <path d="M 388.944 212.900031 
L 393.408 212.900031 
" clip-path="url(#p1342684c31)" style="fill: none; stroke: #3f3f3f; stroke-linecap: square"/>
   </g>
   <g id="line2d_102"/>
   <g id="patch_20">
    <path d="M 409.032 216.087402 
L 417.96 216.087402 
L 417.96 214.797413 
L 409.032 214.797413 
L 409.032 216.087402 
z
" clip-path="url(#p1342684c31)" style="fill: #3274a1; stroke: #3f3f3f; stroke-linejoin: miter"/>
   </g>
   <g id="line2d_103">
    <path d="M 413.496 216.087402 
L 413.496 217.088155 
" clip-path="url(#p1342684c31)" style="fill: none; stroke: #3f3f3f"/>
   </g>
   <g id="line2d_104">
    <path d="M 413.496 214.797413 
L 413.496 214.600733 
" clip-path="url(#p1342684c31)" style="fill: none; stroke: #3f3f3f"/>
   </g>
   <g id="line2d_105">
    <path d="M 411.264 217.088155 
L 415.728 217.088155 
" clip-path="url(#p1342684c31)" style="fill: none; stroke: #3f3f3f; stroke-linecap: square"/>
   </g>
   <g id="line2d_106">
    <path d="M 411.264 214.600733 
L 415.728 214.600733 
" clip-path="url(#p1342684c31)" style="fill: none; stroke: #3f3f3f; stroke-linecap: square"/>
   </g>
   <g id="line2d_107">
    <g clip-path="url(#p1342684c31)">
     <use xlink:href="#m7387954594" x="413.496" y="212.309992" style="fill-opacity: 0; stroke: #3f3f3f"/>
    </g>
   </g>
   <g id="patch_21">
    <path d="M 431.352 218.106262 
L 440.28 218.106262 
L 440.28 217.325328 
L 431.352 217.325328 
L 431.352 218.106262 
z
" clip-path="url(#p1342684c31)" style="fill: #3274a1; stroke: #3f3f3f; stroke-linejoin: miter"/>
   </g>
   <g id="line2d_108">
    <path d="M 435.816 218.106262 
L 435.816 219.216925 
" clip-path="url(#p1342684c31)" style="fill: none; stroke: #3f3f3f"/>
   </g>
   <g id="line2d_109">
    <path d="M 435.816 217.325328 
L 435.816 216.636948 
" clip-path="url(#p1342684c31)" style="fill: none; stroke: #3f3f3f"/>
   </g>
   <g id="line2d_110">
    <path d="M 433.584 219.216925 
L 438.048 219.216925 
" clip-path="url(#p1342684c31)" style="fill: none; stroke: #3f3f3f; stroke-linecap: square"/>
   </g>
   <g id="line2d_111">
    <path d="M 433.584 216.636948 
L 438.048 216.636948 
" clip-path="url(#p1342684c31)" style="fill: none; stroke: #3f3f3f; stroke-linecap: square"/>
   </g>
   <g id="line2d_112"/>
   <g id="patch_22">
    <path d="M 453.672 219.104123 
L 462.6 219.104123 
L 462.6 217.007169 
L 453.672 217.007169 
L 453.672 219.104123 
z
" clip-path="url(#p1342684c31)" style="fill: #3274a1; stroke: #3f3f3f; stroke-linejoin: miter"/>
   </g>
   <g id="line2d_113">
    <path d="M 458.136 219.104123 
L 458.136 219.30948 
" clip-path="url(#p1342684c31)" style="fill: none; stroke: #3f3f3f"/>
   </g>
   <g id="line2d_114">
    <path d="M 458.136 217.007169 
L 458.136 216.706365 
" clip-path="url(#p1342684c31)" style="fill: none; stroke: #3f3f3f"/>
   </g>
   <g id="line2d_115">
    <path d="M 455.904 219.30948 
L 460.368 219.30948 
" clip-path="url(#p1342684c31)" style="fill: none; stroke: #3f3f3f; stroke-linecap: square"/>
   </g>
   <g id="line2d_116">
    <path d="M 455.904 216.706365 
L 460.368 216.706365 
" clip-path="url(#p1342684c31)" style="fill: none; stroke: #3f3f3f; stroke-linecap: square"/>
   </g>
   <g id="line2d_117"/>
   <g id="patch_23">
    <path d="M 475.992 219.98629 
L 484.92 219.98629 
L 484.92 218.48516 
L 475.992 218.48516 
L 475.992 219.98629 
z
" clip-path="url(#p1342684c31)" style="fill: #3274a1; stroke: #3f3f3f; stroke-linejoin: miter"/>
   </g>
   <g id="line2d_118">
    <path d="M 480.456 219.98629 
L 480.456 220.003644 
" clip-path="url(#p1342684c31)" style="fill: none; stroke: #3f3f3f"/>
   </g>
   <g id="line2d_119">
    <path d="M 480.456 218.48516 
L 480.456 218.441775 
" clip-path="url(#p1342684c31)" style="fill: none; stroke: #3f3f3f"/>
   </g>
   <g id="line2d_120">
    <path d="M 478.224 220.003644 
L 482.688 220.003644 
" clip-path="url(#p1342684c31)" style="fill: none; stroke: #3f3f3f; stroke-linecap: square"/>
   </g>
   <g id="line2d_121">
    <path d="M 478.224 218.441775 
L 482.688 218.441775 
" clip-path="url(#p1342684c31)" style="fill: none; stroke: #3f3f3f; stroke-linecap: square"/>
   </g>
   <g id="line2d_122"/>
   <g id="patch_24">
    <path d="M 105.48 218.071554 
L 114.408 218.071554 
L 114.408 216.393991 
L 105.48 216.393991 
L 105.48 218.071554 
z
" clip-path="url(#p1342684c31)" style="fill: #e1812c; stroke: #3f3f3f; stroke-linejoin: miter"/>
   </g>
   <g id="line2d_123">
    <path d="M 109.944 218.071554 
L 109.944 218.904551 
" clip-path="url(#p1342684c31)" style="fill: none; stroke: #3f3f3f"/>
   </g>
   <g id="line2d_124">
    <path d="M 109.944 216.393991 
L 109.944 215.549424 
" clip-path="url(#p1342684c31)" style="fill: none; stroke: #3f3f3f"/>
   </g>
   <g id="line2d_125">
    <path d="M 107.712 218.904551 
L 112.176 218.904551 
" clip-path="url(#p1342684c31)" style="fill: none; stroke: #3f3f3f; stroke-linecap: square"/>
   </g>
   <g id="line2d_126">
    <path d="M 107.712 215.549424 
L 112.176 215.549424 
" clip-path="url(#p1342684c31)" style="fill: none; stroke: #3f3f3f; stroke-linecap: square"/>
   </g>
   <g id="line2d_127"/>
   <g id="patch_25">
    <path d="M 127.8 220.582115 
L 136.728 220.582115 
L 136.728 218.892982 
L 127.8 218.892982 
L 127.8 220.582115 
z
" clip-path="url(#p1342684c31)" style="fill: #e1812c; stroke: #3f3f3f; stroke-linejoin: miter"/>
   </g>
   <g id="line2d_128">
    <path d="M 132.264 220.582115 
L 132.264 221.287848 
" clip-path="url(#p1342684c31)" style="fill: none; stroke: #3f3f3f"/>
   </g>
   <g id="line2d_129">
    <path d="M 132.264 218.892982 
L 132.264 216.648518 
" clip-path="url(#p1342684c31)" style="fill: none; stroke: #3f3f3f"/>
   </g>
   <g id="line2d_130">
    <path d="M 130.032 221.287848 
L 134.496 221.287848 
" clip-path="url(#p1342684c31)" style="fill: none; stroke: #3f3f3f; stroke-linecap: square"/>
   </g>
   <g id="line2d_131">
    <path d="M 130.032 216.648518 
L 134.496 216.648518 
" clip-path="url(#p1342684c31)" style="fill: none; stroke: #3f3f3f; stroke-linecap: square"/>
   </g>
   <g id="line2d_132"/>
   <g id="patch_26">
    <path d="M 150.12 219.153293 
L 159.048 219.153293 
L 159.048 217.290619 
L 150.12 217.290619 
L 150.12 219.153293 
z
" clip-path="url(#p1342684c31)" style="fill: #e1812c; stroke: #3f3f3f; stroke-linejoin: miter"/>
   </g>
   <g id="line2d_133">
    <path d="M 154.584 219.153293 
L 154.584 219.575577 
" clip-path="url(#p1342684c31)" style="fill: none; stroke: #3f3f3f"/>
   </g>
   <g id="line2d_134">
    <path d="M 154.584 217.290619 
L 154.584 216.810489 
" clip-path="url(#p1342684c31)" style="fill: none; stroke: #3f3f3f"/>
   </g>
   <g id="line2d_135">
    <path d="M 152.352 219.575577 
L 156.816 219.575577 
" clip-path="url(#p1342684c31)" style="fill: none; stroke: #3f3f3f; stroke-linecap: square"/>
   </g>
   <g id="line2d_136">
    <path d="M 152.352 216.810489 
L 156.816 216.810489 
" clip-path="url(#p1342684c31)" style="fill: none; stroke: #3f3f3f; stroke-linecap: square"/>
   </g>
   <g id="line2d_137">
    <g clip-path="url(#p1342684c31)">
     <use xlink:href="#m7387954594" x="154.584" y="203.563523" style="fill-opacity: 0; stroke: #3f3f3f"/>
    </g>
   </g>
   <g id="patch_27">
    <path d="M 172.44 218.262449 
L 181.368 218.262449 
L 181.368 216.631164 
L 172.44 216.631164 
L 172.44 218.262449 
z
" clip-path="url(#p1342684c31)" style="fill: #e1812c; stroke: #3f3f3f; stroke-linejoin: miter"/>
   </g>
   <g id="line2d_138">
    <path d="M 176.904 218.262449 
L 176.904 219.992075 
" clip-path="url(#p1342684c31)" style="fill: none; stroke: #3f3f3f"/>
   </g>
   <g id="line2d_139">
    <path d="M 176.904 216.631164 
L 176.904 215.260189 
" clip-path="url(#p1342684c31)" style="fill: none; stroke: #3f3f3f"/>
   </g>
   <g id="line2d_140">
    <path d="M 174.672 219.992075 
L 179.136 219.992075 
" clip-path="url(#p1342684c31)" style="fill: none; stroke: #3f3f3f; stroke-linecap: square"/>
   </g>
   <g id="line2d_141">
    <path d="M 174.672 215.260189 
L 179.136 215.260189 
" clip-path="url(#p1342684c31)" style="fill: none; stroke: #3f3f3f; stroke-linecap: square"/>
   </g>
   <g id="line2d_142">
    <g clip-path="url(#p1342684c31)">
     <use xlink:href="#m7387954594" x="176.904" y="192.179231" style="fill-opacity: 0; stroke: #3f3f3f"/>
    </g>
   </g>
   <g id="patch_28">
    <path d="M 194.76 218.615316 
L 203.688 218.615316 
L 203.688 217.065016 
L 194.76 217.065016 
L 194.76 218.615316 
z
" clip-path="url(#p1342684c31)" style="fill: #e1812c; stroke: #3f3f3f; stroke-linejoin: miter"/>
   </g>
   <g id="line2d_143">
    <path d="M 199.224 218.615316 
L 199.224 219.668132 
" clip-path="url(#p1342684c31)" style="fill: none; stroke: #3f3f3f"/>
   </g>
   <g id="line2d_144">
    <path d="M 199.224 217.065016 
L 199.224 216.671656 
" clip-path="url(#p1342684c31)" style="fill: none; stroke: #3f3f3f"/>
   </g>
   <g id="line2d_145">
    <path d="M 196.992 219.668132 
L 201.456 219.668132 
" clip-path="url(#p1342684c31)" style="fill: none; stroke: #3f3f3f; stroke-linecap: square"/>
   </g>
   <g id="line2d_146">
    <path d="M 196.992 216.671656 
L 201.456 216.671656 
" clip-path="url(#p1342684c31)" style="fill: none; stroke: #3f3f3f; stroke-linecap: square"/>
   </g>
   <g id="line2d_147">
    <g clip-path="url(#p1342684c31)">
     <use xlink:href="#m7387954594" x="199.224" y="213.30496" style="fill-opacity: 0; stroke: #3f3f3f"/>
    </g>
   </g>
   <g id="patch_29">
    <path d="M 217.08 219.049169 
L 226.008 219.049169 
L 226.008 216.891475 
L 217.08 216.891475 
L 217.08 219.049169 
z
" clip-path="url(#p1342684c31)" style="fill: #e1812c; stroke: #3f3f3f; stroke-linejoin: miter"/>
   </g>
   <g id="line2d_148">
    <path d="M 221.544 219.049169 
L 221.544 220.049922 
" clip-path="url(#p1342684c31)" style="fill: none; stroke: #3f3f3f"/>
   </g>
   <g id="line2d_149">
    <path d="M 221.544 216.891475 
L 221.544 215.213912 
" clip-path="url(#p1342684c31)" style="fill: none; stroke: #3f3f3f"/>
   </g>
   <g id="line2d_150">
    <path d="M 219.312 220.049922 
L 223.776 220.049922 
" clip-path="url(#p1342684c31)" style="fill: none; stroke: #3f3f3f; stroke-linecap: square"/>
   </g>
   <g id="line2d_151">
    <path d="M 219.312 215.213912 
L 223.776 215.213912 
" clip-path="url(#p1342684c31)" style="fill: none; stroke: #3f3f3f; stroke-linecap: square"/>
   </g>
   <g id="line2d_152">
    <g clip-path="url(#p1342684c31)">
     <use xlink:href="#m7387954594" x="221.544" y="44.842885" style="fill-opacity: 0; stroke: #3f3f3f"/>
    </g>
   </g>
   <g id="patch_30">
    <path d="M 239.4 219.644993 
L 248.328 219.644993 
L 248.328 217.727364 
L 239.4 217.727364 
L 239.4 219.644993 
z
" clip-path="url(#p1342684c31)" style="fill: #e1812c; stroke: #3f3f3f; stroke-linejoin: miter"/>
   </g>
   <g id="line2d_153">
    <path d="M 243.864 219.644993 
L 243.864 221.264709 
" clip-path="url(#p1342684c31)" style="fill: none; stroke: #3f3f3f"/>
   </g>
   <g id="line2d_154">
    <path d="M 243.864 217.727364 
L 243.864 215.82709 
" clip-path="url(#p1342684c31)" style="fill: none; stroke: #3f3f3f"/>
   </g>
   <g id="line2d_155">
    <path d="M 241.632 221.264709 
L 246.096 221.264709 
" clip-path="url(#p1342684c31)" style="fill: none; stroke: #3f3f3f; stroke-linecap: square"/>
   </g>
   <g id="line2d_156">
    <path d="M 241.632 215.82709 
L 246.096 215.82709 
" clip-path="url(#p1342684c31)" style="fill: none; stroke: #3f3f3f; stroke-linecap: square"/>
   </g>
   <g id="line2d_157">
    <g clip-path="url(#p1342684c31)">
     <use xlink:href="#m7387954594" x="243.864" y="205.310503" style="fill-opacity: 0; stroke: #3f3f3f"/>
    </g>
   </g>
   <g id="patch_31">
    <path d="M 261.72 220.998613 
L 270.648 220.998613 
L 270.648 217.886444 
L 261.72 217.886444 
L 261.72 220.998613 
z
" clip-path="url(#p1342684c31)" style="fill: #e1812c; stroke: #3f3f3f; stroke-linejoin: miter"/>
   </g>
   <g id="line2d_158">
    <path d="M 266.184 220.998613 
L 266.184 221.692777 
" clip-path="url(#p1342684c31)" style="fill: none; stroke: #3f3f3f"/>
   </g>
   <g id="line2d_159">
    <path d="M 266.184 217.886444 
L 266.184 217.886444 
" clip-path="url(#p1342684c31)" style="fill: none; stroke: #3f3f3f"/>
   </g>
   <g id="line2d_160">
    <path d="M 263.952 221.692777 
L 268.416 221.692777 
" clip-path="url(#p1342684c31)" style="fill: none; stroke: #3f3f3f; stroke-linecap: square"/>
   </g>
   <g id="line2d_161">
    <path d="M 263.952 217.886444 
L 268.416 217.886444 
" clip-path="url(#p1342684c31)" style="fill: none; stroke: #3f3f3f; stroke-linecap: square"/>
   </g>
   <g id="line2d_162">
    <g clip-path="url(#p1342684c31)">
     <use xlink:href="#m7387954594" x="266.184" y="126.060093" style="fill-opacity: 0; stroke: #3f3f3f"/>
     <use xlink:href="#m7387954594" x="266.184" y="203.42469" style="fill-opacity: 0; stroke: #3f3f3f"/>
    </g>
   </g>
   <g id="patch_32">
    <path d="M 284.04 219.028922 
L 292.968 219.028922 
L 292.968 217.09394 
L 284.04 217.09394 
L 284.04 219.028922 
z
" clip-path="url(#p1342684c31)" style="fill: #e1812c; stroke: #3f3f3f; stroke-linejoin: miter"/>
   </g>
   <g id="line2d_163">
    <path d="M 288.504 219.028922 
L 288.504 220.848211 
" clip-path="url(#p1342684c31)" style="fill: none; stroke: #3f3f3f"/>
   </g>
   <g id="line2d_164">
    <path d="M 288.504 217.09394 
L 288.504 215.803951 
" clip-path="url(#p1342684c31)" style="fill: none; stroke: #3f3f3f"/>
   </g>
   <g id="line2d_165">
    <path d="M 286.272 220.848211 
L 290.736 220.848211 
" clip-path="url(#p1342684c31)" style="fill: none; stroke: #3f3f3f; stroke-linecap: square"/>
   </g>
   <g id="line2d_166">
    <path d="M 286.272 215.803951 
L 290.736 215.803951 
" clip-path="url(#p1342684c31)" style="fill: none; stroke: #3f3f3f; stroke-linecap: square"/>
   </g>
   <g id="line2d_167"/>
   <g id="patch_33">
    <path d="M 306.36 218.002138 
L 315.288 218.002138 
L 315.288 215.260189 
L 306.36 215.260189 
L 306.36 218.002138 
z
" clip-path="url(#p1342684c31)" style="fill: #e1812c; stroke: #3f3f3f; stroke-linejoin: miter"/>
   </g>
   <g id="line2d_168">
    <path d="M 310.824 218.002138 
L 310.824 218.488053 
" clip-path="url(#p1342684c31)" style="fill: none; stroke: #3f3f3f"/>
   </g>
   <g id="line2d_169">
    <path d="M 310.824 215.260189 
L 310.824 211.361301 
" clip-path="url(#p1342684c31)" style="fill: none; stroke: #3f3f3f"/>
   </g>
   <g id="line2d_170">
    <path d="M 308.592 218.488053 
L 313.056 218.488053 
" clip-path="url(#p1342684c31)" style="fill: none; stroke: #3f3f3f; stroke-linecap: square"/>
   </g>
   <g id="line2d_171">
    <path d="M 308.592 211.361301 
L 313.056 211.361301 
" clip-path="url(#p1342684c31)" style="fill: none; stroke: #3f3f3f; stroke-linecap: square"/>
   </g>
   <g id="line2d_172"/>
   <g id="patch_34">
    <path d="M 328.68 217.686872 
L 337.608 217.686872 
L 337.608 215.624625 
L 328.68 215.624625 
L 328.68 217.686872 
z
" clip-path="url(#p1342684c31)" style="fill: #e1812c; stroke: #3f3f3f; stroke-linejoin: miter"/>
   </g>
   <g id="line2d_173">
    <path d="M 333.144 217.686872 
L 333.144 219.714409 
" clip-path="url(#p1342684c31)" style="fill: none; stroke: #3f3f3f"/>
   </g>
   <g id="line2d_174">
    <path d="M 333.144 215.624625 
L 333.144 214.589164 
" clip-path="url(#p1342684c31)" style="fill: none; stroke: #3f3f3f"/>
   </g>
   <g id="line2d_175">
    <path d="M 330.912 219.714409 
L 335.376 219.714409 
" clip-path="url(#p1342684c31)" style="fill: none; stroke: #3f3f3f; stroke-linecap: square"/>
   </g>
   <g id="line2d_176">
    <path d="M 330.912 214.589164 
L 335.376 214.589164 
" clip-path="url(#p1342684c31)" style="fill: none; stroke: #3f3f3f; stroke-linecap: square"/>
   </g>
   <g id="line2d_177"/>
   <g id="patch_35">
    <path d="M 351 218.276911 
L 359.928 218.276911 
L 359.928 213.799552 
L 351 213.799552 
L 351 218.276911 
z
" clip-path="url(#p1342684c31)" style="fill: #e1812c; stroke: #3f3f3f; stroke-linejoin: miter"/>
   </g>
   <g id="line2d_178">
    <path d="M 355.464 218.276911 
L 355.464 223.428188 
" clip-path="url(#p1342684c31)" style="fill: none; stroke: #3f3f3f"/>
   </g>
   <g id="line2d_179">
    <path d="M 355.464 213.799552 
L 355.464 213.293391 
" clip-path="url(#p1342684c31)" style="fill: none; stroke: #3f3f3f"/>
   </g>
   <g id="line2d_180">
    <path d="M 353.232 223.428188 
L 357.696 223.428188 
" clip-path="url(#p1342684c31)" style="fill: none; stroke: #3f3f3f; stroke-linecap: square"/>
   </g>
   <g id="line2d_181">
    <path d="M 353.232 213.293391 
L 357.696 213.293391 
" clip-path="url(#p1342684c31)" style="fill: none; stroke: #3f3f3f; stroke-linecap: square"/>
   </g>
   <g id="line2d_182"/>
   <g id="patch_36">
    <path d="M 373.32 208.671414 
L 382.248 208.671414 
L 382.248 184.161634 
L 373.32 184.161634 
L 373.32 208.671414 
z
" clip-path="url(#p1342684c31)" style="fill: #e1812c; stroke: #3f3f3f; stroke-linejoin: miter"/>
   </g>
   <g id="line2d_183">
    <path d="M 377.784 208.671414 
L 377.784 213.397515 
" clip-path="url(#p1342684c31)" style="fill: none; stroke: #3f3f3f"/>
   </g>
   <g id="line2d_184">
    <path d="M 377.784 184.161634 
L 377.784 179.499165 
" clip-path="url(#p1342684c31)" style="fill: none; stroke: #3f3f3f"/>
   </g>
   <g id="line2d_185">
    <path d="M 375.552 213.397515 
L 380.016 213.397515 
" clip-path="url(#p1342684c31)" style="fill: none; stroke: #3f3f3f; stroke-linecap: square"/>
   </g>
   <g id="line2d_186">
    <path d="M 375.552 179.499165 
L 380.016 179.499165 
" clip-path="url(#p1342684c31)" style="fill: none; stroke: #3f3f3f; stroke-linecap: square"/>
   </g>
   <g id="line2d_187"/>
   <g id="patch_37">
    <path d="M 395.64 207.427704 
L 404.568 207.427704 
L 404.568 203.713925 
L 395.64 203.713925 
L 395.64 207.427704 
z
" clip-path="url(#p1342684c31)" style="fill: #e1812c; stroke: #3f3f3f; stroke-linejoin: miter"/>
   </g>
   <g id="line2d_188">
    <path d="M 400.104 207.427704 
L 400.104 211.75466 
" clip-path="url(#p1342684c31)" style="fill: none; stroke: #3f3f3f"/>
   </g>
   <g id="line2d_189">
    <path d="M 400.104 203.713925 
L 400.104 198.889484 
" clip-path="url(#p1342684c31)" style="fill: none; stroke: #3f3f3f"/>
   </g>
   <g id="line2d_190">
    <path d="M 397.872 211.75466 
L 402.336 211.75466 
" clip-path="url(#p1342684c31)" style="fill: none; stroke: #3f3f3f; stroke-linecap: square"/>
   </g>
   <g id="line2d_191">
    <path d="M 397.872 198.889484 
L 402.336 198.889484 
" clip-path="url(#p1342684c31)" style="fill: none; stroke: #3f3f3f; stroke-linecap: square"/>
   </g>
   <g id="line2d_192">
    <g clip-path="url(#p1342684c31)">
     <use xlink:href="#m7387954594" x="400.104" y="184.994631" style="fill-opacity: 0; stroke: #3f3f3f"/>
    </g>
   </g>
   <g id="patch_38">
    <path d="M 417.96 218.476483 
L 426.888 218.476483 
L 426.888 216.035339 
L 417.96 216.035339 
L 417.96 218.476483 
z
" clip-path="url(#p1342684c31)" style="fill: #e1812c; stroke: #3f3f3f; stroke-linejoin: miter"/>
   </g>
   <g id="line2d_193">
    <path d="M 422.424 218.476483 
L 422.424 220.061491 
" clip-path="url(#p1342684c31)" style="fill: none; stroke: #3f3f3f"/>
   </g>
   <g id="line2d_194">
    <path d="M 422.424 216.035339 
L 422.424 213.455362 
" clip-path="url(#p1342684c31)" style="fill: none; stroke: #3f3f3f"/>
   </g>
   <g id="line2d_195">
    <path d="M 420.192 220.061491 
L 424.656 220.061491 
" clip-path="url(#p1342684c31)" style="fill: none; stroke: #3f3f3f; stroke-linecap: square"/>
   </g>
   <g id="line2d_196">
    <path d="M 420.192 213.455362 
L 424.656 213.455362 
" clip-path="url(#p1342684c31)" style="fill: none; stroke: #3f3f3f; stroke-linecap: square"/>
   </g>
   <g id="line2d_197">
    <g clip-path="url(#p1342684c31)">
     <use xlink:href="#m7387954594" x="422.424" y="250.50059" style="fill-opacity: 0; stroke: #3f3f3f"/>
     <use xlink:href="#m7387954594" x="422.424" y="210.99108" style="fill-opacity: 0; stroke: #3f3f3f"/>
    </g>
   </g>
   <g id="patch_39">
    <path d="M 440.28 219.083877 
L 449.208 219.083877 
L 449.208 218.135186 
L 440.28 218.135186 
L 440.28 219.083877 
z
" clip-path="url(#p1342684c31)" style="fill: #e1812c; stroke: #3f3f3f; stroke-linejoin: miter"/>
   </g>
   <g id="line2d_198">
    <path d="M 444.744 219.083877 
L 444.744 220.073061 
" clip-path="url(#p1342684c31)" style="fill: none; stroke: #3f3f3f"/>
   </g>
   <g id="line2d_199">
    <path d="M 444.744 218.135186 
L 444.744 217.689764 
" clip-path="url(#p1342684c31)" style="fill: none; stroke: #3f3f3f"/>
   </g>
   <g id="line2d_200">
    <path d="M 442.512 220.073061 
L 446.976 220.073061 
" clip-path="url(#p1342684c31)" style="fill: none; stroke: #3f3f3f; stroke-linecap: square"/>
   </g>
   <g id="line2d_201">
    <path d="M 442.512 217.689764 
L 446.976 217.689764 
" clip-path="url(#p1342684c31)" style="fill: none; stroke: #3f3f3f; stroke-linecap: square"/>
   </g>
   <g id="line2d_202"/>
   <g id="patch_40">
    <path d="M 462.6 220.686239 
L 471.528 220.686239 
L 471.528 216.139464 
L 462.6 216.139464 
L 462.6 220.686239 
z
" clip-path="url(#p1342684c31)" style="fill: #e1812c; stroke: #3f3f3f; stroke-linejoin: miter"/>
   </g>
   <g id="line2d_203">
    <path d="M 467.064 220.686239 
L 467.064 221.970443 
" clip-path="url(#p1342684c31)" style="fill: none; stroke: #3f3f3f"/>
   </g>
   <g id="line2d_204">
    <path d="M 467.064 216.139464 
L 467.064 214.27679 
" clip-path="url(#p1342684c31)" style="fill: none; stroke: #3f3f3f"/>
   </g>
   <g id="line2d_205">
    <path d="M 464.832 221.970443 
L 469.296 221.970443 
" clip-path="url(#p1342684c31)" style="fill: none; stroke: #3f3f3f; stroke-linecap: square"/>
   </g>
   <g id="line2d_206">
    <path d="M 464.832 214.27679 
L 469.296 214.27679 
" clip-path="url(#p1342684c31)" style="fill: none; stroke: #3f3f3f; stroke-linecap: square"/>
   </g>
   <g id="line2d_207"/>
   <g id="patch_41">
    <path d="M 484.92 220.365188 
L 493.848 220.365188 
L 493.848 216.937753 
L 484.92 216.937753 
L 484.92 220.365188 
z
" clip-path="url(#p1342684c31)" style="fill: #e1812c; stroke: #3f3f3f; stroke-linejoin: miter"/>
   </g>
   <g id="line2d_208">
    <path d="M 489.384 220.365188 
L 489.384 222.062998 
" clip-path="url(#p1342684c31)" style="fill: none; stroke: #3f3f3f"/>
   </g>
   <g id="line2d_209">
    <path d="M 489.384 216.937753 
L 489.384 214.994093 
" clip-path="url(#p1342684c31)" style="fill: none; stroke: #3f3f3f"/>
   </g>
   <g id="line2d_210">
    <path d="M 487.152 222.062998 
L 491.616 222.062998 
" clip-path="url(#p1342684c31)" style="fill: none; stroke: #3f3f3f; stroke-linecap: square"/>
   </g>
   <g id="line2d_211">
    <path d="M 487.152 214.994093 
L 491.616 214.994093 
" clip-path="url(#p1342684c31)" style="fill: none; stroke: #3f3f3f; stroke-linecap: square"/>
   </g>
   <g id="line2d_212"/>
   <g id="patch_42">
    <path d="M 507.24 231.147872 
L 516.168 231.147872 
L 516.168 222.893103 
L 507.24 222.893103 
L 507.24 231.147872 
z
" clip-path="url(#p1342684c31)" style="fill: #e1812c; stroke: #3f3f3f; stroke-linejoin: miter"/>
   </g>
   <g id="line2d_213">
    <path d="M 511.704 231.147872 
L 511.704 235.275256 
" clip-path="url(#p1342684c31)" style="fill: none; stroke: #3f3f3f"/>
   </g>
   <g id="line2d_214">
    <path d="M 511.704 222.893103 
L 511.704 218.765718 
" clip-path="url(#p1342684c31)" style="fill: none; stroke: #3f3f3f"/>
   </g>
   <g id="line2d_215">
    <path d="M 509.472 235.275256 
L 513.936 235.275256 
" clip-path="url(#p1342684c31)" style="fill: none; stroke: #3f3f3f; stroke-linecap: square"/>
   </g>
   <g id="line2d_216">
    <path d="M 509.472 218.765718 
L 513.936 218.765718 
" clip-path="url(#p1342684c31)" style="fill: none; stroke: #3f3f3f; stroke-linecap: square"/>
   </g>
   <g id="line2d_217"/>
   <g id="line2d_218">
    <path d="M 74.232 218.875628 
L 83.16 218.875628 
" clip-path="url(#p1342684c31)" style="fill: none; stroke: #3f3f3f"/>
   </g>
   <g id="line2d_219">
    <path d="M 96.552 217.643486 
L 105.48 217.643486 
" clip-path="url(#p1342684c31)" style="fill: none; stroke: #3f3f3f"/>
   </g>
   <g id="line2d_220">
    <path d="M 118.872 215.844444 
L 127.8 215.844444 
" clip-path="url(#p1342684c31)" style="fill: none; stroke: #3f3f3f"/>
   </g>
   <g id="line2d_221">
    <path d="M 141.192 214.901538 
L 150.12 214.901538 
" clip-path="url(#p1342684c31)" style="fill: none; stroke: #3f3f3f"/>
   </g>
   <g id="line2d_222">
    <path d="M 163.512 215.167634 
L 172.44 215.167634 
" clip-path="url(#p1342684c31)" style="fill: none; stroke: #3f3f3f"/>
   </g>
   <g id="line2d_223">
    <path d="M 185.832 214.109034 
L 194.76 214.109034 
" clip-path="url(#p1342684c31)" style="fill: none; stroke: #3f3f3f"/>
   </g>
   <g id="line2d_224">
    <path d="M 208.152 216.532824 
L 217.08 216.532824 
" clip-path="url(#p1342684c31)" style="fill: none; stroke: #3f3f3f"/>
   </g>
   <g id="line2d_225">
    <path d="M 230.472 216.179957 
L 239.4 216.179957 
" clip-path="url(#p1342684c31)" style="fill: none; stroke: #3f3f3f"/>
   </g>
   <g id="line2d_226">
    <path d="M 252.792 215.780812 
L 261.72 215.780812 
" clip-path="url(#p1342684c31)" style="fill: none; stroke: #3f3f3f"/>
   </g>
   <g id="line2d_227">
    <path d="M 275.112 215.711396 
L 284.04 215.711396 
" clip-path="url(#p1342684c31)" style="fill: none; stroke: #3f3f3f"/>
   </g>
   <g id="line2d_228">
    <path d="M 297.432 215.416376 
L 306.36 215.416376 
" clip-path="url(#p1342684c31)" style="fill: none; stroke: #3f3f3f"/>
   </g>
   <g id="line2d_229">
    <path d="M 319.752 215.086648 
L 328.68 215.086648 
" clip-path="url(#p1342684c31)" style="fill: none; stroke: #3f3f3f"/>
   </g>
   <g id="line2d_230">
    <path d="M 342.072 214.884184 
L 351 214.884184 
" clip-path="url(#p1342684c31)" style="fill: none; stroke: #3f3f3f"/>
   </g>
   <g id="line2d_231">
    <path d="M 364.392 213.015725 
L 373.32 213.015725 
" clip-path="url(#p1342684c31)" style="fill: none; stroke: #3f3f3f"/>
   </g>
   <g id="line2d_232">
    <path d="M 386.712 214.65858 
L 395.64 214.65858 
" clip-path="url(#p1342684c31)" style="fill: none; stroke: #3f3f3f"/>
   </g>
   <g id="line2d_233">
    <path d="M 409.032 215.560994 
L 417.96 215.560994 
" clip-path="url(#p1342684c31)" style="fill: none; stroke: #3f3f3f"/>
   </g>
   <g id="line2d_234">
    <path d="M 431.352 217.898013 
L 440.28 217.898013 
" clip-path="url(#p1342684c31)" style="fill: none; stroke: #3f3f3f"/>
   </g>
   <g id="line2d_235">
    <path d="M 453.672 218.233526 
L 462.6 218.233526 
" clip-path="url(#p1342684c31)" style="fill: none; stroke: #3f3f3f"/>
   </g>
   <g id="line2d_236">
    <path d="M 475.992 219.240064 
L 484.92 219.240064 
" clip-path="url(#p1342684c31)" style="fill: none; stroke: #3f3f3f"/>
   </g>
   <g id="line2d_237">
    <path d="M 105.48 217.238557 
L 114.408 217.238557 
" clip-path="url(#p1342684c31)" style="fill: none; stroke: #3f3f3f"/>
   </g>
   <g id="line2d_238">
    <path d="M 127.8 219.089662 
L 136.728 219.089662 
" clip-path="url(#p1342684c31)" style="fill: none; stroke: #3f3f3f"/>
   </g>
   <g id="line2d_239">
    <path d="M 150.12 218.488053 
L 159.048 218.488053 
" clip-path="url(#p1342684c31)" style="fill: none; stroke: #3f3f3f"/>
   </g>
   <g id="line2d_240">
    <path d="M 172.44 217.724472 
L 181.368 217.724472 
" clip-path="url(#p1342684c31)" style="fill: none; stroke: #3f3f3f"/>
   </g>
   <g id="line2d_241">
    <path d="M 194.76 217.828597 
L 203.688 217.828597 
" clip-path="url(#p1342684c31)" style="fill: none; stroke: #3f3f3f"/>
   </g>
   <g id="line2d_242">
    <path d="M 217.08 218.331866 
L 226.008 218.331866 
" clip-path="url(#p1342684c31)" style="fill: none; stroke: #3f3f3f"/>
   </g>
   <g id="line2d_243">
    <path d="M 239.4 219.043384 
L 248.328 219.043384 
" clip-path="url(#p1342684c31)" style="fill: none; stroke: #3f3f3f"/>
   </g>
   <g id="line2d_244">
    <path d="M 261.72 218.187248 
L 270.648 218.187248 
" clip-path="url(#p1342684c31)" style="fill: none; stroke: #3f3f3f"/>
   </g>
   <g id="line2d_245">
    <path d="M 284.04 218.453344 
L 292.968 218.453344 
" clip-path="url(#p1342684c31)" style="fill: none; stroke: #3f3f3f"/>
   </g>
   <g id="line2d_246">
    <path d="M 306.36 217.319543 
L 315.288 217.319543 
" clip-path="url(#p1342684c31)" style="fill: none; stroke: #3f3f3f"/>
   </g>
   <g id="line2d_247">
    <path d="M 328.68 216.596455 
L 337.608 216.596455 
" clip-path="url(#p1342684c31)" style="fill: none; stroke: #3f3f3f"/>
   </g>
   <g id="line2d_248">
    <path d="M 351 216.12211 
L 359.928 216.12211 
" clip-path="url(#p1342684c31)" style="fill: none; stroke: #3f3f3f"/>
   </g>
   <g id="line2d_249">
    <path d="M 373.32 197.865592 
L 382.248 197.865592 
" clip-path="url(#p1342684c31)" style="fill: none; stroke: #3f3f3f"/>
   </g>
   <g id="line2d_250">
    <path d="M 395.64 204.940282 
L 404.568 204.940282 
" clip-path="url(#p1342684c31)" style="fill: none; stroke: #3f3f3f"/>
   </g>
   <g id="line2d_251">
    <path d="M 417.96 217.319543 
L 426.888 217.319543 
" clip-path="url(#p1342684c31)" style="fill: none; stroke: #3f3f3f"/>
   </g>
   <g id="line2d_252">
    <path d="M 440.28 218.34922 
L 449.208 218.34922 
" clip-path="url(#p1342684c31)" style="fill: none; stroke: #3f3f3f"/>
   </g>
   <g id="line2d_253">
    <path d="M 462.6 218.499622 
L 471.528 218.499622 
" clip-path="url(#p1342684c31)" style="fill: none; stroke: #3f3f3f"/>
   </g>
   <g id="line2d_254">
    <path d="M 484.92 218.291373 
L 493.848 218.291373 
" clip-path="url(#p1342684c31)" style="fill: none; stroke: #3f3f3f"/>
   </g>
   <g id="line2d_255">
    <path d="M 507.24 227.020487 
L 516.168 227.020487 
" clip-path="url(#p1342684c31)" style="fill: none; stroke: #3f3f3f"/>
   </g>
   <g id="patch_43">
    <path d="M 72 256.32 
L 72 34.56 
" style="fill: none; stroke: #000000; stroke-width: 0.8; stroke-linejoin: miter; stroke-linecap: square"/>
   </g>
   <g id="patch_44">
    <path d="M 518.4 256.32 
L 518.4 34.56 
" style="fill: none; stroke: #000000; stroke-width: 0.8; stroke-linejoin: miter; stroke-linecap: square"/>
   </g>
   <g id="patch_45">
    <path d="M 72 256.32 
L 518.4 256.32 
" style="fill: none; stroke: #000000; stroke-width: 0.8; stroke-linejoin: miter; stroke-linecap: square"/>
   </g>
   <g id="patch_46">
    <path d="M 72 34.56 
L 518.4 34.56 
" style="fill: none; stroke: #000000; stroke-width: 0.8; stroke-linejoin: miter; stroke-linecap: square"/>
   </g>
   <g id="text_30">
    <!-- 公交耗时分布 -->
    <g transform="translate(259.2 28.56) scale(0.12 -0.12)">
     <defs>
      <path id="SimHei-516c" d="M 4450 550 
Q 4250 900 3900 1350 
Q 4150 1500 4325 1650 
Q 4700 1100 5025 562 
Q 5350 25 5525 -300 
Q 5250 -450 5050 -575 
Q 4900 -275 4650 150 
Q 2975 -75 2287 -175 
Q 1600 -275 1300 -400 
Q 1225 -150 1025 150 
Q 1275 250 1500 500 
Q 1725 750 2162 1550 
Q 2600 2350 2775 2950 
Q 3150 2725 3350 2675 
Q 3075 2250 2612 1400 
Q 2150 550 1950 300 
Q 3100 400 4450 550 
z
M 4025 5200 
Q 4500 3925 5037 3275 
Q 5575 2625 6125 2325 
Q 5775 2150 5650 1900 
Q 4900 2525 4375 3350 
Q 3850 4175 3525 5025 
Q 3800 5075 4025 5200 
z
M 2725 4775 
Q 2250 3775 1750 3025 
Q 1250 2275 725 1775 
Q 525 2050 300 2175 
Q 825 2575 1400 3400 
Q 1975 4225 2225 5000 
Q 2400 4875 2725 4775 
z
" transform="scale(0.015625)"/>
      <path id="SimHei-4ea4" d="M 2325 2600 
Q 2775 1575 3200 1150 
Q 3875 1825 4225 2725 
Q 4425 2575 4725 2400 
Q 4125 1450 3550 825 
Q 4400 175 6000 25 
Q 5750 -325 5700 -550 
Q 4100 -250 3150 525 
Q 2075 -275 650 -600 
Q 575 -300 375 -50 
Q 1900 125 2775 850 
Q 2200 1525 1850 2350 
Q 2150 2475 2325 2600 
z
M 1250 3725 
Q 875 3725 525 3700 
L 525 4200 
L 1225 4150 
L 5125 4150 
Q 5525 4175 5950 4200 
L 5950 3675 
Q 5525 3700 5125 3725 
L 1250 3725 
z
M 2525 3300 
Q 2175 2975 1025 2000 
Q 825 2250 550 2400 
Q 1025 2650 1412 3025 
Q 1800 3400 2000 3675 
Q 2250 3500 2525 3300 
z
M 4325 3675 
Q 4450 3575 4900 3237 
Q 5350 2900 5775 2600 
Q 5500 2400 5300 2175 
Q 5075 2475 3900 3300 
Q 4100 3500 4325 3675 
z
M 3250 5300 
Q 3500 4725 3625 4375 
Q 3275 4275 3025 4200 
Q 2875 4625 2650 5125 
Q 2950 5225 3250 5300 
z
" transform="scale(0.015625)"/>
      <path id="SimHei-5e03" d="M 2375 4225 
Q 2650 4775 2775 5300 
Q 3125 5175 3400 5075 
Q 3275 4975 2950 4225 
L 4800 4225 
Q 5550 4225 6025 4250 
L 6025 3800 
L 2725 3800 
Q 2325 3100 1975 2675 
L 3275 2675 
Q 3275 3225 3250 3575 
L 3775 3575 
Q 3750 3225 3750 2675 
L 5500 2675 
Q 5475 2225 5475 1775 
L 5475 750 
Q 5475 275 5212 150 
Q 4950 25 4450 -25 
Q 4400 325 4225 550 
Q 4800 550 4912 625 
Q 5025 700 5000 1025 
L 5000 2250 
L 3750 2250 
L 3750 550 
Q 3750 25 3775 -600 
L 3250 -600 
Q 3275 25 3275 550 
L 3275 2250 
L 2100 2250 
L 2100 0 
L 1600 0 
Q 1625 525 1625 1025 
L 1625 2225 
Q 1300 1850 650 1275 
Q 475 1475 200 1650 
Q 750 2025 1262 2562 
Q 1775 3100 2150 3800 
L 1550 3800 
Q 925 3800 400 3775 
L 400 4250 
Q 925 4225 1550 4225 
L 2375 4225 
z
" transform="scale(0.015625)"/>
     </defs>
     <use xlink:href="#SimHei-516c"/>
     <use xlink:href="#SimHei-4ea4" x="100"/>
     <use xlink:href="#SimHei-8017" x="200"/>
     <use xlink:href="#SimHei-65f6" x="300"/>
     <use xlink:href="#SimHei-5206" x="400"/>
     <use xlink:href="#SimHei-5e03" x="500"/>
    </g>
   </g>
   <g id="legend_1">
    <g id="patch_47">
     <path d="M 354.4 84.27875 
L 511.4 84.27875 
Q 513.4 84.27875 513.4 82.27875 
L 513.4 41.56 
Q 513.4 39.56 511.4 39.56 
L 354.4 39.56 
Q 352.4 39.56 352.4 41.56 
L 352.4 82.27875 
Q 352.4 84.27875 354.4 84.27875 
z
" style="fill: #ffffff; opacity: 0.8; stroke: #cccccc; stroke-linejoin: miter"/>
    </g>
    <g id="text_31">
     <!-- direction -->
     <g transform="translate(410.4 50.435) scale(0.1 -0.1)">
      <defs>
       <path id="SimHei-64" d="M 2750 125 
L 2250 125 
L 2250 500 
Q 2100 275 1900 175 
Q 1700 75 1425 75 
Q 925 75 575 437 
Q 225 800 225 1525 
Q 225 2250 575 2625 
Q 925 3000 1425 3000 
Q 1700 3000 1900 2887 
Q 2100 2775 2250 2550 
L 2250 4400 
L 2750 4400 
L 2750 125 
z
M 2250 1525 
Q 2250 2000 2037 2275 
Q 1825 2550 1525 2550 
Q 1150 2550 962 2275 
Q 775 2000 775 1525 
Q 775 1050 962 787 
Q 1150 525 1525 525 
Q 1825 525 2037 787 
Q 2250 1050 2250 1525 
z
" transform="scale(0.015625)"/>
       <path id="SimHei-69" d="M 1800 3725 
L 1300 3725 
L 1300 4375 
L 1800 4375 
L 1800 3725 
z
M 1800 125 
L 1300 125 
L 1300 2925 
L 1800 2925 
L 1800 125 
z
" transform="scale(0.015625)"/>
       <path id="SimHei-72" d="M 2500 2425 
Q 2025 2500 1700 2287 
Q 1375 2075 1150 1550 
L 1150 125 
L 650 125 
L 650 2925 
L 1150 2925 
L 1150 2200 
Q 1375 2600 1712 2787 
Q 2050 2975 2500 2975 
L 2500 2425 
z
" transform="scale(0.015625)"/>
       <path id="SimHei-65" d="M 2850 1075 
Q 2800 625 2450 350 
Q 2100 75 1625 75 
Q 1025 75 637 462 
Q 250 850 250 1525 
Q 250 2200 637 2587 
Q 1025 2975 1625 2975 
Q 2150 2975 2487 2637 
Q 2825 2300 2825 1525 
L 800 1525 
Q 800 975 1037 750 
Q 1275 525 1625 525 
Q 1900 525 2075 662 
Q 2250 800 2300 1075 
L 2850 1075 
z
M 2250 1925 
Q 2200 2275 2025 2412 
Q 1850 2550 1575 2550 
Q 1325 2550 1125 2412 
Q 925 2275 825 1925 
L 2250 1925 
z
" transform="scale(0.015625)"/>
       <path id="SimHei-63" d="M 2850 1250 
Q 2850 725 2487 400 
Q 2125 75 1575 75 
Q 1025 75 625 462 
Q 225 850 225 1525 
Q 225 2200 625 2587 
Q 1025 2975 1575 2975 
Q 2125 2975 2450 2687 
Q 2775 2400 2775 2000 
L 2225 2000 
Q 2200 2300 2012 2412 
Q 1825 2525 1575 2525 
Q 1275 2525 1025 2287 
Q 775 2050 775 1525 
Q 775 1000 1025 762 
Q 1275 525 1575 525 
Q 1900 525 2100 700 
Q 2300 875 2300 1250 
L 2850 1250 
z
" transform="scale(0.015625)"/>
       <path id="SimHei-74" d="M 2750 200 
Q 2625 150 2462 112 
Q 2300 75 2025 75 
Q 1575 75 1300 325 
Q 1025 575 1025 1025 
L 1025 2525 
L 175 2525 
L 175 2925 
L 1025 2925 
L 1025 3900 
L 1525 3900 
L 1525 2925 
L 2550 2925 
L 2550 2525 
L 1525 2525 
L 1525 1000 
Q 1525 800 1625 662 
Q 1725 525 2000 525 
Q 2275 525 2450 575 
Q 2625 625 2750 700 
L 2750 200 
z
" transform="scale(0.015625)"/>
       <path id="SimHei-6f" d="M 2925 1525 
Q 2925 875 2525 475 
Q 2125 75 1575 75 
Q 1025 75 625 475 
Q 225 875 225 1525 
Q 225 2175 625 2575 
Q 1025 2975 1575 2975 
Q 2125 2975 2525 2575 
Q 2925 2175 2925 1525 
z
M 2375 1525 
Q 2375 2025 2125 2275 
Q 1875 2525 1575 2525 
Q 1275 2525 1025 2275 
Q 775 2025 775 1525 
Q 775 1025 1025 775 
Q 1275 525 1575 525 
Q 1875 525 2125 775 
Q 2375 1025 2375 1525 
z
" transform="scale(0.015625)"/>
       <path id="SimHei-6e" d="M 2800 125 
L 2300 125 
L 2300 1925 
Q 2300 2225 2150 2400 
Q 2000 2575 1750 2575 
Q 1425 2575 1137 2237 
Q 850 1900 850 1400 
L 850 125 
L 350 125 
L 350 2925 
L 850 2925 
L 850 2400 
Q 1050 2675 1287 2825 
Q 1525 2975 1900 2975 
Q 2350 2975 2575 2725 
Q 2800 2475 2800 2100 
L 2800 125 
z
" transform="scale(0.015625)"/>
      </defs>
      <use xlink:href="#SimHei-64"/>
      <use xlink:href="#SimHei-69" x="50"/>
      <use xlink:href="#SimHei-72" x="100"/>
      <use xlink:href="#SimHei-65" x="150"/>
      <use xlink:href="#SimHei-63" x="200"/>
      <use xlink:href="#SimHei-74" x="250"/>
      <use xlink:href="#SimHei-69" x="300"/>
      <use xlink:href="#SimHei-6f" x="350"/>
      <use xlink:href="#SimHei-6e" x="400"/>
     </g>
    </g>
    <g id="patch_48">
     <path d="M 356.4 64.731875 
L 376.4 64.731875 
L 376.4 57.731875 
L 356.4 57.731875 
z
" style="fill: #3274a1; stroke: #3f3f3f; stroke-linejoin: miter"/>
    </g>
    <g id="text_32">
     <!-- 申昆路枢纽站-延安东路外滩 -->
     <g transform="translate(384.4 64.731875) scale(0.1 -0.1)">
      <defs>
       <path id="SimHei-7533" d="M 2925 4250 
Q 2925 4950 2900 5250 
L 3425 5250 
Q 3400 4975 3400 4250 
L 5600 4250 
Q 5575 3925 5575 3550 
L 5575 1425 
Q 5575 1100 5600 675 
L 5075 675 
L 5075 1025 
L 3400 1025 
L 3400 125 
Q 3400 -150 3425 -650 
L 2900 -650 
Q 2925 -150 2925 125 
L 2925 1025 
L 1300 1025 
L 1300 600 
L 775 600 
Q 800 1025 800 1450 
L 800 3525 
Q 800 3925 775 4250 
L 2925 4250 
z
M 5075 1475 
L 5075 2450 
L 3400 2450 
L 3400 1475 
L 5075 1475 
z
M 2925 1475 
L 2925 2450 
L 1300 2450 
L 1300 1475 
L 2925 1475 
z
M 5075 2900 
L 5075 3800 
L 3400 3800 
L 3400 2900 
L 5075 2900 
z
M 2925 2900 
L 2925 3800 
L 1300 3800 
L 1300 2900 
L 2925 2900 
z
" transform="scale(0.015625)"/>
       <path id="SimHei-6606" d="M 5100 4850 
Q 5075 4350 5075 4025 
L 5075 3450 
Q 5075 3050 5100 2525 
L 1125 2525 
Q 1150 3050 1150 3450 
L 1150 4025 
Q 1150 4350 1125 4850 
L 5100 4850 
z
M 3950 1150 
Q 4200 1225 4662 1487 
Q 5125 1750 5325 1950 
Q 5500 1650 5675 1475 
Q 5525 1400 5000 1150 
Q 4475 900 3950 725 
L 3950 250 
Q 3950 -25 4250 -75 
L 5150 -75 
Q 5600 -100 5575 450 
Q 5825 350 6150 250 
Q 5950 -525 5350 -475 
L 4000 -475 
Q 3425 -475 3425 25 
L 3425 1375 
Q 3425 1825 3400 2300 
L 3975 2300 
Q 3950 1975 3950 1425 
L 3950 1150 
z
M 2950 125 
Q 2525 0 1962 -212 
Q 1400 -425 1075 -650 
L 750 -225 
Q 950 0 925 300 
L 925 1500 
Q 925 1875 900 2325 
L 1475 2325 
Q 1450 2000 1450 1600 
L 2150 1600 
Q 2400 1600 2950 1625 
L 2950 1150 
Q 2400 1175 2150 1175 
L 1450 1175 
L 1450 125 
Q 2225 375 2800 625 
Q 2825 375 2950 125 
z
M 4575 3875 
L 4575 4450 
L 1650 4450 
L 1650 3875 
L 4575 3875 
z
M 4575 2925 
L 4575 3475 
L 1650 3475 
L 1650 2925 
L 4575 2925 
z
" transform="scale(0.015625)"/>
       <path id="SimHei-8def" d="M 2900 425 
Q 1225 -75 475 -350 
Q 425 -150 275 125 
Q 525 150 700 225 
L 700 1800 
Q 700 2000 675 2325 
L 1150 2325 
Q 1125 2100 1125 1675 
L 1125 325 
Q 1300 375 1550 450 
L 1550 2975 
L 725 2975 
Q 750 3225 750 3850 
Q 750 4500 725 4750 
L 2650 4750 
Q 2625 4475 2625 3850 
Q 2625 3250 2650 2975 
L 1975 2975 
L 1975 2075 
Q 2275 2075 2600 2100 
L 2600 1650 
Q 2275 1675 1975 1675 
L 1975 550 
Q 2200 600 2900 875 
Q 2875 675 2900 425 
z
M 4225 5025 
Q 4075 4850 3925 4550 
L 5750 4550 
Q 5575 4125 5287 3650 
Q 5000 3175 4750 2850 
Q 5325 2400 6200 2200 
Q 6000 1950 5900 1750 
Q 5600 1875 5200 2087 
Q 4800 2300 4475 2550 
Q 4150 2300 3762 2100 
Q 3375 1900 2925 1700 
Q 2825 1925 2650 2125 
Q 2975 2200 3400 2375 
Q 3825 2550 4150 2825 
Q 3900 3075 3425 3650 
Q 3250 3350 3100 3150 
Q 2950 3300 2725 3425 
Q 3000 3675 3275 4187 
Q 3550 4700 3700 5225 
Q 3975 5050 4225 5025 
z
M 5525 1800 
Q 5500 1475 5500 650 
Q 5500 -150 5525 -525 
L 5050 -525 
L 5050 -50 
L 3625 -50 
L 3625 -550 
L 3175 -550 
Q 3200 -125 3200 650 
Q 3200 1450 3175 1800 
L 5525 1800 
z
M 5050 325 
L 5050 1400 
L 3625 1400 
L 3625 325 
L 5050 325 
z
M 2200 3350 
L 2200 4375 
L 1175 4375 
L 1175 3350 
L 2200 3350 
z
M 3650 4000 
Q 3950 3550 4425 3125 
Q 4575 3275 4775 3612 
Q 4975 3950 5075 4175 
L 3750 4175 
L 3650 4000 
z
" transform="scale(0.015625)"/>
       <path id="SimHei-67a2" d="M 1300 3800 
Q 1300 4775 1275 5125 
L 1825 5125 
Q 1800 4825 1800 3800 
Q 2175 3800 2575 3825 
L 2575 3350 
Q 2175 3375 1800 3375 
L 1800 2400 
Q 1950 2475 2125 2625 
Q 2275 2400 2412 2200 
Q 2550 2000 2675 1775 
Q 2450 1675 2250 1525 
Q 2125 1825 1800 2325 
L 1800 500 
Q 1800 0 1825 -575 
L 1275 -575 
Q 1300 0 1300 500 
L 1300 2275 
Q 1200 1925 1037 1625 
Q 875 1325 600 925 
Q 450 1150 200 1275 
Q 350 1425 637 1900 
Q 925 2375 1225 3375 
Q 800 3375 375 3350 
L 375 3825 
Q 825 3800 1300 3800 
z
M 5375 4775 
Q 5650 4775 5975 4800 
L 5975 4325 
Q 5600 4350 5375 4350 
L 3325 4350 
L 3325 150 
L 5300 150 
Q 5775 150 6075 200 
L 6075 -300 
Q 5775 -275 5300 -275 
L 2825 -275 
Q 2825 -25 2850 575 
L 2850 3850 
Q 2850 4425 2825 4775 
L 5375 4775 
z
M 3825 3725 
Q 4125 3350 4325 3112 
Q 4525 2875 4675 2650 
Q 4900 2975 5025 3325 
Q 5150 3675 5200 3975 
Q 5450 3825 5800 3700 
Q 5575 3500 5437 3162 
Q 5300 2825 5000 2275 
Q 5350 1875 5950 1075 
Q 5700 925 5500 700 
Q 5175 1275 4750 1800 
Q 4400 1175 3850 575 
Q 3700 775 3450 950 
Q 3650 1100 3900 1375 
Q 4150 1650 4450 2200 
Q 4100 2725 3500 3425 
Q 3675 3525 3825 3725 
z
" transform="scale(0.015625)"/>
       <path id="SimHei-7ebd" d="M 3475 2125 
Q 3075 2125 2675 2100 
L 2675 2525 
Q 3125 2500 3525 2500 
L 3625 4350 
Q 2950 4350 2625 4325 
L 2625 4750 
Q 2950 4725 3500 4725 
L 5800 4725 
Q 5775 4325 5750 3825 
L 5525 75 
Q 5700 75 6100 100 
L 6100 -325 
Q 5650 -300 5375 -300 
L 3100 -300 
Q 2750 -300 2350 -325 
L 2350 100 
Q 2725 75 3325 75 
L 3475 2125 
z
M 2525 1825 
Q 2475 1625 2475 1375 
Q 2125 1325 1600 1237 
Q 1075 1150 600 1000 
Q 500 1300 375 1450 
Q 675 1600 975 1950 
Q 1275 2300 1600 2900 
Q 900 2825 475 2725 
Q 400 2950 275 3175 
Q 525 3300 925 3987 
Q 1325 4675 1450 5250 
Q 1750 5075 2000 5000 
Q 1875 4800 1612 4337 
Q 1350 3875 975 3250 
Q 1400 3275 1800 3300 
Q 2000 3675 2100 4025 
Q 2350 3800 2600 3725 
Q 2500 3575 2062 2837 
Q 1625 2100 1275 1600 
Q 2200 1750 2525 1825 
z
M 5050 75 
L 5175 2100 
L 3950 2100 
L 3800 75 
L 5050 75 
z
M 5200 2500 
L 5300 4325 
L 4100 4325 
L 3975 2500 
L 5200 2500 
z
M 2525 225 
Q 2000 100 1450 -62 
Q 900 -225 600 -375 
Q 500 -75 350 125 
Q 750 175 1362 325 
Q 1975 475 2550 700 
Q 2525 475 2525 225 
z
" transform="scale(0.015625)"/>
       <path id="SimHei-2d" d="M 2975 2125 
L 125 2125 
L 125 2525 
L 2975 2525 
L 2975 2125 
z
" transform="scale(0.015625)"/>
       <path id="SimHei-5ef6" d="M 2100 4750 
Q 1500 3450 1275 2875 
L 2175 2875 
Q 2050 2200 1937 1712 
Q 1825 1225 1650 750 
Q 2025 425 2712 212 
Q 3400 0 4175 -25 
Q 4950 -50 6175 75 
Q 5950 -200 5925 -475 
Q 4825 -500 4112 -462 
Q 3400 -425 2900 -312 
Q 2400 -200 2075 -37 
Q 1750 125 1425 375 
Q 1050 -150 650 -525 
Q 500 -350 250 -200 
Q 725 200 1100 700 
Q 825 1025 687 1250 
Q 550 1475 400 1775 
Q 500 1825 800 2000 
Q 950 1700 1050 1537 
Q 1150 1375 1300 1175 
Q 1475 1625 1650 2500 
Q 1000 2500 725 2425 
L 600 2875 
Q 825 3000 1050 3500 
Q 1275 4000 1400 4350 
Q 800 4350 400 4325 
L 400 4775 
Q 1125 4750 1450 4750 
L 2100 4750 
z
M 5675 4625 
Q 5350 4625 4500 4400 
L 4500 3100 
Q 5200 3100 5600 3125 
L 5600 2675 
Q 5200 2700 4500 2700 
L 4500 1200 
Q 4975 1200 5675 1225 
L 5675 750 
Q 5000 775 4600 775 
L 2700 775 
Q 2725 1400 2725 1825 
L 2725 2400 
Q 2725 2850 2700 3525 
L 3275 3525 
Q 3225 2850 3225 2200 
L 3225 1200 
L 4000 1200 
L 4000 4325 
Q 3075 4175 2650 4100 
Q 2600 4275 2450 4575 
Q 3300 4650 3887 4762 
Q 4475 4875 5200 5175 
Q 5275 5050 5675 4625 
z
" transform="scale(0.015625)"/>
       <path id="SimHei-5b89" d="M 3225 3475 
Q 3125 3375 3037 3237 
Q 2950 3100 2675 2525 
L 5000 2525 
Q 5600 2525 5975 2550 
L 5975 2100 
Q 5575 2125 5025 2125 
L 4775 2125 
Q 4500 1400 4025 825 
Q 4950 475 5925 -75 
Q 5750 -275 5575 -550 
Q 4650 75 3650 475 
Q 3025 0 2225 -262 
Q 1425 -525 900 -625 
Q 800 -325 600 -100 
Q 1375 -50 2062 175 
Q 2750 400 3125 675 
Q 2375 950 1375 1175 
Q 1775 1725 1975 2125 
L 1350 2125 
Q 1050 2125 500 2100 
L 500 2550 
Q 800 2525 1325 2525 
L 2150 2525 
Q 2475 3125 2650 3725 
Q 2950 3550 3225 3475 
z
M 2650 5000 
Q 2875 5150 3050 5300 
Q 3325 4950 3600 4525 
Q 3450 4450 3275 4300 
L 5575 4300 
Q 5550 3950 5550 3725 
Q 5550 3500 5575 3125 
L 5050 3125 
L 5050 3900 
L 1350 3900 
L 1350 3175 
L 825 3175 
Q 850 3525 850 3775 
Q 850 4025 800 4300 
L 3100 4300 
Q 2900 4725 2650 5000 
z
M 2100 1425 
Q 3125 1150 3550 1000 
Q 3900 1325 4225 2125 
L 2525 2125 
Q 2325 1825 2100 1425 
z
" transform="scale(0.015625)"/>
       <path id="SimHei-4e1c" d="M 2250 4100 
Q 2650 4825 2775 5250 
L 3350 5000 
Q 3150 4750 2800 4100 
L 4550 4100 
Q 5100 4100 5625 4125 
L 5625 3650 
Q 5275 3675 4900 3675 
L 2625 3675 
Q 2275 3125 1675 2300 
L 3150 2300 
Q 3150 2800 3125 3250 
L 3700 3250 
Q 3675 2975 3675 2300 
L 4650 2300 
Q 5075 2300 5550 2325 
L 5550 1875 
Q 5150 1900 4675 1900 
L 3675 1900 
L 3675 75 
Q 3675 -325 3375 -437 
Q 3075 -550 2600 -625 
Q 2525 -300 2325 -50 
Q 2875 -50 3012 0 
Q 3150 50 3150 350 
L 3150 1900 
L 2050 1900 
Q 1450 1900 1050 1825 
Q 975 2075 850 2325 
Q 1125 2425 1400 2762 
Q 1675 3100 2025 3675 
L 1325 3675 
Q 900 3675 675 3650 
L 675 4125 
Q 875 4100 1250 4100 
L 2250 4100 
z
M 1725 425 
Q 1300 0 900 -425 
Q 750 -225 500 -50 
Q 1475 800 1850 1450 
Q 2025 1250 2350 1050 
L 1725 425 
z
M 4625 1400 
Q 4875 1175 5275 800 
Q 5675 425 5975 100 
Q 5875 25 5525 -300 
Q 5150 175 4250 1025 
Q 4525 1250 4625 1400 
z
" transform="scale(0.015625)"/>
       <path id="SimHei-5916" d="M 2150 4875 
Q 2000 4650 1912 4425 
Q 1825 4200 1725 3975 
L 3275 3975 
Q 3150 3075 2937 2450 
Q 2725 1825 2412 1350 
Q 2100 875 1675 437 
Q 1250 0 650 -375 
Q 475 -100 200 0 
Q 775 250 1275 712 
Q 1775 1175 2000 1600 
Q 1675 1950 1150 2325 
Q 1325 2475 1475 2675 
Q 1975 2275 2250 2050 
Q 2425 2400 2525 2775 
Q 2625 3150 2700 3550 
L 1575 3550 
Q 1425 3225 1187 2825 
Q 950 2425 575 2025 
Q 450 2200 200 2375 
Q 625 2775 862 3187 
Q 1100 3600 1250 4025 
Q 1400 4450 1550 5075 
Q 1825 4950 2150 4875 
z
M 4225 5125 
Q 4200 4725 4200 4325 
L 4200 475 
Q 4200 0 4225 -500 
L 3675 -500 
Q 3700 0 3700 475 
L 3700 4325 
Q 3700 4725 3675 5125 
L 4225 5125 
z
M 4675 3450 
Q 4900 3200 5337 2687 
Q 5775 2175 6075 1725 
Q 5825 1575 5650 1400 
Q 5425 1800 5025 2300 
Q 4625 2800 4300 3150 
Q 4450 3300 4675 3450 
z
" transform="scale(0.015625)"/>
       <path id="SimHei-6ee9" d="M 4475 5000 
Q 4325 4825 4250 4625 
Q 4175 4425 4100 4200 
L 5325 4200 
Q 5700 4200 6075 4225 
L 6075 3750 
Q 5750 3775 5275 3775 
L 5275 2950 
Q 5500 2950 5850 2975 
L 5850 2525 
Q 5500 2550 5275 2550 
L 5275 1700 
Q 5625 1700 5900 1725 
L 5900 1275 
Q 5650 1325 5275 1325 
L 5275 375 
Q 5700 375 6075 400 
L 6075 -75 
Q 5725 -50 5475 -50 
L 4100 -50 
L 4100 -575 
L 3600 -575 
Q 3625 -200 3625 325 
L 3625 3025 
Q 3500 2700 3300 2275 
Q 3150 2400 2900 2525 
Q 3150 2950 3475 3750 
Q 3800 4550 3875 5200 
Q 4175 5075 4475 5000 
z
M 3150 4500 
Q 3050 3850 2925 3212 
Q 2800 2575 2625 2100 
Q 3100 1175 3350 600 
Q 3075 525 2900 375 
Q 2700 950 2400 1600 
Q 2300 1250 2137 875 
Q 1975 500 1750 25 
Q 1525 175 1250 225 
Q 1550 625 1762 1112 
Q 1975 1600 2125 2050 
Q 1700 3150 1400 3525 
Q 1625 3600 1825 3725 
Q 2050 3350 2350 2575 
Q 2525 3275 2625 4100 
Q 2150 4100 1500 4075 
L 1500 4525 
Q 2150 4500 2500 4500 
L 3150 4500 
z
M 1275 1550 
Q 1125 975 987 337 
Q 850 -300 800 -650 
Q 550 -525 250 -450 
Q 425 -100 562 425 
Q 700 950 825 1750 
Q 1050 1625 1275 1550 
z
M 4850 375 
L 4850 1325 
L 4100 1325 
L 4100 375 
L 4850 375 
z
M 4850 1700 
L 4850 2550 
L 4100 2550 
L 4100 1700 
L 4850 1700 
z
M 4850 2950 
L 4850 3775 
L 4100 3775 
L 4100 2950 
L 4850 2950 
z
M 425 3325 
Q 1025 3025 1400 2775 
Q 1250 2600 1150 2325 
Q 850 2600 200 2900 
Q 325 3075 425 3325 
z
M 600 5000 
Q 1100 4725 1450 4450 
Q 1300 4250 1175 4025 
Q 875 4300 300 4600 
Q 500 4825 600 5000 
z
M 5400 4450 
Q 5200 4375 4950 4275 
Q 4850 4700 4650 5050 
Q 4900 5125 5100 5200 
L 5400 4450 
z
" transform="scale(0.015625)"/>
      </defs>
      <use xlink:href="#SimHei-7533"/>
      <use xlink:href="#SimHei-6606" x="100"/>
      <use xlink:href="#SimHei-8def" x="200"/>
      <use xlink:href="#SimHei-67a2" x="300"/>
      <use xlink:href="#SimHei-7ebd" x="400"/>
      <use xlink:href="#SimHei-7ad9" x="500"/>
      <use xlink:href="#SimHei-2d" x="600"/>
      <use xlink:href="#SimHei-5ef6" x="650"/>
      <use xlink:href="#SimHei-5b89" x="750"/>
      <use xlink:href="#SimHei-4e1c" x="850"/>
      <use xlink:href="#SimHei-8def" x="950"/>
      <use xlink:href="#SimHei-5916" x="1050"/>
      <use xlink:href="#SimHei-6ee9" x="1150"/>
     </g>
    </g>
    <g id="patch_49">
     <path d="M 356.4 79.02875 
L 376.4 79.02875 
L 376.4 72.02875 
L 356.4 72.02875 
z
" style="fill: #e1812c; stroke: #3f3f3f; stroke-linejoin: miter"/>
    </g>
    <g id="text_33">
     <!-- 延安东路外滩-申昆路枢纽站 -->
     <g transform="translate(384.4 79.02875) scale(0.1 -0.1)">
      <use xlink:href="#SimHei-5ef6"/>
      <use xlink:href="#SimHei-5b89" x="100"/>
      <use xlink:href="#SimHei-4e1c" x="200"/>
      <use xlink:href="#SimHei-8def" x="300"/>
      <use xlink:href="#SimHei-5916" x="400"/>
      <use xlink:href="#SimHei-6ee9" x="500"/>
      <use xlink:href="#SimHei-2d" x="600"/>
      <use xlink:href="#SimHei-7533" x="650"/>
      <use xlink:href="#SimHei-6606" x="750"/>
      <use xlink:href="#SimHei-8def" x="850"/>
      <use xlink:href="#SimHei-67a2" x="950"/>
      <use xlink:href="#SimHei-7ebd" x="1050"/>
      <use xlink:href="#SimHei-7ad9" x="1150"/>
     </g>
    </g>
   </g>
  </g>
 </g>
 <defs>
  <clipPath id="p1342684c31">
   <rect x="72" y="34.56" width="446.4" height="221.76"/>
  </clipPath>
 </defs>
</svg>
