<?xml version="1.0" encoding="utf-8" standalone="no"?>
<!DOCTYPE svg PUBLIC "-//W3C//DTD SVG 1.1//EN"
  "http://www.w3.org/Graphics/SVG/1.1/DTD/svg11.dtd">
<svg xmlns:xlink="http://www.w3.org/1999/xlink" width="576pt" height="288pt" viewBox="0 0 576 288" xmlns="http://www.w3.org/2000/svg" version="1.1">
 <metadata>
  <rdf:RDF xmlns:dc="http://purl.org/dc/elements/1.1/" xmlns:cc="http://creativecommons.org/ns#" xmlns:rdf="http://www.w3.org/1999/02/22-rdf-syntax-ns#">
   <cc:Work>
    <dc:type rdf:resource="http://purl.org/dc/dcmitype/StillImage"/>
    <dc:date>2025-04-29T14:07:12.925905</dc:date>
    <dc:format>image/svg+xml</dc:format>
    <dc:creator>
     <cc:Agent>
      <dc:title>Matplotlib v3.9.2, https://matplotlib.org/</dc:title>
     </cc:Agent>
    </dc:creator>
   </cc:Work>
  </rdf:RDF>
 </metadata>
 <defs>
  <style type="text/css">*{stroke-linejoin: round; stroke-linecap: butt}</style>
 </defs>
 <g id="figure_1">
  <g id="patch_1">
   <path d="M 0 288 
L 576 288 
L 576 0 
L 0 0 
z
" style="fill: #ffffff"/>
  </g>
  <g id="axes_1">
   <g id="patch_2">
    <path d="M 72 256.32 
L 518.4 256.32 
L 518.4 34.56 
L 72 34.56 
z
" style="fill: #ffffff"/>
   </g>
   <g id="patch_3">
    <path d="M 83.16 256.32 
L 83.16 256.32 
L 83.16 256.32 
L 83.16 256.32 
z
" clip-path="url(#p9041c90f41)" style="fill: #3274a1; stroke: #3f3f3f; stroke-linejoin: miter"/>
   </g>
   <g id="patch_4">
    <path d="M 83.16 256.32 
L 83.16 256.32 
L 83.16 256.32 
L 83.16 256.32 
z
" clip-path="url(#p9041c90f41)" style="fill: #e1812c; stroke: #3f3f3f; stroke-linejoin: miter"/>
   </g>
   <g id="matplotlib.axis_1">
    <g id="xtick_1">
     <g id="line2d_1">
      <defs>
       <path id="m8a688bd098" d="M 0 0 
L 0 3.5 
" style="stroke: #000000; stroke-width: 0.8"/>
      </defs>
      <g>
       <use xlink:href="#m8a688bd098" x="83.16" y="256.32" style="stroke: #000000; stroke-width: 0.8"/>
      </g>
     </g>
     <g id="text_1">
      <!-- 4 -->
      <g transform="translate(80.66 270.195) scale(0.1 -0.1)">
       <defs>
        <path id="SimHei-34" d="M 2000 1100 
L 75 1100 
L 75 1525 
L 2100 4450 
L 2475 4450 
L 2475 1525 
L 3075 1525 
L 3075 1100 
L 2475 1100 
L 2475 150 
L 2000 150 
L 2000 1100 
z
M 2000 1525 
L 2000 3500 
L 600 1525 
L 2000 1525 
z
" transform="scale(0.015625)"/>
       </defs>
       <use xlink:href="#SimHei-34"/>
      </g>
     </g>
    </g>
    <g id="xtick_2">
     <g id="line2d_2">
      <g>
       <use xlink:href="#m8a688bd098" x="105.48" y="256.32" style="stroke: #000000; stroke-width: 0.8"/>
      </g>
     </g>
     <g id="text_2">
      <!-- 5 -->
      <g transform="translate(102.98 270.195) scale(0.1 -0.1)">
       <defs>
        <path id="SimHei-35" d="M 550 1325 
Q 725 650 1150 575 
Q 1575 500 1837 662 
Q 2100 825 2212 1087 
Q 2325 1350 2312 1675 
Q 2300 2000 2137 2225 
Q 1975 2450 1725 2525 
Q 1475 2600 1162 2525 
Q 850 2450 650 2175 
L 225 2225 
Q 275 2375 700 4375 
L 2675 4375 
L 2675 3925 
L 1075 3925 
Q 950 3250 825 2850 
Q 1200 3025 1525 3012 
Q 1850 3000 2150 2862 
Q 2450 2725 2587 2487 
Q 2725 2250 2787 2012 
Q 2850 1775 2837 1500 
Q 2825 1225 2725 937 
Q 2625 650 2425 462 
Q 2225 275 1937 162 
Q 1650 50 1275 75 
Q 900 100 562 350 
Q 225 600 100 1200 
L 550 1325 
z
" transform="scale(0.015625)"/>
       </defs>
       <use xlink:href="#SimHei-35"/>
      </g>
     </g>
    </g>
    <g id="xtick_3">
     <g id="line2d_3">
      <g>
       <use xlink:href="#m8a688bd098" x="127.8" y="256.32" style="stroke: #000000; stroke-width: 0.8"/>
      </g>
     </g>
     <g id="text_3">
      <!-- 6 -->
      <g transform="translate(125.3 270.195) scale(0.1 -0.1)">
       <defs>
        <path id="SimHei-36" d="M 250 1612 
Q 275 1975 387 2225 
Q 500 2475 725 2850 
L 1750 4450 
L 2325 4450 
L 1275 2800 
Q 1950 2975 2350 2750 
Q 2750 2525 2887 2237 
Q 3025 1950 3037 1612 
Q 3050 1275 2937 950 
Q 2825 625 2537 362 
Q 2250 100 1737 75 
Q 1225 50 862 262 
Q 500 475 362 862 
Q 225 1250 250 1612 
z
M 1025 787 
Q 1250 550 1625 525 
Q 2000 500 2250 775 
Q 2500 1050 2500 1575 
Q 2500 2100 2187 2300 
Q 1875 2500 1487 2450 
Q 1100 2400 925 2075 
Q 750 1750 775 1387 
Q 800 1025 1025 787 
z
" transform="scale(0.015625)"/>
       </defs>
       <use xlink:href="#SimHei-36"/>
      </g>
     </g>
    </g>
    <g id="xtick_4">
     <g id="line2d_4">
      <g>
       <use xlink:href="#m8a688bd098" x="150.12" y="256.32" style="stroke: #000000; stroke-width: 0.8"/>
      </g>
     </g>
     <g id="text_4">
      <!-- 7 -->
      <g transform="translate(147.62 270.195) scale(0.1 -0.1)">
       <defs>
        <path id="SimHei-37" d="M 850 150 
Q 1300 2050 2425 3925 
L 275 3925 
L 275 4375 
L 2950 4375 
L 2950 3950 
Q 1775 2050 1400 150 
L 850 150 
z
" transform="scale(0.015625)"/>
       </defs>
       <use xlink:href="#SimHei-37"/>
      </g>
     </g>
    </g>
    <g id="xtick_5">
     <g id="line2d_5">
      <g>
       <use xlink:href="#m8a688bd098" x="172.44" y="256.32" style="stroke: #000000; stroke-width: 0.8"/>
      </g>
     </g>
     <g id="text_5">
      <!-- 8 -->
      <g transform="translate(169.94 270.195) scale(0.1 -0.1)">
       <defs>
        <path id="SimHei-38" d="M 175 1375 
Q 175 1675 325 1962 
Q 475 2250 825 2425 
Q 525 2600 425 2812 
Q 325 3025 312 3300 
Q 300 3575 387 3775 
Q 475 3975 650 4150 
Q 825 4325 1037 4387 
Q 1250 4450 1500 4450 
Q 1750 4450 1950 4400 
Q 2150 4350 2375 4187 
Q 2600 4025 2700 3725 
Q 2800 3425 2687 3025 
Q 2575 2625 2100 2400 
Q 2525 2275 2700 2012 
Q 2875 1750 2875 1375 
Q 2875 1000 2762 775 
Q 2650 550 2512 400 
Q 2375 250 2137 162 
Q 1900 75 1537 75 
Q 1175 75 912 162 
Q 650 250 475 425 
Q 300 600 237 837 
Q 175 1075 175 1375 
z
M 687 1400 
Q 675 1100 787 875 
Q 900 650 1200 587 
Q 1500 525 1825 600 
Q 2150 675 2275 950 
Q 2400 1225 2362 1500 
Q 2325 1775 2050 1962 
Q 1775 2150 1450 2125 
Q 1125 2100 912 1900 
Q 700 1700 687 1400 
z
M 775 3350 
Q 775 3100 950 2875 
Q 1125 2650 1500 2650 
Q 1875 2650 2062 2875 
Q 2250 3100 2237 3412 
Q 2225 3725 2012 3875 
Q 1800 4025 1437 4000 
Q 1075 3975 925 3787 
Q 775 3600 775 3350 
z
" transform="scale(0.015625)"/>
       </defs>
       <use xlink:href="#SimHei-38"/>
      </g>
     </g>
    </g>
    <g id="xtick_6">
     <g id="line2d_6">
      <g>
       <use xlink:href="#m8a688bd098" x="194.76" y="256.32" style="stroke: #000000; stroke-width: 0.8"/>
      </g>
     </g>
     <g id="text_6">
      <!-- 9 -->
      <g transform="translate(192.26 270.195) scale(0.1 -0.1)">
       <defs>
        <path id="SimHei-39" d="M 800 75 
Q 1350 1000 1700 1750 
Q 1075 1650 662 1912 
Q 250 2175 162 2625 
Q 75 3075 175 3437 
Q 275 3800 487 4037 
Q 700 4275 1000 4375 
Q 1300 4475 1537 4475 
Q 1775 4475 2025 4375 
Q 2275 4275 2475 4075 
Q 2675 3875 2750 3662 
Q 2825 3450 2825 3112 
Q 2825 2775 2575 2250 
Q 2325 1725 1350 75 
L 800 75 
z
M 662 2875 
Q 700 2550 937 2337 
Q 1175 2125 1450 2150 
Q 1725 2175 1887 2300 
Q 2050 2425 2200 2725 
Q 2300 3100 2250 3362 
Q 2200 3625 1987 3800 
Q 1775 3975 1525 3975 
Q 1375 4000 1137 3900 
Q 900 3800 762 3500 
Q 625 3200 662 2875 
z
" transform="scale(0.015625)"/>
       </defs>
       <use xlink:href="#SimHei-39"/>
      </g>
     </g>
    </g>
    <g id="xtick_7">
     <g id="line2d_7">
      <g>
       <use xlink:href="#m8a688bd098" x="217.08" y="256.32" style="stroke: #000000; stroke-width: 0.8"/>
      </g>
     </g>
     <g id="text_7">
      <!-- 10 -->
      <g transform="translate(212.08 270.195) scale(0.1 -0.1)">
       <defs>
        <path id="SimHei-31" d="M 1400 3600 
Q 1075 3275 575 2975 
L 575 3450 
Q 1200 3875 1600 4450 
L 1900 4450 
L 1900 150 
L 1400 150 
L 1400 3600 
z
" transform="scale(0.015625)"/>
        <path id="SimHei-30" d="M 225 2537 
Q 250 3200 412 3587 
Q 575 3975 875 4225 
Q 1175 4475 1612 4475 
Q 2050 4475 2375 4112 
Q 2700 3750 2800 3200 
Q 2900 2650 2862 1937 
Q 2825 1225 2612 775 
Q 2400 325 1975 150 
Q 1550 -25 1125 187 
Q 700 400 525 750 
Q 350 1100 275 1487 
Q 200 1875 225 2537 
z
M 750 2687 
Q 675 2000 800 1462 
Q 925 925 1212 700 
Q 1500 475 1800 612 
Q 2100 750 2237 1162 
Q 2375 1575 2375 2062 
Q 2375 2550 2337 2950 
Q 2300 3350 2112 3675 
Q 1925 4000 1612 4012 
Q 1300 4025 1062 3700 
Q 825 3375 750 2687 
z
" transform="scale(0.015625)"/>
       </defs>
       <use xlink:href="#SimHei-31"/>
       <use xlink:href="#SimHei-30" x="50"/>
      </g>
     </g>
    </g>
    <g id="xtick_8">
     <g id="line2d_8">
      <g>
       <use xlink:href="#m8a688bd098" x="239.4" y="256.32" style="stroke: #000000; stroke-width: 0.8"/>
      </g>
     </g>
     <g id="text_8">
      <!-- 11 -->
      <g transform="translate(234.4 270.195) scale(0.1 -0.1)">
       <use xlink:href="#SimHei-31"/>
       <use xlink:href="#SimHei-31" x="50"/>
      </g>
     </g>
    </g>
    <g id="xtick_9">
     <g id="line2d_9">
      <g>
       <use xlink:href="#m8a688bd098" x="261.72" y="256.32" style="stroke: #000000; stroke-width: 0.8"/>
      </g>
     </g>
     <g id="text_9">
      <!-- 12 -->
      <g transform="translate(256.72 270.195) scale(0.1 -0.1)">
       <defs>
        <path id="SimHei-32" d="M 300 250 
Q 325 625 650 925 
Q 975 1225 1475 1862 
Q 1975 2500 2125 2850 
Q 2275 3200 2237 3450 
Q 2200 3700 2000 3862 
Q 1800 4025 1537 4000 
Q 1275 3975 1037 3800 
Q 800 3625 675 3275 
L 200 3350 
Q 400 3925 712 4187 
Q 1025 4450 1450 4475 
Q 1700 4500 1900 4462 
Q 2100 4425 2312 4287 
Q 2525 4150 2662 3875 
Q 2800 3600 2762 3212 
Q 2725 2825 2375 2287 
Q 2025 1750 1025 600 
L 2825 600 
L 2825 150 
L 300 150 
L 300 250 
z
" transform="scale(0.015625)"/>
       </defs>
       <use xlink:href="#SimHei-31"/>
       <use xlink:href="#SimHei-32" x="50"/>
      </g>
     </g>
    </g>
    <g id="xtick_10">
     <g id="line2d_10">
      <g>
       <use xlink:href="#m8a688bd098" x="284.04" y="256.32" style="stroke: #000000; stroke-width: 0.8"/>
      </g>
     </g>
     <g id="text_10">
      <!-- 13 -->
      <g transform="translate(279.04 270.195) scale(0.1 -0.1)">
       <defs>
        <path id="SimHei-33" d="M 250 1225 
L 700 1300 
Q 800 975 1025 762 
Q 1250 550 1587 562 
Q 1925 575 2125 837 
Q 2325 1100 2300 1437 
Q 2275 1775 2037 1962 
Q 1800 2150 1275 2225 
L 1275 2550 
Q 1800 2600 2037 2825 
Q 2275 3050 2250 3412 
Q 2225 3775 1925 3937 
Q 1625 4100 1287 3975 
Q 950 3850 750 3275 
L 300 3350 
Q 450 3800 712 4100 
Q 975 4400 1425 4450 
Q 1875 4500 2212 4337 
Q 2550 4175 2687 3837 
Q 2825 3500 2725 3100 
Q 2625 2700 2150 2400 
Q 2500 2250 2687 1950 
Q 2875 1650 2812 1162 
Q 2750 675 2375 375 
Q 2000 75 1525 87 
Q 1050 100 700 387 
Q 350 675 250 1225 
z
" transform="scale(0.015625)"/>
       </defs>
       <use xlink:href="#SimHei-31"/>
       <use xlink:href="#SimHei-33" x="50"/>
      </g>
     </g>
    </g>
    <g id="xtick_11">
     <g id="line2d_11">
      <g>
       <use xlink:href="#m8a688bd098" x="306.36" y="256.32" style="stroke: #000000; stroke-width: 0.8"/>
      </g>
     </g>
     <g id="text_11">
      <!-- 14 -->
      <g transform="translate(301.36 270.195) scale(0.1 -0.1)">
       <use xlink:href="#SimHei-31"/>
       <use xlink:href="#SimHei-34" x="50"/>
      </g>
     </g>
    </g>
    <g id="xtick_12">
     <g id="line2d_12">
      <g>
       <use xlink:href="#m8a688bd098" x="328.68" y="256.32" style="stroke: #000000; stroke-width: 0.8"/>
      </g>
     </g>
     <g id="text_12">
      <!-- 15 -->
      <g transform="translate(323.68 270.195) scale(0.1 -0.1)">
       <use xlink:href="#SimHei-31"/>
       <use xlink:href="#SimHei-35" x="50"/>
      </g>
     </g>
    </g>
    <g id="xtick_13">
     <g id="line2d_13">
      <g>
       <use xlink:href="#m8a688bd098" x="351" y="256.32" style="stroke: #000000; stroke-width: 0.8"/>
      </g>
     </g>
     <g id="text_13">
      <!-- 16 -->
      <g transform="translate(346 270.195) scale(0.1 -0.1)">
       <use xlink:href="#SimHei-31"/>
       <use xlink:href="#SimHei-36" x="50"/>
      </g>
     </g>
    </g>
    <g id="xtick_14">
     <g id="line2d_14">
      <g>
       <use xlink:href="#m8a688bd098" x="373.32" y="256.32" style="stroke: #000000; stroke-width: 0.8"/>
      </g>
     </g>
     <g id="text_14">
      <!-- 17 -->
      <g transform="translate(368.32 270.195) scale(0.1 -0.1)">
       <use xlink:href="#SimHei-31"/>
       <use xlink:href="#SimHei-37" x="50"/>
      </g>
     </g>
    </g>
    <g id="xtick_15">
     <g id="line2d_15">
      <g>
       <use xlink:href="#m8a688bd098" x="395.64" y="256.32" style="stroke: #000000; stroke-width: 0.8"/>
      </g>
     </g>
     <g id="text_15">
      <!-- 18 -->
      <g transform="translate(390.64 270.195) scale(0.1 -0.1)">
       <use xlink:href="#SimHei-31"/>
       <use xlink:href="#SimHei-38" x="50"/>
      </g>
     </g>
    </g>
    <g id="xtick_16">
     <g id="line2d_16">
      <g>
       <use xlink:href="#m8a688bd098" x="417.96" y="256.32" style="stroke: #000000; stroke-width: 0.8"/>
      </g>
     </g>
     <g id="text_16">
      <!-- 19 -->
      <g transform="translate(412.96 270.195) scale(0.1 -0.1)">
       <use xlink:href="#SimHei-31"/>
       <use xlink:href="#SimHei-39" x="50"/>
      </g>
     </g>
    </g>
    <g id="xtick_17">
     <g id="line2d_17">
      <g>
       <use xlink:href="#m8a688bd098" x="440.28" y="256.32" style="stroke: #000000; stroke-width: 0.8"/>
      </g>
     </g>
     <g id="text_17">
      <!-- 20 -->
      <g transform="translate(435.28 270.195) scale(0.1 -0.1)">
       <use xlink:href="#SimHei-32"/>
       <use xlink:href="#SimHei-30" x="50"/>
      </g>
     </g>
    </g>
    <g id="xtick_18">
     <g id="line2d_18">
      <g>
       <use xlink:href="#m8a688bd098" x="462.6" y="256.32" style="stroke: #000000; stroke-width: 0.8"/>
      </g>
     </g>
     <g id="text_18">
      <!-- 21 -->
      <g transform="translate(457.6 270.195) scale(0.1 -0.1)">
       <use xlink:href="#SimHei-32"/>
       <use xlink:href="#SimHei-31" x="50"/>
      </g>
     </g>
    </g>
    <g id="xtick_19">
     <g id="line2d_19">
      <g>
       <use xlink:href="#m8a688bd098" x="484.92" y="256.32" style="stroke: #000000; stroke-width: 0.8"/>
      </g>
     </g>
     <g id="text_19">
      <!-- 22 -->
      <g transform="translate(479.92 270.195) scale(0.1 -0.1)">
       <use xlink:href="#SimHei-32"/>
       <use xlink:href="#SimHei-32" x="50"/>
      </g>
     </g>
    </g>
    <g id="xtick_20">
     <g id="line2d_20">
      <g>
       <use xlink:href="#m8a688bd098" x="507.24" y="256.32" style="stroke: #000000; stroke-width: 0.8"/>
      </g>
     </g>
     <g id="text_20">
      <!-- 23 -->
      <g transform="translate(502.24 270.195) scale(0.1 -0.1)">
       <use xlink:href="#SimHei-32"/>
       <use xlink:href="#SimHei-33" x="50"/>
      </g>
     </g>
    </g>
    <g id="text_21">
     <!-- 小时 -->
     <g transform="translate(285.2 283.296562) scale(0.1 -0.1)">
      <defs>
       <path id="SimHei-5c0f" d="M 3500 5150 
Q 3475 4800 3475 4200 
L 3475 175 
Q 3475 -300 3225 -425 
Q 2975 -550 2375 -600 
Q 2325 -300 2150 -25 
Q 2700 -25 2837 0 
Q 2975 25 2975 300 
L 2975 4200 
Q 2975 4650 2950 5150 
L 3500 5150 
z
M 2075 3400 
Q 1850 2775 1550 1962 
Q 1250 1150 1025 750 
Q 775 950 500 1000 
Q 925 1750 1175 2487 
Q 1425 3225 1500 3575 
Q 1800 3425 2075 3400 
z
M 4675 3600 
Q 5675 1800 5875 1150 
Q 5625 1100 5375 925 
Q 5000 2000 4225 3325 
Q 4425 3425 4675 3600 
z
" transform="scale(0.015625)"/>
       <path id="SimHei-65f6" d="M 2525 4575 
Q 2500 3675 2500 2400 
Q 2500 1125 2525 400 
L 2000 400 
L 2000 875 
L 1000 875 
L 1000 50 
L 475 50 
Q 500 1200 500 2350 
Q 500 3525 475 4575 
L 2525 4575 
z
M 4875 3825 
Q 4875 4575 4850 5225 
L 5400 5225 
Q 5375 4575 5375 3825 
Q 5750 3825 6175 3850 
L 6175 3375 
Q 5750 3400 5375 3400 
L 5375 50 
Q 5375 -325 5075 -425 
Q 4775 -525 4300 -575 
Q 4300 -275 4025 0 
Q 4500 -50 4687 -25 
Q 4875 0 4875 300 
L 4875 3400 
Q 3625 3400 2775 3375 
L 2775 3850 
Q 3575 3825 4875 3825 
z
M 2000 1300 
L 2000 2550 
L 1000 2550 
L 1000 1300 
L 2000 1300 
z
M 2000 2975 
L 2000 4150 
L 1000 4150 
L 1000 2975 
L 2000 2975 
z
M 3550 2725 
Q 3875 2200 4175 1600 
Q 3925 1525 3650 1375 
Q 3450 1975 3075 2500 
Q 3300 2600 3550 2725 
z
" transform="scale(0.015625)"/>
      </defs>
      <use xlink:href="#SimHei-5c0f"/>
      <use xlink:href="#SimHei-65f6" x="100"/>
     </g>
    </g>
   </g>
   <g id="matplotlib.axis_2">
    <g id="ytick_1">
     <g id="line2d_21">
      <defs>
       <path id="m2038feed3b" d="M 0 0 
L -3.5 0 
" style="stroke: #000000; stroke-width: 0.8"/>
      </defs>
      <g>
       <use xlink:href="#m2038feed3b" x="72" y="256.32" style="stroke: #000000; stroke-width: 0.8"/>
      </g>
     </g>
     <g id="text_22">
      <!-- 0 -->
      <g transform="translate(60 259.7575) scale(0.1 -0.1)">
       <use xlink:href="#SimHei-30"/>
      </g>
     </g>
    </g>
    <g id="ytick_2">
     <g id="line2d_22">
      <g>
       <use xlink:href="#m2038feed3b" x="72" y="225.70764" style="stroke: #000000; stroke-width: 0.8"/>
      </g>
     </g>
     <g id="text_23">
      <!-- 5 -->
      <g transform="translate(60 229.14514) scale(0.1 -0.1)">
       <use xlink:href="#SimHei-35"/>
      </g>
     </g>
    </g>
    <g id="ytick_3">
     <g id="line2d_23">
      <g>
       <use xlink:href="#m2038feed3b" x="72" y="195.09528" style="stroke: #000000; stroke-width: 0.8"/>
      </g>
     </g>
     <g id="text_24">
      <!-- 10 -->
      <g transform="translate(55 198.53278) scale(0.1 -0.1)">
       <use xlink:href="#SimHei-31"/>
       <use xlink:href="#SimHei-30" x="50"/>
      </g>
     </g>
    </g>
    <g id="ytick_4">
     <g id="line2d_24">
      <g>
       <use xlink:href="#m2038feed3b" x="72" y="164.482921" style="stroke: #000000; stroke-width: 0.8"/>
      </g>
     </g>
     <g id="text_25">
      <!-- 15 -->
      <g transform="translate(55 167.920421) scale(0.1 -0.1)">
       <use xlink:href="#SimHei-31"/>
       <use xlink:href="#SimHei-35" x="50"/>
      </g>
     </g>
    </g>
    <g id="ytick_5">
     <g id="line2d_25">
      <g>
       <use xlink:href="#m2038feed3b" x="72" y="133.870561" style="stroke: #000000; stroke-width: 0.8"/>
      </g>
     </g>
     <g id="text_26">
      <!-- 20 -->
      <g transform="translate(55 137.308061) scale(0.1 -0.1)">
       <use xlink:href="#SimHei-32"/>
       <use xlink:href="#SimHei-30" x="50"/>
      </g>
     </g>
    </g>
    <g id="ytick_6">
     <g id="line2d_26">
      <g>
       <use xlink:href="#m2038feed3b" x="72" y="103.258201" style="stroke: #000000; stroke-width: 0.8"/>
      </g>
     </g>
     <g id="text_27">
      <!-- 25 -->
      <g transform="translate(55 106.695701) scale(0.1 -0.1)">
       <use xlink:href="#SimHei-32"/>
       <use xlink:href="#SimHei-35" x="50"/>
      </g>
     </g>
    </g>
    <g id="ytick_7">
     <g id="line2d_27">
      <g>
       <use xlink:href="#m2038feed3b" x="72" y="72.645841" style="stroke: #000000; stroke-width: 0.8"/>
      </g>
     </g>
     <g id="text_28">
      <!-- 30 -->
      <g transform="translate(55 76.083341) scale(0.1 -0.1)">
       <use xlink:href="#SimHei-33"/>
       <use xlink:href="#SimHei-30" x="50"/>
      </g>
     </g>
    </g>
    <g id="ytick_8">
     <g id="line2d_28">
      <g>
       <use xlink:href="#m2038feed3b" x="72" y="42.033482" style="stroke: #000000; stroke-width: 0.8"/>
      </g>
     </g>
     <g id="text_29">
      <!-- 35 -->
      <g transform="translate(55 45.470982) scale(0.1 -0.1)">
       <use xlink:href="#SimHei-33"/>
       <use xlink:href="#SimHei-35" x="50"/>
      </g>
     </g>
    </g>
    <g id="text_30">
     <!-- 运营速度（km/h） -->
     <g transform="translate(49.75 185.44) rotate(-90) scale(0.1 -0.1)">
      <defs>
       <path id="SimHei-8fd0" d="M 5050 1075 
Q 3750 925 3275 862 
Q 2800 800 2625 700 
L 2375 1225 
Q 2625 1325 2900 1775 
Q 3175 2225 3325 2925 
Q 2475 2925 2025 2900 
L 2025 3375 
Q 2500 3350 3950 3350 
Q 5400 3350 5825 3375 
L 5825 2900 
Q 5400 2925 3875 2925 
Q 3800 2650 3587 2200 
Q 3375 1750 3075 1275 
Q 4000 1350 4850 1425 
Q 4675 1750 4350 2150 
Q 4550 2250 4725 2425 
Q 5200 1825 5750 925 
Q 5525 800 5300 650 
Q 5175 875 5050 1075 
z
M 325 0 
Q 1100 500 1350 600 
L 1350 2600 
Q 900 2600 475 2575 
L 475 3050 
Q 950 3025 1400 3025 
L 1825 3025 
Q 1800 2550 1800 2275 
L 1800 700 
Q 2325 50 3787 37 
Q 5250 25 6050 150 
Q 5875 -175 5825 -450 
L 4200 -450 
Q 3550 -450 3112 -387 
Q 2675 -325 2375 -212 
Q 2075 -100 1825 112 
Q 1575 325 1237 25 
Q 900 -275 725 -475 
Q 550 -275 325 0 
z
M 5400 4275 
Q 4925 4300 3975 4300 
Q 3050 4300 2525 4275 
L 2525 4750 
Q 2975 4725 3950 4725 
Q 4925 4725 5400 4750 
L 5400 4275 
z
M 1475 3775 
Q 1175 4275 725 4725 
L 1075 5025 
Q 1725 4325 1875 4075 
L 1475 3775 
z
" transform="scale(0.015625)"/>
       <path id="SimHei-8425" d="M 5375 1050 
Q 5325 650 5325 275 
Q 5325 -100 5375 -550 
L 4825 -550 
L 4825 -275 
L 1650 -275 
L 1650 -625 
L 1150 -625 
Q 1175 -250 1175 200 
Q 1175 675 1150 1050 
L 5375 1050 
z
M 4850 2700 
Q 4825 2400 4825 2050 
Q 4825 1725 4850 1400 
L 1575 1400 
Q 1600 1725 1600 2050 
Q 1600 2400 1575 2700 
L 4850 2700 
z
M 2550 5100 
Q 2525 4800 2525 4550 
L 3900 4550 
Q 3900 4775 3875 5125 
L 4425 5125 
Q 4400 4825 4400 4550 
L 5075 4550 
Q 5550 4550 6025 4575 
L 6025 4150 
Q 5625 4175 5075 4175 
L 4400 4175 
Q 4400 4025 4425 3675 
L 3900 3675 
L 3900 4175 
L 2525 4175 
L 2525 3675 
L 2000 3675 
Q 2025 4000 2025 4175 
L 1425 4175 
Q 925 4175 375 4150 
L 375 4575 
Q 925 4550 1425 4550 
L 2025 4550 
Q 2025 4775 2000 5100 
L 2550 5100 
z
M 5450 2400 
L 5450 3075 
L 975 3075 
L 975 2300 
L 475 2300 
Q 500 2525 500 2800 
Q 500 3100 475 3450 
L 5950 3450 
Q 5925 3200 5925 2925 
Q 5925 2675 5950 2400 
L 5450 2400 
z
M 4825 100 
L 4825 675 
L 1650 675 
L 1650 100 
L 4825 100 
z
M 4375 1775 
L 4375 2325 
L 2025 2325 
L 2025 1775 
L 4375 1775 
z
" transform="scale(0.015625)"/>
       <path id="SimHei-901f" d="M 3725 4600 
Q 3725 4975 3700 5250 
L 4175 5250 
Q 4150 5000 4150 4600 
L 5175 4600 
Q 5550 4600 5925 4625 
L 5925 4175 
Q 5550 4200 5175 4200 
L 4150 4200 
L 4150 3725 
L 5700 3725 
Q 5675 3325 5675 2950 
Q 5675 2575 5700 2200 
L 4150 2200 
Q 4150 725 4175 225 
L 3700 225 
Q 3725 725 3725 1925 
Q 3425 1475 3100 1125 
Q 2775 775 2300 425 
Q 2125 625 1825 775 
Q 2275 950 2712 1387 
Q 3150 1825 3325 2200 
L 2200 2200 
Q 2225 2625 2225 2950 
Q 2225 3300 2200 3725 
L 3725 3725 
L 3725 4200 
L 2675 4200 
Q 2325 4200 1925 4175 
L 1925 4625 
Q 2325 4600 2675 4600 
L 3725 4600 
z
M 1500 2875 
Q 1475 2400 1475 1925 
L 1475 550 
Q 2150 -25 3725 -37 
Q 5300 -50 6200 100 
Q 6025 -175 6000 -525 
Q 3925 -550 3087 -475 
Q 2250 -400 1800 -137 
Q 1350 125 1112 -62 
Q 875 -250 600 -600 
Q 475 -375 200 -200 
Q 475 25 1000 400 
L 1000 2450 
Q 675 2450 275 2425 
L 275 2900 
Q 700 2875 1000 2875 
L 1500 2875 
z
M 4550 2050 
Q 4950 1700 5925 925 
Q 5725 775 5550 550 
Q 5075 1000 4250 1675 
Q 4400 1825 4550 2050 
z
M 3725 2575 
L 3725 3325 
L 2675 3325 
L 2675 2575 
L 3725 2575 
z
M 5200 2575 
L 5200 3325 
L 4150 3325 
L 4150 2575 
L 5200 2575 
z
M 1100 4950 
Q 1425 4350 1600 3850 
Q 1350 3750 1050 3625 
Q 975 4050 650 4800 
Q 900 4850 1100 4950 
z
" transform="scale(0.015625)"/>
       <path id="SimHei-5ea6" d="M 1750 1675 
Q 2450 1650 2875 1650 
L 5200 1650 
Q 4975 1250 4650 850 
Q 4325 450 4025 200 
Q 4350 50 4950 -50 
Q 5550 -150 6100 -150 
Q 5950 -300 5825 -650 
Q 5100 -550 4550 -412 
Q 4000 -275 3625 -100 
Q 3100 -325 2587 -462 
Q 2075 -600 1525 -675 
Q 1450 -475 1225 -250 
Q 1675 -250 2250 -125 
Q 2825 0 3250 200 
Q 2825 550 2400 1275 
L 1750 1250 
L 1750 1675 
z
M 2975 5075 
Q 3250 5150 3475 5250 
Q 3625 4975 3775 4525 
L 4700 4525 
Q 4975 4525 5700 4550 
L 5700 4100 
Q 5000 4125 4650 4125 
L 1375 4125 
Q 1375 3000 1350 2312 
Q 1325 1625 1212 950 
Q 1100 275 725 -525 
Q 500 -375 250 -300 
Q 650 400 762 1075 
Q 875 1750 887 2800 
Q 900 3850 875 4525 
L 3200 4525 
Q 3100 4850 2975 5075 
z
M 2475 3300 
Q 2475 3700 2450 3925 
L 2975 3925 
Q 2950 3725 2950 3300 
L 4300 3300 
Q 4300 3700 4275 3950 
L 4800 3950 
Q 4775 3650 4775 3300 
Q 5325 3300 5725 3325 
L 5725 2900 
Q 5350 2925 4775 2925 
Q 4775 2250 4800 1950 
L 2450 1950 
Q 2475 2350 2475 2925 
Q 2175 2925 1600 2900 
L 1600 3325 
Q 2175 3300 2475 3300 
z
M 4300 2350 
L 4300 2925 
L 2950 2925 
L 2950 2350 
L 4300 2350 
z
M 2875 1275 
Q 3200 775 3650 425 
Q 4025 700 4425 1275 
L 2900 1275 
L 2875 1275 
z
" transform="scale(0.015625)"/>
       <path id="SimHei-ff08" d="M 5425 5100 
L 5700 4775 
Q 4275 3725 4325 2350 
Q 4350 1025 5675 50 
L 5400 -275 
Q 3875 825 3925 2500 
Q 3925 3875 5425 5100 
z
" transform="scale(0.015625)"/>
       <path id="SimHei-6b" d="M 2925 125 
L 2350 125 
L 1450 1650 
L 875 1100 
L 875 125 
L 375 125 
L 375 4400 
L 875 4400 
L 875 1675 
L 2125 2925 
L 2750 2925 
L 1775 1975 
L 2925 125 
z
" transform="scale(0.015625)"/>
       <path id="SimHei-6d" d="M 3050 125 
L 2550 125 
L 2550 2150 
Q 2550 2300 2500 2400 
Q 2450 2500 2300 2500 
Q 2125 2500 1975 2312 
Q 1825 2125 1825 1825 
L 1825 125 
L 1325 125 
L 1325 2150 
Q 1325 2300 1275 2400 
Q 1225 2500 1075 2500 
Q 900 2500 750 2312 
Q 600 2125 600 1825 
L 600 125 
L 100 125 
L 100 2925 
L 600 2925 
L 600 2550 
Q 725 2750 900 2862 
Q 1075 2975 1275 2975 
Q 1475 2975 1612 2862 
Q 1750 2750 1800 2550 
Q 1925 2750 2087 2862 
Q 2250 2975 2450 2975 
Q 2750 2975 2900 2812 
Q 3050 2650 3050 2350 
L 3050 125 
z
" transform="scale(0.015625)"/>
       <path id="SimHei-2f" d="M 3000 4550 
L 350 -175 
L 100 -25 
L 2750 4700 
L 3000 4550 
z
" transform="scale(0.015625)"/>
       <path id="SimHei-68" d="M 2800 125 
L 2300 125 
L 2300 1925 
Q 2300 2225 2150 2400 
Q 2000 2575 1750 2575 
Q 1425 2575 1137 2237 
Q 850 1900 850 1400 
L 850 125 
L 350 125 
L 350 4400 
L 850 4400 
L 850 2400 
Q 1050 2675 1287 2825 
Q 1525 2975 1900 2975 
Q 2350 2975 2575 2725 
Q 2800 2475 2800 2100 
L 2800 125 
z
" transform="scale(0.015625)"/>
       <path id="SimHei-ff09" d="M 1000 5100 
Q 2500 3875 2500 2500 
Q 2550 825 1025 -275 
L 750 50 
Q 2075 1025 2100 2350 
Q 2150 3725 725 4775 
L 1000 5100 
z
" transform="scale(0.015625)"/>
      </defs>
      <use xlink:href="#SimHei-8fd0"/>
      <use xlink:href="#SimHei-8425" x="100"/>
      <use xlink:href="#SimHei-901f" x="200"/>
      <use xlink:href="#SimHei-5ea6" x="300"/>
      <use xlink:href="#SimHei-ff08" x="400"/>
      <use xlink:href="#SimHei-6b" x="500"/>
      <use xlink:href="#SimHei-6d" x="550"/>
      <use xlink:href="#SimHei-2f" x="600"/>
      <use xlink:href="#SimHei-68" x="650"/>
      <use xlink:href="#SimHei-ff09" x="700"/>
     </g>
    </g>
   </g>
   <g id="patch_5">
    <path d="M 74.232 137.583986 
L 83.16 137.583986 
L 83.16 133.749726 
L 74.232 133.749726 
L 74.232 137.583986 
z
" clip-path="url(#p9041c90f41)" style="fill: #3274a1; stroke: #3f3f3f; stroke-linejoin: miter"/>
   </g>
   <g id="line2d_29">
    <path d="M 78.696 137.583986 
L 78.696 138.564675 
" clip-path="url(#p9041c90f41)" style="fill: none; stroke: #3f3f3f"/>
   </g>
   <g id="line2d_30">
    <path d="M 78.696 133.749726 
L 78.696 133.749726 
" clip-path="url(#p9041c90f41)" style="fill: none; stroke: #3f3f3f"/>
   </g>
   <g id="line2d_31">
    <path d="M 76.464 138.564675 
L 80.928 138.564675 
" clip-path="url(#p9041c90f41)" style="fill: none; stroke: #3f3f3f; stroke-linecap: square"/>
   </g>
   <g id="line2d_32">
    <path d="M 76.464 133.749726 
L 80.928 133.749726 
" clip-path="url(#p9041c90f41)" style="fill: none; stroke: #3f3f3f; stroke-linecap: square"/>
   </g>
   <g id="line2d_33">
    <defs>
     <path id="m017b9978aa" d="M 0 3 
C 0.795609 3 1.55874 2.683901 2.12132 2.12132 
C 2.683901 1.55874 3 0.795609 3 0 
C 3 -0.795609 2.683901 -1.55874 2.12132 -2.12132 
C 1.55874 -2.683901 0.795609 -3 0 -3 
C -0.795609 -3 -1.55874 -2.683901 -2.12132 -2.12132 
C -2.683901 -1.55874 -3 -0.795609 -3 0 
C -3 0.795609 -2.683901 1.55874 -2.12132 2.12132 
C -1.55874 2.683901 -0.795609 3 0 3 
z
" style="stroke: #3f3f3f"/>
    </defs>
    <g clip-path="url(#p9041c90f41)">
     <use xlink:href="#m017b9978aa" x="78.696" y="124.443692" style="fill-opacity: 0; stroke: #3f3f3f"/>
    </g>
   </g>
   <g id="patch_6">
    <path d="M 96.552 144.344462 
L 105.48 144.344462 
L 105.48 134.584166 
L 96.552 134.584166 
L 96.552 144.344462 
z
" clip-path="url(#p9041c90f41)" style="fill: #3274a1; stroke: #3f3f3f; stroke-linejoin: miter"/>
   </g>
   <g id="line2d_34">
    <path d="M 101.016 144.344462 
L 101.016 146.002208 
" clip-path="url(#p9041c90f41)" style="fill: none; stroke: #3f3f3f"/>
   </g>
   <g id="line2d_35">
    <path d="M 101.016 134.584166 
L 101.016 131.602082 
" clip-path="url(#p9041c90f41)" style="fill: none; stroke: #3f3f3f"/>
   </g>
   <g id="line2d_36">
    <path d="M 98.784 146.002208 
L 103.248 146.002208 
" clip-path="url(#p9041c90f41)" style="fill: none; stroke: #3f3f3f; stroke-linecap: square"/>
   </g>
   <g id="line2d_37">
    <path d="M 98.784 131.602082 
L 103.248 131.602082 
" clip-path="url(#p9041c90f41)" style="fill: none; stroke: #3f3f3f; stroke-linecap: square"/>
   </g>
   <g id="line2d_38"/>
   <g id="patch_7">
    <path d="M 118.872 147.464297 
L 127.8 147.464297 
L 127.8 143.453816 
L 118.872 143.453816 
L 118.872 147.464297 
z
" clip-path="url(#p9041c90f41)" style="fill: #3274a1; stroke: #3f3f3f; stroke-linejoin: miter"/>
   </g>
   <g id="line2d_39">
    <path d="M 123.336 147.464297 
L 123.336 149.334979 
" clip-path="url(#p9041c90f41)" style="fill: none; stroke: #3f3f3f"/>
   </g>
   <g id="line2d_40">
    <path d="M 123.336 143.453816 
L 123.336 138.492785 
" clip-path="url(#p9041c90f41)" style="fill: none; stroke: #3f3f3f"/>
   </g>
   <g id="line2d_41">
    <path d="M 121.104 149.334979 
L 125.568 149.334979 
" clip-path="url(#p9041c90f41)" style="fill: none; stroke: #3f3f3f; stroke-linecap: square"/>
   </g>
   <g id="line2d_42">
    <path d="M 121.104 138.492785 
L 125.568 138.492785 
" clip-path="url(#p9041c90f41)" style="fill: none; stroke: #3f3f3f; stroke-linecap: square"/>
   </g>
   <g id="line2d_43"/>
   <g id="patch_8">
    <path d="M 141.192 152.882716 
L 150.12 152.882716 
L 150.12 145.2788 
L 141.192 145.2788 
L 141.192 152.882716 
z
" clip-path="url(#p9041c90f41)" style="fill: #3274a1; stroke: #3f3f3f; stroke-linejoin: miter"/>
   </g>
   <g id="line2d_44">
    <path d="M 145.656 152.882716 
L 145.656 156.886215 
" clip-path="url(#p9041c90f41)" style="fill: none; stroke: #3f3f3f"/>
   </g>
   <g id="line2d_45">
    <path d="M 145.656 145.2788 
L 145.656 142.589312 
" clip-path="url(#p9041c90f41)" style="fill: none; stroke: #3f3f3f"/>
   </g>
   <g id="line2d_46">
    <path d="M 143.424 156.886215 
L 147.888 156.886215 
" clip-path="url(#p9041c90f41)" style="fill: none; stroke: #3f3f3f; stroke-linecap: square"/>
   </g>
   <g id="line2d_47">
    <path d="M 143.424 142.589312 
L 147.888 142.589312 
" clip-path="url(#p9041c90f41)" style="fill: none; stroke: #3f3f3f; stroke-linecap: square"/>
   </g>
   <g id="line2d_48"/>
   <g id="patch_9">
    <path d="M 163.512 149.833743 
L 172.44 149.833743 
L 172.44 145.864328 
L 163.512 145.864328 
L 163.512 149.833743 
z
" clip-path="url(#p9041c90f41)" style="fill: #3274a1; stroke: #3f3f3f; stroke-linejoin: miter"/>
   </g>
   <g id="line2d_49">
    <path d="M 167.976 149.833743 
L 167.976 151.966944 
" clip-path="url(#p9041c90f41)" style="fill: none; stroke: #3f3f3f"/>
   </g>
   <g id="line2d_50">
    <path d="M 167.976 145.864328 
L 167.976 142.016786 
" clip-path="url(#p9041c90f41)" style="fill: none; stroke: #3f3f3f"/>
   </g>
   <g id="line2d_51">
    <path d="M 165.744 151.966944 
L 170.208 151.966944 
" clip-path="url(#p9041c90f41)" style="fill: none; stroke: #3f3f3f; stroke-linecap: square"/>
   </g>
   <g id="line2d_52">
    <path d="M 165.744 142.016786 
L 170.208 142.016786 
" clip-path="url(#p9041c90f41)" style="fill: none; stroke: #3f3f3f; stroke-linecap: square"/>
   </g>
   <g id="line2d_53"/>
   <g id="patch_10">
    <path d="M 185.832 153.219979 
L 194.76 153.219979 
L 194.76 147.182959 
L 185.832 147.182959 
L 185.832 153.219979 
z
" clip-path="url(#p9041c90f41)" style="fill: #3274a1; stroke: #3f3f3f; stroke-linejoin: miter"/>
   </g>
   <g id="line2d_54">
    <path d="M 190.296 153.219979 
L 190.296 156.29358 
" clip-path="url(#p9041c90f41)" style="fill: none; stroke: #3f3f3f"/>
   </g>
   <g id="line2d_55">
    <path d="M 190.296 147.182959 
L 190.296 145.208326 
" clip-path="url(#p9041c90f41)" style="fill: none; stroke: #3f3f3f"/>
   </g>
   <g id="line2d_56">
    <path d="M 188.064 156.29358 
L 192.528 156.29358 
" clip-path="url(#p9041c90f41)" style="fill: none; stroke: #3f3f3f; stroke-linecap: square"/>
   </g>
   <g id="line2d_57">
    <path d="M 188.064 145.208326 
L 192.528 145.208326 
" clip-path="url(#p9041c90f41)" style="fill: none; stroke: #3f3f3f; stroke-linecap: square"/>
   </g>
   <g id="line2d_58"/>
   <g id="patch_11">
    <path d="M 208.152 147.150186 
L 217.08 147.150186 
L 217.08 141.250084 
L 208.152 141.250084 
L 208.152 147.150186 
z
" clip-path="url(#p9041c90f41)" style="fill: #3274a1; stroke: #3f3f3f; stroke-linejoin: miter"/>
   </g>
   <g id="line2d_59">
    <path d="M 212.616 147.150186 
L 212.616 152.639647 
" clip-path="url(#p9041c90f41)" style="fill: none; stroke: #3f3f3f"/>
   </g>
   <g id="line2d_60">
    <path d="M 212.616 141.250084 
L 212.616 140.333836 
" clip-path="url(#p9041c90f41)" style="fill: none; stroke: #3f3f3f"/>
   </g>
   <g id="line2d_61">
    <path d="M 210.384 152.639647 
L 214.848 152.639647 
" clip-path="url(#p9041c90f41)" style="fill: none; stroke: #3f3f3f; stroke-linecap: square"/>
   </g>
   <g id="line2d_62">
    <path d="M 210.384 140.333836 
L 214.848 140.333836 
" clip-path="url(#p9041c90f41)" style="fill: none; stroke: #3f3f3f; stroke-linecap: square"/>
   </g>
   <g id="line2d_63"/>
   <g id="patch_12">
    <path d="M 230.472 145.84336 
L 239.4 145.84336 
L 239.4 143.832173 
L 230.472 143.832173 
L 230.472 145.84336 
z
" clip-path="url(#p9041c90f41)" style="fill: #3274a1; stroke: #3f3f3f; stroke-linejoin: miter"/>
   </g>
   <g id="line2d_64">
    <path d="M 234.936 145.84336 
L 234.936 146.815899 
" clip-path="url(#p9041c90f41)" style="fill: none; stroke: #3f3f3f"/>
   </g>
   <g id="line2d_65">
    <path d="M 234.936 143.832173 
L 234.936 143.815787 
" clip-path="url(#p9041c90f41)" style="fill: none; stroke: #3f3f3f"/>
   </g>
   <g id="line2d_66">
    <path d="M 232.704 146.815899 
L 237.168 146.815899 
" clip-path="url(#p9041c90f41)" style="fill: none; stroke: #3f3f3f; stroke-linecap: square"/>
   </g>
   <g id="line2d_67">
    <path d="M 232.704 143.815787 
L 237.168 143.815787 
" clip-path="url(#p9041c90f41)" style="fill: none; stroke: #3f3f3f; stroke-linecap: square"/>
   </g>
   <g id="line2d_68">
    <g clip-path="url(#p9041c90f41)">
     <use xlink:href="#m017b9978aa" x="234.936" y="150.129641" style="fill-opacity: 0; stroke: #3f3f3f"/>
     <use xlink:href="#m017b9978aa" x="234.936" y="140.264091" style="fill-opacity: 0; stroke: #3f3f3f"/>
     <use xlink:href="#m017b9978aa" x="234.936" y="140.507832" style="fill-opacity: 0; stroke: #3f3f3f"/>
    </g>
   </g>
   <g id="patch_13">
    <path d="M 252.792 148.384973 
L 261.72 148.384973 
L 261.72 144.224173 
L 252.792 144.224173 
L 252.792 148.384973 
z
" clip-path="url(#p9041c90f41)" style="fill: #3274a1; stroke: #3f3f3f; stroke-linejoin: miter"/>
   </g>
   <g id="line2d_69">
    <path d="M 257.256 148.384973 
L 257.256 150.768467 
" clip-path="url(#p9041c90f41)" style="fill: none; stroke: #3f3f3f"/>
   </g>
   <g id="line2d_70">
    <path d="M 257.256 144.224173 
L 257.256 142.956724 
" clip-path="url(#p9041c90f41)" style="fill: none; stroke: #3f3f3f"/>
   </g>
   <g id="line2d_71">
    <path d="M 255.024 150.768467 
L 259.488 150.768467 
" clip-path="url(#p9041c90f41)" style="fill: none; stroke: #3f3f3f; stroke-linecap: square"/>
   </g>
   <g id="line2d_72">
    <path d="M 255.024 142.956724 
L 259.488 142.956724 
" clip-path="url(#p9041c90f41)" style="fill: none; stroke: #3f3f3f; stroke-linecap: square"/>
   </g>
   <g id="line2d_73"/>
   <g id="patch_14">
    <path d="M 275.112 148.105266 
L 284.04 148.105266 
L 284.04 143.717329 
L 275.112 143.717329 
L 275.112 148.105266 
z
" clip-path="url(#p9041c90f41)" style="fill: #3274a1; stroke: #3f3f3f; stroke-linejoin: miter"/>
   </g>
   <g id="line2d_74">
    <path d="M 279.576 148.105266 
L 279.576 150.739597 
" clip-path="url(#p9041c90f41)" style="fill: none; stroke: #3f3f3f"/>
   </g>
   <g id="line2d_75">
    <path d="M 279.576 143.717329 
L 279.576 140.194261 
" clip-path="url(#p9041c90f41)" style="fill: none; stroke: #3f3f3f"/>
   </g>
   <g id="line2d_76">
    <path d="M 277.344 150.739597 
L 281.808 150.739597 
" clip-path="url(#p9041c90f41)" style="fill: none; stroke: #3f3f3f; stroke-linecap: square"/>
   </g>
   <g id="line2d_77">
    <path d="M 277.344 140.194261 
L 281.808 140.194261 
" clip-path="url(#p9041c90f41)" style="fill: none; stroke: #3f3f3f; stroke-linecap: square"/>
   </g>
   <g id="line2d_78"/>
   <g id="patch_15">
    <path d="M 297.432 156.991515 
L 306.36 156.991515 
L 306.36 142.199137 
L 297.432 142.199137 
L 297.432 156.991515 
z
" clip-path="url(#p9041c90f41)" style="fill: #3274a1; stroke: #3f3f3f; stroke-linejoin: miter"/>
   </g>
   <g id="line2d_79">
    <path d="M 301.896 156.991515 
L 301.896 163.930829 
" clip-path="url(#p9041c90f41)" style="fill: none; stroke: #3f3f3f"/>
   </g>
   <g id="line2d_80">
    <path d="M 301.896 142.199137 
L 301.896 134.66795 
" clip-path="url(#p9041c90f41)" style="fill: none; stroke: #3f3f3f"/>
   </g>
   <g id="line2d_81">
    <path d="M 299.664 163.930829 
L 304.128 163.930829 
" clip-path="url(#p9041c90f41)" style="fill: none; stroke: #3f3f3f; stroke-linecap: square"/>
   </g>
   <g id="line2d_82">
    <path d="M 299.664 134.66795 
L 304.128 134.66795 
" clip-path="url(#p9041c90f41)" style="fill: none; stroke: #3f3f3f; stroke-linecap: square"/>
   </g>
   <g id="line2d_83"/>
   <g id="patch_16">
    <path d="M 319.752 151.938557 
L 328.68 151.938557 
L 328.68 144.423859 
L 319.752 144.423859 
L 319.752 151.938557 
z
" clip-path="url(#p9041c90f41)" style="fill: #3274a1; stroke: #3f3f3f; stroke-linejoin: miter"/>
   </g>
   <g id="line2d_84">
    <path d="M 324.216 151.938557 
L 324.216 158.025639 
" clip-path="url(#p9041c90f41)" style="fill: none; stroke: #3f3f3f"/>
   </g>
   <g id="line2d_85">
    <path d="M 324.216 144.423859 
L 324.216 135.543418 
" clip-path="url(#p9041c90f41)" style="fill: none; stroke: #3f3f3f"/>
   </g>
   <g id="line2d_86">
    <path d="M 321.984 158.025639 
L 326.448 158.025639 
" clip-path="url(#p9041c90f41)" style="fill: none; stroke: #3f3f3f; stroke-linecap: square"/>
   </g>
   <g id="line2d_87">
    <path d="M 321.984 135.543418 
L 326.448 135.543418 
" clip-path="url(#p9041c90f41)" style="fill: none; stroke: #3f3f3f; stroke-linecap: square"/>
   </g>
   <g id="line2d_88"/>
   <g id="patch_17">
    <path d="M 342.072 153.289979 
L 351 153.289979 
L 351 147.318022 
L 342.072 147.318022 
L 342.072 153.289979 
z
" clip-path="url(#p9041c90f41)" style="fill: #3274a1; stroke: #3f3f3f; stroke-linejoin: miter"/>
   </g>
   <g id="line2d_89">
    <path d="M 346.536 153.289979 
L 346.536 157.724354 
" clip-path="url(#p9041c90f41)" style="fill: none; stroke: #3f3f3f"/>
   </g>
   <g id="line2d_90">
    <path d="M 346.536 147.318022 
L 346.536 145.87595 
" clip-path="url(#p9041c90f41)" style="fill: none; stroke: #3f3f3f"/>
   </g>
   <g id="line2d_91">
    <path d="M 344.304 157.724354 
L 348.768 157.724354 
" clip-path="url(#p9041c90f41)" style="fill: none; stroke: #3f3f3f; stroke-linecap: square"/>
   </g>
   <g id="line2d_92">
    <path d="M 344.304 145.87595 
L 348.768 145.87595 
" clip-path="url(#p9041c90f41)" style="fill: none; stroke: #3f3f3f; stroke-linecap: square"/>
   </g>
   <g id="line2d_93"/>
   <g id="patch_18">
    <path d="M 364.392 156.52632 
L 373.32 156.52632 
L 373.32 146.629192 
L 364.392 146.629192 
L 364.392 156.52632 
z
" clip-path="url(#p9041c90f41)" style="fill: #3274a1; stroke: #3f3f3f; stroke-linejoin: miter"/>
   </g>
   <g id="line2d_94">
    <path d="M 368.856 156.52632 
L 368.856 164.173436 
" clip-path="url(#p9041c90f41)" style="fill: none; stroke: #3f3f3f"/>
   </g>
   <g id="line2d_95">
    <path d="M 368.856 146.629192 
L 368.856 136.219827 
" clip-path="url(#p9041c90f41)" style="fill: none; stroke: #3f3f3f"/>
   </g>
   <g id="line2d_96">
    <path d="M 366.624 164.173436 
L 371.088 164.173436 
" clip-path="url(#p9041c90f41)" style="fill: none; stroke: #3f3f3f; stroke-linecap: square"/>
   </g>
   <g id="line2d_97">
    <path d="M 366.624 136.219827 
L 371.088 136.219827 
" clip-path="url(#p9041c90f41)" style="fill: none; stroke: #3f3f3f; stroke-linecap: square"/>
   </g>
   <g id="line2d_98"/>
   <g id="patch_19">
    <path d="M 386.712 152.26164 
L 395.64 152.26164 
L 395.64 145.589024 
L 386.712 145.589024 
L 386.712 152.26164 
z
" clip-path="url(#p9041c90f41)" style="fill: #3274a1; stroke: #3f3f3f; stroke-linejoin: miter"/>
   </g>
   <g id="line2d_99">
    <path d="M 391.176 152.26164 
L 391.176 153.468427 
" clip-path="url(#p9041c90f41)" style="fill: none; stroke: #3f3f3f"/>
   </g>
   <g id="line2d_100">
    <path d="M 391.176 145.589024 
L 391.176 142.756612 
" clip-path="url(#p9041c90f41)" style="fill: none; stroke: #3f3f3f"/>
   </g>
   <g id="line2d_101">
    <path d="M 388.944 153.468427 
L 393.408 153.468427 
" clip-path="url(#p9041c90f41)" style="fill: none; stroke: #3f3f3f; stroke-linecap: square"/>
   </g>
   <g id="line2d_102">
    <path d="M 388.944 142.756612 
L 393.408 142.756612 
" clip-path="url(#p9041c90f41)" style="fill: none; stroke: #3f3f3f; stroke-linecap: square"/>
   </g>
   <g id="line2d_103"/>
   <g id="patch_20">
    <path d="M 409.032 148.766192 
L 417.96 148.766192 
L 417.96 145.303575 
L 409.032 145.303575 
L 409.032 148.766192 
z
" clip-path="url(#p9041c90f41)" style="fill: #3274a1; stroke: #3f3f3f; stroke-linejoin: miter"/>
   </g>
   <g id="line2d_104">
    <path d="M 413.496 148.766192 
L 413.496 149.275642 
" clip-path="url(#p9041c90f41)" style="fill: none; stroke: #3f3f3f"/>
   </g>
   <g id="line2d_105">
    <path d="M 413.496 145.303575 
L 413.496 142.488695 
" clip-path="url(#p9041c90f41)" style="fill: none; stroke: #3f3f3f"/>
   </g>
   <g id="line2d_106">
    <path d="M 411.264 149.275642 
L 415.728 149.275642 
" clip-path="url(#p9041c90f41)" style="fill: none; stroke: #3f3f3f; stroke-linecap: square"/>
   </g>
   <g id="line2d_107">
    <path d="M 411.264 142.488695 
L 415.728 142.488695 
" clip-path="url(#p9041c90f41)" style="fill: none; stroke: #3f3f3f; stroke-linecap: square"/>
   </g>
   <g id="line2d_108">
    <g clip-path="url(#p9041c90f41)">
     <use xlink:href="#m017b9978aa" x="413.496" y="154.847352" style="fill-opacity: 0; stroke: #3f3f3f"/>
    </g>
   </g>
   <g id="patch_21">
    <path d="M 431.352 141.789152 
L 440.28 141.789152 
L 440.28 139.453884 
L 431.352 139.453884 
L 431.352 141.789152 
z
" clip-path="url(#p9041c90f41)" style="fill: #3274a1; stroke: #3f3f3f; stroke-linejoin: miter"/>
   </g>
   <g id="line2d_109">
    <path d="M 435.816 141.789152 
L 435.816 143.782987 
" clip-path="url(#p9041c90f41)" style="fill: none; stroke: #3f3f3f"/>
   </g>
   <g id="line2d_110">
    <path d="M 435.816 139.453884 
L 435.816 135.957682 
" clip-path="url(#p9041c90f41)" style="fill: none; stroke: #3f3f3f"/>
   </g>
   <g id="line2d_111">
    <path d="M 433.584 143.782987 
L 438.048 143.782987 
" clip-path="url(#p9041c90f41)" style="fill: none; stroke: #3f3f3f; stroke-linecap: square"/>
   </g>
   <g id="line2d_112">
    <path d="M 433.584 135.957682 
L 438.048 135.957682 
" clip-path="url(#p9041c90f41)" style="fill: none; stroke: #3f3f3f; stroke-linecap: square"/>
   </g>
   <g id="line2d_113"/>
   <g id="patch_22">
    <path d="M 453.672 142.714575 
L 462.6 142.714575 
L 462.6 136.320922 
L 453.672 136.320922 
L 453.672 142.714575 
z
" clip-path="url(#p9041c90f41)" style="fill: #3274a1; stroke: #3f3f3f; stroke-linejoin: miter"/>
   </g>
   <g id="line2d_114">
    <path d="M 458.136 142.714575 
L 458.136 143.585784 
" clip-path="url(#p9041c90f41)" style="fill: none; stroke: #3f3f3f"/>
   </g>
   <g id="line2d_115">
    <path d="M 458.136 136.320922 
L 458.136 135.656682 
" clip-path="url(#p9041c90f41)" style="fill: none; stroke: #3f3f3f"/>
   </g>
   <g id="line2d_116">
    <path d="M 455.904 143.585784 
L 460.368 143.585784 
" clip-path="url(#p9041c90f41)" style="fill: none; stroke: #3f3f3f; stroke-linecap: square"/>
   </g>
   <g id="line2d_117">
    <path d="M 455.904 135.656682 
L 460.368 135.656682 
" clip-path="url(#p9041c90f41)" style="fill: none; stroke: #3f3f3f; stroke-linecap: square"/>
   </g>
   <g id="line2d_118"/>
   <g id="patch_23">
    <path d="M 475.992 138.285561 
L 484.92 138.285561 
L 484.92 133.409004 
L 475.992 133.409004 
L 475.992 138.285561 
z
" clip-path="url(#p9041c90f41)" style="fill: #3274a1; stroke: #3f3f3f; stroke-linejoin: miter"/>
   </g>
   <g id="line2d_119">
    <path d="M 480.456 138.285561 
L 480.456 138.420808 
" clip-path="url(#p9041c90f41)" style="fill: none; stroke: #3f3f3f"/>
   </g>
   <g id="line2d_120">
    <path d="M 480.456 133.409004 
L 480.456 133.350279 
" clip-path="url(#p9041c90f41)" style="fill: none; stroke: #3f3f3f"/>
   </g>
   <g id="line2d_121">
    <path d="M 478.224 138.420808 
L 482.688 138.420808 
" clip-path="url(#p9041c90f41)" style="fill: none; stroke: #3f3f3f; stroke-linecap: square"/>
   </g>
   <g id="line2d_122">
    <path d="M 478.224 133.350279 
L 482.688 133.350279 
" clip-path="url(#p9041c90f41)" style="fill: none; stroke: #3f3f3f; stroke-linecap: square"/>
   </g>
   <g id="line2d_123"/>
   <g id="patch_24">
    <path d="M 105.48 144.417724 
L 114.408 144.417724 
L 114.408 139.506593 
L 105.48 139.506593 
L 105.48 144.417724 
z
" clip-path="url(#p9041c90f41)" style="fill: #e1812c; stroke: #3f3f3f; stroke-linejoin: miter"/>
   </g>
   <g id="line2d_124">
    <path d="M 109.944 144.417724 
L 109.944 146.784826 
" clip-path="url(#p9041c90f41)" style="fill: none; stroke: #3f3f3f"/>
   </g>
   <g id="line2d_125">
    <path d="M 109.944 139.506593 
L 109.944 136.962562 
" clip-path="url(#p9041c90f41)" style="fill: none; stroke: #3f3f3f"/>
   </g>
   <g id="line2d_126">
    <path d="M 107.712 146.784826 
L 112.176 146.784826 
" clip-path="url(#p9041c90f41)" style="fill: none; stroke: #3f3f3f; stroke-linecap: square"/>
   </g>
   <g id="line2d_127">
    <path d="M 107.712 136.962562 
L 112.176 136.962562 
" clip-path="url(#p9041c90f41)" style="fill: none; stroke: #3f3f3f; stroke-linecap: square"/>
   </g>
   <g id="line2d_128"/>
   <g id="patch_25">
    <path d="M 127.8 136.999458 
L 136.728 136.999458 
L 136.728 131.359833 
L 127.8 131.359833 
L 127.8 136.999458 
z
" clip-path="url(#p9041c90f41)" style="fill: #e1812c; stroke: #3f3f3f; stroke-linejoin: miter"/>
   </g>
   <g id="line2d_129">
    <path d="M 132.264 136.999458 
L 132.264 143.750168 
" clip-path="url(#p9041c90f41)" style="fill: none; stroke: #3f3f3f"/>
   </g>
   <g id="line2d_130">
    <path d="M 132.264 131.359833 
L 132.264 128.842472 
" clip-path="url(#p9041c90f41)" style="fill: none; stroke: #3f3f3f"/>
   </g>
   <g id="line2d_131">
    <path d="M 130.032 143.750168 
L 134.496 143.750168 
" clip-path="url(#p9041c90f41)" style="fill: none; stroke: #3f3f3f; stroke-linecap: square"/>
   </g>
   <g id="line2d_132">
    <path d="M 130.032 128.842472 
L 134.496 128.842472 
" clip-path="url(#p9041c90f41)" style="fill: none; stroke: #3f3f3f; stroke-linecap: square"/>
   </g>
   <g id="line2d_133"/>
   <g id="patch_26">
    <path d="M 150.12 141.893448 
L 159.048 141.893448 
L 159.048 136.163044 
L 150.12 136.163044 
L 150.12 141.893448 
z
" clip-path="url(#p9041c90f41)" style="fill: #e1812c; stroke: #3f3f3f; stroke-linejoin: miter"/>
   </g>
   <g id="line2d_134">
    <path d="M 154.584 141.893448 
L 154.584 143.288681 
" clip-path="url(#p9041c90f41)" style="fill: none; stroke: #3f3f3f"/>
   </g>
   <g id="line2d_135">
    <path d="M 154.584 136.163044 
L 154.584 134.782861 
" clip-path="url(#p9041c90f41)" style="fill: none; stroke: #3f3f3f"/>
   </g>
   <g id="line2d_136">
    <path d="M 152.352 143.288681 
L 156.816 143.288681 
" clip-path="url(#p9041c90f41)" style="fill: none; stroke: #3f3f3f; stroke-linecap: square"/>
   </g>
   <g id="line2d_137">
    <path d="M 152.352 134.782861 
L 156.816 134.782861 
" clip-path="url(#p9041c90f41)" style="fill: none; stroke: #3f3f3f; stroke-linecap: square"/>
   </g>
   <g id="line2d_138">
    <g clip-path="url(#p9041c90f41)">
     <use xlink:href="#m017b9978aa" x="154.584" y="171.670448" style="fill-opacity: 0; stroke: #3f3f3f"/>
    </g>
   </g>
   <g id="patch_27">
    <path d="M 172.44 143.792435 
L 181.368 143.792435 
L 181.368 138.97278 
L 172.44 138.97278 
L 172.44 143.792435 
z
" clip-path="url(#p9041c90f41)" style="fill: #e1812c; stroke: #3f3f3f; stroke-linejoin: miter"/>
   </g>
   <g id="line2d_139">
    <path d="M 176.904 143.792435 
L 176.904 147.556417 
" clip-path="url(#p9041c90f41)" style="fill: none; stroke: #3f3f3f"/>
   </g>
   <g id="line2d_140">
    <path d="M 176.904 138.97278 
L 176.904 133.389441 
" clip-path="url(#p9041c90f41)" style="fill: none; stroke: #3f3f3f"/>
   </g>
   <g id="line2d_141">
    <path d="M 174.672 147.556417 
L 179.136 147.556417 
" clip-path="url(#p9041c90f41)" style="fill: none; stroke: #3f3f3f; stroke-linecap: square"/>
   </g>
   <g id="line2d_142">
    <path d="M 174.672 133.389441 
L 179.136 133.389441 
" clip-path="url(#p9041c90f41)" style="fill: none; stroke: #3f3f3f; stroke-linecap: square"/>
   </g>
   <g id="line2d_143">
    <g clip-path="url(#p9041c90f41)">
     <use xlink:href="#m017b9978aa" x="176.904" y="186.694828" style="fill-opacity: 0; stroke: #3f3f3f"/>
    </g>
   </g>
   <g id="patch_28">
    <path d="M 194.76 142.555793 
L 203.688 142.555793 
L 203.688 137.878161 
L 194.76 137.878161 
L 194.76 142.555793 
z
" clip-path="url(#p9041c90f41)" style="fill: #e1812c; stroke: #3f3f3f; stroke-linejoin: miter"/>
   </g>
   <g id="line2d_144">
    <path d="M 199.224 142.555793 
L 199.224 143.684472 
" clip-path="url(#p9041c90f41)" style="fill: none; stroke: #3f3f3f"/>
   </g>
   <g id="line2d_145">
    <path d="M 199.224 137.878161 
L 199.224 134.475949 
" clip-path="url(#p9041c90f41)" style="fill: none; stroke: #3f3f3f"/>
   </g>
   <g id="line2d_146">
    <path d="M 196.992 143.684472 
L 201.456 143.684472 
" clip-path="url(#p9041c90f41)" style="fill: none; stroke: #3f3f3f; stroke-linecap: square"/>
   </g>
   <g id="line2d_147">
    <path d="M 196.992 134.475949 
L 201.456 134.475949 
" clip-path="url(#p9041c90f41)" style="fill: none; stroke: #3f3f3f; stroke-linecap: square"/>
   </g>
   <g id="line2d_148">
    <g clip-path="url(#p9041c90f41)">
     <use xlink:href="#m017b9978aa" x="199.224" y="152.500217" style="fill-opacity: 0; stroke: #3f3f3f"/>
    </g>
   </g>
   <g id="patch_29">
    <path d="M 217.08 143.054133 
L 226.008 143.054133 
L 226.008 136.496944 
L 217.08 136.496944 
L 217.08 143.054133 
z
" clip-path="url(#p9041c90f41)" style="fill: #e1812c; stroke: #3f3f3f; stroke-linejoin: miter"/>
   </g>
   <g id="line2d_149">
    <path d="M 221.544 143.054133 
L 221.544 147.678864 
" clip-path="url(#p9041c90f41)" style="fill: none; stroke: #3f3f3f"/>
   </g>
   <g id="line2d_150">
    <path d="M 221.544 136.496944 
L 221.544 133.19338 
" clip-path="url(#p9041c90f41)" style="fill: none; stroke: #3f3f3f"/>
   </g>
   <g id="line2d_151">
    <path d="M 219.312 147.678864 
L 223.776 147.678864 
" clip-path="url(#p9041c90f41)" style="fill: none; stroke: #3f3f3f; stroke-linecap: square"/>
   </g>
   <g id="line2d_152">
    <path d="M 219.312 133.19338 
L 223.776 133.19338 
" clip-path="url(#p9041c90f41)" style="fill: none; stroke: #3f3f3f; stroke-linecap: square"/>
   </g>
   <g id="line2d_153">
    <g clip-path="url(#p9041c90f41)">
     <use xlink:href="#m017b9978aa" x="221.544" y="235.202764" style="fill-opacity: 0; stroke: #3f3f3f"/>
    </g>
   </g>
   <g id="patch_30">
    <path d="M 239.4 140.597787 
L 248.328 140.597787 
L 248.328 134.550507 
L 239.4 134.550507 
L 239.4 140.597787 
z
" clip-path="url(#p9041c90f41)" style="fill: #e1812c; stroke: #3f3f3f; stroke-linejoin: miter"/>
   </g>
   <g id="line2d_154">
    <path d="M 243.864 140.597787 
L 243.864 146.033727 
" clip-path="url(#p9041c90f41)" style="fill: none; stroke: #3f3f3f"/>
   </g>
   <g id="line2d_155">
    <path d="M 243.864 134.550507 
L 243.864 128.926616 
" clip-path="url(#p9041c90f41)" style="fill: none; stroke: #3f3f3f"/>
   </g>
   <g id="line2d_156">
    <path d="M 241.632 146.033727 
L 246.096 146.033727 
" clip-path="url(#p9041c90f41)" style="fill: none; stroke: #3f3f3f; stroke-linecap: square"/>
   </g>
   <g id="line2d_157">
    <path d="M 241.632 128.926616 
L 246.096 128.926616 
" clip-path="url(#p9041c90f41)" style="fill: none; stroke: #3f3f3f; stroke-linecap: square"/>
   </g>
   <g id="line2d_158">
    <g clip-path="url(#p9041c90f41)">
     <use xlink:href="#m017b9978aa" x="243.864" y="168.77136" style="fill-opacity: 0; stroke: #3f3f3f"/>
    </g>
   </g>
   <g id="patch_31">
    <path d="M 261.72 140.124348 
L 270.648 140.124348 
L 270.648 129.886343 
L 261.72 129.886343 
L 261.72 140.124348 
z
" clip-path="url(#p9041c90f41)" style="fill: #e1812c; stroke: #3f3f3f; stroke-linejoin: miter"/>
   </g>
   <g id="line2d_159">
    <path d="M 266.184 140.124348 
L 266.184 140.124348 
" clip-path="url(#p9041c90f41)" style="fill: none; stroke: #3f3f3f"/>
   </g>
   <g id="line2d_160">
    <path d="M 266.184 129.886343 
L 266.184 127.351756 
" clip-path="url(#p9041c90f41)" style="fill: none; stroke: #3f3f3f"/>
   </g>
   <g id="line2d_161">
    <path d="M 263.952 140.124348 
L 268.416 140.124348 
" clip-path="url(#p9041c90f41)" style="fill: none; stroke: #3f3f3f; stroke-linecap: square"/>
   </g>
   <g id="line2d_162">
    <path d="M 263.952 127.351756 
L 268.416 127.351756 
" clip-path="url(#p9041c90f41)" style="fill: none; stroke: #3f3f3f; stroke-linecap: square"/>
   </g>
   <g id="line2d_163">
    <g clip-path="url(#p9041c90f41)">
     <use xlink:href="#m017b9978aa" x="266.184" y="222.036142" style="fill-opacity: 0; stroke: #3f3f3f"/>
     <use xlink:href="#m017b9978aa" x="266.184" y="171.892626" style="fill-opacity: 0; stroke: #3f3f3f"/>
    </g>
   </g>
   <g id="patch_32">
    <path d="M 284.04 142.468005 
L 292.968 142.468005 
L 292.968 136.564382 
L 284.04 136.564382 
L 284.04 142.468005 
z
" clip-path="url(#p9041c90f41)" style="fill: #e1812c; stroke: #3f3f3f; stroke-linejoin: miter"/>
   </g>
   <g id="line2d_164">
    <path d="M 288.504 142.468005 
L 288.504 146.096712 
" clip-path="url(#p9041c90f41)" style="fill: none; stroke: #3f3f3f"/>
   </g>
   <g id="line2d_165">
    <path d="M 288.504 136.564382 
L 288.504 130.422428 
" clip-path="url(#p9041c90f41)" style="fill: none; stroke: #3f3f3f"/>
   </g>
   <g id="line2d_166">
    <path d="M 286.272 146.096712 
L 290.736 146.096712 
" clip-path="url(#p9041c90f41)" style="fill: none; stroke: #3f3f3f; stroke-linecap: square"/>
   </g>
   <g id="line2d_167">
    <path d="M 286.272 130.422428 
L 290.736 130.422428 
" clip-path="url(#p9041c90f41)" style="fill: none; stroke: #3f3f3f; stroke-linecap: square"/>
   </g>
   <g id="line2d_168"/>
   <g id="patch_33">
    <path d="M 306.36 147.556417 
L 315.288 147.556417 
L 315.288 139.773516 
L 306.36 139.773516 
L 306.36 147.556417 
z
" clip-path="url(#p9041c90f41)" style="fill: #e1812c; stroke: #3f3f3f; stroke-linejoin: miter"/>
   </g>
   <g id="line2d_169">
    <path d="M 310.824 147.556417 
L 310.824 156.988565 
" clip-path="url(#p9041c90f41)" style="fill: none; stroke: #3f3f3f"/>
   </g>
   <g id="line2d_170">
    <path d="M 310.824 139.773516 
L 310.824 138.276589 
" clip-path="url(#p9041c90f41)" style="fill: none; stroke: #3f3f3f"/>
   </g>
   <g id="line2d_171">
    <path d="M 308.592 156.988565 
L 313.056 156.988565 
" clip-path="url(#p9041c90f41)" style="fill: none; stroke: #3f3f3f; stroke-linecap: square"/>
   </g>
   <g id="line2d_172">
    <path d="M 308.592 138.276589 
L 313.056 138.276589 
" clip-path="url(#p9041c90f41)" style="fill: none; stroke: #3f3f3f; stroke-linecap: square"/>
   </g>
   <g id="line2d_173"/>
   <g id="patch_34">
    <path d="M 328.68 146.578287 
L 337.608 146.578287 
L 337.608 140.709687 
L 328.68 140.709687 
L 328.68 146.578287 
z
" clip-path="url(#p9041c90f41)" style="fill: #e1812c; stroke: #3f3f3f; stroke-linejoin: miter"/>
   </g>
   <g id="line2d_174">
    <path d="M 333.144 146.578287 
L 333.144 149.305319 
" clip-path="url(#p9041c90f41)" style="fill: none; stroke: #3f3f3f"/>
   </g>
   <g id="line2d_175">
    <path d="M 333.144 140.709687 
L 333.144 134.321911 
" clip-path="url(#p9041c90f41)" style="fill: none; stroke: #3f3f3f"/>
   </g>
   <g id="line2d_176">
    <path d="M 330.912 149.305319 
L 335.376 149.305319 
" clip-path="url(#p9041c90f41)" style="fill: none; stroke: #3f3f3f; stroke-linecap: square"/>
   </g>
   <g id="line2d_177">
    <path d="M 330.912 134.321911 
L 335.376 134.321911 
" clip-path="url(#p9041c90f41)" style="fill: none; stroke: #3f3f3f; stroke-linecap: square"/>
   </g>
   <g id="line2d_178"/>
   <g id="patch_35">
    <path d="M 351 151.289358 
L 359.928 151.289358 
L 359.928 138.92518 
L 351 138.92518 
L 351 151.289358 
z
" clip-path="url(#p9041c90f41)" style="fill: #e1812c; stroke: #3f3f3f; stroke-linejoin: miter"/>
   </g>
   <g id="line2d_179">
    <path d="M 355.464 151.289358 
L 355.464 152.528133 
" clip-path="url(#p9041c90f41)" style="fill: none; stroke: #3f3f3f"/>
   </g>
   <g id="line2d_180">
    <path d="M 355.464 138.92518 
L 355.464 120.547241 
" clip-path="url(#p9041c90f41)" style="fill: none; stroke: #3f3f3f"/>
   </g>
   <g id="line2d_181">
    <path d="M 353.232 152.528133 
L 357.696 152.528133 
" clip-path="url(#p9041c90f41)" style="fill: none; stroke: #3f3f3f; stroke-linecap: square"/>
   </g>
   <g id="line2d_182">
    <path d="M 353.232 120.547241 
L 357.696 120.547241 
" clip-path="url(#p9041c90f41)" style="fill: none; stroke: #3f3f3f; stroke-linecap: square"/>
   </g>
   <g id="line2d_183"/>
   <g id="patch_36">
    <path d="M 373.32 194.42942 
L 382.248 194.42942 
L 382.248 162.330849 
L 373.32 162.330849 
L 373.32 194.42942 
z
" clip-path="url(#p9041c90f41)" style="fill: #e1812c; stroke: #3f3f3f; stroke-linejoin: miter"/>
   </g>
   <g id="line2d_184">
    <path d="M 377.784 194.42942 
L 377.784 198.187175 
" clip-path="url(#p9041c90f41)" style="fill: none; stroke: #3f3f3f"/>
   </g>
   <g id="line2d_185">
    <path d="M 377.784 162.330849 
L 377.784 152.276346 
" clip-path="url(#p9041c90f41)" style="fill: none; stroke: #3f3f3f"/>
   </g>
   <g id="line2d_186">
    <path d="M 375.552 198.187175 
L 380.016 198.187175 
" clip-path="url(#p9041c90f41)" style="fill: none; stroke: #3f3f3f; stroke-linecap: square"/>
   </g>
   <g id="line2d_187">
    <path d="M 375.552 152.276346 
L 380.016 152.276346 
" clip-path="url(#p9041c90f41)" style="fill: none; stroke: #3f3f3f; stroke-linecap: square"/>
   </g>
   <g id="line2d_188"/>
   <g id="patch_37">
    <path d="M 395.64 171.428433 
L 404.568 171.428433 
L 404.568 164.980209 
L 395.64 164.980209 
L 395.64 171.428433 
z
" clip-path="url(#p9041c90f41)" style="fill: #e1812c; stroke: #3f3f3f; stroke-linejoin: miter"/>
   </g>
   <g id="line2d_189">
    <path d="M 400.104 171.428433 
L 400.104 178.559735 
" clip-path="url(#p9041c90f41)" style="fill: none; stroke: #3f3f3f"/>
   </g>
   <g id="line2d_190">
    <path d="M 400.104 164.980209 
L 400.104 156.111808 
" clip-path="url(#p9041c90f41)" style="fill: none; stroke: #3f3f3f"/>
   </g>
   <g id="line2d_191">
    <path d="M 397.872 178.559735 
L 402.336 178.559735 
" clip-path="url(#p9041c90f41)" style="fill: none; stroke: #3f3f3f; stroke-linecap: square"/>
   </g>
   <g id="line2d_192">
    <path d="M 397.872 156.111808 
L 402.336 156.111808 
" clip-path="url(#p9041c90f41)" style="fill: none; stroke: #3f3f3f; stroke-linecap: square"/>
   </g>
   <g id="line2d_193">
    <g clip-path="url(#p9041c90f41)">
     <use xlink:href="#m017b9978aa" x="400.104" y="193.708166" style="fill-opacity: 0; stroke: #3f3f3f"/>
    </g>
   </g>
   <g id="patch_38">
    <path d="M 417.96 147.131691 
L 426.888 147.131691 
L 426.888 138.877262 
L 417.96 138.877262 
L 417.96 147.131691 
z
" clip-path="url(#p9041c90f41)" style="fill: #e1812c; stroke: #3f3f3f; stroke-linejoin: miter"/>
   </g>
   <g id="line2d_194">
    <path d="M 422.424 147.131691 
L 422.424 157.799848 
" clip-path="url(#p9041c90f41)" style="fill: none; stroke: #3f3f3f"/>
   </g>
   <g id="line2d_195">
    <path d="M 422.424 138.877262 
L 422.424 133.154092 
" clip-path="url(#p9041c90f41)" style="fill: none; stroke: #3f3f3f"/>
   </g>
   <g id="line2d_196">
    <path d="M 420.192 157.799848 
L 424.656 157.799848 
" clip-path="url(#p9041c90f41)" style="fill: none; stroke: #3f3f3f; stroke-linecap: square"/>
   </g>
   <g id="line2d_197">
    <path d="M 420.192 133.154092 
L 424.656 133.154092 
" clip-path="url(#p9041c90f41)" style="fill: none; stroke: #3f3f3f; stroke-linecap: square"/>
   </g>
   <g id="line2d_198"/>
   <g id="patch_39">
    <path d="M 440.28 139.366827 
L 449.208 139.366827 
L 449.208 136.376976 
L 440.28 136.376976 
L 440.28 139.366827 
z
" clip-path="url(#p9041c90f41)" style="fill: #e1812c; stroke: #3f3f3f; stroke-linejoin: miter"/>
   </g>
   <g id="line2d_199">
    <path d="M 444.744 139.366827 
L 444.744 140.71594 
" clip-path="url(#p9041c90f41)" style="fill: none; stroke: #3f3f3f"/>
   </g>
   <g id="line2d_200">
    <path d="M 444.744 136.376976 
L 444.744 133.11478 
" clip-path="url(#p9041c90f41)" style="fill: none; stroke: #3f3f3f"/>
   </g>
   <g id="line2d_201">
    <path d="M 442.512 140.71594 
L 446.976 140.71594 
" clip-path="url(#p9041c90f41)" style="fill: none; stroke: #3f3f3f; stroke-linecap: square"/>
   </g>
   <g id="line2d_202">
    <path d="M 442.512 133.11478 
L 446.976 133.11478 
" clip-path="url(#p9041c90f41)" style="fill: none; stroke: #3f3f3f; stroke-linecap: square"/>
   </g>
   <g id="line2d_203"/>
   <g id="patch_40">
    <path d="M 462.6 145.111277 
L 471.528 145.111277 
L 471.528 130.982799 
L 462.6 130.982799 
L 462.6 145.111277 
z
" clip-path="url(#p9041c90f41)" style="fill: #e1812c; stroke: #3f3f3f; stroke-linejoin: miter"/>
   </g>
   <g id="line2d_204">
    <path d="M 467.064 145.111277 
L 467.064 150.10042 
" clip-path="url(#p9041c90f41)" style="fill: none; stroke: #3f3f3f"/>
   </g>
   <g id="line2d_205">
    <path d="M 467.064 130.982799 
L 467.064 126.309237 
" clip-path="url(#p9041c90f41)" style="fill: none; stroke: #3f3f3f"/>
   </g>
   <g id="line2d_206">
    <path d="M 464.832 150.10042 
L 469.296 150.10042 
" clip-path="url(#p9041c90f41)" style="fill: none; stroke: #3f3f3f; stroke-linecap: square"/>
   </g>
   <g id="line2d_207">
    <path d="M 464.832 126.309237 
L 469.296 126.309237 
" clip-path="url(#p9041c90f41)" style="fill: none; stroke: #3f3f3f; stroke-linecap: square"/>
   </g>
   <g id="line2d_208"/>
   <g id="patch_41">
    <path d="M 484.92 142.923421 
L 493.848 142.923421 
L 493.848 132.097361 
L 484.92 132.097361 
L 484.92 142.923421 
z
" clip-path="url(#p9041c90f41)" style="fill: #e1812c; stroke: #3f3f3f; stroke-linejoin: miter"/>
   </g>
   <g id="line2d_209">
    <path d="M 489.384 142.923421 
L 489.384 148.256743 
" clip-path="url(#p9041c90f41)" style="fill: none; stroke: #3f3f3f"/>
   </g>
   <g id="line2d_210">
    <path d="M 489.384 132.097361 
L 489.384 125.957975 
" clip-path="url(#p9041c90f41)" style="fill: none; stroke: #3f3f3f"/>
   </g>
   <g id="line2d_211">
    <path d="M 487.152 148.256743 
L 491.616 148.256743 
" clip-path="url(#p9041c90f41)" style="fill: none; stroke: #3f3f3f; stroke-linecap: square"/>
   </g>
   <g id="line2d_212">
    <path d="M 487.152 125.957975 
L 491.616 125.957975 
" clip-path="url(#p9041c90f41)" style="fill: none; stroke: #3f3f3f; stroke-linecap: square"/>
   </g>
   <g id="line2d_213"/>
   <g id="patch_42">
    <path d="M 507.24 114.081461 
L 516.168 114.081461 
L 516.168 67.436765 
L 507.24 67.436765 
L 507.24 114.081461 
z
" clip-path="url(#p9041c90f41)" style="fill: #e1812c; stroke: #3f3f3f; stroke-linejoin: miter"/>
   </g>
   <g id="line2d_214">
    <path d="M 511.704 114.081461 
L 511.704 137.403809 
" clip-path="url(#p9041c90f41)" style="fill: none; stroke: #3f3f3f"/>
   </g>
   <g id="line2d_215">
    <path d="M 511.704 67.436765 
L 511.704 44.114417 
" clip-path="url(#p9041c90f41)" style="fill: none; stroke: #3f3f3f"/>
   </g>
   <g id="line2d_216">
    <path d="M 509.472 137.403809 
L 513.936 137.403809 
" clip-path="url(#p9041c90f41)" style="fill: none; stroke: #3f3f3f; stroke-linecap: square"/>
   </g>
   <g id="line2d_217">
    <path d="M 509.472 44.114417 
L 513.936 44.114417 
" clip-path="url(#p9041c90f41)" style="fill: none; stroke: #3f3f3f; stroke-linecap: square"/>
   </g>
   <g id="line2d_218"/>
   <g id="line2d_219">
    <path d="M 74.232 137.054414 
L 83.16 137.054414 
" clip-path="url(#p9041c90f41)" style="fill: none; stroke: #3f3f3f"/>
   </g>
   <g id="line2d_220">
    <path d="M 96.552 140.844334 
L 105.48 140.844334 
" clip-path="url(#p9041c90f41)" style="fill: none; stroke: #3f3f3f"/>
   </g>
   <g id="line2d_221">
    <path d="M 118.872 145.986169 
L 127.8 145.986169 
" clip-path="url(#p9041c90f41)" style="fill: none; stroke: #3f3f3f"/>
   </g>
   <g id="line2d_222">
    <path d="M 141.192 148.498225 
L 150.12 148.498225 
" clip-path="url(#p9041c90f41)" style="fill: none; stroke: #3f3f3f"/>
   </g>
   <g id="line2d_223">
    <path d="M 163.512 147.799106 
L 172.44 147.799106 
" clip-path="url(#p9041c90f41)" style="fill: none; stroke: #3f3f3f"/>
   </g>
   <g id="line2d_224">
    <path d="M 185.832 150.52089 
L 194.76 150.52089 
" clip-path="url(#p9041c90f41)" style="fill: none; stroke: #3f3f3f"/>
   </g>
   <g id="line2d_225">
    <path d="M 208.152 144.077501 
L 217.08 144.077501 
" clip-path="url(#p9041c90f41)" style="fill: none; stroke: #3f3f3f"/>
   </g>
   <g id="line2d_226">
    <path d="M 230.472 145.064099 
L 239.4 145.064099 
" clip-path="url(#p9041c90f41)" style="fill: none; stroke: #3f3f3f"/>
   </g>
   <g id="line2d_227">
    <path d="M 252.792 146.158728 
L 261.72 146.158728 
" clip-path="url(#p9041c90f41)" style="fill: none; stroke: #3f3f3f"/>
   </g>
   <g id="line2d_228">
    <path d="M 275.112 146.347933 
L 284.04 146.347933 
" clip-path="url(#p9041c90f41)" style="fill: none; stroke: #3f3f3f"/>
   </g>
   <g id="line2d_229">
    <path d="M 297.432 147.136691 
L 306.36 147.136691 
" clip-path="url(#p9041c90f41)" style="fill: none; stroke: #3f3f3f"/>
   </g>
   <g id="line2d_230">
    <path d="M 319.752 148.014177 
L 328.68 148.014177 
" clip-path="url(#p9041c90f41)" style="fill: none; stroke: #3f3f3f"/>
   </g>
   <g id="line2d_231">
    <path d="M 342.072 148.543381 
L 351 148.543381 
" clip-path="url(#p9041c90f41)" style="fill: none; stroke: #3f3f3f"/>
   </g>
   <g id="line2d_232">
    <path d="M 364.392 153.193643 
L 373.32 153.193643 
" clip-path="url(#p9041c90f41)" style="fill: none; stroke: #3f3f3f"/>
   </g>
   <g id="line2d_233">
    <path d="M 386.712 149.127011 
L 395.64 149.127011 
" clip-path="url(#p9041c90f41)" style="fill: none; stroke: #3f3f3f"/>
   </g>
   <g id="line2d_234">
    <path d="M 409.032 146.753734 
L 417.96 146.753734 
" clip-path="url(#p9041c90f41)" style="fill: none; stroke: #3f3f3f"/>
   </g>
   <g id="line2d_235">
    <path d="M 431.352 140.088981 
L 440.28 140.088981 
" clip-path="url(#p9041c90f41)" style="fill: none; stroke: #3f3f3f"/>
   </g>
   <g id="line2d_236">
    <path d="M 453.672 139.032719 
L 462.6 139.032719 
" clip-path="url(#p9041c90f41)" style="fill: none; stroke: #3f3f3f"/>
   </g>
   <g id="line2d_237">
    <path d="M 475.992 135.834529 
L 484.92 135.834529 
" clip-path="url(#p9041c90f41)" style="fill: none; stroke: #3f3f3f"/>
   </g>
   <g id="line2d_238">
    <path d="M 105.48 142.050623 
L 114.408 142.050623 
" clip-path="url(#p9041c90f41)" style="fill: none; stroke: #3f3f3f"/>
   </g>
   <g id="line2d_239">
    <path d="M 127.8 136.369113 
L 136.728 136.369113 
" clip-path="url(#p9041c90f41)" style="fill: none; stroke: #3f3f3f"/>
   </g>
   <g id="line2d_240">
    <path d="M 150.12 138.276545 
L 159.048 138.276545 
" clip-path="url(#p9041c90f41)" style="fill: none; stroke: #3f3f3f"/>
   </g>
   <g id="line2d_241">
    <path d="M 172.44 140.610483 
L 181.368 140.610483 
" clip-path="url(#p9041c90f41)" style="fill: none; stroke: #3f3f3f"/>
   </g>
   <g id="line2d_242">
    <path d="M 194.76 140.298974 
L 203.688 140.298974 
" clip-path="url(#p9041c90f41)" style="fill: none; stroke: #3f3f3f"/>
   </g>
   <g id="line2d_243">
    <path d="M 217.08 138.753063 
L 226.008 138.753063 
" clip-path="url(#p9041c90f41)" style="fill: none; stroke: #3f3f3f"/>
   </g>
   <g id="line2d_244">
    <path d="M 239.4 136.515766 
L 248.328 136.515766 
" clip-path="url(#p9041c90f41)" style="fill: none; stroke: #3f3f3f"/>
   </g>
   <g id="line2d_245">
    <path d="M 261.72 139.207756 
L 270.648 139.207756 
" clip-path="url(#p9041c90f41)" style="fill: none; stroke: #3f3f3f"/>
   </g>
   <g id="line2d_246">
    <path d="M 284.04 138.376154 
L 292.968 138.376154 
" clip-path="url(#p9041c90f41)" style="fill: none; stroke: #3f3f3f"/>
   </g>
   <g id="line2d_247">
    <path d="M 306.36 141.813339 
L 315.288 141.813339 
" clip-path="url(#p9041c90f41)" style="fill: none; stroke: #3f3f3f"/>
   </g>
   <g id="line2d_248">
    <path d="M 328.68 143.897415 
L 337.608 143.897415 
" clip-path="url(#p9041c90f41)" style="fill: none; stroke: #3f3f3f"/>
   </g>
   <g id="line2d_249">
    <path d="M 351 145.207691 
L 359.928 145.207691 
" clip-path="url(#p9041c90f41)" style="fill: none; stroke: #3f3f3f"/>
   </g>
   <g id="line2d_250">
    <path d="M 373.32 179.657782 
L 382.248 179.657782 
" clip-path="url(#p9041c90f41)" style="fill: none; stroke: #3f3f3f"/>
   </g>
   <g id="line2d_251">
    <path d="M 395.64 169.402199 
L 404.568 169.402199 
" clip-path="url(#p9041c90f41)" style="fill: none; stroke: #3f3f3f"/>
   </g>
   <g id="line2d_252">
    <path d="M 417.96 142.617129 
L 426.888 142.617129 
" clip-path="url(#p9041c90f41)" style="fill: none; stroke: #3f3f3f"/>
   </g>
   <g id="line2d_253">
    <path d="M 440.28 138.708192 
L 449.208 138.708192 
" clip-path="url(#p9041c90f41)" style="fill: none; stroke: #3f3f3f"/>
   </g>
   <g id="line2d_254">
    <path d="M 462.6 138.240479 
L 471.528 138.240479 
" clip-path="url(#p9041c90f41)" style="fill: none; stroke: #3f3f3f"/>
   </g>
   <g id="line2d_255">
    <path d="M 484.92 138.738121 
L 493.848 138.738121 
" clip-path="url(#p9041c90f41)" style="fill: none; stroke: #3f3f3f"/>
   </g>
   <g id="line2d_256">
    <path d="M 507.24 90.759113 
L 516.168 90.759113 
" clip-path="url(#p9041c90f41)" style="fill: none; stroke: #3f3f3f"/>
   </g>
   <g id="patch_43">
    <path d="M 72 256.32 
L 72 34.56 
" style="fill: none; stroke: #000000; stroke-width: 0.8; stroke-linejoin: miter; stroke-linecap: square"/>
   </g>
   <g id="patch_44">
    <path d="M 518.4 256.32 
L 518.4 34.56 
" style="fill: none; stroke: #000000; stroke-width: 0.8; stroke-linejoin: miter; stroke-linecap: square"/>
   </g>
   <g id="patch_45">
    <path d="M 72 256.32 
L 518.4 256.32 
" style="fill: none; stroke: #000000; stroke-width: 0.8; stroke-linejoin: miter; stroke-linecap: square"/>
   </g>
   <g id="patch_46">
    <path d="M 72 34.56 
L 518.4 34.56 
" style="fill: none; stroke: #000000; stroke-width: 0.8; stroke-linejoin: miter; stroke-linecap: square"/>
   </g>
   <g id="text_31">
    <!-- 公交车速分布 -->
    <g transform="translate(259.2 28.56) scale(0.12 -0.12)">
     <defs>
      <path id="SimHei-516c" d="M 4450 550 
Q 4250 900 3900 1350 
Q 4150 1500 4325 1650 
Q 4700 1100 5025 562 
Q 5350 25 5525 -300 
Q 5250 -450 5050 -575 
Q 4900 -275 4650 150 
Q 2975 -75 2287 -175 
Q 1600 -275 1300 -400 
Q 1225 -150 1025 150 
Q 1275 250 1500 500 
Q 1725 750 2162 1550 
Q 2600 2350 2775 2950 
Q 3150 2725 3350 2675 
Q 3075 2250 2612 1400 
Q 2150 550 1950 300 
Q 3100 400 4450 550 
z
M 4025 5200 
Q 4500 3925 5037 3275 
Q 5575 2625 6125 2325 
Q 5775 2150 5650 1900 
Q 4900 2525 4375 3350 
Q 3850 4175 3525 5025 
Q 3800 5075 4025 5200 
z
M 2725 4775 
Q 2250 3775 1750 3025 
Q 1250 2275 725 1775 
Q 525 2050 300 2175 
Q 825 2575 1400 3400 
Q 1975 4225 2225 5000 
Q 2400 4875 2725 4775 
z
" transform="scale(0.015625)"/>
      <path id="SimHei-4ea4" d="M 2325 2600 
Q 2775 1575 3200 1150 
Q 3875 1825 4225 2725 
Q 4425 2575 4725 2400 
Q 4125 1450 3550 825 
Q 4400 175 6000 25 
Q 5750 -325 5700 -550 
Q 4100 -250 3150 525 
Q 2075 -275 650 -600 
Q 575 -300 375 -50 
Q 1900 125 2775 850 
Q 2200 1525 1850 2350 
Q 2150 2475 2325 2600 
z
M 1250 3725 
Q 875 3725 525 3700 
L 525 4200 
L 1225 4150 
L 5125 4150 
Q 5525 4175 5950 4200 
L 5950 3675 
Q 5525 3700 5125 3725 
L 1250 3725 
z
M 2525 3300 
Q 2175 2975 1025 2000 
Q 825 2250 550 2400 
Q 1025 2650 1412 3025 
Q 1800 3400 2000 3675 
Q 2250 3500 2525 3300 
z
M 4325 3675 
Q 4450 3575 4900 3237 
Q 5350 2900 5775 2600 
Q 5500 2400 5300 2175 
Q 5075 2475 3900 3300 
Q 4100 3500 4325 3675 
z
M 3250 5300 
Q 3500 4725 3625 4375 
Q 3275 4275 3025 4200 
Q 2875 4625 2650 5125 
Q 2950 5225 3250 5300 
z
" transform="scale(0.015625)"/>
      <path id="SimHei-8f66" d="M 1125 1950 
Q 1000 2300 900 2525 
Q 1225 2650 1562 3062 
Q 1900 3475 2125 3850 
Q 1200 3850 625 3825 
L 625 4325 
Q 1150 4300 2375 4300 
Q 2675 4900 2775 5275 
Q 3075 5125 3350 5025 
Q 3100 4675 2900 4300 
L 4600 4300 
Q 4900 4300 5525 4325 
L 5525 3825 
Q 5025 3850 4600 3850 
L 2675 3850 
Q 2400 3425 1725 2550 
L 3125 2550 
Q 3125 3025 3100 3525 
L 3650 3525 
Q 3625 3100 3625 2550 
L 4475 2550 
Q 4975 2550 5450 2575 
L 5450 2075 
Q 4975 2100 4475 2100 
L 3625 2100 
L 3625 1150 
L 5025 1150 
Q 5500 1150 6075 1175 
L 6075 650 
Q 5500 675 5025 675 
L 3625 675 
Q 3625 -125 3650 -600 
L 3100 -600 
Q 3125 -100 3125 675 
L 1400 675 
Q 850 675 350 650 
L 350 1175 
Q 850 1150 1400 1150 
L 3125 1150 
L 3125 2100 
Q 2225 2100 1875 2075 
Q 1525 2050 1125 1950 
z
" transform="scale(0.015625)"/>
      <path id="SimHei-5206" d="M 1000 -650 
Q 825 -375 575 -225 
Q 975 -75 1300 137 
Q 1625 350 1875 662 
Q 2125 975 2250 1350 
Q 2375 1725 2425 2275 
Q 1850 2275 1500 2250 
L 1500 2775 
Q 1900 2750 2525 2750 
L 5025 2750 
Q 4975 2375 4950 2100 
L 4750 250 
Q 4700 -200 4350 -350 
Q 4000 -500 3575 -525 
Q 3550 -275 3325 50 
Q 3850 25 4037 87 
Q 4225 150 4275 525 
L 4450 2275 
L 2950 2275 
Q 2875 1625 2737 1187 
Q 2600 750 2350 425 
Q 2100 100 1750 -175 
Q 1400 -450 1000 -650 
z
M 3950 5175 
Q 4125 4650 4662 3975 
Q 5200 3300 6175 2800 
Q 5975 2625 5775 2275 
Q 5325 2600 4987 2887 
Q 4650 3175 4425 3425 
Q 4200 3675 3925 4137 
Q 3650 4600 3475 5000 
Q 3750 5075 3950 5175 
z
M 2700 4825 
Q 2475 4425 2325 4125 
Q 2175 3825 2025 3587 
Q 1875 3350 1575 2950 
Q 1275 2550 850 2125 
Q 625 2350 400 2475 
Q 900 2925 1187 3300 
Q 1475 3675 1737 4112 
Q 2000 4550 2200 5075 
Q 2400 4925 2700 4825 
z
" transform="scale(0.015625)"/>
      <path id="SimHei-5e03" d="M 2375 4225 
Q 2650 4775 2775 5300 
Q 3125 5175 3400 5075 
Q 3275 4975 2950 4225 
L 4800 4225 
Q 5550 4225 6025 4250 
L 6025 3800 
L 2725 3800 
Q 2325 3100 1975 2675 
L 3275 2675 
Q 3275 3225 3250 3575 
L 3775 3575 
Q 3750 3225 3750 2675 
L 5500 2675 
Q 5475 2225 5475 1775 
L 5475 750 
Q 5475 275 5212 150 
Q 4950 25 4450 -25 
Q 4400 325 4225 550 
Q 4800 550 4912 625 
Q 5025 700 5000 1025 
L 5000 2250 
L 3750 2250 
L 3750 550 
Q 3750 25 3775 -600 
L 3250 -600 
Q 3275 25 3275 550 
L 3275 2250 
L 2100 2250 
L 2100 0 
L 1600 0 
Q 1625 525 1625 1025 
L 1625 2225 
Q 1300 1850 650 1275 
Q 475 1475 200 1650 
Q 750 2025 1262 2562 
Q 1775 3100 2150 3800 
L 1550 3800 
Q 925 3800 400 3775 
L 400 4250 
Q 925 4225 1550 4225 
L 2375 4225 
z
" transform="scale(0.015625)"/>
     </defs>
     <use xlink:href="#SimHei-516c"/>
     <use xlink:href="#SimHei-4ea4" x="100"/>
     <use xlink:href="#SimHei-8f66" x="200"/>
     <use xlink:href="#SimHei-901f" x="300"/>
     <use xlink:href="#SimHei-5206" x="400"/>
     <use xlink:href="#SimHei-5e03" x="500"/>
    </g>
   </g>
   <g id="legend_1">
    <g id="patch_47">
     <path d="M 79 84.27875 
L 236 84.27875 
Q 238 84.27875 238 82.27875 
L 238 41.56 
Q 238 39.56 236 39.56 
L 79 39.56 
Q 77 39.56 77 41.56 
L 77 82.27875 
Q 77 84.27875 79 84.27875 
z
" style="fill: #ffffff; opacity: 0.8; stroke: #cccccc; stroke-linejoin: miter"/>
    </g>
    <g id="text_32">
     <!-- direction -->
     <g transform="translate(135 50.435) scale(0.1 -0.1)">
      <defs>
       <path id="SimHei-64" d="M 2750 125 
L 2250 125 
L 2250 500 
Q 2100 275 1900 175 
Q 1700 75 1425 75 
Q 925 75 575 437 
Q 225 800 225 1525 
Q 225 2250 575 2625 
Q 925 3000 1425 3000 
Q 1700 3000 1900 2887 
Q 2100 2775 2250 2550 
L 2250 4400 
L 2750 4400 
L 2750 125 
z
M 2250 1525 
Q 2250 2000 2037 2275 
Q 1825 2550 1525 2550 
Q 1150 2550 962 2275 
Q 775 2000 775 1525 
Q 775 1050 962 787 
Q 1150 525 1525 525 
Q 1825 525 2037 787 
Q 2250 1050 2250 1525 
z
" transform="scale(0.015625)"/>
       <path id="SimHei-69" d="M 1800 3725 
L 1300 3725 
L 1300 4375 
L 1800 4375 
L 1800 3725 
z
M 1800 125 
L 1300 125 
L 1300 2925 
L 1800 2925 
L 1800 125 
z
" transform="scale(0.015625)"/>
       <path id="SimHei-72" d="M 2500 2425 
Q 2025 2500 1700 2287 
Q 1375 2075 1150 1550 
L 1150 125 
L 650 125 
L 650 2925 
L 1150 2925 
L 1150 2200 
Q 1375 2600 1712 2787 
Q 2050 2975 2500 2975 
L 2500 2425 
z
" transform="scale(0.015625)"/>
       <path id="SimHei-65" d="M 2850 1075 
Q 2800 625 2450 350 
Q 2100 75 1625 75 
Q 1025 75 637 462 
Q 250 850 250 1525 
Q 250 2200 637 2587 
Q 1025 2975 1625 2975 
Q 2150 2975 2487 2637 
Q 2825 2300 2825 1525 
L 800 1525 
Q 800 975 1037 750 
Q 1275 525 1625 525 
Q 1900 525 2075 662 
Q 2250 800 2300 1075 
L 2850 1075 
z
M 2250 1925 
Q 2200 2275 2025 2412 
Q 1850 2550 1575 2550 
Q 1325 2550 1125 2412 
Q 925 2275 825 1925 
L 2250 1925 
z
" transform="scale(0.015625)"/>
       <path id="SimHei-63" d="M 2850 1250 
Q 2850 725 2487 400 
Q 2125 75 1575 75 
Q 1025 75 625 462 
Q 225 850 225 1525 
Q 225 2200 625 2587 
Q 1025 2975 1575 2975 
Q 2125 2975 2450 2687 
Q 2775 2400 2775 2000 
L 2225 2000 
Q 2200 2300 2012 2412 
Q 1825 2525 1575 2525 
Q 1275 2525 1025 2287 
Q 775 2050 775 1525 
Q 775 1000 1025 762 
Q 1275 525 1575 525 
Q 1900 525 2100 700 
Q 2300 875 2300 1250 
L 2850 1250 
z
" transform="scale(0.015625)"/>
       <path id="SimHei-74" d="M 2750 200 
Q 2625 150 2462 112 
Q 2300 75 2025 75 
Q 1575 75 1300 325 
Q 1025 575 1025 1025 
L 1025 2525 
L 175 2525 
L 175 2925 
L 1025 2925 
L 1025 3900 
L 1525 3900 
L 1525 2925 
L 2550 2925 
L 2550 2525 
L 1525 2525 
L 1525 1000 
Q 1525 800 1625 662 
Q 1725 525 2000 525 
Q 2275 525 2450 575 
Q 2625 625 2750 700 
L 2750 200 
z
" transform="scale(0.015625)"/>
       <path id="SimHei-6f" d="M 2925 1525 
Q 2925 875 2525 475 
Q 2125 75 1575 75 
Q 1025 75 625 475 
Q 225 875 225 1525 
Q 225 2175 625 2575 
Q 1025 2975 1575 2975 
Q 2125 2975 2525 2575 
Q 2925 2175 2925 1525 
z
M 2375 1525 
Q 2375 2025 2125 2275 
Q 1875 2525 1575 2525 
Q 1275 2525 1025 2275 
Q 775 2025 775 1525 
Q 775 1025 1025 775 
Q 1275 525 1575 525 
Q 1875 525 2125 775 
Q 2375 1025 2375 1525 
z
" transform="scale(0.015625)"/>
       <path id="SimHei-6e" d="M 2800 125 
L 2300 125 
L 2300 1925 
Q 2300 2225 2150 2400 
Q 2000 2575 1750 2575 
Q 1425 2575 1137 2237 
Q 850 1900 850 1400 
L 850 125 
L 350 125 
L 350 2925 
L 850 2925 
L 850 2400 
Q 1050 2675 1287 2825 
Q 1525 2975 1900 2975 
Q 2350 2975 2575 2725 
Q 2800 2475 2800 2100 
L 2800 125 
z
" transform="scale(0.015625)"/>
      </defs>
      <use xlink:href="#SimHei-64"/>
      <use xlink:href="#SimHei-69" x="50"/>
      <use xlink:href="#SimHei-72" x="100"/>
      <use xlink:href="#SimHei-65" x="150"/>
      <use xlink:href="#SimHei-63" x="200"/>
      <use xlink:href="#SimHei-74" x="250"/>
      <use xlink:href="#SimHei-69" x="300"/>
      <use xlink:href="#SimHei-6f" x="350"/>
      <use xlink:href="#SimHei-6e" x="400"/>
     </g>
    </g>
    <g id="patch_48">
     <path d="M 81 64.731875 
L 101 64.731875 
L 101 57.731875 
L 81 57.731875 
z
" style="fill: #3274a1; stroke: #3f3f3f; stroke-linejoin: miter"/>
    </g>
    <g id="text_33">
     <!-- 申昆路枢纽站-延安东路外滩 -->
     <g transform="translate(109 64.731875) scale(0.1 -0.1)">
      <defs>
       <path id="SimHei-7533" d="M 2925 4250 
Q 2925 4950 2900 5250 
L 3425 5250 
Q 3400 4975 3400 4250 
L 5600 4250 
Q 5575 3925 5575 3550 
L 5575 1425 
Q 5575 1100 5600 675 
L 5075 675 
L 5075 1025 
L 3400 1025 
L 3400 125 
Q 3400 -150 3425 -650 
L 2900 -650 
Q 2925 -150 2925 125 
L 2925 1025 
L 1300 1025 
L 1300 600 
L 775 600 
Q 800 1025 800 1450 
L 800 3525 
Q 800 3925 775 4250 
L 2925 4250 
z
M 5075 1475 
L 5075 2450 
L 3400 2450 
L 3400 1475 
L 5075 1475 
z
M 2925 1475 
L 2925 2450 
L 1300 2450 
L 1300 1475 
L 2925 1475 
z
M 5075 2900 
L 5075 3800 
L 3400 3800 
L 3400 2900 
L 5075 2900 
z
M 2925 2900 
L 2925 3800 
L 1300 3800 
L 1300 2900 
L 2925 2900 
z
" transform="scale(0.015625)"/>
       <path id="SimHei-6606" d="M 5100 4850 
Q 5075 4350 5075 4025 
L 5075 3450 
Q 5075 3050 5100 2525 
L 1125 2525 
Q 1150 3050 1150 3450 
L 1150 4025 
Q 1150 4350 1125 4850 
L 5100 4850 
z
M 3950 1150 
Q 4200 1225 4662 1487 
Q 5125 1750 5325 1950 
Q 5500 1650 5675 1475 
Q 5525 1400 5000 1150 
Q 4475 900 3950 725 
L 3950 250 
Q 3950 -25 4250 -75 
L 5150 -75 
Q 5600 -100 5575 450 
Q 5825 350 6150 250 
Q 5950 -525 5350 -475 
L 4000 -475 
Q 3425 -475 3425 25 
L 3425 1375 
Q 3425 1825 3400 2300 
L 3975 2300 
Q 3950 1975 3950 1425 
L 3950 1150 
z
M 2950 125 
Q 2525 0 1962 -212 
Q 1400 -425 1075 -650 
L 750 -225 
Q 950 0 925 300 
L 925 1500 
Q 925 1875 900 2325 
L 1475 2325 
Q 1450 2000 1450 1600 
L 2150 1600 
Q 2400 1600 2950 1625 
L 2950 1150 
Q 2400 1175 2150 1175 
L 1450 1175 
L 1450 125 
Q 2225 375 2800 625 
Q 2825 375 2950 125 
z
M 4575 3875 
L 4575 4450 
L 1650 4450 
L 1650 3875 
L 4575 3875 
z
M 4575 2925 
L 4575 3475 
L 1650 3475 
L 1650 2925 
L 4575 2925 
z
" transform="scale(0.015625)"/>
       <path id="SimHei-8def" d="M 2900 425 
Q 1225 -75 475 -350 
Q 425 -150 275 125 
Q 525 150 700 225 
L 700 1800 
Q 700 2000 675 2325 
L 1150 2325 
Q 1125 2100 1125 1675 
L 1125 325 
Q 1300 375 1550 450 
L 1550 2975 
L 725 2975 
Q 750 3225 750 3850 
Q 750 4500 725 4750 
L 2650 4750 
Q 2625 4475 2625 3850 
Q 2625 3250 2650 2975 
L 1975 2975 
L 1975 2075 
Q 2275 2075 2600 2100 
L 2600 1650 
Q 2275 1675 1975 1675 
L 1975 550 
Q 2200 600 2900 875 
Q 2875 675 2900 425 
z
M 4225 5025 
Q 4075 4850 3925 4550 
L 5750 4550 
Q 5575 4125 5287 3650 
Q 5000 3175 4750 2850 
Q 5325 2400 6200 2200 
Q 6000 1950 5900 1750 
Q 5600 1875 5200 2087 
Q 4800 2300 4475 2550 
Q 4150 2300 3762 2100 
Q 3375 1900 2925 1700 
Q 2825 1925 2650 2125 
Q 2975 2200 3400 2375 
Q 3825 2550 4150 2825 
Q 3900 3075 3425 3650 
Q 3250 3350 3100 3150 
Q 2950 3300 2725 3425 
Q 3000 3675 3275 4187 
Q 3550 4700 3700 5225 
Q 3975 5050 4225 5025 
z
M 5525 1800 
Q 5500 1475 5500 650 
Q 5500 -150 5525 -525 
L 5050 -525 
L 5050 -50 
L 3625 -50 
L 3625 -550 
L 3175 -550 
Q 3200 -125 3200 650 
Q 3200 1450 3175 1800 
L 5525 1800 
z
M 5050 325 
L 5050 1400 
L 3625 1400 
L 3625 325 
L 5050 325 
z
M 2200 3350 
L 2200 4375 
L 1175 4375 
L 1175 3350 
L 2200 3350 
z
M 3650 4000 
Q 3950 3550 4425 3125 
Q 4575 3275 4775 3612 
Q 4975 3950 5075 4175 
L 3750 4175 
L 3650 4000 
z
" transform="scale(0.015625)"/>
       <path id="SimHei-67a2" d="M 1300 3800 
Q 1300 4775 1275 5125 
L 1825 5125 
Q 1800 4825 1800 3800 
Q 2175 3800 2575 3825 
L 2575 3350 
Q 2175 3375 1800 3375 
L 1800 2400 
Q 1950 2475 2125 2625 
Q 2275 2400 2412 2200 
Q 2550 2000 2675 1775 
Q 2450 1675 2250 1525 
Q 2125 1825 1800 2325 
L 1800 500 
Q 1800 0 1825 -575 
L 1275 -575 
Q 1300 0 1300 500 
L 1300 2275 
Q 1200 1925 1037 1625 
Q 875 1325 600 925 
Q 450 1150 200 1275 
Q 350 1425 637 1900 
Q 925 2375 1225 3375 
Q 800 3375 375 3350 
L 375 3825 
Q 825 3800 1300 3800 
z
M 5375 4775 
Q 5650 4775 5975 4800 
L 5975 4325 
Q 5600 4350 5375 4350 
L 3325 4350 
L 3325 150 
L 5300 150 
Q 5775 150 6075 200 
L 6075 -300 
Q 5775 -275 5300 -275 
L 2825 -275 
Q 2825 -25 2850 575 
L 2850 3850 
Q 2850 4425 2825 4775 
L 5375 4775 
z
M 3825 3725 
Q 4125 3350 4325 3112 
Q 4525 2875 4675 2650 
Q 4900 2975 5025 3325 
Q 5150 3675 5200 3975 
Q 5450 3825 5800 3700 
Q 5575 3500 5437 3162 
Q 5300 2825 5000 2275 
Q 5350 1875 5950 1075 
Q 5700 925 5500 700 
Q 5175 1275 4750 1800 
Q 4400 1175 3850 575 
Q 3700 775 3450 950 
Q 3650 1100 3900 1375 
Q 4150 1650 4450 2200 
Q 4100 2725 3500 3425 
Q 3675 3525 3825 3725 
z
" transform="scale(0.015625)"/>
       <path id="SimHei-7ebd" d="M 3475 2125 
Q 3075 2125 2675 2100 
L 2675 2525 
Q 3125 2500 3525 2500 
L 3625 4350 
Q 2950 4350 2625 4325 
L 2625 4750 
Q 2950 4725 3500 4725 
L 5800 4725 
Q 5775 4325 5750 3825 
L 5525 75 
Q 5700 75 6100 100 
L 6100 -325 
Q 5650 -300 5375 -300 
L 3100 -300 
Q 2750 -300 2350 -325 
L 2350 100 
Q 2725 75 3325 75 
L 3475 2125 
z
M 2525 1825 
Q 2475 1625 2475 1375 
Q 2125 1325 1600 1237 
Q 1075 1150 600 1000 
Q 500 1300 375 1450 
Q 675 1600 975 1950 
Q 1275 2300 1600 2900 
Q 900 2825 475 2725 
Q 400 2950 275 3175 
Q 525 3300 925 3987 
Q 1325 4675 1450 5250 
Q 1750 5075 2000 5000 
Q 1875 4800 1612 4337 
Q 1350 3875 975 3250 
Q 1400 3275 1800 3300 
Q 2000 3675 2100 4025 
Q 2350 3800 2600 3725 
Q 2500 3575 2062 2837 
Q 1625 2100 1275 1600 
Q 2200 1750 2525 1825 
z
M 5050 75 
L 5175 2100 
L 3950 2100 
L 3800 75 
L 5050 75 
z
M 5200 2500 
L 5300 4325 
L 4100 4325 
L 3975 2500 
L 5200 2500 
z
M 2525 225 
Q 2000 100 1450 -62 
Q 900 -225 600 -375 
Q 500 -75 350 125 
Q 750 175 1362 325 
Q 1975 475 2550 700 
Q 2525 475 2525 225 
z
" transform="scale(0.015625)"/>
       <path id="SimHei-7ad9" d="M 4450 3925 
L 5175 3925 
Q 5575 3925 6050 3950 
L 6050 3475 
Q 5575 3500 5175 3500 
L 4450 3500 
L 4450 2275 
L 5700 2275 
Q 5675 1900 5675 1575 
L 5675 350 
Q 5675 -100 5700 -575 
L 5175 -575 
L 5175 -50 
L 3500 -50 
L 3500 -600 
L 3025 -600 
Q 3025 -150 3050 200 
L 3050 1525 
Q 3025 1850 3025 2275 
L 3975 2275 
L 3975 4550 
Q 3975 4775 3950 5225 
L 4475 5225 
Q 4450 4750 4450 4600 
L 4450 3925 
z
M 5175 350 
L 5175 1875 
L 3500 1875 
L 3500 350 
L 5175 350 
z
M 2725 2875 
Q 2575 2500 2450 1912 
Q 2325 1325 2200 775 
Q 2675 875 2875 925 
Q 2875 725 2925 525 
Q 2150 350 1587 212 
Q 1025 75 550 -100 
Q 500 150 325 450 
Q 1400 600 1750 700 
Q 1850 1025 1987 1662 
Q 2125 2300 2175 3025 
Q 2450 2925 2725 2875 
z
M 1900 3875 
Q 2250 3875 2950 3900 
L 2950 3425 
Q 2250 3450 1900 3450 
L 1400 3450 
Q 1000 3450 375 3425 
L 375 3900 
Q 1000 3875 1400 3875 
L 1900 3875 
z
M 1075 2950 
Q 1475 1650 1550 1250 
Q 1300 1175 1075 1125 
Q 975 1725 600 2800 
Q 800 2875 1075 2950 
z
M 1525 4050 
Q 1425 4475 1125 5000 
Q 1325 5075 1550 5200 
Q 1775 4875 2000 4225 
Q 1800 4125 1525 4050 
z
" transform="scale(0.015625)"/>
       <path id="SimHei-2d" d="M 2975 2125 
L 125 2125 
L 125 2525 
L 2975 2525 
L 2975 2125 
z
" transform="scale(0.015625)"/>
       <path id="SimHei-5ef6" d="M 2100 4750 
Q 1500 3450 1275 2875 
L 2175 2875 
Q 2050 2200 1937 1712 
Q 1825 1225 1650 750 
Q 2025 425 2712 212 
Q 3400 0 4175 -25 
Q 4950 -50 6175 75 
Q 5950 -200 5925 -475 
Q 4825 -500 4112 -462 
Q 3400 -425 2900 -312 
Q 2400 -200 2075 -37 
Q 1750 125 1425 375 
Q 1050 -150 650 -525 
Q 500 -350 250 -200 
Q 725 200 1100 700 
Q 825 1025 687 1250 
Q 550 1475 400 1775 
Q 500 1825 800 2000 
Q 950 1700 1050 1537 
Q 1150 1375 1300 1175 
Q 1475 1625 1650 2500 
Q 1000 2500 725 2425 
L 600 2875 
Q 825 3000 1050 3500 
Q 1275 4000 1400 4350 
Q 800 4350 400 4325 
L 400 4775 
Q 1125 4750 1450 4750 
L 2100 4750 
z
M 5675 4625 
Q 5350 4625 4500 4400 
L 4500 3100 
Q 5200 3100 5600 3125 
L 5600 2675 
Q 5200 2700 4500 2700 
L 4500 1200 
Q 4975 1200 5675 1225 
L 5675 750 
Q 5000 775 4600 775 
L 2700 775 
Q 2725 1400 2725 1825 
L 2725 2400 
Q 2725 2850 2700 3525 
L 3275 3525 
Q 3225 2850 3225 2200 
L 3225 1200 
L 4000 1200 
L 4000 4325 
Q 3075 4175 2650 4100 
Q 2600 4275 2450 4575 
Q 3300 4650 3887 4762 
Q 4475 4875 5200 5175 
Q 5275 5050 5675 4625 
z
" transform="scale(0.015625)"/>
       <path id="SimHei-5b89" d="M 3225 3475 
Q 3125 3375 3037 3237 
Q 2950 3100 2675 2525 
L 5000 2525 
Q 5600 2525 5975 2550 
L 5975 2100 
Q 5575 2125 5025 2125 
L 4775 2125 
Q 4500 1400 4025 825 
Q 4950 475 5925 -75 
Q 5750 -275 5575 -550 
Q 4650 75 3650 475 
Q 3025 0 2225 -262 
Q 1425 -525 900 -625 
Q 800 -325 600 -100 
Q 1375 -50 2062 175 
Q 2750 400 3125 675 
Q 2375 950 1375 1175 
Q 1775 1725 1975 2125 
L 1350 2125 
Q 1050 2125 500 2100 
L 500 2550 
Q 800 2525 1325 2525 
L 2150 2525 
Q 2475 3125 2650 3725 
Q 2950 3550 3225 3475 
z
M 2650 5000 
Q 2875 5150 3050 5300 
Q 3325 4950 3600 4525 
Q 3450 4450 3275 4300 
L 5575 4300 
Q 5550 3950 5550 3725 
Q 5550 3500 5575 3125 
L 5050 3125 
L 5050 3900 
L 1350 3900 
L 1350 3175 
L 825 3175 
Q 850 3525 850 3775 
Q 850 4025 800 4300 
L 3100 4300 
Q 2900 4725 2650 5000 
z
M 2100 1425 
Q 3125 1150 3550 1000 
Q 3900 1325 4225 2125 
L 2525 2125 
Q 2325 1825 2100 1425 
z
" transform="scale(0.015625)"/>
       <path id="SimHei-4e1c" d="M 2250 4100 
Q 2650 4825 2775 5250 
L 3350 5000 
Q 3150 4750 2800 4100 
L 4550 4100 
Q 5100 4100 5625 4125 
L 5625 3650 
Q 5275 3675 4900 3675 
L 2625 3675 
Q 2275 3125 1675 2300 
L 3150 2300 
Q 3150 2800 3125 3250 
L 3700 3250 
Q 3675 2975 3675 2300 
L 4650 2300 
Q 5075 2300 5550 2325 
L 5550 1875 
Q 5150 1900 4675 1900 
L 3675 1900 
L 3675 75 
Q 3675 -325 3375 -437 
Q 3075 -550 2600 -625 
Q 2525 -300 2325 -50 
Q 2875 -50 3012 0 
Q 3150 50 3150 350 
L 3150 1900 
L 2050 1900 
Q 1450 1900 1050 1825 
Q 975 2075 850 2325 
Q 1125 2425 1400 2762 
Q 1675 3100 2025 3675 
L 1325 3675 
Q 900 3675 675 3650 
L 675 4125 
Q 875 4100 1250 4100 
L 2250 4100 
z
M 1725 425 
Q 1300 0 900 -425 
Q 750 -225 500 -50 
Q 1475 800 1850 1450 
Q 2025 1250 2350 1050 
L 1725 425 
z
M 4625 1400 
Q 4875 1175 5275 800 
Q 5675 425 5975 100 
Q 5875 25 5525 -300 
Q 5150 175 4250 1025 
Q 4525 1250 4625 1400 
z
" transform="scale(0.015625)"/>
       <path id="SimHei-5916" d="M 2150 4875 
Q 2000 4650 1912 4425 
Q 1825 4200 1725 3975 
L 3275 3975 
Q 3150 3075 2937 2450 
Q 2725 1825 2412 1350 
Q 2100 875 1675 437 
Q 1250 0 650 -375 
Q 475 -100 200 0 
Q 775 250 1275 712 
Q 1775 1175 2000 1600 
Q 1675 1950 1150 2325 
Q 1325 2475 1475 2675 
Q 1975 2275 2250 2050 
Q 2425 2400 2525 2775 
Q 2625 3150 2700 3550 
L 1575 3550 
Q 1425 3225 1187 2825 
Q 950 2425 575 2025 
Q 450 2200 200 2375 
Q 625 2775 862 3187 
Q 1100 3600 1250 4025 
Q 1400 4450 1550 5075 
Q 1825 4950 2150 4875 
z
M 4225 5125 
Q 4200 4725 4200 4325 
L 4200 475 
Q 4200 0 4225 -500 
L 3675 -500 
Q 3700 0 3700 475 
L 3700 4325 
Q 3700 4725 3675 5125 
L 4225 5125 
z
M 4675 3450 
Q 4900 3200 5337 2687 
Q 5775 2175 6075 1725 
Q 5825 1575 5650 1400 
Q 5425 1800 5025 2300 
Q 4625 2800 4300 3150 
Q 4450 3300 4675 3450 
z
" transform="scale(0.015625)"/>
       <path id="SimHei-6ee9" d="M 4475 5000 
Q 4325 4825 4250 4625 
Q 4175 4425 4100 4200 
L 5325 4200 
Q 5700 4200 6075 4225 
L 6075 3750 
Q 5750 3775 5275 3775 
L 5275 2950 
Q 5500 2950 5850 2975 
L 5850 2525 
Q 5500 2550 5275 2550 
L 5275 1700 
Q 5625 1700 5900 1725 
L 5900 1275 
Q 5650 1325 5275 1325 
L 5275 375 
Q 5700 375 6075 400 
L 6075 -75 
Q 5725 -50 5475 -50 
L 4100 -50 
L 4100 -575 
L 3600 -575 
Q 3625 -200 3625 325 
L 3625 3025 
Q 3500 2700 3300 2275 
Q 3150 2400 2900 2525 
Q 3150 2950 3475 3750 
Q 3800 4550 3875 5200 
Q 4175 5075 4475 5000 
z
M 3150 4500 
Q 3050 3850 2925 3212 
Q 2800 2575 2625 2100 
Q 3100 1175 3350 600 
Q 3075 525 2900 375 
Q 2700 950 2400 1600 
Q 2300 1250 2137 875 
Q 1975 500 1750 25 
Q 1525 175 1250 225 
Q 1550 625 1762 1112 
Q 1975 1600 2125 2050 
Q 1700 3150 1400 3525 
Q 1625 3600 1825 3725 
Q 2050 3350 2350 2575 
Q 2525 3275 2625 4100 
Q 2150 4100 1500 4075 
L 1500 4525 
Q 2150 4500 2500 4500 
L 3150 4500 
z
M 1275 1550 
Q 1125 975 987 337 
Q 850 -300 800 -650 
Q 550 -525 250 -450 
Q 425 -100 562 425 
Q 700 950 825 1750 
Q 1050 1625 1275 1550 
z
M 4850 375 
L 4850 1325 
L 4100 1325 
L 4100 375 
L 4850 375 
z
M 4850 1700 
L 4850 2550 
L 4100 2550 
L 4100 1700 
L 4850 1700 
z
M 4850 2950 
L 4850 3775 
L 4100 3775 
L 4100 2950 
L 4850 2950 
z
M 425 3325 
Q 1025 3025 1400 2775 
Q 1250 2600 1150 2325 
Q 850 2600 200 2900 
Q 325 3075 425 3325 
z
M 600 5000 
Q 1100 4725 1450 4450 
Q 1300 4250 1175 4025 
Q 875 4300 300 4600 
Q 500 4825 600 5000 
z
M 5400 4450 
Q 5200 4375 4950 4275 
Q 4850 4700 4650 5050 
Q 4900 5125 5100 5200 
L 5400 4450 
z
" transform="scale(0.015625)"/>
      </defs>
      <use xlink:href="#SimHei-7533"/>
      <use xlink:href="#SimHei-6606" x="100"/>
      <use xlink:href="#SimHei-8def" x="200"/>
      <use xlink:href="#SimHei-67a2" x="300"/>
      <use xlink:href="#SimHei-7ebd" x="400"/>
      <use xlink:href="#SimHei-7ad9" x="500"/>
      <use xlink:href="#SimHei-2d" x="600"/>
      <use xlink:href="#SimHei-5ef6" x="650"/>
      <use xlink:href="#SimHei-5b89" x="750"/>
      <use xlink:href="#SimHei-4e1c" x="850"/>
      <use xlink:href="#SimHei-8def" x="950"/>
      <use xlink:href="#SimHei-5916" x="1050"/>
      <use xlink:href="#SimHei-6ee9" x="1150"/>
     </g>
    </g>
    <g id="patch_49">
     <path d="M 81 79.02875 
L 101 79.02875 
L 101 72.02875 
L 81 72.02875 
z
" style="fill: #e1812c; stroke: #3f3f3f; stroke-linejoin: miter"/>
    </g>
    <g id="text_34">
     <!-- 延安东路外滩-申昆路枢纽站 -->
     <g transform="translate(109 79.02875) scale(0.1 -0.1)">
      <use xlink:href="#SimHei-5ef6"/>
      <use xlink:href="#SimHei-5b89" x="100"/>
      <use xlink:href="#SimHei-4e1c" x="200"/>
      <use xlink:href="#SimHei-8def" x="300"/>
      <use xlink:href="#SimHei-5916" x="400"/>
      <use xlink:href="#SimHei-6ee9" x="500"/>
      <use xlink:href="#SimHei-2d" x="600"/>
      <use xlink:href="#SimHei-7533" x="650"/>
      <use xlink:href="#SimHei-6606" x="750"/>
      <use xlink:href="#SimHei-8def" x="850"/>
      <use xlink:href="#SimHei-67a2" x="950"/>
      <use xlink:href="#SimHei-7ebd" x="1050"/>
      <use xlink:href="#SimHei-7ad9" x="1150"/>
     </g>
    </g>
   </g>
  </g>
 </g>
 <defs>
  <clipPath id="p9041c90f41">
   <rect x="72" y="34.56" width="446.4" height="221.76"/>
  </clipPath>
 </defs>
</svg>
