<?xml version="1.0" encoding="utf-8" standalone="no"?>
<!DOCTYPE svg PUBLIC "-//W3C//DTD SVG 1.1//EN"
  "http://www.w3.org/Graphics/SVG/1.1/DTD/svg11.dtd">
<svg xmlns:xlink="http://www.w3.org/1999/xlink" width="576pt" height="288pt" viewBox="0 0 576 288" xmlns="http://www.w3.org/2000/svg" version="1.1">
 <metadata>
  <rdf:RDF xmlns:dc="http://purl.org/dc/elements/1.1/" xmlns:cc="http://creativecommons.org/ns#" xmlns:rdf="http://www.w3.org/1999/02/22-rdf-syntax-ns#">
   <cc:Work>
    <dc:type rdf:resource="http://purl.org/dc/dcmitype/StillImage"/>
    <dc:date>2025-04-29T14:06:58.417748</dc:date>
    <dc:format>image/svg+xml</dc:format>
    <dc:creator>
     <cc:Agent>
      <dc:title>Matplotlib v3.9.2, https://matplotlib.org/</dc:title>
     </cc:Agent>
    </dc:creator>
   </cc:Work>
  </rdf:RDF>
 </metadata>
 <defs>
  <style type="text/css">*{stroke-linejoin: round; stroke-linecap: butt}</style>
 </defs>
 <g id="figure_1">
  <g id="patch_1">
   <path d="M 0 288 
L 576 288 
L 576 0 
L 0 0 
z
" style="fill: #ffffff"/>
  </g>
  <g id="axes_1">
   <g id="patch_2">
    <path d="M 72 250.586122 
L 518.4 250.586122 
L 518.4 40.293878 
L 72 40.293878 
z
" style="fill: #ffffff"/>
   </g>
   <g id="matplotlib.axis_1">
    <g id="xtick_1">
     <g id="line2d_1">
      <defs>
       <path id="mc14063fd71" d="M 0 0 
L 0 3.5 
" style="stroke: #000000; stroke-width: 0.8"/>
      </defs>
      <g>
       <use xlink:href="#mc14063fd71" x="74.667965" y="250.586122" style="stroke: #000000; stroke-width: 0.8"/>
      </g>
     </g>
     <g id="text_1">
      <!-- 121.32 -->
      <g transform="translate(59.667965 264.461122) scale(0.1 -0.1)">
       <defs>
        <path id="SimHei-31" d="M 1400 3600 
Q 1075 3275 575 2975 
L 575 3450 
Q 1200 3875 1600 4450 
L 1900 4450 
L 1900 150 
L 1400 150 
L 1400 3600 
z
" transform="scale(0.015625)"/>
        <path id="SimHei-32" d="M 300 250 
Q 325 625 650 925 
Q 975 1225 1475 1862 
Q 1975 2500 2125 2850 
Q 2275 3200 2237 3450 
Q 2200 3700 2000 3862 
Q 1800 4025 1537 4000 
Q 1275 3975 1037 3800 
Q 800 3625 675 3275 
L 200 3350 
Q 400 3925 712 4187 
Q 1025 4450 1450 4475 
Q 1700 4500 1900 4462 
Q 2100 4425 2312 4287 
Q 2525 4150 2662 3875 
Q 2800 3600 2762 3212 
Q 2725 2825 2375 2287 
Q 2025 1750 1025 600 
L 2825 600 
L 2825 150 
L 300 150 
L 300 250 
z
" transform="scale(0.015625)"/>
        <path id="SimHei-2e" d="M 1075 125 
L 500 125 
L 500 675 
L 1075 675 
L 1075 125 
z
" transform="scale(0.015625)"/>
        <path id="SimHei-33" d="M 250 1225 
L 700 1300 
Q 800 975 1025 762 
Q 1250 550 1587 562 
Q 1925 575 2125 837 
Q 2325 1100 2300 1437 
Q 2275 1775 2037 1962 
Q 1800 2150 1275 2225 
L 1275 2550 
Q 1800 2600 2037 2825 
Q 2275 3050 2250 3412 
Q 2225 3775 1925 3937 
Q 1625 4100 1287 3975 
Q 950 3850 750 3275 
L 300 3350 
Q 450 3800 712 4100 
Q 975 4400 1425 4450 
Q 1875 4500 2212 4337 
Q 2550 4175 2687 3837 
Q 2825 3500 2725 3100 
Q 2625 2700 2150 2400 
Q 2500 2250 2687 1950 
Q 2875 1650 2812 1162 
Q 2750 675 2375 375 
Q 2000 75 1525 87 
Q 1050 100 700 387 
Q 350 675 250 1225 
z
" transform="scale(0.015625)"/>
       </defs>
       <use xlink:href="#SimHei-31"/>
       <use xlink:href="#SimHei-32" x="50"/>
       <use xlink:href="#SimHei-31" x="100"/>
       <use xlink:href="#SimHei-2e" x="150"/>
       <use xlink:href="#SimHei-33" x="200"/>
       <use xlink:href="#SimHei-32" x="250"/>
      </g>
     </g>
    </g>
    <g id="xtick_2">
     <g id="line2d_2">
      <g>
       <use xlink:href="#mc14063fd71" x="125.437746" y="250.586122" style="stroke: #000000; stroke-width: 0.8"/>
      </g>
     </g>
     <g id="text_2">
      <!-- 121.34 -->
      <g transform="translate(110.437746 264.461122) scale(0.1 -0.1)">
       <defs>
        <path id="SimHei-34" d="M 2000 1100 
L 75 1100 
L 75 1525 
L 2100 4450 
L 2475 4450 
L 2475 1525 
L 3075 1525 
L 3075 1100 
L 2475 1100 
L 2475 150 
L 2000 150 
L 2000 1100 
z
M 2000 1525 
L 2000 3500 
L 600 1525 
L 2000 1525 
z
" transform="scale(0.015625)"/>
       </defs>
       <use xlink:href="#SimHei-31"/>
       <use xlink:href="#SimHei-32" x="50"/>
       <use xlink:href="#SimHei-31" x="100"/>
       <use xlink:href="#SimHei-2e" x="150"/>
       <use xlink:href="#SimHei-33" x="200"/>
       <use xlink:href="#SimHei-34" x="250"/>
      </g>
     </g>
    </g>
    <g id="xtick_3">
     <g id="line2d_3">
      <g>
       <use xlink:href="#mc14063fd71" x="176.207526" y="250.586122" style="stroke: #000000; stroke-width: 0.8"/>
      </g>
     </g>
     <g id="text_3">
      <!-- 121.36 -->
      <g transform="translate(161.207526 264.461122) scale(0.1 -0.1)">
       <defs>
        <path id="SimHei-36" d="M 250 1612 
Q 275 1975 387 2225 
Q 500 2475 725 2850 
L 1750 4450 
L 2325 4450 
L 1275 2800 
Q 1950 2975 2350 2750 
Q 2750 2525 2887 2237 
Q 3025 1950 3037 1612 
Q 3050 1275 2937 950 
Q 2825 625 2537 362 
Q 2250 100 1737 75 
Q 1225 50 862 262 
Q 500 475 362 862 
Q 225 1250 250 1612 
z
M 1025 787 
Q 1250 550 1625 525 
Q 2000 500 2250 775 
Q 2500 1050 2500 1575 
Q 2500 2100 2187 2300 
Q 1875 2500 1487 2450 
Q 1100 2400 925 2075 
Q 750 1750 775 1387 
Q 800 1025 1025 787 
z
" transform="scale(0.015625)"/>
       </defs>
       <use xlink:href="#SimHei-31"/>
       <use xlink:href="#SimHei-32" x="50"/>
       <use xlink:href="#SimHei-31" x="100"/>
       <use xlink:href="#SimHei-2e" x="150"/>
       <use xlink:href="#SimHei-33" x="200"/>
       <use xlink:href="#SimHei-36" x="250"/>
      </g>
     </g>
    </g>
    <g id="xtick_4">
     <g id="line2d_4">
      <g>
       <use xlink:href="#mc14063fd71" x="226.977307" y="250.586122" style="stroke: #000000; stroke-width: 0.8"/>
      </g>
     </g>
     <g id="text_4">
      <!-- 121.38 -->
      <g transform="translate(211.977307 264.461122) scale(0.1 -0.1)">
       <defs>
        <path id="SimHei-38" d="M 175 1375 
Q 175 1675 325 1962 
Q 475 2250 825 2425 
Q 525 2600 425 2812 
Q 325 3025 312 3300 
Q 300 3575 387 3775 
Q 475 3975 650 4150 
Q 825 4325 1037 4387 
Q 1250 4450 1500 4450 
Q 1750 4450 1950 4400 
Q 2150 4350 2375 4187 
Q 2600 4025 2700 3725 
Q 2800 3425 2687 3025 
Q 2575 2625 2100 2400 
Q 2525 2275 2700 2012 
Q 2875 1750 2875 1375 
Q 2875 1000 2762 775 
Q 2650 550 2512 400 
Q 2375 250 2137 162 
Q 1900 75 1537 75 
Q 1175 75 912 162 
Q 650 250 475 425 
Q 300 600 237 837 
Q 175 1075 175 1375 
z
M 687 1400 
Q 675 1100 787 875 
Q 900 650 1200 587 
Q 1500 525 1825 600 
Q 2150 675 2275 950 
Q 2400 1225 2362 1500 
Q 2325 1775 2050 1962 
Q 1775 2150 1450 2125 
Q 1125 2100 912 1900 
Q 700 1700 687 1400 
z
M 775 3350 
Q 775 3100 950 2875 
Q 1125 2650 1500 2650 
Q 1875 2650 2062 2875 
Q 2250 3100 2237 3412 
Q 2225 3725 2012 3875 
Q 1800 4025 1437 4000 
Q 1075 3975 925 3787 
Q 775 3600 775 3350 
z
" transform="scale(0.015625)"/>
       </defs>
       <use xlink:href="#SimHei-31"/>
       <use xlink:href="#SimHei-32" x="50"/>
       <use xlink:href="#SimHei-31" x="100"/>
       <use xlink:href="#SimHei-2e" x="150"/>
       <use xlink:href="#SimHei-33" x="200"/>
       <use xlink:href="#SimHei-38" x="250"/>
      </g>
     </g>
    </g>
    <g id="xtick_5">
     <g id="line2d_5">
      <g>
       <use xlink:href="#mc14063fd71" x="277.747087" y="250.586122" style="stroke: #000000; stroke-width: 0.8"/>
      </g>
     </g>
     <g id="text_5">
      <!-- 121.40 -->
      <g transform="translate(262.747087 264.461122) scale(0.1 -0.1)">
       <defs>
        <path id="SimHei-30" d="M 225 2537 
Q 250 3200 412 3587 
Q 575 3975 875 4225 
Q 1175 4475 1612 4475 
Q 2050 4475 2375 4112 
Q 2700 3750 2800 3200 
Q 2900 2650 2862 1937 
Q 2825 1225 2612 775 
Q 2400 325 1975 150 
Q 1550 -25 1125 187 
Q 700 400 525 750 
Q 350 1100 275 1487 
Q 200 1875 225 2537 
z
M 750 2687 
Q 675 2000 800 1462 
Q 925 925 1212 700 
Q 1500 475 1800 612 
Q 2100 750 2237 1162 
Q 2375 1575 2375 2062 
Q 2375 2550 2337 2950 
Q 2300 3350 2112 3675 
Q 1925 4000 1612 4012 
Q 1300 4025 1062 3700 
Q 825 3375 750 2687 
z
" transform="scale(0.015625)"/>
       </defs>
       <use xlink:href="#SimHei-31"/>
       <use xlink:href="#SimHei-32" x="50"/>
       <use xlink:href="#SimHei-31" x="100"/>
       <use xlink:href="#SimHei-2e" x="150"/>
       <use xlink:href="#SimHei-34" x="200"/>
       <use xlink:href="#SimHei-30" x="250"/>
      </g>
     </g>
    </g>
    <g id="xtick_6">
     <g id="line2d_6">
      <g>
       <use xlink:href="#mc14063fd71" x="328.516868" y="250.586122" style="stroke: #000000; stroke-width: 0.8"/>
      </g>
     </g>
     <g id="text_6">
      <!-- 121.42 -->
      <g transform="translate(313.516868 264.461122) scale(0.1 -0.1)">
       <use xlink:href="#SimHei-31"/>
       <use xlink:href="#SimHei-32" x="50"/>
       <use xlink:href="#SimHei-31" x="100"/>
       <use xlink:href="#SimHei-2e" x="150"/>
       <use xlink:href="#SimHei-34" x="200"/>
       <use xlink:href="#SimHei-32" x="250"/>
      </g>
     </g>
    </g>
    <g id="xtick_7">
     <g id="line2d_7">
      <g>
       <use xlink:href="#mc14063fd71" x="379.286648" y="250.586122" style="stroke: #000000; stroke-width: 0.8"/>
      </g>
     </g>
     <g id="text_7">
      <!-- 121.44 -->
      <g transform="translate(364.286648 264.461122) scale(0.1 -0.1)">
       <use xlink:href="#SimHei-31"/>
       <use xlink:href="#SimHei-32" x="50"/>
       <use xlink:href="#SimHei-31" x="100"/>
       <use xlink:href="#SimHei-2e" x="150"/>
       <use xlink:href="#SimHei-34" x="200"/>
       <use xlink:href="#SimHei-34" x="250"/>
      </g>
     </g>
    </g>
    <g id="xtick_8">
     <g id="line2d_8">
      <g>
       <use xlink:href="#mc14063fd71" x="430.056429" y="250.586122" style="stroke: #000000; stroke-width: 0.8"/>
      </g>
     </g>
     <g id="text_8">
      <!-- 121.46 -->
      <g transform="translate(415.056429 264.461122) scale(0.1 -0.1)">
       <use xlink:href="#SimHei-31"/>
       <use xlink:href="#SimHei-32" x="50"/>
       <use xlink:href="#SimHei-31" x="100"/>
       <use xlink:href="#SimHei-2e" x="150"/>
       <use xlink:href="#SimHei-34" x="200"/>
       <use xlink:href="#SimHei-36" x="250"/>
      </g>
     </g>
    </g>
    <g id="xtick_9">
     <g id="line2d_9">
      <g>
       <use xlink:href="#mc14063fd71" x="480.82621" y="250.586122" style="stroke: #000000; stroke-width: 0.8"/>
      </g>
     </g>
     <g id="text_9">
      <!-- 121.48 -->
      <g transform="translate(465.82621 264.461122) scale(0.1 -0.1)">
       <use xlink:href="#SimHei-31"/>
       <use xlink:href="#SimHei-32" x="50"/>
       <use xlink:href="#SimHei-31" x="100"/>
       <use xlink:href="#SimHei-2e" x="150"/>
       <use xlink:href="#SimHei-34" x="200"/>
       <use xlink:href="#SimHei-38" x="250"/>
      </g>
     </g>
    </g>
   </g>
   <g id="matplotlib.axis_2">
    <g id="ytick_1">
     <g id="line2d_10">
      <defs>
       <path id="m1a5aab4e9c" d="M 0 0 
L -3.5 0 
" style="stroke: #000000; stroke-width: 0.8"/>
      </defs>
      <g>
       <use xlink:href="#m1a5aab4e9c" x="72" y="242.158156" style="stroke: #000000; stroke-width: 0.8"/>
      </g>
     </g>
     <g id="text_10">
      <!-- 31.17 -->
      <g transform="translate(40 245.595656) scale(0.1 -0.1)">
       <defs>
        <path id="SimHei-37" d="M 850 150 
Q 1300 2050 2425 3925 
L 275 3925 
L 275 4375 
L 2950 4375 
L 2950 3950 
Q 1775 2050 1400 150 
L 850 150 
z
" transform="scale(0.015625)"/>
       </defs>
       <use xlink:href="#SimHei-33"/>
       <use xlink:href="#SimHei-31" x="50"/>
       <use xlink:href="#SimHei-2e" x="100"/>
       <use xlink:href="#SimHei-31" x="150"/>
       <use xlink:href="#SimHei-37" x="200"/>
      </g>
     </g>
    </g>
    <g id="ytick_2">
     <g id="line2d_11">
      <g>
       <use xlink:href="#m1a5aab4e9c" x="72" y="212.480057" style="stroke: #000000; stroke-width: 0.8"/>
      </g>
     </g>
     <g id="text_11">
      <!-- 31.18 -->
      <g transform="translate(40 215.917557) scale(0.1 -0.1)">
       <use xlink:href="#SimHei-33"/>
       <use xlink:href="#SimHei-31" x="50"/>
       <use xlink:href="#SimHei-2e" x="100"/>
       <use xlink:href="#SimHei-31" x="150"/>
       <use xlink:href="#SimHei-38" x="200"/>
      </g>
     </g>
    </g>
    <g id="ytick_3">
     <g id="line2d_12">
      <g>
       <use xlink:href="#m1a5aab4e9c" x="72" y="182.801958" style="stroke: #000000; stroke-width: 0.8"/>
      </g>
     </g>
     <g id="text_12">
      <!-- 31.19 -->
      <g transform="translate(40 186.239458) scale(0.1 -0.1)">
       <defs>
        <path id="SimHei-39" d="M 800 75 
Q 1350 1000 1700 1750 
Q 1075 1650 662 1912 
Q 250 2175 162 2625 
Q 75 3075 175 3437 
Q 275 3800 487 4037 
Q 700 4275 1000 4375 
Q 1300 4475 1537 4475 
Q 1775 4475 2025 4375 
Q 2275 4275 2475 4075 
Q 2675 3875 2750 3662 
Q 2825 3450 2825 3112 
Q 2825 2775 2575 2250 
Q 2325 1725 1350 75 
L 800 75 
z
M 662 2875 
Q 700 2550 937 2337 
Q 1175 2125 1450 2150 
Q 1725 2175 1887 2300 
Q 2050 2425 2200 2725 
Q 2300 3100 2250 3362 
Q 2200 3625 1987 3800 
Q 1775 3975 1525 3975 
Q 1375 4000 1137 3900 
Q 900 3800 762 3500 
Q 625 3200 662 2875 
z
" transform="scale(0.015625)"/>
       </defs>
       <use xlink:href="#SimHei-33"/>
       <use xlink:href="#SimHei-31" x="50"/>
       <use xlink:href="#SimHei-2e" x="100"/>
       <use xlink:href="#SimHei-31" x="150"/>
       <use xlink:href="#SimHei-39" x="200"/>
      </g>
     </g>
    </g>
    <g id="ytick_4">
     <g id="line2d_13">
      <g>
       <use xlink:href="#m1a5aab4e9c" x="72" y="153.12386" style="stroke: #000000; stroke-width: 0.8"/>
      </g>
     </g>
     <g id="text_13">
      <!-- 31.20 -->
      <g transform="translate(40 156.56136) scale(0.1 -0.1)">
       <use xlink:href="#SimHei-33"/>
       <use xlink:href="#SimHei-31" x="50"/>
       <use xlink:href="#SimHei-2e" x="100"/>
       <use xlink:href="#SimHei-32" x="150"/>
       <use xlink:href="#SimHei-30" x="200"/>
      </g>
     </g>
    </g>
    <g id="ytick_5">
     <g id="line2d_14">
      <g>
       <use xlink:href="#m1a5aab4e9c" x="72" y="123.445761" style="stroke: #000000; stroke-width: 0.8"/>
      </g>
     </g>
     <g id="text_14">
      <!-- 31.21 -->
      <g transform="translate(40 126.883261) scale(0.1 -0.1)">
       <use xlink:href="#SimHei-33"/>
       <use xlink:href="#SimHei-31" x="50"/>
       <use xlink:href="#SimHei-2e" x="100"/>
       <use xlink:href="#SimHei-32" x="150"/>
       <use xlink:href="#SimHei-31" x="200"/>
      </g>
     </g>
    </g>
    <g id="ytick_6">
     <g id="line2d_15">
      <g>
       <use xlink:href="#m1a5aab4e9c" x="72" y="93.767662" style="stroke: #000000; stroke-width: 0.8"/>
      </g>
     </g>
     <g id="text_15">
      <!-- 31.22 -->
      <g transform="translate(40 97.205162) scale(0.1 -0.1)">
       <use xlink:href="#SimHei-33"/>
       <use xlink:href="#SimHei-31" x="50"/>
       <use xlink:href="#SimHei-2e" x="100"/>
       <use xlink:href="#SimHei-32" x="150"/>
       <use xlink:href="#SimHei-32" x="200"/>
      </g>
     </g>
    </g>
    <g id="ytick_7">
     <g id="line2d_16">
      <g>
       <use xlink:href="#m1a5aab4e9c" x="72" y="64.089563" style="stroke: #000000; stroke-width: 0.8"/>
      </g>
     </g>
     <g id="text_16">
      <!-- 31.23 -->
      <g transform="translate(40 67.527063) scale(0.1 -0.1)">
       <use xlink:href="#SimHei-33"/>
       <use xlink:href="#SimHei-31" x="50"/>
       <use xlink:href="#SimHei-2e" x="100"/>
       <use xlink:href="#SimHei-32" x="150"/>
       <use xlink:href="#SimHei-33" x="200"/>
      </g>
     </g>
    </g>
   </g>
   <g id="LineCollection_1">
    <path d="M 498.109091 49.852616 
L 497.433311 50.156657 
L 497.080703 50.931729 
L 494.045311 52.675894 
L 491.870464 53.397111 
L 489.930938 54.787367 
L 488.469662 54.942907 
L 484.867801 54.600633 
L 482.008027 54.765915 
L 478.969196 55.351382 
L 473.941152 57.5894 
L 471.066983 59.202352 
L 459.56656 66.870273 
L 452.781443 70.41419 
L 446.800559 73.297922 
L 442.655406 75.122071 
L 440.568645 75.844369 
L 438.201276 76.384067 
L 435.173913 76.506809 
L 426.070832 76.165599 
L 409.716719 76.359152 
L 405.023128 76.862378 
L 402.170341 77.760071 
L 390.768456 82.894468 
L 387.685603 84.002325 
L 382.141967 85.327377 
L 379.161907 85.885304 
L 377.905285 86.455402 
L 373.527556 89.171258 
L 372.474278 89.596735 
L 367.725912 90.586194 
L 366.33799 91.137929 
L 365.767303 91.635198 
L 363.636642 93.875677 
L 360.797276 96.186741 
L 358.024784 98.064592 
L 356.177826 99.492922 
L 352.827737 102.715815 
L 350.84159 104.399155 
L 347.155191 106.401874 
L 346.227424 106.993565 
L 344.373929 108.66265 
L 342.702526 110.986188 
L 340.801186 114.263157 
L 340.163209 115.097457 
L 339.13542 115.817575 
L 338.16726 116.28235 
L 325.348979 119.237311 
L 322.806 120.118052 
L 316.744769 121.997454 
L 303.291568 125.698982 
L 299.965847 127.11228 
L 297.856633 128.682064 
L 294.097847 132.230389 
L 285.648783 139.466198 
L 282.613792 141.503149 
L 279.283334 143.113296 
L 274.538172 144.659164 
L 265.299988 147.551326 
L 263.557321 148.229375 
L 262.541497 148.388004 
L 261.936956 148.724773 
L 259.940982 150.236959 
L 257.910236 151.352021 
L 251.681559 155.43317 
L 225.873409 173.431206 
L 219.952746 176.541392 
L 217.807541 177.651381 
L 201.990365 183.702595 
L 185.044336 189.941781 
L 175.19537 193.454377 
L 170.015835 195.210417 
L 164.292878 197.751865 
L 161.688563 199.093061 
L 157.80128 200.804646 
L 142.887856 205.968016 
L 141.034574 206.77587 
L 139.010757 207.811421 
L 135.993008 209.786075 
L 121.15554 222.913709 
L 119.18362 224.518499 
L 103.059018 236.951674 
L 98.447446 239.440184 
L 95.186469 241.027384 
L 92.290909 237.602029 
L 98.770571 233.91429 
L 98.770571 233.91429 
" clip-path="url(#pd30bfc21d7)" style="fill: none; stroke: #1f77b4; stroke-width: 1.5"/>
   </g>
   <g id="patch_3">
    <path d="M 72 250.586122 
L 72 40.293878 
" style="fill: none; stroke: #000000; stroke-width: 0.8; stroke-linejoin: miter; stroke-linecap: square"/>
   </g>
   <g id="patch_4">
    <path d="M 518.4 250.586122 
L 518.4 40.293878 
" style="fill: none; stroke: #000000; stroke-width: 0.8; stroke-linejoin: miter; stroke-linecap: square"/>
   </g>
   <g id="patch_5">
    <path d="M 72 250.586122 
L 518.4 250.586122 
" style="fill: none; stroke: #000000; stroke-width: 0.8; stroke-linejoin: miter; stroke-linecap: square"/>
   </g>
   <g id="patch_6">
    <path d="M 72 40.293878 
L 518.4 40.293878 
" style="fill: none; stroke: #000000; stroke-width: 0.8; stroke-linejoin: miter; stroke-linecap: square"/>
   </g>
   <g id="text_17">
    <!-- 公交线路图 -->
    <g transform="translate(265.2 34.293878) scale(0.12 -0.12)">
     <defs>
      <path id="SimHei-516c" d="M 4450 550 
Q 4250 900 3900 1350 
Q 4150 1500 4325 1650 
Q 4700 1100 5025 562 
Q 5350 25 5525 -300 
Q 5250 -450 5050 -575 
Q 4900 -275 4650 150 
Q 2975 -75 2287 -175 
Q 1600 -275 1300 -400 
Q 1225 -150 1025 150 
Q 1275 250 1500 500 
Q 1725 750 2162 1550 
Q 2600 2350 2775 2950 
Q 3150 2725 3350 2675 
Q 3075 2250 2612 1400 
Q 2150 550 1950 300 
Q 3100 400 4450 550 
z
M 4025 5200 
Q 4500 3925 5037 3275 
Q 5575 2625 6125 2325 
Q 5775 2150 5650 1900 
Q 4900 2525 4375 3350 
Q 3850 4175 3525 5025 
Q 3800 5075 4025 5200 
z
M 2725 4775 
Q 2250 3775 1750 3025 
Q 1250 2275 725 1775 
Q 525 2050 300 2175 
Q 825 2575 1400 3400 
Q 1975 4225 2225 5000 
Q 2400 4875 2725 4775 
z
" transform="scale(0.015625)"/>
      <path id="SimHei-4ea4" d="M 2325 2600 
Q 2775 1575 3200 1150 
Q 3875 1825 4225 2725 
Q 4425 2575 4725 2400 
Q 4125 1450 3550 825 
Q 4400 175 6000 25 
Q 5750 -325 5700 -550 
Q 4100 -250 3150 525 
Q 2075 -275 650 -600 
Q 575 -300 375 -50 
Q 1900 125 2775 850 
Q 2200 1525 1850 2350 
Q 2150 2475 2325 2600 
z
M 1250 3725 
Q 875 3725 525 3700 
L 525 4200 
L 1225 4150 
L 5125 4150 
Q 5525 4175 5950 4200 
L 5950 3675 
Q 5525 3700 5125 3725 
L 1250 3725 
z
M 2525 3300 
Q 2175 2975 1025 2000 
Q 825 2250 550 2400 
Q 1025 2650 1412 3025 
Q 1800 3400 2000 3675 
Q 2250 3500 2525 3300 
z
M 4325 3675 
Q 4450 3575 4900 3237 
Q 5350 2900 5775 2600 
Q 5500 2400 5300 2175 
Q 5075 2475 3900 3300 
Q 4100 3500 4325 3675 
z
M 3250 5300 
Q 3500 4725 3625 4375 
Q 3275 4275 3025 4200 
Q 2875 4625 2650 5125 
Q 2950 5225 3250 5300 
z
" transform="scale(0.015625)"/>
      <path id="SimHei-7ebf" d="M 3450 4300 
Q 3450 4675 3375 5125 
Q 3700 5100 4050 5050 
Q 3975 4900 3950 4562 
Q 3925 4225 3950 3600 
L 4800 3750 
Q 5225 3850 5650 3975 
L 5750 3500 
Q 5325 3450 4875 3375 
L 3975 3200 
Q 3975 2800 4025 2500 
L 5000 2675 
Q 5500 2775 5950 2925 
L 6025 2450 
Q 5575 2375 5075 2275 
L 4100 2100 
Q 4150 1600 4350 1175 
Q 4575 1350 4787 1575 
Q 5000 1800 5175 2075 
Q 5550 1775 5750 1675 
Q 5425 1525 5237 1337 
Q 5050 1150 4625 750 
Q 4925 250 5162 112 
Q 5400 -25 5500 100 
Q 5600 225 5675 625 
Q 5900 450 6200 350 
Q 5775 -750 5275 -537 
Q 4775 -325 4225 450 
Q 3875 175 3537 -62 
Q 3200 -300 2700 -550 
Q 2575 -300 2325 -100 
Q 2825 75 3175 275 
Q 3525 475 3975 850 
Q 3750 1350 3650 2025 
Q 2900 1900 2600 1800 
L 2525 2275 
Q 2825 2275 3550 2425 
Q 3500 2825 3500 3100 
Q 2825 2950 2575 2875 
L 2475 3350 
Q 2725 3350 3450 3500 
L 3450 4300 
z
M 1950 4875 
Q 1700 4650 1462 4237 
Q 1225 3825 825 3225 
Q 1425 3250 1650 3250 
Q 1875 3625 2050 4075 
Q 2300 3900 2600 3800 
Q 2350 3550 2087 3125 
Q 1825 2700 1175 1675 
Q 1850 1725 2375 1775 
Q 2300 1525 2300 1350 
Q 2125 1350 1525 1287 
Q 925 1225 550 1125 
Q 525 1375 400 1650 
Q 700 1725 950 2050 
Q 1200 2375 1475 2875 
Q 650 2825 425 2675 
Q 350 2950 200 3225 
Q 525 3450 825 3962 
Q 1125 4475 1375 5150 
Q 1625 4975 1950 4875 
z
M 2575 875 
Q 2550 600 2575 450 
Q 1950 325 1450 200 
Q 950 75 525 -75 
Q 450 200 250 475 
Q 950 550 1325 612 
Q 1700 675 2575 875 
z
M 4850 4025 
Q 4675 4300 4375 4675 
L 4775 4875 
Q 4875 4750 5275 4275 
Q 5025 4175 4850 4025 
z
" transform="scale(0.015625)"/>
      <path id="SimHei-8def" d="M 2900 425 
Q 1225 -75 475 -350 
Q 425 -150 275 125 
Q 525 150 700 225 
L 700 1800 
Q 700 2000 675 2325 
L 1150 2325 
Q 1125 2100 1125 1675 
L 1125 325 
Q 1300 375 1550 450 
L 1550 2975 
L 725 2975 
Q 750 3225 750 3850 
Q 750 4500 725 4750 
L 2650 4750 
Q 2625 4475 2625 3850 
Q 2625 3250 2650 2975 
L 1975 2975 
L 1975 2075 
Q 2275 2075 2600 2100 
L 2600 1650 
Q 2275 1675 1975 1675 
L 1975 550 
Q 2200 600 2900 875 
Q 2875 675 2900 425 
z
M 4225 5025 
Q 4075 4850 3925 4550 
L 5750 4550 
Q 5575 4125 5287 3650 
Q 5000 3175 4750 2850 
Q 5325 2400 6200 2200 
Q 6000 1950 5900 1750 
Q 5600 1875 5200 2087 
Q 4800 2300 4475 2550 
Q 4150 2300 3762 2100 
Q 3375 1900 2925 1700 
Q 2825 1925 2650 2125 
Q 2975 2200 3400 2375 
Q 3825 2550 4150 2825 
Q 3900 3075 3425 3650 
Q 3250 3350 3100 3150 
Q 2950 3300 2725 3425 
Q 3000 3675 3275 4187 
Q 3550 4700 3700 5225 
Q 3975 5050 4225 5025 
z
M 5525 1800 
Q 5500 1475 5500 650 
Q 5500 -150 5525 -525 
L 5050 -525 
L 5050 -50 
L 3625 -50 
L 3625 -550 
L 3175 -550 
Q 3200 -125 3200 650 
Q 3200 1450 3175 1800 
L 5525 1800 
z
M 5050 325 
L 5050 1400 
L 3625 1400 
L 3625 325 
L 5050 325 
z
M 2200 3350 
L 2200 4375 
L 1175 4375 
L 1175 3350 
L 2200 3350 
z
M 3650 4000 
Q 3950 3550 4425 3125 
Q 4575 3275 4775 3612 
Q 4975 3950 5075 4175 
L 3750 4175 
L 3650 4000 
z
" transform="scale(0.015625)"/>
      <path id="SimHei-56fe" d="M 5800 4975 
Q 5775 4350 5775 3600 
L 5775 925 
Q 5775 150 5800 -600 
L 5300 -600 
L 5300 -275 
L 1125 -275 
L 1125 -650 
L 625 -650 
Q 650 125 650 950 
L 650 3600 
Q 650 4325 625 4975 
L 5800 4975 
z
M 5300 150 
L 5300 4575 
L 1125 4575 
L 1125 150 
L 5300 150 
z
M 3225 4250 
Q 3075 4100 2950 3925 
L 4625 3925 
Q 4525 3700 4300 3375 
Q 4075 3050 3600 2600 
Q 4350 2225 5075 2150 
Q 4900 1925 4775 1675 
Q 3850 1950 3225 2350 
Q 2500 1875 1675 1650 
Q 1600 1875 1400 2075 
Q 2200 2200 2875 2600 
Q 2525 2925 2375 3150 
Q 2150 2900 1900 2650 
Q 1725 2850 1525 2950 
Q 1950 3300 2250 3737 
Q 2550 4175 2675 4475 
Q 2925 4350 3225 4250 
z
M 2450 1275 
Q 3550 950 4100 725 
Q 3975 525 3850 300 
Q 2825 725 2275 850 
Q 2375 1050 2450 1275 
z
M 2925 2050 
Q 3775 1700 4075 1600 
Q 3950 1400 3850 1150 
Q 3000 1550 2700 1650 
Q 2825 1825 2925 2050 
z
M 2625 3450 
Q 3000 3025 3275 2850 
Q 3600 3100 3875 3525 
L 2675 3525 
L 2625 3450 
z
" transform="scale(0.015625)"/>
     </defs>
     <use xlink:href="#SimHei-516c"/>
     <use xlink:href="#SimHei-4ea4" x="100"/>
     <use xlink:href="#SimHei-7ebf" x="200"/>
     <use xlink:href="#SimHei-8def" x="300"/>
     <use xlink:href="#SimHei-56fe" x="400"/>
    </g>
   </g>
  </g>
 </g>
 <defs>
  <clipPath id="pd30bfc21d7">
   <rect x="72" y="40.293878" width="446.4" height="210.292244"/>
  </clipPath>
 </defs>
</svg>
