<?xml version="1.0" encoding="utf-8" standalone="no"?>
<!DOCTYPE svg PUBLIC "-//W3C//DTD SVG 1.1//EN"
  "http://www.w3.org/Graphics/SVG/1.1/DTD/svg11.dtd">
<svg xmlns:xlink="http://www.w3.org/1999/xlink" width="576pt" height="288pt" viewBox="0 0 576 288" xmlns="http://www.w3.org/2000/svg" version="1.1">
 <metadata>
  <rdf:RDF xmlns:dc="http://purl.org/dc/elements/1.1/" xmlns:cc="http://creativecommons.org/ns#" xmlns:rdf="http://www.w3.org/1999/02/22-rdf-syntax-ns#">
   <cc:Work>
    <dc:type rdf:resource="http://purl.org/dc/dcmitype/StillImage"/>
    <dc:date>2025-04-29T14:06:58.560744</dc:date>
    <dc:format>image/svg+xml</dc:format>
    <dc:creator>
     <cc:Agent>
      <dc:title>Matplotlib v3.9.2, https://matplotlib.org/</dc:title>
     </cc:Agent>
    </dc:creator>
   </cc:Work>
  </rdf:RDF>
 </metadata>
 <defs>
  <style type="text/css">*{stroke-linejoin: round; stroke-linecap: butt}</style>
 </defs>
 <g id="figure_1">
  <g id="patch_1">
   <path d="M 0 288 
L 576 288 
L 576 0 
L 0 0 
z
" style="fill: #ffffff"/>
  </g>
  <g id="axes_1">
   <g id="patch_2">
    <path d="M 72 247.685364 
L 518.4 247.685364 
L 518.4 43.194636 
L 72 43.194636 
z
" style="fill: #ffffff"/>
   </g>
   <g id="PathCollection_1">
    <defs>
     <path id="m8739ce81d3" d="M 0 3 
C 0.795609 3 1.55874 2.683901 2.12132 2.12132 
C 2.683901 1.55874 3 0.795609 3 0 
C 3 -0.795609 2.683901 -1.55874 2.12132 -2.12132 
C 1.55874 -2.683901 0.795609 -3 0 -3 
C -0.795609 -3 -1.55874 -2.683901 -2.12132 -2.12132 
C -2.683901 -1.55874 -3 -0.795609 -3 0 
C -3 0.795609 -2.683901 1.55874 -2.12132 2.12132 
C -1.55874 2.683901 -0.795609 3 0 3 
z
" style="stroke: #1f77b4"/>
    </defs>
    <g clip-path="url(#p1bf3c4b8b0)">
     <use xlink:href="#m8739ce81d3" x="498.109091" y="52.489669" style="fill: #1f77b4; stroke: #1f77b4"/>
     <use xlink:href="#m8739ce81d3" x="466.663722" y="64.716807" style="fill: #1f77b4; stroke: #1f77b4"/>
     <use xlink:href="#m8739ce81d3" x="453.830285" y="72.441981" style="fill: #1f77b4; stroke: #1f77b4"/>
     <use xlink:href="#m8739ce81d3" x="439.47412" y="78.973114" style="fill: #1f77b4; stroke: #1f77b4"/>
     <use xlink:href="#m8739ce81d3" x="420.325197" y="79.37449" style="fill: #1f77b4; stroke: #1f77b4"/>
     <use xlink:href="#m8739ce81d3" x="398.876278" y="81.70972" style="fill: #1f77b4; stroke: #1f77b4"/>
     <use xlink:href="#m8739ce81d3" x="385.77222" y="87.255503" style="fill: #1f77b4; stroke: #1f77b4"/>
     <use xlink:href="#m8739ce81d3" x="376.38245" y="89.57735" style="fill: #1f77b4; stroke: #1f77b4"/>
     <use xlink:href="#m8739ce81d3" x="359.90436" y="98.508925" style="fill: #1f77b4; stroke: #1f77b4"/>
     <use xlink:href="#m8739ce81d3" x="343.714639" y="110.666978" style="fill: #1f77b4; stroke: #1f77b4"/>
     <use xlink:href="#m8739ce81d3" x="338.158713" y="118.00003" style="fill: #1f77b4; stroke: #1f77b4"/>
     <use xlink:href="#m8739ce81d3" x="319.898439" y="123.934038" style="fill: #1f77b4; stroke: #1f77b4"/>
     <use xlink:href="#m8739ce81d3" x="301.315932" y="129.254718" style="fill: #1f77b4; stroke: #1f77b4"/>
     <use xlink:href="#m8739ce81d3" x="272.475585" y="148.495705" style="fill: #1f77b4; stroke: #1f77b4"/>
     <use xlink:href="#m8739ce81d3" x="241.668559" y="164.049207" style="fill: #1f77b4; stroke: #1f77b4"/>
     <use xlink:href="#m8739ce81d3" x="229.972745" y="172.179894" style="fill: #1f77b4; stroke: #1f77b4"/>
     <use xlink:href="#m8739ce81d3" x="219.935067" y="178.968121" style="fill: #1f77b4; stroke: #1f77b4"/>
     <use xlink:href="#m8739ce81d3" x="203.639069" y="186.208701" style="fill: #1f77b4; stroke: #1f77b4"/>
     <use xlink:href="#m8739ce81d3" x="181.873113" y="194.179066" style="fill: #1f77b4; stroke: #1f77b4"/>
     <use xlink:href="#m8739ce81d3" x="158.936265" y="202.769398" style="fill: #1f77b4; stroke: #1f77b4"/>
     <use xlink:href="#m8739ce81d3" x="138.855057" y="210.607666" style="fill: #1f77b4; stroke: #1f77b4"/>
     <use xlink:href="#m8739ce81d3" x="117.902465" y="225.97365" style="fill: #1f77b4; stroke: #1f77b4"/>
     <use xlink:href="#m8739ce81d3" x="106.522571" y="235.073462" style="fill: #1f77b4; stroke: #1f77b4"/>
     <use xlink:href="#m8739ce81d3" x="92.290909" y="238.390331" style="fill: #1f77b4; stroke: #1f77b4"/>
    </g>
   </g>
   <g id="matplotlib.axis_1">
    <g id="xtick_1">
     <g id="line2d_1">
      <defs>
       <path id="m6b2686cb9f" d="M 0 0 
L 0 3.5 
" style="stroke: #000000; stroke-width: 0.8"/>
      </defs>
      <g>
       <use xlink:href="#m6b2686cb9f" x="119.504227" y="247.685364" style="stroke: #000000; stroke-width: 0.8"/>
      </g>
     </g>
     <g id="text_1">
      <!-- 121.34 -->
      <g transform="translate(104.504227 261.560364) scale(0.1 -0.1)">
       <defs>
        <path id="SimHei-31" d="M 1400 3600 
Q 1075 3275 575 2975 
L 575 3450 
Q 1200 3875 1600 4450 
L 1900 4450 
L 1900 150 
L 1400 150 
L 1400 3600 
z
" transform="scale(0.015625)"/>
        <path id="SimHei-32" d="M 300 250 
Q 325 625 650 925 
Q 975 1225 1475 1862 
Q 1975 2500 2125 2850 
Q 2275 3200 2237 3450 
Q 2200 3700 2000 3862 
Q 1800 4025 1537 4000 
Q 1275 3975 1037 3800 
Q 800 3625 675 3275 
L 200 3350 
Q 400 3925 712 4187 
Q 1025 4450 1450 4475 
Q 1700 4500 1900 4462 
Q 2100 4425 2312 4287 
Q 2525 4150 2662 3875 
Q 2800 3600 2762 3212 
Q 2725 2825 2375 2287 
Q 2025 1750 1025 600 
L 2825 600 
L 2825 150 
L 300 150 
L 300 250 
z
" transform="scale(0.015625)"/>
        <path id="SimHei-2e" d="M 1075 125 
L 500 125 
L 500 675 
L 1075 675 
L 1075 125 
z
" transform="scale(0.015625)"/>
        <path id="SimHei-33" d="M 250 1225 
L 700 1300 
Q 800 975 1025 762 
Q 1250 550 1587 562 
Q 1925 575 2125 837 
Q 2325 1100 2300 1437 
Q 2275 1775 2037 1962 
Q 1800 2150 1275 2225 
L 1275 2550 
Q 1800 2600 2037 2825 
Q 2275 3050 2250 3412 
Q 2225 3775 1925 3937 
Q 1625 4100 1287 3975 
Q 950 3850 750 3275 
L 300 3350 
Q 450 3800 712 4100 
Q 975 4400 1425 4450 
Q 1875 4500 2212 4337 
Q 2550 4175 2687 3837 
Q 2825 3500 2725 3100 
Q 2625 2700 2150 2400 
Q 2500 2250 2687 1950 
Q 2875 1650 2812 1162 
Q 2750 675 2375 375 
Q 2000 75 1525 87 
Q 1050 100 700 387 
Q 350 675 250 1225 
z
" transform="scale(0.015625)"/>
        <path id="SimHei-34" d="M 2000 1100 
L 75 1100 
L 75 1525 
L 2100 4450 
L 2475 4450 
L 2475 1525 
L 3075 1525 
L 3075 1100 
L 2475 1100 
L 2475 150 
L 2000 150 
L 2000 1100 
z
M 2000 1525 
L 2000 3500 
L 600 1525 
L 2000 1525 
z
" transform="scale(0.015625)"/>
       </defs>
       <use xlink:href="#SimHei-31"/>
       <use xlink:href="#SimHei-32" x="50"/>
       <use xlink:href="#SimHei-31" x="100"/>
       <use xlink:href="#SimHei-2e" x="150"/>
       <use xlink:href="#SimHei-33" x="200"/>
       <use xlink:href="#SimHei-34" x="250"/>
      </g>
     </g>
    </g>
    <g id="xtick_2">
     <g id="line2d_2">
      <g>
       <use xlink:href="#m6b2686cb9f" x="171.055529" y="247.685364" style="stroke: #000000; stroke-width: 0.8"/>
      </g>
     </g>
     <g id="text_2">
      <!-- 121.36 -->
      <g transform="translate(156.055529 261.560364) scale(0.1 -0.1)">
       <defs>
        <path id="SimHei-36" d="M 250 1612 
Q 275 1975 387 2225 
Q 500 2475 725 2850 
L 1750 4450 
L 2325 4450 
L 1275 2800 
Q 1950 2975 2350 2750 
Q 2750 2525 2887 2237 
Q 3025 1950 3037 1612 
Q 3050 1275 2937 950 
Q 2825 625 2537 362 
Q 2250 100 1737 75 
Q 1225 50 862 262 
Q 500 475 362 862 
Q 225 1250 250 1612 
z
M 1025 787 
Q 1250 550 1625 525 
Q 2000 500 2250 775 
Q 2500 1050 2500 1575 
Q 2500 2100 2187 2300 
Q 1875 2500 1487 2450 
Q 1100 2400 925 2075 
Q 750 1750 775 1387 
Q 800 1025 1025 787 
z
" transform="scale(0.015625)"/>
       </defs>
       <use xlink:href="#SimHei-31"/>
       <use xlink:href="#SimHei-32" x="50"/>
       <use xlink:href="#SimHei-31" x="100"/>
       <use xlink:href="#SimHei-2e" x="150"/>
       <use xlink:href="#SimHei-33" x="200"/>
       <use xlink:href="#SimHei-36" x="250"/>
      </g>
     </g>
    </g>
    <g id="xtick_3">
     <g id="line2d_3">
      <g>
       <use xlink:href="#m6b2686cb9f" x="222.606832" y="247.685364" style="stroke: #000000; stroke-width: 0.8"/>
      </g>
     </g>
     <g id="text_3">
      <!-- 121.38 -->
      <g transform="translate(207.606832 261.560364) scale(0.1 -0.1)">
       <defs>
        <path id="SimHei-38" d="M 175 1375 
Q 175 1675 325 1962 
Q 475 2250 825 2425 
Q 525 2600 425 2812 
Q 325 3025 312 3300 
Q 300 3575 387 3775 
Q 475 3975 650 4150 
Q 825 4325 1037 4387 
Q 1250 4450 1500 4450 
Q 1750 4450 1950 4400 
Q 2150 4350 2375 4187 
Q 2600 4025 2700 3725 
Q 2800 3425 2687 3025 
Q 2575 2625 2100 2400 
Q 2525 2275 2700 2012 
Q 2875 1750 2875 1375 
Q 2875 1000 2762 775 
Q 2650 550 2512 400 
Q 2375 250 2137 162 
Q 1900 75 1537 75 
Q 1175 75 912 162 
Q 650 250 475 425 
Q 300 600 237 837 
Q 175 1075 175 1375 
z
M 687 1400 
Q 675 1100 787 875 
Q 900 650 1200 587 
Q 1500 525 1825 600 
Q 2150 675 2275 950 
Q 2400 1225 2362 1500 
Q 2325 1775 2050 1962 
Q 1775 2150 1450 2125 
Q 1125 2100 912 1900 
Q 700 1700 687 1400 
z
M 775 3350 
Q 775 3100 950 2875 
Q 1125 2650 1500 2650 
Q 1875 2650 2062 2875 
Q 2250 3100 2237 3412 
Q 2225 3725 2012 3875 
Q 1800 4025 1437 4000 
Q 1075 3975 925 3787 
Q 775 3600 775 3350 
z
" transform="scale(0.015625)"/>
       </defs>
       <use xlink:href="#SimHei-31"/>
       <use xlink:href="#SimHei-32" x="50"/>
       <use xlink:href="#SimHei-31" x="100"/>
       <use xlink:href="#SimHei-2e" x="150"/>
       <use xlink:href="#SimHei-33" x="200"/>
       <use xlink:href="#SimHei-38" x="250"/>
      </g>
     </g>
    </g>
    <g id="xtick_4">
     <g id="line2d_4">
      <g>
       <use xlink:href="#m6b2686cb9f" x="274.158135" y="247.685364" style="stroke: #000000; stroke-width: 0.8"/>
      </g>
     </g>
     <g id="text_4">
      <!-- 121.40 -->
      <g transform="translate(259.158135 261.560364) scale(0.1 -0.1)">
       <defs>
        <path id="SimHei-30" d="M 225 2537 
Q 250 3200 412 3587 
Q 575 3975 875 4225 
Q 1175 4475 1612 4475 
Q 2050 4475 2375 4112 
Q 2700 3750 2800 3200 
Q 2900 2650 2862 1937 
Q 2825 1225 2612 775 
Q 2400 325 1975 150 
Q 1550 -25 1125 187 
Q 700 400 525 750 
Q 350 1100 275 1487 
Q 200 1875 225 2537 
z
M 750 2687 
Q 675 2000 800 1462 
Q 925 925 1212 700 
Q 1500 475 1800 612 
Q 2100 750 2237 1162 
Q 2375 1575 2375 2062 
Q 2375 2550 2337 2950 
Q 2300 3350 2112 3675 
Q 1925 4000 1612 4012 
Q 1300 4025 1062 3700 
Q 825 3375 750 2687 
z
" transform="scale(0.015625)"/>
       </defs>
       <use xlink:href="#SimHei-31"/>
       <use xlink:href="#SimHei-32" x="50"/>
       <use xlink:href="#SimHei-31" x="100"/>
       <use xlink:href="#SimHei-2e" x="150"/>
       <use xlink:href="#SimHei-34" x="200"/>
       <use xlink:href="#SimHei-30" x="250"/>
      </g>
     </g>
    </g>
    <g id="xtick_5">
     <g id="line2d_5">
      <g>
       <use xlink:href="#m6b2686cb9f" x="325.709438" y="247.685364" style="stroke: #000000; stroke-width: 0.8"/>
      </g>
     </g>
     <g id="text_5">
      <!-- 121.42 -->
      <g transform="translate(310.709438 261.560364) scale(0.1 -0.1)">
       <use xlink:href="#SimHei-31"/>
       <use xlink:href="#SimHei-32" x="50"/>
       <use xlink:href="#SimHei-31" x="100"/>
       <use xlink:href="#SimHei-2e" x="150"/>
       <use xlink:href="#SimHei-34" x="200"/>
       <use xlink:href="#SimHei-32" x="250"/>
      </g>
     </g>
    </g>
    <g id="xtick_6">
     <g id="line2d_6">
      <g>
       <use xlink:href="#m6b2686cb9f" x="377.26074" y="247.685364" style="stroke: #000000; stroke-width: 0.8"/>
      </g>
     </g>
     <g id="text_6">
      <!-- 121.44 -->
      <g transform="translate(362.26074 261.560364) scale(0.1 -0.1)">
       <use xlink:href="#SimHei-31"/>
       <use xlink:href="#SimHei-32" x="50"/>
       <use xlink:href="#SimHei-31" x="100"/>
       <use xlink:href="#SimHei-2e" x="150"/>
       <use xlink:href="#SimHei-34" x="200"/>
       <use xlink:href="#SimHei-34" x="250"/>
      </g>
     </g>
    </g>
    <g id="xtick_7">
     <g id="line2d_7">
      <g>
       <use xlink:href="#m6b2686cb9f" x="428.812043" y="247.685364" style="stroke: #000000; stroke-width: 0.8"/>
      </g>
     </g>
     <g id="text_7">
      <!-- 121.46 -->
      <g transform="translate(413.812043 261.560364) scale(0.1 -0.1)">
       <use xlink:href="#SimHei-31"/>
       <use xlink:href="#SimHei-32" x="50"/>
       <use xlink:href="#SimHei-31" x="100"/>
       <use xlink:href="#SimHei-2e" x="150"/>
       <use xlink:href="#SimHei-34" x="200"/>
       <use xlink:href="#SimHei-36" x="250"/>
      </g>
     </g>
    </g>
    <g id="xtick_8">
     <g id="line2d_8">
      <g>
       <use xlink:href="#m6b2686cb9f" x="480.363346" y="247.685364" style="stroke: #000000; stroke-width: 0.8"/>
      </g>
     </g>
     <g id="text_8">
      <!-- 121.48 -->
      <g transform="translate(465.363346 261.560364) scale(0.1 -0.1)">
       <use xlink:href="#SimHei-31"/>
       <use xlink:href="#SimHei-32" x="50"/>
       <use xlink:href="#SimHei-31" x="100"/>
       <use xlink:href="#SimHei-2e" x="150"/>
       <use xlink:href="#SimHei-34" x="200"/>
       <use xlink:href="#SimHei-38" x="250"/>
      </g>
     </g>
    </g>
   </g>
   <g id="matplotlib.axis_2">
    <g id="ytick_1">
     <g id="line2d_9">
      <defs>
       <path id="m9d28141a57" d="M 0 0 
L -3.5 0 
" style="stroke: #000000; stroke-width: 0.8"/>
      </defs>
      <g>
       <use xlink:href="#m9d28141a57" x="72" y="217.755267" style="stroke: #000000; stroke-width: 0.8"/>
      </g>
     </g>
     <g id="text_9">
      <!-- 31.18 -->
      <g transform="translate(40 221.192767) scale(0.1 -0.1)">
       <use xlink:href="#SimHei-33"/>
       <use xlink:href="#SimHei-31" x="50"/>
       <use xlink:href="#SimHei-2e" x="100"/>
       <use xlink:href="#SimHei-31" x="150"/>
       <use xlink:href="#SimHei-38" x="200"/>
      </g>
     </g>
    </g>
    <g id="ytick_2">
     <g id="line2d_10">
      <g>
       <use xlink:href="#m9d28141a57" x="72" y="187.619872" style="stroke: #000000; stroke-width: 0.8"/>
      </g>
     </g>
     <g id="text_10">
      <!-- 31.19 -->
      <g transform="translate(40 191.057372) scale(0.1 -0.1)">
       <defs>
        <path id="SimHei-39" d="M 800 75 
Q 1350 1000 1700 1750 
Q 1075 1650 662 1912 
Q 250 2175 162 2625 
Q 75 3075 175 3437 
Q 275 3800 487 4037 
Q 700 4275 1000 4375 
Q 1300 4475 1537 4475 
Q 1775 4475 2025 4375 
Q 2275 4275 2475 4075 
Q 2675 3875 2750 3662 
Q 2825 3450 2825 3112 
Q 2825 2775 2575 2250 
Q 2325 1725 1350 75 
L 800 75 
z
M 662 2875 
Q 700 2550 937 2337 
Q 1175 2125 1450 2150 
Q 1725 2175 1887 2300 
Q 2050 2425 2200 2725 
Q 2300 3100 2250 3362 
Q 2200 3625 1987 3800 
Q 1775 3975 1525 3975 
Q 1375 4000 1137 3900 
Q 900 3800 762 3500 
Q 625 3200 662 2875 
z
" transform="scale(0.015625)"/>
       </defs>
       <use xlink:href="#SimHei-33"/>
       <use xlink:href="#SimHei-31" x="50"/>
       <use xlink:href="#SimHei-2e" x="100"/>
       <use xlink:href="#SimHei-31" x="150"/>
       <use xlink:href="#SimHei-39" x="200"/>
      </g>
     </g>
    </g>
    <g id="ytick_3">
     <g id="line2d_11">
      <g>
       <use xlink:href="#m9d28141a57" x="72" y="157.484476" style="stroke: #000000; stroke-width: 0.8"/>
      </g>
     </g>
     <g id="text_11">
      <!-- 31.20 -->
      <g transform="translate(40 160.921976) scale(0.1 -0.1)">
       <use xlink:href="#SimHei-33"/>
       <use xlink:href="#SimHei-31" x="50"/>
       <use xlink:href="#SimHei-2e" x="100"/>
       <use xlink:href="#SimHei-32" x="150"/>
       <use xlink:href="#SimHei-30" x="200"/>
      </g>
     </g>
    </g>
    <g id="ytick_4">
     <g id="line2d_12">
      <g>
       <use xlink:href="#m9d28141a57" x="72" y="127.34908" style="stroke: #000000; stroke-width: 0.8"/>
      </g>
     </g>
     <g id="text_12">
      <!-- 31.21 -->
      <g transform="translate(40 130.78658) scale(0.1 -0.1)">
       <use xlink:href="#SimHei-33"/>
       <use xlink:href="#SimHei-31" x="50"/>
       <use xlink:href="#SimHei-2e" x="100"/>
       <use xlink:href="#SimHei-32" x="150"/>
       <use xlink:href="#SimHei-31" x="200"/>
      </g>
     </g>
    </g>
    <g id="ytick_5">
     <g id="line2d_13">
      <g>
       <use xlink:href="#m9d28141a57" x="72" y="97.213685" style="stroke: #000000; stroke-width: 0.8"/>
      </g>
     </g>
     <g id="text_13">
      <!-- 31.22 -->
      <g transform="translate(40 100.651185) scale(0.1 -0.1)">
       <use xlink:href="#SimHei-33"/>
       <use xlink:href="#SimHei-31" x="50"/>
       <use xlink:href="#SimHei-2e" x="100"/>
       <use xlink:href="#SimHei-32" x="150"/>
       <use xlink:href="#SimHei-32" x="200"/>
      </g>
     </g>
    </g>
    <g id="ytick_6">
     <g id="line2d_14">
      <g>
       <use xlink:href="#m9d28141a57" x="72" y="67.078289" style="stroke: #000000; stroke-width: 0.8"/>
      </g>
     </g>
     <g id="text_14">
      <!-- 31.23 -->
      <g transform="translate(40 70.515789) scale(0.1 -0.1)">
       <use xlink:href="#SimHei-33"/>
       <use xlink:href="#SimHei-31" x="50"/>
       <use xlink:href="#SimHei-2e" x="100"/>
       <use xlink:href="#SimHei-32" x="150"/>
       <use xlink:href="#SimHei-33" x="200"/>
      </g>
     </g>
    </g>
   </g>
   <g id="patch_3">
    <path d="M 72 247.685364 
L 72 43.194636 
" style="fill: none; stroke: #000000; stroke-width: 0.8; stroke-linejoin: miter; stroke-linecap: square"/>
   </g>
   <g id="patch_4">
    <path d="M 518.4 247.685364 
L 518.4 43.194636 
" style="fill: none; stroke: #000000; stroke-width: 0.8; stroke-linejoin: miter; stroke-linecap: square"/>
   </g>
   <g id="patch_5">
    <path d="M 72 247.685364 
L 518.4 247.685364 
" style="fill: none; stroke: #000000; stroke-width: 0.8; stroke-linejoin: miter; stroke-linecap: square"/>
   </g>
   <g id="patch_6">
    <path d="M 72 43.194636 
L 518.4 43.194636 
" style="fill: none; stroke: #000000; stroke-width: 0.8; stroke-linejoin: miter; stroke-linecap: square"/>
   </g>
   <g id="text_15">
    <!-- 公交站点图 -->
    <g transform="translate(265.2 37.194636) scale(0.12 -0.12)">
     <defs>
      <path id="SimHei-516c" d="M 4450 550 
Q 4250 900 3900 1350 
Q 4150 1500 4325 1650 
Q 4700 1100 5025 562 
Q 5350 25 5525 -300 
Q 5250 -450 5050 -575 
Q 4900 -275 4650 150 
Q 2975 -75 2287 -175 
Q 1600 -275 1300 -400 
Q 1225 -150 1025 150 
Q 1275 250 1500 500 
Q 1725 750 2162 1550 
Q 2600 2350 2775 2950 
Q 3150 2725 3350 2675 
Q 3075 2250 2612 1400 
Q 2150 550 1950 300 
Q 3100 400 4450 550 
z
M 4025 5200 
Q 4500 3925 5037 3275 
Q 5575 2625 6125 2325 
Q 5775 2150 5650 1900 
Q 4900 2525 4375 3350 
Q 3850 4175 3525 5025 
Q 3800 5075 4025 5200 
z
M 2725 4775 
Q 2250 3775 1750 3025 
Q 1250 2275 725 1775 
Q 525 2050 300 2175 
Q 825 2575 1400 3400 
Q 1975 4225 2225 5000 
Q 2400 4875 2725 4775 
z
" transform="scale(0.015625)"/>
      <path id="SimHei-4ea4" d="M 2325 2600 
Q 2775 1575 3200 1150 
Q 3875 1825 4225 2725 
Q 4425 2575 4725 2400 
Q 4125 1450 3550 825 
Q 4400 175 6000 25 
Q 5750 -325 5700 -550 
Q 4100 -250 3150 525 
Q 2075 -275 650 -600 
Q 575 -300 375 -50 
Q 1900 125 2775 850 
Q 2200 1525 1850 2350 
Q 2150 2475 2325 2600 
z
M 1250 3725 
Q 875 3725 525 3700 
L 525 4200 
L 1225 4150 
L 5125 4150 
Q 5525 4175 5950 4200 
L 5950 3675 
Q 5525 3700 5125 3725 
L 1250 3725 
z
M 2525 3300 
Q 2175 2975 1025 2000 
Q 825 2250 550 2400 
Q 1025 2650 1412 3025 
Q 1800 3400 2000 3675 
Q 2250 3500 2525 3300 
z
M 4325 3675 
Q 4450 3575 4900 3237 
Q 5350 2900 5775 2600 
Q 5500 2400 5300 2175 
Q 5075 2475 3900 3300 
Q 4100 3500 4325 3675 
z
M 3250 5300 
Q 3500 4725 3625 4375 
Q 3275 4275 3025 4200 
Q 2875 4625 2650 5125 
Q 2950 5225 3250 5300 
z
" transform="scale(0.015625)"/>
      <path id="SimHei-7ad9" d="M 4450 3925 
L 5175 3925 
Q 5575 3925 6050 3950 
L 6050 3475 
Q 5575 3500 5175 3500 
L 4450 3500 
L 4450 2275 
L 5700 2275 
Q 5675 1900 5675 1575 
L 5675 350 
Q 5675 -100 5700 -575 
L 5175 -575 
L 5175 -50 
L 3500 -50 
L 3500 -600 
L 3025 -600 
Q 3025 -150 3050 200 
L 3050 1525 
Q 3025 1850 3025 2275 
L 3975 2275 
L 3975 4550 
Q 3975 4775 3950 5225 
L 4475 5225 
Q 4450 4750 4450 4600 
L 4450 3925 
z
M 5175 350 
L 5175 1875 
L 3500 1875 
L 3500 350 
L 5175 350 
z
M 2725 2875 
Q 2575 2500 2450 1912 
Q 2325 1325 2200 775 
Q 2675 875 2875 925 
Q 2875 725 2925 525 
Q 2150 350 1587 212 
Q 1025 75 550 -100 
Q 500 150 325 450 
Q 1400 600 1750 700 
Q 1850 1025 1987 1662 
Q 2125 2300 2175 3025 
Q 2450 2925 2725 2875 
z
M 1900 3875 
Q 2250 3875 2950 3900 
L 2950 3425 
Q 2250 3450 1900 3450 
L 1400 3450 
Q 1000 3450 375 3425 
L 375 3900 
Q 1000 3875 1400 3875 
L 1900 3875 
z
M 1075 2950 
Q 1475 1650 1550 1250 
Q 1300 1175 1075 1125 
Q 975 1725 600 2800 
Q 800 2875 1075 2950 
z
M 1525 4050 
Q 1425 4475 1125 5000 
Q 1325 5075 1550 5200 
Q 1775 4875 2000 4225 
Q 1800 4125 1525 4050 
z
" transform="scale(0.015625)"/>
      <path id="SimHei-70b9" d="M 3325 5200 
Q 3300 4925 3300 4375 
L 4900 4375 
Q 5275 4375 5725 4400 
L 5725 3925 
Q 5300 3950 4900 3950 
L 3300 3950 
L 3300 3225 
L 5225 3225 
Q 5200 2700 5200 2150 
Q 5200 1625 5225 1175 
L 1175 1175 
Q 1200 1625 1200 2175 
Q 1200 2725 1175 3225 
L 2775 3225 
L 2775 4500 
Q 2775 4900 2750 5200 
L 3325 5200 
z
M 4700 1600 
L 4700 2800 
L 1725 2800 
L 1725 1600 
L 4700 1600 
z
M 1500 750 
Q 1025 -250 825 -625 
Q 625 -475 325 -375 
Q 650 50 950 925 
Q 1200 800 1500 750 
z
M 5325 850 
Q 5775 150 6075 -350 
Q 5925 -425 5575 -625 
Q 5375 -150 4900 575 
Q 5150 700 5325 850 
z
M 3975 -575 
Q 3775 -100 3400 575 
Q 3575 675 3825 825 
Q 4350 -75 4450 -325 
Q 4200 -450 3975 -575 
z
M 2375 -575 
Q 2350 -300 1975 550 
Q 2200 625 2425 775 
Q 2800 -75 2900 -350 
Q 2625 -450 2375 -575 
z
" transform="scale(0.015625)"/>
      <path id="SimHei-56fe" d="M 5800 4975 
Q 5775 4350 5775 3600 
L 5775 925 
Q 5775 150 5800 -600 
L 5300 -600 
L 5300 -275 
L 1125 -275 
L 1125 -650 
L 625 -650 
Q 650 125 650 950 
L 650 3600 
Q 650 4325 625 4975 
L 5800 4975 
z
M 5300 150 
L 5300 4575 
L 1125 4575 
L 1125 150 
L 5300 150 
z
M 3225 4250 
Q 3075 4100 2950 3925 
L 4625 3925 
Q 4525 3700 4300 3375 
Q 4075 3050 3600 2600 
Q 4350 2225 5075 2150 
Q 4900 1925 4775 1675 
Q 3850 1950 3225 2350 
Q 2500 1875 1675 1650 
Q 1600 1875 1400 2075 
Q 2200 2200 2875 2600 
Q 2525 2925 2375 3150 
Q 2150 2900 1900 2650 
Q 1725 2850 1525 2950 
Q 1950 3300 2250 3737 
Q 2550 4175 2675 4475 
Q 2925 4350 3225 4250 
z
M 2450 1275 
Q 3550 950 4100 725 
Q 3975 525 3850 300 
Q 2825 725 2275 850 
Q 2375 1050 2450 1275 
z
M 2925 2050 
Q 3775 1700 4075 1600 
Q 3950 1400 3850 1150 
Q 3000 1550 2700 1650 
Q 2825 1825 2925 2050 
z
M 2625 3450 
Q 3000 3025 3275 2850 
Q 3600 3100 3875 3525 
L 2675 3525 
L 2625 3450 
z
" transform="scale(0.015625)"/>
     </defs>
     <use xlink:href="#SimHei-516c"/>
     <use xlink:href="#SimHei-4ea4" x="100"/>
     <use xlink:href="#SimHei-7ad9" x="200"/>
     <use xlink:href="#SimHei-70b9" x="300"/>
     <use xlink:href="#SimHei-56fe" x="400"/>
    </g>
   </g>
  </g>
 </g>
 <defs>
  <clipPath id="p1bf3c4b8b0">
   <rect x="72" y="43.194636" width="446.4" height="204.490727"/>
  </clipPath>
 </defs>
</svg>
