<?xml version="1.0" encoding="utf-8" standalone="no"?>
<!DOCTYPE svg PUBLIC "-//W3C//DTD SVG 1.1//EN"
  "http://www.w3.org/Graphics/SVG/1.1/DTD/svg11.dtd">
<svg xmlns:xlink="http://www.w3.org/1999/xlink" width="437pt" height="221.426982pt" viewBox="0 0 437 221.426982" xmlns="http://www.w3.org/2000/svg" version="1.1">
 <metadata>
  <rdf:RDF xmlns:dc="http://purl.org/dc/elements/1.1/" xmlns:cc="http://creativecommons.org/ns#" xmlns:rdf="http://www.w3.org/1999/02/22-rdf-syntax-ns#">
   <cc:Work>
    <dc:type rdf:resource="http://purl.org/dc/dcmitype/StillImage"/>
    <dc:date>2025-04-29T14:06:12.606935</dc:date>
    <dc:format>image/svg+xml</dc:format>
    <dc:creator>
     <cc:Agent>
      <dc:title>Matplotlib v3.9.2, https://matplotlib.org/</dc:title>
     </cc:Agent>
    </dc:creator>
   </cc:Work>
  </rdf:RDF>
 </metadata>
 <defs>
  <style type="text/css">*{stroke-linejoin: round; stroke-linecap: butt}</style>
 </defs>
 <g id="figure_1">
  <g id="patch_1">
   <path d="M 0 221.426982 
L 437 221.426982 
L 437 0 
L 0 0 
z
" style="fill: #ffffff"/>
  </g>
  <g id="axes_1">
   <g id="patch_2">
    <path d="M 39.2 199.101982 
L 429.8 199.101982 
L 429.8 10.267916 
L 39.2 10.267916 
z
" style="fill: #ffffff"/>
   </g>
   <g id="PatchCollection_1">
    <path d="M 70.565049 176.823602 
L 71.300001 176.253146 
L 75.435671 173.041645 
L 76.156002 172.48209 
L 76.186301 172.458759 
L 78.534971 170.66601 
L 81.682751 168.263569 
L 83.300095 166.94733 
L 83.303975 166.944175 
L 84.136195 166.268431 
L 84.667745 165.792152 
L 85.428126 165.108998 
L 85.445098 165.093827 
L 89.878262 161.151186 
L 90.916005 160.227627 
L 91.510787 159.698208 
L 93.151693 158.23971 
L 94.659724 156.897228 
L 95.728921 155.945556 
L 95.986338 155.73294 
L 96.258652 155.539983 
L 97.947091 154.435014 
L 98.818132 153.865186 
L 99.23269 153.62443 
L 100.948772 152.746339 
L 101.200658 152.627136 
L 102.772139 151.942119 
L 103.0851 151.81939 
L 104.413012 151.355083 
L 104.428492 151.349702 
L 105.59173 150.947729 
L 106.444118 150.651767 
L 106.455563 150.647811 
L 107.522656 150.28052 
L 112.896187 148.422254 
L 113.534472 148.201577 
L 115.571032 147.496451 
L 116.315441 147.168987 
L 118.572905 146.174663 
L 120.6047 145.128307 
L 121.291923 144.750214 
L 121.70158 144.551104 
L 125.812493 142.804174 
L 126.418931 142.546315 
L 126.794732 142.405948 
L 127.347591 142.227094 
L 130.512266 141.196951 
L 138.802372 138.240317 
L 140.488461 137.63712 
L 143.012905 136.703551 
L 146.617913 135.372221 
L 147.208622 135.152324 
L 147.21825 135.148752 
L 148.595635 134.63959 
L 149.907438 134.154006 
L 149.911795 134.152396 
L 153.12602 132.966411 
L 156.600644 131.681912 
L 158.418314 131.00846 
L 158.933987 130.807565 
L 160.258738 130.289034 
L 160.262969 130.287381 
L 161.114361 129.955126 
L 162.209963 129.526747 
L 164.186059 128.755376 
L 165.53801 128.224401 
L 165.548661 128.220234 
L 166.240327 127.950614 
L 167.845575 127.120013 
L 171.520935 125.213978 
L 172.565994 124.644972 
L 175.794883 122.395966 
L 178.438777 120.551205 
L 178.442593 120.548546 
L 179.373182 119.900671 
L 179.376996 119.898019 
L 180.529379 119.097501 
L 181.279335 118.576508 
L 182.594163 117.660329 
L 182.600313 117.656051 
L 184.713888 116.188536 
L 187.95295 113.935568 
L 189.216152 113.057623 
L 190.941649 111.84617 
L 194.231463 109.535709 
L 194.728927 109.186419 
L 195.370866 108.734891 
L 195.528907 108.628638 
L 199.668344 105.970768 
L 199.934395 105.812563 
L 201.366669 105.026112 
L 202.795545 103.943563 
L 203.324657 103.598168 
L 203.837274 103.312607 
L 204.192884 103.134588 
L 204.562687 102.988665 
L 204.943821 102.875969 
L 205.333337 102.79737 
L 205.712555 102.738152 
L 206.735223 102.340247 
L 207.03048 102.237027 
L 208.488946 101.783386 
L 214.85164 99.788481 
L 216.102759 99.394643 
L 216.827725 99.156052 
L 218.529052 98.591886 
L 220.870218 97.460021 
L 221.6473 96.975071 
L 222.109897 96.649657 
L 223.021328 96.0052 
L 223.032723 95.99717 
L 223.372869 95.758232 
L 229.829369 90.149313 
L 230.701309 89.390559 
L 232.824327 87.317686 
L 233.283535 86.92565 
L 235.072019 85.59456 
L 235.520698 85.300366 
L 236.000889 85.061631 
L 238.820917 83.86323 
L 239.436274 83.652768 
L 240.475466 83.379403 
L 250.722442 80.547272 
L 255.724884 78.996169 
L 257.811514 78.273481 
L 258.276805 78.139887 
L 259.265864 77.912711 
L 264.735182 76.650968 
L 266.560013 76.229473 
L 268.656436 75.746929 
L 268.689795 75.730915 
L 268.773739 75.621137 
L 268.889774 75.462223 
L 270.049361 73.364231 
L 270.337316 72.909229 
L 271.75454 70.939003 
L 272.058361 70.561032 
L 272.400656 70.217863 
L 273.9723 68.802572 
L 274.260012 68.564251 
L 274.566309 68.350589 
L 275.350305 67.850586 
L 275.779959 67.575714 
L 276.10538 67.386182 
L 278.363192 66.194532 
L 279.562401 65.178146 
L 282.300308 62.544163 
L 282.669051 62.225819 
L 284.235157 61.014673 
L 284.465339 60.847965 
L 286.653403 59.365945 
L 287.685368 58.527408 
L 288.680411 57.716162 
L 290.289452 56.024167 
L 292.124117 55.241631 
L 292.608034 54.81997 
L 293.010043 54.507692 
L 293.444419 54.242758 
L 293.905663 54.028518 
L 295.082571 53.560672 
L 295.634745 53.381446 
L 296.912655 53.056068 
L 297.196272 52.993528 
L 299.502843 52.562491 
L 299.6199 52.515206 
L 303.002825 50.416523 
L 303.295432 50.249791 
L 303.599579 50.105399 
L 303.96286 49.949283 
L 304.527437 49.683916 
L 304.879371 49.536354 
L 305.242439 49.419142 
L 305.614055 49.333116 
L 308.031451 48.880544 
L 312.381965 47.840697 
L 314.651603 47.02509 
L 315.957016 46.477666 
L 317.780862 45.616041 
L 320.405542 44.373522 
L 320.578191 44.296184 
L 322.785828 43.362426 
L 324.090327 42.769776 
L 324.507572 42.604759 
L 325.847308 42.150678 
L 326.060282 42.08433 
L 327.139606 41.777213 
L 327.711214 41.654065 
L 328.864109 41.483172 
L 329.118217 41.452867 
L 331.945323 41.197063 
L 332.296808 41.179091 
L 334.777336 41.149487 
L 338.743311 41.101799 
L 341.262153 40.995194 
L 341.695923 40.997781 
L 342.60441 41.047088 
L 346.177469 41.014901 
L 346.198198 41.014762 
L 347.789751 41.00778 
L 348.012727 41.012334 
L 349.0467 41.059128 
L 349.067293 41.060107 
L 350.084542 41.110823 
L 353.955395 41.299642 
L 355.911506 41.220342 
L 356.066082 41.185346 
L 357.270951 40.909941 
L 358.63619 40.437394 
L 361.911661 38.995981 
L 366.84091 36.619328 
L 367.616405 36.211045 
L 367.621862 36.208176 
L 368.410267 35.794476 
L 368.421989 35.788347 
L 372.538659 33.643645 
L 372.75824 33.528914 
L 373.301214 33.152044 
L 374.955745 31.516023 
L 375.351922 31.167544 
L 375.785775 30.867747 
L 377.229677 29.989941 
L 380.314126 27.897419 
L 380.544542 27.751076 
L 381.306285 27.299003 
L 381.445196 27.219857 
L 383.120583 26.304234 
L 383.449331 26.14157 
L 387.712833 24.243851 
L 388.193643 24.061947 
L 388.691903 23.936064 
L 391.268673 23.43962 
L 391.610133 23.387343 
L 392.369627 23.30076 
L 392.734422 23.274143 
L 394.399868 23.220577 
L 394.969815 23.238419 
L 397.316055 23.461374 
L 397.70384 23.157525 
L 398.128416 22.862437 
L 398.583735 22.61794 
L 399.06385 22.42723 
L 399.900472 22.149305 
L 400.553187 21.933166 
L 401.17692 21.60271 
L 401.484277 21.414756 
L 401.56128 21.297499 
L 401.855987 20.935989 
L 402.186135 20.606836 
L 402.548225 20.313531 
L 402.938418 20.059183 
L 403.352578 19.846489 
L 403.925602 19.588679 
L 404.338622 19.426803 
L 404.765448 19.306374 
L 405.20197 19.228554 
L 405.643983 19.194091 
L 406.087231 19.203317 
L 406.527443 19.256145 
L 406.960381 19.352064 
L 407.381875 19.490151 
L 407.787865 19.669076 
L 408.174442 19.887116 
L 408.537882 20.14217 
L 408.874685 20.431783 
L 409.181607 20.753166 
L 409.455693 21.103222 
L 409.694303 21.478581 
L 409.89514 21.875628 
L 410.056269 22.290538 
L 410.176138 22.719316 
L 410.253594 23.157833 
L 410.287891 23.601865 
L 410.278699 24.047135 
L 410.226106 24.489357 
L 410.130619 24.924271 
L 409.993159 25.347688 
L 409.815048 25.755531 
L 409.598003 26.143872 
L 409.344114 26.508972 
L 409.055826 26.847314 
L 408.735915 27.15564 
L 408.572909 27.284445 
L 408.547982 27.322637 
L 408.260355 27.678877 
L 407.938403 28.00413 
L 407.585415 28.295075 
L 407.204997 28.548738 
L 406.798816 28.790803 
L 405.756141 29.428413 
L 405.514527 29.566119 
L 404.433645 30.138769 
L 404.093225 30.301269 
L 403.740507 30.434695 
L 402.735052 30.767636 
L 402.643445 30.798067 
L 402.134216 31.19707 
L 401.590469 31.562745 
L 401.072156 31.859102 
L 400.656772 32.068951 
L 400.222119 32.234795 
L 399.7728 32.354879 
L 399.313575 32.42793 
L 398.074535 32.559816 
L 397.62395 32.585007 
L 397.173111 32.564908 
L 394.403436 32.301714 
L 393.206505 32.340214 
L 392.800612 32.386486 
L 390.900688 32.752529 
L 387.276978 34.365469 
L 385.832868 35.154691 
L 385.257304 35.49627 
L 382.192741 37.57528 
L 382.003369 37.696972 
L 380.916114 38.35795 
L 379.359797 39.896825 
L 379.070007 40.159595 
L 378.758718 40.396248 
L 377.661092 41.158084 
L 377.177709 41.450556 
L 376.704929 41.69758 
L 376.700117 41.700091 
L 372.587013 43.842923 
L 371.807215 44.252105 
L 370.963928 44.696077 
L 370.821591 44.767831 
L 365.750168 47.213023 
L 365.608016 47.278547 
L 362.093185 48.82529 
L 361.75215 48.959097 
L 359.982711 49.571549 
L 359.513421 49.705976 
L 358.065773 50.036876 
L 358.056655 50.03895 
L 357.496929 50.16567 
L 357.093902 50.23781 
L 356.68603 50.272996 
L 354.11903 50.377064 
L 353.717786 50.375413 
L 349.644061 50.176702 
L 349.639193 50.176462 
L 348.629843 50.126141 
L 347.717635 50.08486 
L 346.248046 50.091309 
L 342.543278 50.124688 
L 342.259063 50.118263 
L 341.425419 50.073018 
L 339.055576 50.173322 
L 338.919451 50.17702 
L 334.885305 50.225533 
L 332.58026 50.253045 
L 330.056125 50.48144 
L 329.319663 50.590606 
L 328.629494 50.786992 
L 327.608167 51.133153 
L 326.454294 51.657371 
L 326.345781 51.704959 
L 324.17077 52.624914 
L 321.630031 53.827692 
L 319.711064 54.734253 
L 319.528829 54.815461 
L 318.023209 55.44684 
L 317.804537 55.531915 
L 313.661752 56.960367 
L 313.185866 57.102279 
L 308.485323 58.225816 
L 308.267296 58.272254 
L 306.305964 58.639453 
L 306.194126 58.69202 
L 306.056422 58.753951 
L 305.933709 58.806686 
L 302.508541 60.931587 
L 302.171886 61.120986 
L 301.820371 61.280827 
L 300.927277 61.641597 
L 300.503972 61.788551 
L 300.068264 61.892664 
L 297.462685 62.37959 
L 296.607458 62.59735 
L 296.487882 62.644885 
L 295.014341 64.194359 
L 294.594603 64.583248 
L 293.374566 65.577912 
L 293.368796 65.582608 
L 292.181257 66.547542 
L 291.865719 66.78191 
L 289.632551 68.294459 
L 288.371856 69.2694 
L 285.707046 71.833007 
L 285.495566 72.024007 
L 283.811457 73.451347 
L 283.420358 73.747888 
L 282.999593 74.000118 
L 280.472791 75.333725 
L 280.199229 75.508735 
L 280.19384 75.512177 
L 279.72278 75.812598 
L 278.791174 76.651507 
L 277.815857 78.007339 
L 276.648362 80.119522 
L 276.341405 80.600733 
L 276.027172 81.031066 
L 275.967068 81.111493 
L 275.426104 81.818915 
L 275.126518 82.171784 
L 274.792655 82.492085 
L 274.428 82.776471 
L 273.556512 83.387074 
L 273.24592 83.586277 
L 272.920203 83.759378 
L 272.099281 84.153469 
L 271.639034 84.343875 
L 271.160733 84.482236 
L 268.58196 85.075803 
L 266.758222 85.497048 
L 261.2851 86.759674 
L 260.525903 86.934055 
L 258.598736 87.601516 
L 258.458637 87.647483 
L 253.319211 89.241064 
L 253.185146 89.280364 
L 242.844188 92.138478 
L 242.790095 92.153068 
L 242.039071 92.350629 
L 240.015285 93.210655 
L 238.902274 94.039009 
L 236.902942 95.991076 
L 236.712161 96.166951 
L 235.740867 97.012146 
L 229.104286 102.777403 
L 228.738135 103.063831 
L 228.213292 103.432505 
L 227.303087 104.076087 
L 227.294119 104.082412 
L 226.725258 104.482572 
L 226.517928 104.620038 
L 225.429242 105.299444 
L 225.004571 105.533728 
L 222.180607 106.899002 
L 221.637853 107.119112 
L 219.653272 107.777206 
L 219.643623 107.780394 
L 218.886118 108.029693 
L 218.83053 108.047589 
L 217.549108 108.450966 
L 217.544119 108.452534 
L 211.17423 110.449697 
L 211.164401 110.452767 
L 209.850469 110.861452 
L 208.518674 111.379636 
L 208.056869 111.531163 
L 207.678309 111.611441 
L 206.540282 112.473628 
L 205.987024 112.832379 
L 204.400828 113.703339 
L 200.471935 116.225997 
L 199.906376 116.623796 
L 199.404858 116.975931 
L 196.114988 119.286402 
L 194.379831 120.504622 
L 194.362202 120.516937 
L 193.092171 121.399617 
L 189.852255 123.653151 
L 187.737084 125.121759 
L 186.422713 126.037607 
L 186.417431 126.041282 
L 185.664792 126.564133 
L 184.514173 127.363416 
L 183.587415 128.008616 
L 180.943926 129.853071 
L 177.50692 132.247012 
L 177.08566 132.507323 
L 175.782931 133.216618 
L 175.702576 133.259324 
L 171.985048 135.187215 
L 170.162339 136.130335 
L 169.728263 136.326583 
L 168.819755 136.680729 
L 167.468799 137.211312 
L 167.460057 137.214735 
L 165.483139 137.986425 
L 164.38736 138.414873 
L 163.533985 138.747902 
L 162.208034 139.266902 
L 162.201321 139.269524 
L 161.647338 139.485343 
L 161.577182 139.512003 
L 159.722828 140.199045 
L 156.242318 141.485721 
L 153.02637 142.672342 
L 151.715832 143.157457 
L 150.340444 143.665881 
L 149.749058 143.88603 
L 149.738036 143.890117 
L 146.130388 145.222421 
L 143.584437 146.163943 
L 143.539338 146.180349 
L 141.828588 146.792367 
L 133.473223 149.772279 
L 133.354345 149.812818 
L 130.126155 150.863636 
L 130.118352 150.866169 
L 129.752605 150.98449 
L 129.330508 151.163967 
L 125.428128 152.822275 
L 124.886605 153.120205 
L 124.777531 153.178282 
L 122.569277 154.315508 
L 122.322573 154.433232 
L 119.939064 155.48307 
L 119.024493 155.885387 
L 118.684693 156.018699 
L 116.474653 156.783889 
L 115.83389 157.005423 
L 110.457552 158.864661 
L 110.451325 158.866809 
L 109.386878 159.233189 
L 108.537091 159.528248 
L 108.530801 159.530427 
L 107.3722 159.930797 
L 106.210815 160.336877 
L 104.921352 160.89896 
L 103.543058 161.604205 
L 102.873863 162.041983 
L 101.465539 162.963624 
L 100.646651 163.692488 
L 99.137428 165.036004 
L 97.496125 166.494825 
L 96.902398 167.023296 
L 95.863636 167.947743 
L 91.437178 171.884342 
L 90.68301 172.5619 
L 90.678491 172.565954 
L 90.062813 173.117603 
L 89.895625 173.260234 
L 88.980039 174.003657 
L 87.309934 175.362812 
L 87.199141 175.450138 
L 83.995539 177.895147 
L 81.66217 179.676189 
L 80.956627 180.224248 
L 76.819629 183.436732 
L 73.555617 185.970197 
L 73.282096 186.166611 
L 72.994796 186.342022 
L 70.186679 187.915784 
L 69.955263 188.036806 
L 68.854801 188.572285 
L 67.442646 189.260888 
L 67.436583 189.263839 
L 66.08536 189.920238 
L 65.664328 190.098943 
L 65.227481 190.233939 
L 64.779297 190.323845 
L 64.324367 190.367739 
L 63.867354 190.365171 
L 63.412941 190.316167 
L 62.965784 190.221229 
L 62.530466 190.081331 
L 62.111447 189.897905 
L 61.713022 189.672832 
L 61.339273 189.408418 
L 60.99403 189.107373 
L 60.680832 188.772781 
L 58.225579 185.868346 
L 57.956607 185.516696 
L 57.723067 185.14033 
L 57.527192 184.742842 
L 57.370851 184.328031 
L 57.255539 183.899859 
L 57.182358 183.462415 
L 57.152006 183.019879 
L 57.164775 182.576478 
L 57.220542 182.136448 
L 57.318775 181.703993 
L 57.458535 181.283243 
L 57.638488 180.878219 
L 57.856915 180.492789 
L 58.111729 180.130636 
L 58.400497 179.79522 
L 58.720459 179.489744 
L 59.068559 179.217126 
L 59.441471 178.979973 
L 64.93585 175.85297 
L 65.33166 175.652824 
L 65.745081 175.492643 
L 66.17213 175.373968 
L 66.608695 175.297942 
L 67.05057 175.265298 
L 67.493501 175.27635 
L 67.933221 175.330991 
L 68.365496 175.428696 
L 68.786162 175.568523 
L 69.191167 175.749125 
L 69.576612 175.968763 
L 69.938783 176.225323 
L 70.274194 176.516332 
L 70.565049 176.823602 
" clip-path="url(#pdd79ab3264)" style="fill: #1f77b4"/>
    <path d="M 63.559431 176.396108 
L 63.664601 176.101863 
L 63.854565 175.699492 
L 64.082849 175.317775 
L 64.347255 174.96039 
L 64.645236 174.630777 
L 64.973922 174.332112 
L 65.330149 174.067272 
L 65.710485 173.838806 
L 66.111267 173.648915 
L 66.528636 173.499428 
L 66.958572 173.391784 
L 67.396933 173.327021 
L 67.839499 173.305762 
L 68.277057 173.32796 
L 68.284178 173.325646 
L 68.721837 173.230284 
L 69.166742 173.178976 
L 69.614515 173.172226 
L 70.06075 173.2101 
L 70.501057 173.292227 
L 70.931104 173.417798 
L 71.346661 173.585577 
L 71.743637 173.793913 
L 72.118128 174.040758 
L 72.466449 174.323682 
L 72.785174 174.639902 
L 73.071166 174.986307 
L 73.141092 175.0905 
L 73.543928 174.783257 
L 74.426677 174.10885 
L 75.591746 173.212264 
L 78.68778 170.824489 
L 81.738492 168.474991 
L 83.135545 167.338467 
L 83.640365 166.927924 
L 84.789795 165.911037 
L 86.066691 164.782133 
L 87.447571 163.560176 
L 88.663153 162.486011 
L 89.911915 161.379388 
L 90.5671 160.799195 
L 91.064414 160.35961 
L 91.665648 159.828941 
L 93.879345 157.868704 
L 95.825522 156.148368 
L 96.307772 155.776813 
L 98.884352 154.055337 
L 99.375738 153.770072 
L 101.383316 152.768115 
L 101.623668 152.656862 
L 102.860099 152.128121 
L 103.097029 152.034639 
L 105.229082 151.26241 
L 105.328102 151.227846 
L 106.535086 150.822251 
L 107.652204 150.445786 
L 107.657415 150.444034 
L 108.669697 150.104281 
L 113.809296 148.374858 
L 115.696447 147.739436 
L 116.666147 147.413528 
L 119.252653 146.261964 
L 120.038273 145.859713 
L 121.68826 145.014777 
L 122.00672 144.867065 
L 122.508287 144.657772 
L 123.465342 144.258344 
L 126.257073 143.089016 
L 126.478731 143.002982 
L 127.466932 142.649169 
L 130.392118 141.603856 
L 133.502718 140.491379 
L 138.942203 138.547334 
L 140.914648 137.842712 
L 143.1997 137.001475 
L 146.29736 135.857682 
L 148.746117 134.953527 
L 152.641729 133.515938 
L 153.12771 133.337017 
L 154.14588 132.962261 
L 156.86651 131.959026 
L 158.843721 131.226469 
L 164.587008 128.986227 
L 165.748698 128.534062 
L 166.393449 128.281752 
L 167.937277 127.480838 
L 168.972024 126.944173 
L 172.747044 124.920306 
L 175.9675 122.698234 
L 177.865776 121.389455 
L 178.647143 120.849888 
L 179.478838 120.276023 
L 180.719608 119.417902 
L 181.471256 118.89824 
L 182.271289 118.344002 
L 182.885852 117.918355 
L 189.830502 113.113909 
L 191.058732 112.244405 
L 194.289872 109.959459 
L 194.925597 109.510806 
L 195.583258 109.044714 
L 195.753173 108.929999 
L 196.812615 108.249243 
L 197.414231 107.863396 
L 199.893935 106.271296 
L 200.019033 106.193828 
L 202.372696 104.788906 
L 202.619743 104.651753 
L 203.309892 104.296422 
L 204.523714 103.545307 
L 204.951431 103.311607 
L 205.401696 103.125534 
L 205.869278 102.989252 
L 206.284353 102.892308 
L 207.389231 102.564042 
L 208.944973 102.021992 
L 209.138674 101.95938 
L 213.940075 100.52652 
L 214.980059 100.18254 
L 218.700212 98.951819 
L 220.069607 98.330828 
L 221.921396 97.333474 
L 223.48893 96.165373 
L 225.150332 94.749444 
L 226.611354 93.469873 
L 227.862335 92.372521 
L 230.299972 90.233304 
L 230.997522 89.622091 
L 231.657388 89.002399 
L 232.128303 88.55565 
L 232.135085 88.549229 
L 233.542027 87.220005 
L 233.807406 86.988169 
L 234.089931 86.777783 
L 235.719482 85.660386 
L 236.092937 85.43016 
L 236.486837 85.237379 
L 238.921959 84.189229 
L 239.241045 84.066028 
L 239.56849 83.96743 
L 241.08688 83.572493 
L 241.525615 83.450963 
L 243.541917 82.893374 
L 246.479657 82.080385 
L 250.836942 80.875652 
L 252.596071 80.329598 
L 254.161185 79.842719 
L 256.508486 79.113698 
L 256.765702 79.042108 
L 258.318907 78.659086 
L 259.568252 78.351418 
L 260.99146 78.000247 
L 261.136765 77.966939 
L 262.338617 77.712325 
L 263.230759 77.520224 
L 263.243942 77.517406 
L 264.474588 77.25628 
L 267.056161 76.705077 
L 268.755781 76.215619 
L 269.149795 76.030951 
L 269.192897 76.004327 
L 269.299117 75.889154 
L 269.551749 75.472789 
L 270.589368 73.74944 
L 270.864949 73.343187 
L 272.602589 71.058218 
L 272.883069 70.724069 
L 273.194244 70.418584 
L 274.08093 69.628303 
L 274.350522 69.4061 
L 274.636372 69.205457 
L 275.239686 68.81591 
L 275.245714 68.812025 
L 277.28116 67.50238 
L 277.538471 67.34866 
L 278.274729 66.941371 
L 278.648944 66.680181 
L 278.926111 66.483182 
L 279.741393 65.708236 
L 279.756974 65.693496 
L 282.758878 62.867137 
L 283.062136 62.605938 
L 283.938621 61.916164 
L 284.067894 61.818135 
L 284.562175 61.457111 
L 284.837157 61.271361 
L 285.322343 60.968975 
L 285.976742 60.485567 
L 285.980475 60.482811 
L 286.844046 59.846262 
L 287.356331 59.466257 
L 287.710307 59.19475 
L 288.7684 58.373313 
L 288.928142 58.193999 
L 289.568898 57.475821 
L 290.237246 56.727178 
L 290.685312 56.290228 
L 292.974407 55.155489 
L 293.386757 54.844324 
L 293.831721 54.582411 
L 294.303499 54.373162 
L 295.007492 54.108054 
L 295.398512 53.980868 
L 296.954863 53.55218 
L 297.306832 53.470285 
L 298.857955 53.174498 
L 299.540342 53.044062 
L 299.809452 52.933785 
L 300.493389 52.493943 
L 300.70769 52.364386 
L 302.170903 51.534345 
L 303.723629 50.653586 
L 303.804763 50.60866 
L 304.428822 50.271444 
L 304.789936 50.096603 
L 305.165058 49.954617 
L 305.551231 49.846602 
L 306.624182 49.597456 
L 307.175122 49.469024 
L 309.301383 48.974218 
L 310.625325 48.664977 
L 311.056864 48.563608 
L 312.71246 48.078045 
L 313.452866 47.860327 
L 315.084609 47.25286 
L 316.873794 46.586428 
L 319.13273 45.617762 
L 320.883372 44.865304 
L 321.396514 44.644141 
L 321.401816 44.64186 
L 322.430181 44.200203 
L 322.440007 44.195997 
L 323.867899 43.586772 
L 323.909826 43.569133 
L 324.677245 43.250829 
L 325.811545 42.770891 
L 326.238459 42.615151 
L 327.418382 42.251038 
L 328.031263 42.107967 
L 330.345933 41.736029 
L 330.766135 41.688646 
L 332.134385 41.599239 
L 333.237051 41.527845 
L 333.478369 41.518719 
L 334.261145 41.510157 
L 334.888886 41.501815 
L 338.246487 41.458373 
L 338.856856 41.450684 
L 339.935971 41.436255 
L 341.369942 41.417648 
L 344.135131 41.382498 
L 344.157994 41.382266 
L 347.224075 41.358923 
L 347.23189 41.35887 
L 348.027014 41.354205 
L 348.261357 41.35894 
L 350.430962 41.459411 
L 350.446689 41.460167 
L 353.299161 41.602303 
L 353.958021 41.634098 
L 356.02985 41.550242 
L 356.228012 41.513993 
L 356.748214 41.417455 
L 357.023032 41.33839 
L 357.605981 41.167279 
L 358.507655 40.890271 
L 359.038185 40.662633 
L 361.129986 39.761762 
L 363.237289 38.745935 
L 365.310281 37.747035 
L 365.318749 37.742966 
L 365.725482 37.548022 
L 366.331355 37.255875 
L 367.164758 36.8545 
L 368.181152 36.364617 
L 368.887703 35.983129 
L 369.234008 35.814833 
L 369.927784 35.513589 
L 370.718458 35.169508 
L 371.082942 34.93787 
L 371.518347 34.693867 
L 373.203797 33.868376 
L 373.928353 33.369667 
L 374.075435 33.081384 
L 374.315916 32.706139 
L 374.591922 32.356437 
L 374.900783 32.035661 
L 375.239514 31.746913 
L 375.604838 31.492986 
L 376.349108 31.028303 
L 378.089883 29.937149 
L 379.037686 29.333841 
L 380.380213 28.480041 
L 380.561686 28.37053 
L 383.510367 26.68432 
L 383.650656 26.607365 
L 385.990157 25.377539 
L 386.319252 25.221175 
L 386.659811 25.091939 
L 387.800715 24.711013 
L 387.873844 24.687289 
L 388.640844 24.445681 
L 389.067628 24.333911 
L 391.824977 23.754568 
L 392.21811 23.689996 
L 392.615377 23.660466 
L 393.013689 23.666209 
L 395.661034 23.821859 
L 397.076977 23.817685 
L 397.524068 23.838642 
L 397.549149 23.84234 
L 397.563727 23.831578 
L 397.920061 23.593754 
L 398.297191 23.390858 
L 398.975129 23.066645 
L 399.32101 22.918638 
L 399.677943 22.800036 
L 400.204315 22.649232 
L 400.754017 22.492099 
L 401.413902 22.233218 
L 401.500474 22.186628 
L 401.634614 21.841973 
L 401.835745 21.445077 
L 402.074634 21.069896 
L 402.34898 20.720045 
L 402.656141 20.398892 
L 402.993159 20.109531 
L 403.356789 19.854748 
L 403.743527 19.636998 
L 404.149651 19.458377 
L 404.962347 19.147729 
L 405.363193 19.015679 
L 405.774552 18.921765 
L 406.192838 18.866807 
L 406.614404 18.851283 
L 407.035573 18.875329 
L 407.452673 18.938734 
L 407.862067 19.040947 
L 408.821185 19.32879 
L 409.23791 19.476516 
L 409.638273 19.664436 
L 410.018443 19.890753 
L 410.374783 20.1533 
L 410.703883 20.449566 
L 411.002594 20.776715 
L 411.268057 21.131617 
L 411.497733 21.510876 
L 411.689424 21.910863 
L 411.841296 22.327751 
L 411.951897 22.75755 
L 412.020167 23.196148 
L 412.045455 23.639349 
L 412.027517 24.082912 
L 411.966527 24.522592 
L 411.863068 24.954182 
L 411.718131 25.373553 
L 411.533101 25.776692 
L 411.30975 26.159742 
L 411.050215 26.519038 
L 410.75698 26.851141 
L 410.432849 27.152875 
L 410.080926 27.421353 
L 407.319413 29.321598 
L 406.899681 29.577912 
L 405.442161 30.362288 
L 404.952232 30.589235 
L 403.84042 31.025412 
L 403.433447 31.163062 
L 402.680881 31.378184 
L 402.547046 31.416527 
L 401.776658 31.985293 
L 401.551869 32.140967 
L 401.115644 32.423922 
L 400.676595 32.674933 
L 400.212395 32.875128 
L 399.728849 33.022005 
L 398.449939 33.333257 
L 397.997705 33.419086 
L 397.539126 33.458244 
L 397.078961 33.450324 
L 396.621985 33.395409 
L 396.172943 33.294068 
L 395.736494 33.147354 
L 395.317169 32.956789 
L 395.197242 32.886723 
L 393.086057 32.762596 
L 391.133392 33.172872 
L 390.613746 33.336562 
L 389.855642 33.589679 
L 387.910356 34.61227 
L 385.123222 36.206087 
L 383.87246 37.001519 
L 382.912203 37.612749 
L 382.885678 37.629504 
L 381.673308 38.389433 
L 381.612301 38.511857 
L 381.392896 38.866443 
L 381.141983 39.199271 
L 380.861688 39.507524 
L 380.554382 39.788594 
L 380.222667 40.040103 
L 379.202682 40.741892 
L 378.035585 41.54519 
L 377.461946 41.880639 
L 375.701833 42.742692 
L 375.251359 43.028976 
L 374.947997 43.205593 
L 374.631914 43.35804 
L 373.517115 43.84317 
L 372.995016 44.069871 
L 372.366868 44.409025 
L 372.182331 44.503252 
L 371.072001 45.038407 
L 370.239615 45.439291 
L 369.629921 45.73328 
L 369.620333 45.737889 
L 369.21305 45.933095 
L 367.145207 46.929509 
L 364.951887 47.986797 
L 364.777484 48.066344 
L 362.594909 49.006307 
L 362.589315 49.008711 
L 361.833799 49.332884 
L 361.380536 49.49921 
L 360.220811 49.855496 
L 360.166664 49.87176 
L 359.545007 50.054233 
L 359.521781 50.060983 
L 359.026212 50.203559 
L 358.603149 50.303428 
L 357.86336 50.440718 
L 357.851997 50.442811 
L 357.336919 50.537032 
L 356.709578 50.606759 
L 354.122405 50.711476 
L 353.723829 50.709929 
L 352.862202 50.668351 
L 352.855125 50.668003 
L 350.007085 50.526092 
L 347.962533 50.431415 
L 347.288576 50.43537 
L 344.237949 50.4586 
L 341.48602 50.493584 
L 340.055307 50.512151 
L 338.975361 50.526592 
L 338.362016 50.53432 
L 335.0076 50.577726 
L 334.37536 50.586129 
L 334.364778 50.586257 
L 333.697516 50.593556 
L 332.719397 50.656887 
L 331.563721 50.732405 
L 329.769524 51.020711 
L 329.108451 51.224712 
L 328.169001 51.622207 
L 328.139491 51.63457 
L 327.378325 51.950279 
L 325.97631 52.548462 
L 324.955537 52.986857 
L 324.442991 53.207762 
L 322.684418 53.96363 
L 320.319699 54.977658 
L 320.116684 55.05894 
L 316.695904 56.252739 
L 314.914509 56.915929 
L 314.61383 57.01597 
L 313.719844 57.278853 
L 311.941878 57.800318 
L 311.704466 57.862969 
L 311.150636 57.993068 
L 311.145114 57.994361 
L 309.816671 58.304662 
L 307.687556 58.800146 
L 307.135576 58.928823 
L 306.646502 59.042393 
L 306.596125 59.069616 
L 305.083928 59.927389 
L 303.729753 60.695579 
L 302.803839 61.291039 
L 302.447824 61.497673 
L 302.074585 61.670925 
L 301.005519 62.109016 
L 300.581053 62.258652 
L 300.143879 62.365127 
L 299.016991 62.580534 
L 297.640622 62.843005 
L 296.675484 63.108853 
L 296.295055 63.534974 
L 295.658147 64.248815 
L 295.223337 64.736889 
L 294.934233 65.032987 
L 294.619431 65.301327 
L 293.22322 66.385239 
L 293.202316 66.401369 
L 292.809029 66.703024 
L 292.750999 66.746798 
L 292.204044 67.152514 
L 292.193058 67.160638 
L 291.325869 67.799846 
L 290.52995 68.387788 
L 290.235307 68.587976 
L 289.739767 68.896812 
L 289.4451 69.112035 
L 288.789768 69.627758 
L 285.941562 72.30935 
L 284.900701 73.298694 
L 284.405097 73.706894 
L 283.849944 74.101469 
L 283.818363 74.123712 
L 283.235513 74.530518 
L 282.837061 74.778848 
L 282.026362 75.227312 
L 280.120088 76.453834 
L 279.813794 76.651598 
L 279.515145 76.917771 
L 278.191306 78.658536 
L 277.276475 80.177875 
L 277.268436 80.191173 
L 276.776016 81.002693 
L 276.522204 81.377489 
L 276.232447 81.724971 
L 275.397889 82.629853 
L 275.106029 82.918833 
L 274.789306 83.180046 
L 274.450328 83.411341 
L 273.659227 83.899975 
L 273.20322 84.146616 
L 272.251523 84.592661 
L 271.923973 84.730694 
L 271.586642 84.842437 
L 269.393362 85.47406 
L 269.087742 85.550595 
L 266.349311 86.13529 
L 266.343686 86.136487 
L 265.116867 86.396803 
L 264.224032 86.589054 
L 264.209397 86.59218 
L 263.07319 86.832888 
L 261.721401 87.166438 
L 260.471122 87.474338 
L 259.048309 87.825205 
L 256.831539 88.513688 
L 255.266114 89.000664 
L 253.435903 89.568785 
L 253.30099 89.608364 
L 248.877511 90.831402 
L 245.939919 91.644352 
L 243.92515 92.201518 
L 243.453168 92.332258 
L 243.384671 92.350651 
L 242.16364 92.668245 
L 240.447632 93.406864 
L 239.472408 94.075576 
L 238.325645 95.158971 
L 237.849808 95.610381 
L 237.833143 95.626111 
L 237.108045 96.307047 
L 236.992483 96.411881 
L 236.240106 97.071121 
L 233.803383 99.209493 
L 232.5499 100.30902 
L 231.06188 101.612212 
L 231.015692 101.652116 
L 229.218539 103.183711 
L 228.987473 103.367944 
L 227.036007 104.822125 
L 226.479333 105.176776 
L 224.20075 106.403988 
L 223.924933 106.540606 
L 222.197226 107.324081 
L 221.751791 107.498195 
L 217.804294 108.804125 
L 216.700994 109.169048 
L 216.574665 109.20878 
L 211.807522 110.631417 
L 210.249208 111.174364 
L 210.050193 111.238561 
L 208.717086 111.634635 
L 208.64726 111.653145 
L 207.894715 112.118819 
L 207.585981 112.293464 
L 206.863725 112.665321 
L 204.694677 113.960035 
L 202.275978 115.512952 
L 201.67635 115.897518 
L 200.704804 116.521789 
L 200.127147 116.931176 
L 200.119805 116.936369 
L 199.485648 117.383906 
L 196.259067 119.665599 
L 195.011806 120.548564 
L 194.97171 120.576625 
L 188.009881 125.392896 
L 187.396881 125.817455 
L 186.595293 126.372764 
L 185.839214 126.895485 
L 184.596725 127.754785 
L 184.592657 127.757595 
L 183.760984 128.331438 
L 182.97893 128.871472 
L 181.078469 130.181743 
L 177.650745 132.546802 
L 177.220204 132.809621 
L 173.195517 134.967323 
L 173.140949 134.9961 
L 172.07947 135.546626 
L 170.324616 136.457013 
L 169.891787 136.653319 
L 169.02167 136.993821 
L 169.014007 136.996812 
L 167.85297 137.44872 
L 162.075468 139.702306 
L 162.003483 139.729679 
L 159.986954 140.476803 
L 159.980408 140.479223 
L 157.255304 141.484106 
L 156.233794 141.860093 
L 155.752761 142.03719 
L 151.859897 143.473764 
L 149.411556 144.377765 
L 146.311925 145.522285 
L 144.000361 146.373284 
L 143.959508 146.388101 
L 141.967465 147.099724 
L 136.529676 149.043163 
L 133.419016 150.15566 
L 130.496012 151.200193 
L 129.621068 151.513456 
L 126.936445 152.63792 
L 126.931091 152.640159 
L 125.971251 153.040748 
L 125.631371 153.182573 
L 124.137675 153.94747 
L 123.242698 154.405713 
L 123.021818 154.511334 
L 120.128739 155.799386 
L 119.731913 155.954013 
L 118.563715 156.346634 
L 116.677339 156.981795 
L 111.534862 158.712187 
L 110.52019 159.052744 
L 109.403869 159.428941 
L 108.241099 159.819679 
L 106.278196 160.530641 
L 105.280746 160.957184 
L 103.646393 161.772864 
L 101.560202 163.166684 
L 99.847046 164.68101 
L 97.632071 166.64234 
L 97.626577 166.647197 
L 97.026247 167.177056 
L 96.534769 167.611471 
L 95.882908 168.188709 
L 94.63235 169.296901 
L 94.627549 169.30115 
L 93.413097 170.374294 
L 92.032618 171.595872 
L 90.755014 172.725381 
L 89.535812 173.803972 
L 89.392657 173.925415 
L 88.815826 174.394513 
L 87.372315 175.568811 
L 87.277832 175.643603 
L 84.182998 178.027043 
L 81.086288 180.415303 
L 81.082468 180.418247 
L 79.909214 181.321117 
L 79.896618 181.330775 
L 79.006111 182.011099 
L 77.917728 182.841202 
L 77.024841 183.531276 
L 76.454439 184.017561 
L 75.413835 184.907452 
L 74.880621 185.363441 
L 74.521502 185.640589 
L 73.538506 186.323293 
L 73.156832 186.561088 
L 70.324063 188.135644 
L 70.161681 188.221618 
L 68.86415 188.875097 
L 68.565 189.012296 
L 65.763913 190.175043 
L 65.347105 190.324478 
L 64.917748 190.432173 
L 64.479965 190.497093 
L 64.037963 190.518615 
L 63.595988 190.496533 
L 63.158287 190.431057 
L 62.729064 190.322818 
L 62.312444 190.172856 
L 61.912429 189.98261 
L 61.532863 189.753909 
L 61.177392 189.48895 
L 60.849432 189.190278 
L 60.552132 188.860764 
L 57.980374 185.713245 
L 57.719503 185.360434 
L 57.493809 184.983907 
L 57.30541 184.587196 
L 57.156074 184.174023 
L 57.047201 183.748264 
L 56.979814 183.313914 
L 56.954545 182.875047 
L 56.971632 182.435782 
L 57.030913 182.000239 
L 57.131834 181.572505 
L 57.273448 181.156592 
L 57.454425 180.756404 
L 57.67307 180.375694 
L 57.927329 180.018034 
L 58.214818 179.686781 
L 58.53284 179.385042 
L 58.87841 179.115648 
L 59.248287 178.881126 
L 60.079619 178.408983 
L 60.09123 178.402411 
L 62.739659 176.908653 
L 63.255856 176.616876 
L 63.559431 176.396108 
" clip-path="url(#pdd79ab3264)" style="fill: #1f77b4"/>
   </g>
   <g id="matplotlib.axis_1">
    <g id="xtick_1">
     <g id="line2d_1">
      <defs>
       <path id="m7d81d9f084" d="M 0 0 
L 0 3.5 
" style="stroke: #000000; stroke-width: 0.8"/>
      </defs>
      <g>
       <use xlink:href="#m7d81d9f084" x="57.4851" y="199.101982" style="stroke: #000000; stroke-width: 0.8"/>
      </g>
     </g>
     <g id="text_1">
      <!-- 121.325 -->
      <g transform="translate(39.9851 212.976982) scale(0.1 -0.1)">
       <defs>
        <path id="SimHei-31" d="M 1400 3600 
Q 1075 3275 575 2975 
L 575 3450 
Q 1200 3875 1600 4450 
L 1900 4450 
L 1900 150 
L 1400 150 
L 1400 3600 
z
" transform="scale(0.015625)"/>
        <path id="SimHei-32" d="M 300 250 
Q 325 625 650 925 
Q 975 1225 1475 1862 
Q 1975 2500 2125 2850 
Q 2275 3200 2237 3450 
Q 2200 3700 2000 3862 
Q 1800 4025 1537 4000 
Q 1275 3975 1037 3800 
Q 800 3625 675 3275 
L 200 3350 
Q 400 3925 712 4187 
Q 1025 4450 1450 4475 
Q 1700 4500 1900 4462 
Q 2100 4425 2312 4287 
Q 2525 4150 2662 3875 
Q 2800 3600 2762 3212 
Q 2725 2825 2375 2287 
Q 2025 1750 1025 600 
L 2825 600 
L 2825 150 
L 300 150 
L 300 250 
z
" transform="scale(0.015625)"/>
        <path id="SimHei-2e" d="M 1075 125 
L 500 125 
L 500 675 
L 1075 675 
L 1075 125 
z
" transform="scale(0.015625)"/>
        <path id="SimHei-33" d="M 250 1225 
L 700 1300 
Q 800 975 1025 762 
Q 1250 550 1587 562 
Q 1925 575 2125 837 
Q 2325 1100 2300 1437 
Q 2275 1775 2037 1962 
Q 1800 2150 1275 2225 
L 1275 2550 
Q 1800 2600 2037 2825 
Q 2275 3050 2250 3412 
Q 2225 3775 1925 3937 
Q 1625 4100 1287 3975 
Q 950 3850 750 3275 
L 300 3350 
Q 450 3800 712 4100 
Q 975 4400 1425 4450 
Q 1875 4500 2212 4337 
Q 2550 4175 2687 3837 
Q 2825 3500 2725 3100 
Q 2625 2700 2150 2400 
Q 2500 2250 2687 1950 
Q 2875 1650 2812 1162 
Q 2750 675 2375 375 
Q 2000 75 1525 87 
Q 1050 100 700 387 
Q 350 675 250 1225 
z
" transform="scale(0.015625)"/>
        <path id="SimHei-35" d="M 550 1325 
Q 725 650 1150 575 
Q 1575 500 1837 662 
Q 2100 825 2212 1087 
Q 2325 1350 2312 1675 
Q 2300 2000 2137 2225 
Q 1975 2450 1725 2525 
Q 1475 2600 1162 2525 
Q 850 2450 650 2175 
L 225 2225 
Q 275 2375 700 4375 
L 2675 4375 
L 2675 3925 
L 1075 3925 
Q 950 3250 825 2850 
Q 1200 3025 1525 3012 
Q 1850 3000 2150 2862 
Q 2450 2725 2587 2487 
Q 2725 2250 2787 2012 
Q 2850 1775 2837 1500 
Q 2825 1225 2725 937 
Q 2625 650 2425 462 
Q 2225 275 1937 162 
Q 1650 50 1275 75 
Q 900 100 562 350 
Q 225 600 100 1200 
L 550 1325 
z
" transform="scale(0.015625)"/>
       </defs>
       <use xlink:href="#SimHei-31"/>
       <use xlink:href="#SimHei-32" x="50"/>
       <use xlink:href="#SimHei-31" x="100"/>
       <use xlink:href="#SimHei-2e" x="150"/>
       <use xlink:href="#SimHei-33" x="200"/>
       <use xlink:href="#SimHei-32" x="250"/>
       <use xlink:href="#SimHei-35" x="300"/>
      </g>
     </g>
    </g>
    <g id="xtick_2">
     <g id="line2d_2">
      <g>
       <use xlink:href="#m7d81d9f084" x="111.296764" y="199.101982" style="stroke: #000000; stroke-width: 0.8"/>
      </g>
     </g>
     <g id="text_2">
      <!-- 121.350 -->
      <g transform="translate(93.796764 212.976982) scale(0.1 -0.1)">
       <defs>
        <path id="SimHei-30" d="M 225 2537 
Q 250 3200 412 3587 
Q 575 3975 875 4225 
Q 1175 4475 1612 4475 
Q 2050 4475 2375 4112 
Q 2700 3750 2800 3200 
Q 2900 2650 2862 1937 
Q 2825 1225 2612 775 
Q 2400 325 1975 150 
Q 1550 -25 1125 187 
Q 700 400 525 750 
Q 350 1100 275 1487 
Q 200 1875 225 2537 
z
M 750 2687 
Q 675 2000 800 1462 
Q 925 925 1212 700 
Q 1500 475 1800 612 
Q 2100 750 2237 1162 
Q 2375 1575 2375 2062 
Q 2375 2550 2337 2950 
Q 2300 3350 2112 3675 
Q 1925 4000 1612 4012 
Q 1300 4025 1062 3700 
Q 825 3375 750 2687 
z
" transform="scale(0.015625)"/>
       </defs>
       <use xlink:href="#SimHei-31"/>
       <use xlink:href="#SimHei-32" x="50"/>
       <use xlink:href="#SimHei-31" x="100"/>
       <use xlink:href="#SimHei-2e" x="150"/>
       <use xlink:href="#SimHei-33" x="200"/>
       <use xlink:href="#SimHei-35" x="250"/>
       <use xlink:href="#SimHei-30" x="300"/>
      </g>
     </g>
    </g>
    <g id="xtick_3">
     <g id="line2d_3">
      <g>
       <use xlink:href="#m7d81d9f084" x="165.108428" y="199.101982" style="stroke: #000000; stroke-width: 0.8"/>
      </g>
     </g>
     <g id="text_3">
      <!-- 121.375 -->
      <g transform="translate(147.608428 212.976982) scale(0.1 -0.1)">
       <defs>
        <path id="SimHei-37" d="M 850 150 
Q 1300 2050 2425 3925 
L 275 3925 
L 275 4375 
L 2950 4375 
L 2950 3950 
Q 1775 2050 1400 150 
L 850 150 
z
" transform="scale(0.015625)"/>
       </defs>
       <use xlink:href="#SimHei-31"/>
       <use xlink:href="#SimHei-32" x="50"/>
       <use xlink:href="#SimHei-31" x="100"/>
       <use xlink:href="#SimHei-2e" x="150"/>
       <use xlink:href="#SimHei-33" x="200"/>
       <use xlink:href="#SimHei-37" x="250"/>
       <use xlink:href="#SimHei-35" x="300"/>
      </g>
     </g>
    </g>
    <g id="xtick_4">
     <g id="line2d_4">
      <g>
       <use xlink:href="#m7d81d9f084" x="218.920093" y="199.101982" style="stroke: #000000; stroke-width: 0.8"/>
      </g>
     </g>
     <g id="text_4">
      <!-- 121.400 -->
      <g transform="translate(201.420093 212.976982) scale(0.1 -0.1)">
       <defs>
        <path id="SimHei-34" d="M 2000 1100 
L 75 1100 
L 75 1525 
L 2100 4450 
L 2475 4450 
L 2475 1525 
L 3075 1525 
L 3075 1100 
L 2475 1100 
L 2475 150 
L 2000 150 
L 2000 1100 
z
M 2000 1525 
L 2000 3500 
L 600 1525 
L 2000 1525 
z
" transform="scale(0.015625)"/>
       </defs>
       <use xlink:href="#SimHei-31"/>
       <use xlink:href="#SimHei-32" x="50"/>
       <use xlink:href="#SimHei-31" x="100"/>
       <use xlink:href="#SimHei-2e" x="150"/>
       <use xlink:href="#SimHei-34" x="200"/>
       <use xlink:href="#SimHei-30" x="250"/>
       <use xlink:href="#SimHei-30" x="300"/>
      </g>
     </g>
    </g>
    <g id="xtick_5">
     <g id="line2d_5">
      <g>
       <use xlink:href="#m7d81d9f084" x="272.731757" y="199.101982" style="stroke: #000000; stroke-width: 0.8"/>
      </g>
     </g>
     <g id="text_5">
      <!-- 121.425 -->
      <g transform="translate(255.231757 212.976982) scale(0.1 -0.1)">
       <use xlink:href="#SimHei-31"/>
       <use xlink:href="#SimHei-32" x="50"/>
       <use xlink:href="#SimHei-31" x="100"/>
       <use xlink:href="#SimHei-2e" x="150"/>
       <use xlink:href="#SimHei-34" x="200"/>
       <use xlink:href="#SimHei-32" x="250"/>
       <use xlink:href="#SimHei-35" x="300"/>
      </g>
     </g>
    </g>
    <g id="xtick_6">
     <g id="line2d_6">
      <g>
       <use xlink:href="#m7d81d9f084" x="326.543422" y="199.101982" style="stroke: #000000; stroke-width: 0.8"/>
      </g>
     </g>
     <g id="text_6">
      <!-- 121.450 -->
      <g transform="translate(309.043422 212.976982) scale(0.1 -0.1)">
       <use xlink:href="#SimHei-31"/>
       <use xlink:href="#SimHei-32" x="50"/>
       <use xlink:href="#SimHei-31" x="100"/>
       <use xlink:href="#SimHei-2e" x="150"/>
       <use xlink:href="#SimHei-34" x="200"/>
       <use xlink:href="#SimHei-35" x="250"/>
       <use xlink:href="#SimHei-30" x="300"/>
      </g>
     </g>
    </g>
    <g id="xtick_7">
     <g id="line2d_7">
      <g>
       <use xlink:href="#m7d81d9f084" x="380.355086" y="199.101982" style="stroke: #000000; stroke-width: 0.8"/>
      </g>
     </g>
     <g id="text_7">
      <!-- 121.475 -->
      <g transform="translate(362.855086 212.976982) scale(0.1 -0.1)">
       <use xlink:href="#SimHei-31"/>
       <use xlink:href="#SimHei-32" x="50"/>
       <use xlink:href="#SimHei-31" x="100"/>
       <use xlink:href="#SimHei-2e" x="150"/>
       <use xlink:href="#SimHei-34" x="200"/>
       <use xlink:href="#SimHei-37" x="250"/>
       <use xlink:href="#SimHei-35" x="300"/>
      </g>
     </g>
    </g>
   </g>
   <g id="matplotlib.axis_2">
    <g id="ytick_1">
     <g id="line2d_8">
      <defs>
       <path id="m3078e36b5d" d="M 0 0 
L -3.5 0 
" style="stroke: #000000; stroke-width: 0.8"/>
      </defs>
      <g>
       <use xlink:href="#m3078e36b5d" x="39.2" y="186.79268" style="stroke: #000000; stroke-width: 0.8"/>
      </g>
     </g>
     <g id="text_8">
      <!-- 31.17 -->
      <g transform="translate(7.2 190.23018) scale(0.1 -0.1)">
       <use xlink:href="#SimHei-33"/>
       <use xlink:href="#SimHei-31" x="50"/>
       <use xlink:href="#SimHei-2e" x="100"/>
       <use xlink:href="#SimHei-31" x="150"/>
       <use xlink:href="#SimHei-37" x="200"/>
      </g>
     </g>
    </g>
    <g id="ytick_2">
     <g id="line2d_9">
      <g>
       <use xlink:href="#m3078e36b5d" x="39.2" y="161.627655" style="stroke: #000000; stroke-width: 0.8"/>
      </g>
     </g>
     <g id="text_9">
      <!-- 31.18 -->
      <g transform="translate(7.2 165.065155) scale(0.1 -0.1)">
       <defs>
        <path id="SimHei-38" d="M 175 1375 
Q 175 1675 325 1962 
Q 475 2250 825 2425 
Q 525 2600 425 2812 
Q 325 3025 312 3300 
Q 300 3575 387 3775 
Q 475 3975 650 4150 
Q 825 4325 1037 4387 
Q 1250 4450 1500 4450 
Q 1750 4450 1950 4400 
Q 2150 4350 2375 4187 
Q 2600 4025 2700 3725 
Q 2800 3425 2687 3025 
Q 2575 2625 2100 2400 
Q 2525 2275 2700 2012 
Q 2875 1750 2875 1375 
Q 2875 1000 2762 775 
Q 2650 550 2512 400 
Q 2375 250 2137 162 
Q 1900 75 1537 75 
Q 1175 75 912 162 
Q 650 250 475 425 
Q 300 600 237 837 
Q 175 1075 175 1375 
z
M 687 1400 
Q 675 1100 787 875 
Q 900 650 1200 587 
Q 1500 525 1825 600 
Q 2150 675 2275 950 
Q 2400 1225 2362 1500 
Q 2325 1775 2050 1962 
Q 1775 2150 1450 2125 
Q 1125 2100 912 1900 
Q 700 1700 687 1400 
z
M 775 3350 
Q 775 3100 950 2875 
Q 1125 2650 1500 2650 
Q 1875 2650 2062 2875 
Q 2250 3100 2237 3412 
Q 2225 3725 2012 3875 
Q 1800 4025 1437 4000 
Q 1075 3975 925 3787 
Q 775 3600 775 3350 
z
" transform="scale(0.015625)"/>
       </defs>
       <use xlink:href="#SimHei-33"/>
       <use xlink:href="#SimHei-31" x="50"/>
       <use xlink:href="#SimHei-2e" x="100"/>
       <use xlink:href="#SimHei-31" x="150"/>
       <use xlink:href="#SimHei-38" x="200"/>
      </g>
     </g>
    </g>
    <g id="ytick_3">
     <g id="line2d_10">
      <g>
       <use xlink:href="#m3078e36b5d" x="39.2" y="136.462629" style="stroke: #000000; stroke-width: 0.8"/>
      </g>
     </g>
     <g id="text_10">
      <!-- 31.19 -->
      <g transform="translate(7.2 139.900129) scale(0.1 -0.1)">
       <defs>
        <path id="SimHei-39" d="M 800 75 
Q 1350 1000 1700 1750 
Q 1075 1650 662 1912 
Q 250 2175 162 2625 
Q 75 3075 175 3437 
Q 275 3800 487 4037 
Q 700 4275 1000 4375 
Q 1300 4475 1537 4475 
Q 1775 4475 2025 4375 
Q 2275 4275 2475 4075 
Q 2675 3875 2750 3662 
Q 2825 3450 2825 3112 
Q 2825 2775 2575 2250 
Q 2325 1725 1350 75 
L 800 75 
z
M 662 2875 
Q 700 2550 937 2337 
Q 1175 2125 1450 2150 
Q 1725 2175 1887 2300 
Q 2050 2425 2200 2725 
Q 2300 3100 2250 3362 
Q 2200 3625 1987 3800 
Q 1775 3975 1525 3975 
Q 1375 4000 1137 3900 
Q 900 3800 762 3500 
Q 625 3200 662 2875 
z
" transform="scale(0.015625)"/>
       </defs>
       <use xlink:href="#SimHei-33"/>
       <use xlink:href="#SimHei-31" x="50"/>
       <use xlink:href="#SimHei-2e" x="100"/>
       <use xlink:href="#SimHei-31" x="150"/>
       <use xlink:href="#SimHei-39" x="200"/>
      </g>
     </g>
    </g>
    <g id="ytick_4">
     <g id="line2d_11">
      <g>
       <use xlink:href="#m3078e36b5d" x="39.2" y="111.297603" style="stroke: #000000; stroke-width: 0.8"/>
      </g>
     </g>
     <g id="text_11">
      <!-- 31.20 -->
      <g transform="translate(7.2 114.735103) scale(0.1 -0.1)">
       <use xlink:href="#SimHei-33"/>
       <use xlink:href="#SimHei-31" x="50"/>
       <use xlink:href="#SimHei-2e" x="100"/>
       <use xlink:href="#SimHei-32" x="150"/>
       <use xlink:href="#SimHei-30" x="200"/>
      </g>
     </g>
    </g>
    <g id="ytick_5">
     <g id="line2d_12">
      <g>
       <use xlink:href="#m3078e36b5d" x="39.2" y="86.132577" style="stroke: #000000; stroke-width: 0.8"/>
      </g>
     </g>
     <g id="text_12">
      <!-- 31.21 -->
      <g transform="translate(7.2 89.570077) scale(0.1 -0.1)">
       <use xlink:href="#SimHei-33"/>
       <use xlink:href="#SimHei-31" x="50"/>
       <use xlink:href="#SimHei-2e" x="100"/>
       <use xlink:href="#SimHei-32" x="150"/>
       <use xlink:href="#SimHei-31" x="200"/>
      </g>
     </g>
    </g>
    <g id="ytick_6">
     <g id="line2d_13">
      <g>
       <use xlink:href="#m3078e36b5d" x="39.2" y="60.967552" style="stroke: #000000; stroke-width: 0.8"/>
      </g>
     </g>
     <g id="text_13">
      <!-- 31.22 -->
      <g transform="translate(7.2 64.405052) scale(0.1 -0.1)">
       <use xlink:href="#SimHei-33"/>
       <use xlink:href="#SimHei-31" x="50"/>
       <use xlink:href="#SimHei-2e" x="100"/>
       <use xlink:href="#SimHei-32" x="150"/>
       <use xlink:href="#SimHei-32" x="200"/>
      </g>
     </g>
    </g>
    <g id="ytick_7">
     <g id="line2d_14">
      <g>
       <use xlink:href="#m3078e36b5d" x="39.2" y="35.802526" style="stroke: #000000; stroke-width: 0.8"/>
      </g>
     </g>
     <g id="text_14">
      <!-- 31.23 -->
      <g transform="translate(7.2 39.240026) scale(0.1 -0.1)">
       <use xlink:href="#SimHei-33"/>
       <use xlink:href="#SimHei-31" x="50"/>
       <use xlink:href="#SimHei-2e" x="100"/>
       <use xlink:href="#SimHei-32" x="150"/>
       <use xlink:href="#SimHei-33" x="200"/>
      </g>
     </g>
    </g>
    <g id="ytick_8">
     <g id="line2d_15">
      <g>
       <use xlink:href="#m3078e36b5d" x="39.2" y="10.6375" style="stroke: #000000; stroke-width: 0.8"/>
      </g>
     </g>
     <g id="text_15">
      <!-- 31.24 -->
      <g transform="translate(7.2 14.075) scale(0.1 -0.1)">
       <use xlink:href="#SimHei-33"/>
       <use xlink:href="#SimHei-31" x="50"/>
       <use xlink:href="#SimHei-2e" x="100"/>
       <use xlink:href="#SimHei-32" x="150"/>
       <use xlink:href="#SimHei-34" x="200"/>
      </g>
     </g>
    </g>
   </g>
   <g id="patch_3">
    <path d="M 39.2 199.101982 
L 39.2 10.267916 
" style="fill: none; stroke: #000000; stroke-width: 0.8; stroke-linejoin: miter; stroke-linecap: square"/>
   </g>
   <g id="patch_4">
    <path d="M 429.8 199.101982 
L 429.8 10.267916 
" style="fill: none; stroke: #000000; stroke-width: 0.8; stroke-linejoin: miter; stroke-linecap: square"/>
   </g>
   <g id="patch_5">
    <path d="M 39.2 199.101982 
L 429.8 199.101982 
" style="fill: none; stroke: #000000; stroke-width: 0.8; stroke-linejoin: miter; stroke-linecap: square"/>
   </g>
   <g id="patch_6">
    <path d="M 39.2 10.267916 
L 429.8 10.267916 
" style="fill: none; stroke: #000000; stroke-width: 0.8; stroke-linejoin: miter; stroke-linecap: square"/>
   </g>
  </g>
 </g>
 <defs>
  <clipPath id="pdd79ab3264">
   <rect x="39.2" y="10.267916" width="390.6" height="188.834066"/>
  </clipPath>
 </defs>
</svg>
