<?xml version="1.0" encoding="utf-8" standalone="no"?>
<!DOCTYPE svg PUBLIC "-//W3C//DTD SVG 1.1//EN"
  "http://www.w3.org/Graphics/SVG/1.1/DTD/svg11.dtd">
<svg xmlns:xlink="http://www.w3.org/1999/xlink" width="720pt" height="576pt" viewBox="0 0 720 576" xmlns="http://www.w3.org/2000/svg" version="1.1">
 <metadata>
  <rdf:RDF xmlns:dc="http://purl.org/dc/elements/1.1/" xmlns:cc="http://creativecommons.org/ns#" xmlns:rdf="http://www.w3.org/1999/02/22-rdf-syntax-ns#">
   <cc:Work>
    <dc:type rdf:resource="http://purl.org/dc/dcmitype/StillImage"/>
    <dc:date>2025-04-28T18:30:52.275698</dc:date>
    <dc:format>image/svg+xml</dc:format>
    <dc:creator>
     <cc:Agent>
      <dc:title>Matplotlib v3.9.2, https://matplotlib.org/</dc:title>
     </cc:Agent>
    </dc:creator>
   </cc:Work>
  </rdf:RDF>
 </metadata>
 <defs>
  <style type="text/css">*{stroke-linejoin: round; stroke-linecap: butt}</style>
 </defs>
 <g id="figure_1">
  <g id="patch_1">
   <path d="M 0 576 
L 720 576 
L 720 0 
L 0 0 
z
" style="fill: #ffffff"/>
  </g>
  <g id="axes_1">
   <g id="patch_2">
    <path d="M 295.739336 512.64 
L 442.260664 512.64 
L 442.260664 69.12 
L 295.739336 69.12 
z
" style="fill: #ffffff"/>
   </g>
   <g id="matplotlib.axis_1">
    <g id="xtick_1">
     <g id="line2d_1">
      <defs>
       <path id="mc60eec7848" d="M 0 0 
L 0 3.5 
" style="stroke: #000000; stroke-width: 0.8"/>
      </defs>
      <g>
       <use xlink:href="#mc60eec7848" x="330.009402" y="512.64" style="stroke: #000000; stroke-width: 0.8"/>
      </g>
     </g>
     <g id="text_1">
      <!-- 121.40 -->
      <g transform="translate(315.009402 526.515) scale(0.1 -0.1)">
       <defs>
        <path id="SimHei-31" d="M 1400 3600 
Q 1075 3275 575 2975 
L 575 3450 
Q 1200 3875 1600 4450 
L 1900 4450 
L 1900 150 
L 1400 150 
L 1400 3600 
z
" transform="scale(0.015625)"/>
        <path id="SimHei-32" d="M 300 250 
Q 325 625 650 925 
Q 975 1225 1475 1862 
Q 1975 2500 2125 2850 
Q 2275 3200 2237 3450 
Q 2200 3700 2000 3862 
Q 1800 4025 1537 4000 
Q 1275 3975 1037 3800 
Q 800 3625 675 3275 
L 200 3350 
Q 400 3925 712 4187 
Q 1025 4450 1450 4475 
Q 1700 4500 1900 4462 
Q 2100 4425 2312 4287 
Q 2525 4150 2662 3875 
Q 2800 3600 2762 3212 
Q 2725 2825 2375 2287 
Q 2025 1750 1025 600 
L 2825 600 
L 2825 150 
L 300 150 
L 300 250 
z
" transform="scale(0.015625)"/>
        <path id="SimHei-2e" d="M 1075 125 
L 500 125 
L 500 675 
L 1075 675 
L 1075 125 
z
" transform="scale(0.015625)"/>
        <path id="SimHei-34" d="M 2000 1100 
L 75 1100 
L 75 1525 
L 2100 4450 
L 2475 4450 
L 2475 1525 
L 3075 1525 
L 3075 1100 
L 2475 1100 
L 2475 150 
L 2000 150 
L 2000 1100 
z
M 2000 1525 
L 2000 3500 
L 600 1525 
L 2000 1525 
z
" transform="scale(0.015625)"/>
        <path id="SimHei-30" d="M 225 2537 
Q 250 3200 412 3587 
Q 575 3975 875 4225 
Q 1175 4475 1612 4475 
Q 2050 4475 2375 4112 
Q 2700 3750 2800 3200 
Q 2900 2650 2862 1937 
Q 2825 1225 2612 775 
Q 2400 325 1975 150 
Q 1550 -25 1125 187 
Q 700 400 525 750 
Q 350 1100 275 1487 
Q 200 1875 225 2537 
z
M 750 2687 
Q 675 2000 800 1462 
Q 925 925 1212 700 
Q 1500 475 1800 612 
Q 2100 750 2237 1162 
Q 2375 1575 2375 2062 
Q 2375 2550 2337 2950 
Q 2300 3350 2112 3675 
Q 1925 4000 1612 4012 
Q 1300 4025 1062 3700 
Q 825 3375 750 2687 
z
" transform="scale(0.015625)"/>
       </defs>
       <use xlink:href="#SimHei-31"/>
       <use xlink:href="#SimHei-32" x="50"/>
       <use xlink:href="#SimHei-31" x="100"/>
       <use xlink:href="#SimHei-2e" x="150"/>
       <use xlink:href="#SimHei-34" x="200"/>
       <use xlink:href="#SimHei-30" x="250"/>
      </g>
     </g>
    </g>
    <g id="xtick_2">
     <g id="line2d_2">
      <g>
       <use xlink:href="#mc60eec7848" x="401.805929" y="512.64" style="stroke: #000000; stroke-width: 0.8"/>
      </g>
     </g>
     <g id="text_2">
      <!-- 121.45 -->
      <g transform="translate(386.805929 526.515) scale(0.1 -0.1)">
       <defs>
        <path id="SimHei-35" d="M 550 1325 
Q 725 650 1150 575 
Q 1575 500 1837 662 
Q 2100 825 2212 1087 
Q 2325 1350 2312 1675 
Q 2300 2000 2137 2225 
Q 1975 2450 1725 2525 
Q 1475 2600 1162 2525 
Q 850 2450 650 2175 
L 225 2225 
Q 275 2375 700 4375 
L 2675 4375 
L 2675 3925 
L 1075 3925 
Q 950 3250 825 2850 
Q 1200 3025 1525 3012 
Q 1850 3000 2150 2862 
Q 2450 2725 2587 2487 
Q 2725 2250 2787 2012 
Q 2850 1775 2837 1500 
Q 2825 1225 2725 937 
Q 2625 650 2425 462 
Q 2225 275 1937 162 
Q 1650 50 1275 75 
Q 900 100 562 350 
Q 225 600 100 1200 
L 550 1325 
z
" transform="scale(0.015625)"/>
       </defs>
       <use xlink:href="#SimHei-31"/>
       <use xlink:href="#SimHei-32" x="50"/>
       <use xlink:href="#SimHei-31" x="100"/>
       <use xlink:href="#SimHei-2e" x="150"/>
       <use xlink:href="#SimHei-34" x="200"/>
       <use xlink:href="#SimHei-35" x="250"/>
      </g>
     </g>
    </g>
   </g>
   <g id="matplotlib.axis_2">
    <g id="ytick_1">
     <g id="line2d_3">
      <defs>
       <path id="m90691acad9" d="M 0 0 
L -3.5 0 
" style="stroke: #000000; stroke-width: 0.8"/>
      </defs>
      <g>
       <use xlink:href="#m90691acad9" x="295.739336" y="511.550312" style="stroke: #000000; stroke-width: 0.8"/>
      </g>
     </g>
     <g id="text_3">
      <!-- 31.10 -->
      <g transform="translate(263.739336 514.987812) scale(0.1 -0.1)">
       <defs>
        <path id="SimHei-33" d="M 250 1225 
L 700 1300 
Q 800 975 1025 762 
Q 1250 550 1587 562 
Q 1925 575 2125 837 
Q 2325 1100 2300 1437 
Q 2275 1775 2037 1962 
Q 1800 2150 1275 2225 
L 1275 2550 
Q 1800 2600 2037 2825 
Q 2275 3050 2250 3412 
Q 2225 3775 1925 3937 
Q 1625 4100 1287 3975 
Q 950 3850 750 3275 
L 300 3350 
Q 450 3800 712 4100 
Q 975 4400 1425 4450 
Q 1875 4500 2212 4337 
Q 2550 4175 2687 3837 
Q 2825 3500 2725 3100 
Q 2625 2700 2150 2400 
Q 2500 2250 2687 1950 
Q 2875 1650 2812 1162 
Q 2750 675 2375 375 
Q 2000 75 1525 87 
Q 1050 100 700 387 
Q 350 675 250 1225 
z
" transform="scale(0.015625)"/>
       </defs>
       <use xlink:href="#SimHei-33"/>
       <use xlink:href="#SimHei-31" x="50"/>
       <use xlink:href="#SimHei-2e" x="100"/>
       <use xlink:href="#SimHei-31" x="150"/>
       <use xlink:href="#SimHei-30" x="200"/>
      </g>
     </g>
    </g>
    <g id="ytick_2">
     <g id="line2d_4">
      <g>
       <use xlink:href="#m90691acad9" x="295.739336" y="439.753785" style="stroke: #000000; stroke-width: 0.8"/>
      </g>
     </g>
     <g id="text_4">
      <!-- 31.15 -->
      <g transform="translate(263.739336 443.191285) scale(0.1 -0.1)">
       <use xlink:href="#SimHei-33"/>
       <use xlink:href="#SimHei-31" x="50"/>
       <use xlink:href="#SimHei-2e" x="100"/>
       <use xlink:href="#SimHei-31" x="150"/>
       <use xlink:href="#SimHei-35" x="200"/>
      </g>
     </g>
    </g>
    <g id="ytick_3">
     <g id="line2d_5">
      <g>
       <use xlink:href="#m90691acad9" x="295.739336" y="367.957259" style="stroke: #000000; stroke-width: 0.8"/>
      </g>
     </g>
     <g id="text_5">
      <!-- 31.20 -->
      <g transform="translate(263.739336 371.394759) scale(0.1 -0.1)">
       <use xlink:href="#SimHei-33"/>
       <use xlink:href="#SimHei-31" x="50"/>
       <use xlink:href="#SimHei-2e" x="100"/>
       <use xlink:href="#SimHei-32" x="150"/>
       <use xlink:href="#SimHei-30" x="200"/>
      </g>
     </g>
    </g>
    <g id="ytick_4">
     <g id="line2d_6">
      <g>
       <use xlink:href="#m90691acad9" x="295.739336" y="296.160732" style="stroke: #000000; stroke-width: 0.8"/>
      </g>
     </g>
     <g id="text_6">
      <!-- 31.25 -->
      <g transform="translate(263.739336 299.598232) scale(0.1 -0.1)">
       <use xlink:href="#SimHei-33"/>
       <use xlink:href="#SimHei-31" x="50"/>
       <use xlink:href="#SimHei-2e" x="100"/>
       <use xlink:href="#SimHei-32" x="150"/>
       <use xlink:href="#SimHei-35" x="200"/>
      </g>
     </g>
    </g>
    <g id="ytick_5">
     <g id="line2d_7">
      <g>
       <use xlink:href="#m90691acad9" x="295.739336" y="224.364205" style="stroke: #000000; stroke-width: 0.8"/>
      </g>
     </g>
     <g id="text_7">
      <!-- 31.30 -->
      <g transform="translate(263.739336 227.801705) scale(0.1 -0.1)">
       <use xlink:href="#SimHei-33"/>
       <use xlink:href="#SimHei-31" x="50"/>
       <use xlink:href="#SimHei-2e" x="100"/>
       <use xlink:href="#SimHei-33" x="150"/>
       <use xlink:href="#SimHei-30" x="200"/>
      </g>
     </g>
    </g>
    <g id="ytick_6">
     <g id="line2d_8">
      <g>
       <use xlink:href="#m90691acad9" x="295.739336" y="152.567678" style="stroke: #000000; stroke-width: 0.8"/>
      </g>
     </g>
     <g id="text_8">
      <!-- 31.35 -->
      <g transform="translate(263.739336 156.005178) scale(0.1 -0.1)">
       <use xlink:href="#SimHei-33"/>
       <use xlink:href="#SimHei-31" x="50"/>
       <use xlink:href="#SimHei-2e" x="100"/>
       <use xlink:href="#SimHei-33" x="150"/>
       <use xlink:href="#SimHei-35" x="200"/>
      </g>
     </g>
    </g>
    <g id="ytick_7">
     <g id="line2d_9">
      <g>
       <use xlink:href="#m90691acad9" x="295.739336" y="80.771151" style="stroke: #000000; stroke-width: 0.8"/>
      </g>
     </g>
     <g id="text_9">
      <!-- 31.40 -->
      <g transform="translate(263.739336 84.208651) scale(0.1 -0.1)">
       <use xlink:href="#SimHei-33"/>
       <use xlink:href="#SimHei-31" x="50"/>
       <use xlink:href="#SimHei-2e" x="100"/>
       <use xlink:href="#SimHei-34" x="150"/>
       <use xlink:href="#SimHei-30" x="200"/>
      </g>
     </g>
    </g>
   </g>
   <g id="LineCollection_1">
    <path d="M 302.399396 492.48 
L 303.677019 491.008411 
L 304.887174 489.48143 
L 306.081898 487.941779 
L 307.276622 486.402127 
L 308.471346 484.862476 
L 309.66607 483.322825 
L 310.860795 481.783174 
L 312.077808 480.261141 
L 313.338582 478.775575 
" clip-path="url(#p78a362026e)" style="fill: none; stroke: #440154; stroke-width: 1.5"/>
    <path d="M 313.338582 478.775575 
L 314.791034 477.093267 
L 316.313466 475.473316 
L 317.835899 473.853365 
L 319.358331 472.233414 
L 320.880764 470.613463 
L 322.403196 468.993512 
L 324.036099 467.486789 
L 325.693095 466.004762 
L 327.350092 464.522735 
" clip-path="url(#p78a362026e)" style="fill: none; stroke: #470e61; stroke-width: 1.5"/>
    <path d="M 327.350092 464.522735 
L 329.124987 462.708624 
L 330.866025 460.860204 
L 332.651005 459.0547 
L 334.457766 457.270468 
L 336.264526 455.486236 
L 338.071287 453.702003 
L 339.878047 451.917771 
L 341.690012 450.138931 
L 343.537007 448.396381 
" clip-path="url(#p78a362026e)" style="fill: none; stroke: #481d6f; stroke-width: 1.5"/>
    <path d="M 343.537007 448.396381 
L 345.577756 445.883435 
L 347.998688 443.699491 
L 350.456063 441.544647 
L 352.78331 439.252762 
L 355.303723 437.182668 
L 357.904747 435.203598 
L 360.678086 433.480063 
L 363.487813 431.81049 
L 366.222394 430.023754 
" clip-path="url(#p78a362026e)" style="fill: none; stroke: #472d7b; stroke-width: 1.5"/>
    <path d="M 366.222394 430.023754 
L 368.211397 428.597181 
L 369.995947 426.936613 
L 371.388009 424.958956 
L 371.991926 422.601144 
L 372.347574 420.180031 
L 372.823851 417.783105 
L 373.417937 415.408253 
L 374.012023 413.033401 
L 374.017025 410.593122 
" clip-path="url(#p78a362026e)" style="fill: none; stroke: #424086; stroke-width: 1.5"/>
    <path d="M 374.017025 410.593122 
L 373.951945 408.419906 
L 374.195282 406.257377 
L 374.449315 404.095825 
L 374.703348 401.934272 
L 374.957381 399.77272 
L 375.183253 397.608498 
L 375.340035 395.437724 
L 375.526774 393.269346 
L 375.705532 391.100291 
" clip-path="url(#p78a362026e)" style="fill: none; stroke: #3d4d8a; stroke-width: 1.5"/>
    <path d="M 375.705532 391.100291 
L 375.814191 389.347379 
L 375.858785 387.592258 
L 375.945457 385.844366 
L 376.267598 384.117975 
L 376.588512 382.392352 
L 377.073822 380.704459 
L 377.554632 379.015332 
L 377.998641 377.316108 
L 378.442651 375.616885 
" clip-path="url(#p78a362026e)" style="fill: none; stroke: #38598c; stroke-width: 1.5"/>
    <path d="M 378.442651 375.616885 
L 378.998376 373.290629 
L 380.305135 371.326062 
L 381.851382 369.502135 
L 383.261207 367.570119 
L 384.671032 365.638103 
L 386.114973 363.731836 
L 387.586534 361.846418 
L 389.058096 359.961 
L 390.528425 358.074621 
" clip-path="url(#p78a362026e)" style="fill: none; stroke: #34618d; stroke-width: 1.5"/>
    <path d="M 390.528425 358.074621 
L 391.538585 356.742526 
L 392.037529 355.19984 
L 392.197018 353.53567 
L 392.398785 351.876235 
L 392.804351 350.258009 
L 393.268369 348.651899 
L 394.225532 347.312664 
L 395.537004 346.325326 
L 397.07553 345.671232 
" clip-path="url(#p78a362026e)" style="fill: none; stroke: #2e6d8e; stroke-width: 1.5"/>
    <path d="M 397.07553 345.671232 
L 398.500996 345.080073 
L 399.926461 344.488914 
L 401.351926 343.897754 
L 402.777392 343.306595 
L 404.202857 342.715436 
L 405.628322 342.124276 
L 407.053788 341.533117 
L 408.479253 340.941958 
L 409.904718 340.350798 
" clip-path="url(#p78a362026e)" style="fill: none; stroke: #2b748e; stroke-width: 1.5"/>
    <path d="M 409.904718 340.350798 
L 411.998077 339.476246 
L 414.091435 338.601695 
L 416.184794 337.727143 
L 418.278152 336.852591 
L 420.37151 335.978039 
L 422.464869 335.103487 
L 424.550033 334.209651 
L 426.632668 333.309861 
L 428.715302 332.41007 
" clip-path="url(#p78a362026e)" style="fill: none; stroke: #297b8e; stroke-width: 1.5"/>
    <path d="M 428.715302 332.41007 
L 430.76382 331.587788 
L 432.812337 330.765506 
L 434.662938 329.605649 
L 435.600604 327.675688 
L 435.563285 325.48604 
L 434.926208 323.379918 
L 434.006071 321.37694 
L 432.731465 319.576558 
L 431.437001 317.788561 
" clip-path="url(#p78a362026e)" style="fill: none; stroke: #25858e; stroke-width: 1.5"/>
    <path d="M 431.437001 317.788561 
L 430.558886 316.629829 
L 429.653146 315.493213 
L 428.714702 314.382778 
L 427.720579 313.324372 
L 426.67621 312.312919 
L 425.525752 311.440209 
L 424.255478 310.734542 
L 422.918551 310.175957 
L 421.552505 309.678301 
" clip-path="url(#p78a362026e)" style="fill: none; stroke: #21908d; stroke-width: 1.5"/>
    <path d="M 421.552505 309.678301 
L 420.012833 309.108143 
L 418.46738 308.55378 
L 416.921927 307.999418 
L 415.376474 307.445055 
L 413.831021 306.890693 
L 412.285568 306.33633 
L 410.740115 305.781968 
L 409.156921 305.409432 
L 407.51584 305.358479 
" clip-path="url(#p78a362026e)" style="fill: none; stroke: #1f968b; stroke-width: 1.5"/>
    <path d="M 407.51584 305.358479 
L 406.27364 305.340624 
L 405.312891 304.591288 
L 404.400128 303.748527 
L 403.53132 302.871051 
L 402.922949 301.787877 
L 402.464666 300.644325 
L 402.613729 299.446442 
L 403.137194 298.320627 
L 403.738729 297.233642 
" clip-path="url(#p78a362026e)" style="fill: none; stroke: #1f9e89; stroke-width: 1.5"/>
    <path d="M 403.738729 297.233642 
L 404.642469 295.471535 
L 405.470242 293.670364 
L 406.313493 291.875754 
L 407.080743 290.047723 
L 407.731396 288.176199 
L 408.337961 286.288503 
L 408.69805 284.343191 
L 408.723719 282.360505 
L 408.405111 280.408305 
" clip-path="url(#p78a362026e)" style="fill: none; stroke: #20a386; stroke-width: 1.5"/>
    <path d="M 408.405111 280.408305 
L 407.814131 278.305604 
L 407.833772 276.141967 
L 407.997561 273.963945 
L 407.936934 271.782266 
L 407.54064 269.638059 
L 406.57025 267.690866 
L 405.387442 265.85525 
L 404.234472 264.000185 
L 403.081502 262.14512 
" clip-path="url(#p78a362026e)" style="fill: none; stroke: #25ac82; stroke-width: 1.5"/>
    <path d="M 403.081502 262.14512 
L 402.29232 261.024559 
L 401.503138 259.903999 
L 400.768936 258.747197 
L 400.050211 257.580193 
L 399.429753 256.359881 
L 398.984595 255.065257 
L 398.608955 253.747168 
L 398.368959 252.402703 
L 398.223284 251.039896 
" clip-path="url(#p78a362026e)" style="fill: none; stroke: #32b67a; stroke-width: 1.5"/>
    <path d="M 398.223284 251.039896 
L 398.040247 248.929997 
L 397.853507 246.820426 
L 397.661779 244.711299 
L 397.470052 242.602172 
L 397.203531 240.502261 
L 396.870708 238.410963 
L 396.412856 236.343223 
L 395.893439 234.290862 
L 395.391491 232.233833 
" clip-path="url(#p78a362026e)" style="fill: none; stroke: #3bbb75; stroke-width: 1.5"/>
    <path d="M 395.391491 232.233833 
L 395.022242 230.024592 
L 394.640523 227.815844 
L 394.258803 225.607096 
L 393.941227 223.390682 
L 393.7916 221.154192 
L 393.641974 218.917702 
L 393.492348 216.681212 
L 393.342722 214.444721 
L 393.322769 212.205029 
" clip-path="url(#p78a362026e)" style="fill: none; stroke: #50c46a; stroke-width: 1.5"/>
    <path d="M 393.322769 212.205029 
L 393.367052 210.185343 
L 393.323137 208.165891 
L 393.257632 206.146244 
L 393.192127 204.126597 
L 393.126622 202.10695 
L 393.018014 200.091196 
L 392.550844 198.129778 
L 391.768986 196.266909 
L 390.959934 194.415234 
" clip-path="url(#p78a362026e)" style="fill: none; stroke: #65cb5e; stroke-width: 1.5"/>
    <path d="M 390.959934 194.415234 
L 390.03876 192.510926 
L 389.165109 190.584105 
L 388.237151 188.682769 
L 387.356037 186.759726 
L 386.505373 184.822573 
L 385.644389 182.890004 
L 384.777747 180.959947 
L 383.911106 179.02989 
L 383.044464 177.099833 
" clip-path="url(#p78a362026e)" style="fill: none; stroke: #7cd250; stroke-width: 1.5"/>
    <path d="M 383.044464 177.099833 
L 382.39142 175.741358 
L 381.746378 174.378717 
L 381.124372 173.005631 
L 380.524396 171.622555 
L 379.92442 170.23948 
L 379.324444 168.856404 
L 378.724469 167.473328 
L 378.124493 166.090253 
L 377.5244 164.707228 
" clip-path="url(#p78a362026e)" style="fill: none; stroke: #95d840; stroke-width: 1.5"/>
    <path d="M 377.5244 164.707228 
L 376.507981 162.369271 
L 375.491563 160.031314 
L 374.475144 157.693358 
L 373.493166 155.34148 
L 372.943311 152.883954 
L 372.818906 150.337649 
L 372.694501 147.791343 
L 372.570096 145.245038 
L 372.247206 142.717221 
" clip-path="url(#p78a362026e)" style="fill: none; stroke: #aadc32; stroke-width: 1.5"/>
    <path d="M 372.247206 142.717221 
L 372.043998 140.295997 
L 371.853752 137.873372 
L 371.484418 135.47621 
L 370.991851 133.09657 
L 370.460965 130.725223 
L 369.701601 128.427306 
L 368.790134 126.175013 
L 368.291385 123.804324 
L 367.759521 121.436647 
" clip-path="url(#p78a362026e)" style="fill: none; stroke: #cae11f; stroke-width: 1.5"/>
    <path d="M 367.759521 121.436647 
L 367.294557 119.636281 
L 366.829593 117.835916 
L 366.364629 116.03555 
L 365.899665 114.235184 
L 365.434702 112.434819 
L 364.969738 110.634453 
L 364.504774 108.834088 
L 364.03981 107.033722 
L 363.536315 105.243922 
" clip-path="url(#p78a362026e)" style="fill: none; stroke: #eae51a; stroke-width: 1.5"/>
    <path d="M 363.536315 105.243922 
L 363.067074 103.449016 
L 362.634775 101.644675 
L 362.205806 99.839517 
L 361.635912 98.076587 
L 361.001506 96.332988 
L 360.367101 94.589388 
L 359.732695 92.845789 
L 359.222021 91.066638 
L 358.727407 89.28 
" clip-path="url(#p78a362026e)" style="fill: none; stroke: #fde725; stroke-width: 1.5"/>
   </g>
   <g id="patch_3">
    <path d="M 295.739336 512.64 
L 295.739336 69.12 
" style="fill: none; stroke: #000000; stroke-width: 0.8; stroke-linejoin: miter; stroke-linecap: square"/>
   </g>
   <g id="patch_4">
    <path d="M 442.260664 512.64 
L 442.260664 69.12 
" style="fill: none; stroke: #000000; stroke-width: 0.8; stroke-linejoin: miter; stroke-linecap: square"/>
   </g>
   <g id="patch_5">
    <path d="M 295.739336 512.64 
L 442.260664 512.64 
" style="fill: none; stroke: #000000; stroke-width: 0.8; stroke-linejoin: miter; stroke-linecap: square"/>
   </g>
   <g id="patch_6">
    <path d="M 295.739336 69.12 
L 442.260664 69.12 
" style="fill: none; stroke: #000000; stroke-width: 0.8; stroke-linejoin: miter; stroke-linecap: square"/>
   </g>
   <g id="text_10">
    <!-- 初步轨道断面图 -->
    <g transform="translate(327 63.12) scale(0.12 -0.12)">
     <defs>
      <path id="SimHei-521d" d="M 5675 550 
Q 5650 -175 5362 -337 
Q 5075 -500 4425 -575 
Q 4400 -275 4175 50 
Q 4850 50 5012 125 
Q 5175 200 5200 675 
L 5375 4175 
L 4300 4175 
Q 4275 3450 4225 2800 
Q 4175 2150 4025 1575 
Q 3875 1000 3562 450 
Q 3250 -100 2725 -600 
Q 2550 -425 2250 -275 
Q 2750 125 3037 562 
Q 3325 1000 3487 1475 
Q 3650 1950 3725 2625 
Q 3800 3300 3825 4175 
Q 3150 4175 2800 4150 
L 2800 4650 
Q 3375 4625 3825 4625 
L 5875 4625 
L 5675 550 
z
M 2575 3900 
Q 2475 3650 2312 3287 
Q 2150 2925 1900 2525 
Q 2050 2375 2200 2250 
Q 2375 2425 2725 2925 
L 3125 2525 
Q 2950 2400 2812 2275 
Q 2675 2150 2500 1975 
Q 2800 1675 3025 1425 
Q 2775 1250 2600 1050 
Q 2350 1425 2225 1562 
Q 2100 1700 1875 1925 
L 1875 175 
Q 1875 -200 1900 -600 
L 1375 -600 
Q 1400 -50 1400 175 
L 1400 1925 
Q 1100 1550 525 1075 
Q 350 1350 200 1525 
Q 675 1800 1112 2287 
Q 1550 2775 1875 3450 
L 1325 3450 
Q 900 3450 550 3425 
L 550 3925 
Q 900 3900 1300 3900 
L 2575 3900 
z
M 1750 5225 
Q 1975 4825 2175 4400 
Q 1975 4325 1700 4175 
Q 1525 4650 1300 5050 
Q 1575 5150 1750 5225 
z
" transform="scale(0.015625)"/>
      <path id="SimHei-6b65" d="M 4800 4250 
Q 5150 4250 5550 4275 
L 5550 3825 
Q 5150 3850 4800 3850 
L 3700 3850 
L 3700 3000 
L 5125 3000 
Q 5675 3000 6100 3025 
L 6100 2550 
Q 5675 2575 5125 2575 
L 1475 2575 
Q 1050 2575 475 2525 
L 475 3025 
Q 1050 3000 1475 3000 
L 1725 3000 
L 1725 3775 
Q 1725 4225 1700 4500 
L 2225 4500 
Q 2200 4175 2200 3775 
L 2200 3000 
L 3225 3000 
Q 3225 4750 3200 5100 
L 3725 5100 
Q 3700 4750 3700 4250 
L 4800 4250 
z
M 3725 2400 
Q 3700 1975 3700 1600 
L 3700 450 
Q 4250 750 4725 1225 
Q 5200 1700 5400 2050 
Q 5650 1825 5900 1700 
Q 5675 1475 5362 1150 
Q 5050 825 4537 437 
Q 4025 50 3212 -225 
Q 2400 -500 800 -650 
Q 725 -400 500 -150 
Q 1275 -150 2100 -25 
Q 2925 100 3225 275 
L 3225 1600 
Q 3225 1975 3200 2400 
L 3725 2400 
z
M 2600 1875 
Q 2275 1600 1975 1275 
Q 1675 950 1075 400 
Q 875 600 700 725 
Q 1175 1075 1562 1512 
Q 1950 1950 2125 2200 
Q 2325 2025 2600 1875 
z
" transform="scale(0.015625)"/>
      <path id="SimHei-8f68" d="M 3100 1350 
Q 3050 1150 3050 925 
Q 2825 925 2150 800 
Q 2150 -200 2175 -650 
L 1675 -650 
Q 1700 -200 1700 700 
Q 750 525 375 400 
Q 300 675 200 975 
Q 600 975 1700 1125 
L 1700 2075 
Q 1425 2075 1125 2050 
Q 825 2025 600 1900 
L 325 2450 
Q 550 2525 737 2875 
Q 925 3225 1150 3825 
Q 675 3825 375 3800 
L 375 4250 
Q 700 4225 1250 4225 
Q 1450 4875 1500 5250 
Q 1750 5150 2075 5050 
Q 1925 4850 1725 4225 
L 2375 4225 
Q 2875 4225 3050 4250 
L 3050 3800 
Q 2800 3825 2375 3825 
L 1625 3825 
Q 1325 3075 1000 2475 
L 1700 2475 
Q 1700 2950 1675 3350 
L 2175 3350 
Q 2150 3000 2150 2475 
Q 2600 2475 3050 2500 
L 3050 2050 
Q 2500 2075 2150 2075 
L 2150 1175 
Q 2550 1250 3100 1350 
z
M 6200 325 
Q 5975 -300 5850 -350 
Q 5725 -400 5500 -400 
L 5275 -400 
Q 4750 -400 4750 175 
L 4950 3375 
L 4250 3375 
Q 4225 2600 4125 1987 
Q 4025 1375 3812 800 
Q 3600 225 3075 -525 
Q 2825 -325 2550 -225 
Q 2950 150 3175 562 
Q 3400 975 3562 1500 
Q 3725 2025 3825 3375 
Q 3375 3375 3125 3350 
L 3125 3775 
Q 3375 3750 3850 3750 
Q 3875 4625 3875 5225 
Q 4125 5175 4425 5125 
Q 4325 4850 4275 3750 
L 5425 3750 
Q 5375 3250 5350 2875 
L 5225 325 
Q 5225 50 5337 25 
Q 5450 0 5550 25 
Q 5650 50 5700 550 
Q 5950 375 6200 325 
z
" transform="scale(0.015625)"/>
      <path id="SimHei-9053" d="M 1975 4325 
Q 2350 4300 4250 4300 
Q 4450 4775 4625 5275 
Q 4950 5150 5175 5075 
Q 5000 4900 4725 4300 
Q 5700 4300 6125 4325 
L 6125 3875 
Q 5700 3900 4225 3900 
L 4100 3400 
L 5550 3400 
Q 5525 2800 5525 1825 
Q 5525 875 5550 400 
L 2425 400 
Q 2475 950 2475 1825 
Q 2475 2700 2450 3400 
L 3575 3400 
L 3700 3900 
Q 2350 3900 1975 3875 
L 1975 4325 
z
M 300 2825 
Q 700 2800 1000 2800 
L 1525 2800 
Q 1500 2400 1500 1950 
L 1500 550 
Q 2150 -50 3700 -50 
Q 5275 -50 6100 75 
Q 5975 -225 5900 -525 
Q 4925 -550 4212 -537 
Q 3500 -525 3025 -475 
Q 2550 -425 2250 -312 
Q 1950 -200 1637 12 
Q 1325 225 1125 25 
Q 925 -175 650 -550 
Q 425 -325 200 -175 
Q 575 75 1025 525 
L 1025 2400 
Q 650 2400 300 2375 
L 300 2825 
z
M 5050 800 
L 5050 1300 
L 2975 1300 
L 2975 800 
L 5050 800 
z
M 5050 1675 
L 5050 2150 
L 2975 2150 
L 2975 1675 
L 5050 1675 
z
M 5050 2525 
L 5050 3000 
L 2975 3000 
L 2975 2525 
L 5050 2525 
z
M 1025 3675 
Q 925 4125 700 4800 
Q 1000 4850 1225 4950 
Q 1400 4450 1550 3850 
Q 1300 3800 1025 3675 
z
M 3025 5275 
Q 3350 4875 3550 4600 
Q 3350 4475 3150 4325 
Q 2975 4625 2650 5000 
Q 2825 5125 3025 5275 
z
" transform="scale(0.015625)"/>
      <path id="SimHei-65ad" d="M 3800 4600 
Q 4400 4600 4925 4687 
Q 5450 4775 5700 4900 
Q 5775 4700 6000 4375 
Q 5750 4375 5337 4337 
Q 4925 4300 4275 4250 
L 4275 3050 
L 5575 3050 
Q 5775 3050 6075 3075 
L 6075 2625 
Q 5750 2650 5500 2650 
L 5500 225 
Q 5500 -200 5550 -550 
L 5025 -550 
Q 5075 -125 5075 300 
L 5075 2650 
L 4275 2650 
Q 4275 2000 4225 1475 
Q 4175 950 4075 537 
Q 3975 125 3475 -600 
Q 3275 -450 3050 -350 
Q 3500 200 3650 725 
Q 3800 1250 3825 1800 
Q 3850 2350 3850 3250 
Q 3850 4150 3800 4600 
z
M 2600 5150 
Q 2575 4875 2575 4400 
L 2575 3225 
Q 3050 3225 3450 3250 
L 3450 2800 
Q 3075 2850 2575 2850 
L 2575 1450 
Q 2575 1000 2600 675 
L 2100 675 
Q 2125 1400 2125 2225 
Q 1850 1525 1450 1000 
Q 1250 1175 1075 1300 
Q 1700 2075 1925 2850 
Q 1700 2850 1225 2825 
L 1225 3250 
Q 1575 3225 2125 3225 
L 2125 4375 
Q 2125 4875 2100 5150 
L 2600 5150 
z
M 1000 475 
L 2550 475 
Q 2950 475 3300 500 
L 3300 50 
Q 2950 75 2325 75 
L 500 75 
Q 525 450 525 950 
L 525 3850 
Q 525 4300 500 4650 
L 1025 4650 
Q 1000 4300 1000 3950 
L 1000 475 
z
M 2975 2550 
Q 3275 2025 3625 1525 
L 3225 1225 
Q 3000 1725 2625 2325 
Q 2750 2425 2975 2550 
z
M 3625 4550 
Q 3450 4350 3350 4087 
Q 3250 3825 3125 3550 
Q 2925 3650 2700 3725 
Q 3000 4225 3125 4775 
Q 3375 4650 3625 4550 
z
M 1200 4675 
Q 1450 4700 1675 4725 
Q 1800 3950 1850 3675 
Q 1675 3650 1400 3600 
Q 1375 3875 1200 4675 
z
" transform="scale(0.015625)"/>
      <path id="SimHei-9762" d="M 5275 4850 
Q 5650 4850 5950 4875 
L 5950 4400 
Q 5600 4425 5275 4425 
L 3275 4425 
Q 3175 4200 2950 3575 
L 5525 3575 
Q 5500 3100 5500 2600 
L 5500 450 
Q 5500 -100 5525 -525 
L 5025 -525 
L 5025 -175 
L 1350 -175 
L 1350 -525 
L 850 -525 
Q 875 -200 875 425 
L 875 2650 
Q 875 3125 850 3575 
L 2475 3575 
Q 2700 4150 2750 4425 
L 1175 4425 
Q 800 4425 425 4400 
L 425 4875 
Q 825 4850 1175 4850 
L 5275 4850 
z
M 2200 225 
L 2200 3175 
L 1350 3175 
L 1350 225 
L 2200 225 
z
M 5025 225 
L 5025 3175 
L 4175 3175 
L 4175 225 
L 5025 225 
z
M 3750 225 
L 3750 1050 
L 2625 1050 
L 2625 225 
L 3750 225 
z
M 3750 2475 
L 3750 3175 
L 2625 3175 
L 2625 2475 
L 3750 2475 
z
M 3750 1425 
L 3750 2100 
L 2625 2100 
L 2625 1425 
L 3750 1425 
z
" transform="scale(0.015625)"/>
      <path id="SimHei-56fe" d="M 5800 4975 
Q 5775 4350 5775 3600 
L 5775 925 
Q 5775 150 5800 -600 
L 5300 -600 
L 5300 -275 
L 1125 -275 
L 1125 -650 
L 625 -650 
Q 650 125 650 950 
L 650 3600 
Q 650 4325 625 4975 
L 5800 4975 
z
M 5300 150 
L 5300 4575 
L 1125 4575 
L 1125 150 
L 5300 150 
z
M 3225 4250 
Q 3075 4100 2950 3925 
L 4625 3925 
Q 4525 3700 4300 3375 
Q 4075 3050 3600 2600 
Q 4350 2225 5075 2150 
Q 4900 1925 4775 1675 
Q 3850 1950 3225 2350 
Q 2500 1875 1675 1650 
Q 1600 1875 1400 2075 
Q 2200 2200 2875 2600 
Q 2525 2925 2375 3150 
Q 2150 2900 1900 2650 
Q 1725 2850 1525 2950 
Q 1950 3300 2250 3737 
Q 2550 4175 2675 4475 
Q 2925 4350 3225 4250 
z
M 2450 1275 
Q 3550 950 4100 725 
Q 3975 525 3850 300 
Q 2825 725 2275 850 
Q 2375 1050 2450 1275 
z
M 2925 2050 
Q 3775 1700 4075 1600 
Q 3950 1400 3850 1150 
Q 3000 1550 2700 1650 
Q 2825 1825 2925 2050 
z
M 2625 3450 
Q 3000 3025 3275 2850 
Q 3600 3100 3875 3525 
L 2675 3525 
L 2625 3450 
z
" transform="scale(0.015625)"/>
     </defs>
     <use xlink:href="#SimHei-521d"/>
     <use xlink:href="#SimHei-6b65" x="100"/>
     <use xlink:href="#SimHei-8f68" x="200"/>
     <use xlink:href="#SimHei-9053" x="300"/>
     <use xlink:href="#SimHei-65ad" x="400"/>
     <use xlink:href="#SimHei-9762" x="500"/>
     <use xlink:href="#SimHei-56fe" x="600"/>
    </g>
   </g>
  </g>
 </g>
 <defs>
  <clipPath id="p78a362026e">
   <rect x="295.739336" y="69.12" width="146.521328" height="443.52"/>
  </clipPath>
 </defs>
</svg>
