<?xml version="1.0" encoding="utf-8" standalone="no"?>
<!DOCTYPE svg PUBLIC "-//W3C//DTD SVG 1.1//EN"
  "http://www.w3.org/Graphics/SVG/1.1/DTD/svg11.dtd">
<svg xmlns:xlink="http://www.w3.org/1999/xlink" width="720pt" height="576pt" viewBox="0 0 720 576" xmlns="http://www.w3.org/2000/svg" version="1.1">
 <metadata>
  <rdf:RDF xmlns:dc="http://purl.org/dc/elements/1.1/" xmlns:cc="http://creativecommons.org/ns#" xmlns:rdf="http://www.w3.org/1999/02/22-rdf-syntax-ns#">
   <cc:Work>
    <dc:type rdf:resource="http://purl.org/dc/dcmitype/StillImage"/>
    <dc:date>2025-04-28T18:30:52.562308</dc:date>
    <dc:format>image/svg+xml</dc:format>
    <dc:creator>
     <cc:Agent>
      <dc:title>Matplotlib v3.9.2, https://matplotlib.org/</dc:title>
     </cc:Agent>
    </dc:creator>
   </cc:Work>
  </rdf:RDF>
 </metadata>
 <defs>
  <style type="text/css">*{stroke-linejoin: round; stroke-linecap: butt}</style>
 </defs>
 <g id="figure_1">
  <g id="patch_1">
   <path d="M 0 576 
L 720 576 
L 720 0 
L 0 0 
z
" style="fill: #ffffff"/>
  </g>
  <g id="axes_1">
   <g id="patch_2">
    <path d="M 90 433.539361 
L 648 433.539361 
L 648 148.220639 
L 90 148.220639 
z
" style="fill: #ffffff"/>
   </g>
   <g id="matplotlib.axis_1">
    <g id="xtick_1">
     <g id="line2d_1">
      <defs>
       <path id="mc11131f761" d="M 0 0 
L 0 3.5 
" style="stroke: #000000; stroke-width: 0.8"/>
      </defs>
      <g>
       <use xlink:href="#mc11131f761" x="97.240002" y="433.539361" style="stroke: #000000; stroke-width: 0.8"/>
      </g>
     </g>
     <g id="text_1">
      <!-- 0.022 -->
      <g transform="translate(84.740002 447.414361) scale(0.1 -0.1)">
       <defs>
        <path id="SimHei-30" d="M 225 2537 
Q 250 3200 412 3587 
Q 575 3975 875 4225 
Q 1175 4475 1612 4475 
Q 2050 4475 2375 4112 
Q 2700 3750 2800 3200 
Q 2900 2650 2862 1937 
Q 2825 1225 2612 775 
Q 2400 325 1975 150 
Q 1550 -25 1125 187 
Q 700 400 525 750 
Q 350 1100 275 1487 
Q 200 1875 225 2537 
z
M 750 2687 
Q 675 2000 800 1462 
Q 925 925 1212 700 
Q 1500 475 1800 612 
Q 2100 750 2237 1162 
Q 2375 1575 2375 2062 
Q 2375 2550 2337 2950 
Q 2300 3350 2112 3675 
Q 1925 4000 1612 4012 
Q 1300 4025 1062 3700 
Q 825 3375 750 2687 
z
" transform="scale(0.015625)"/>
        <path id="SimHei-2e" d="M 1075 125 
L 500 125 
L 500 675 
L 1075 675 
L 1075 125 
z
" transform="scale(0.015625)"/>
        <path id="SimHei-32" d="M 300 250 
Q 325 625 650 925 
Q 975 1225 1475 1862 
Q 1975 2500 2125 2850 
Q 2275 3200 2237 3450 
Q 2200 3700 2000 3862 
Q 1800 4025 1537 4000 
Q 1275 3975 1037 3800 
Q 800 3625 675 3275 
L 200 3350 
Q 400 3925 712 4187 
Q 1025 4450 1450 4475 
Q 1700 4500 1900 4462 
Q 2100 4425 2312 4287 
Q 2525 4150 2662 3875 
Q 2800 3600 2762 3212 
Q 2725 2825 2375 2287 
Q 2025 1750 1025 600 
L 2825 600 
L 2825 150 
L 300 150 
L 300 250 
z
" transform="scale(0.015625)"/>
       </defs>
       <use xlink:href="#SimHei-30"/>
       <use xlink:href="#SimHei-2e" x="50"/>
       <use xlink:href="#SimHei-30" x="100"/>
       <use xlink:href="#SimHei-32" x="150"/>
       <use xlink:href="#SimHei-32" x="200"/>
      </g>
     </g>
    </g>
    <g id="xtick_2">
     <g id="line2d_2">
      <g>
       <use xlink:href="#mc11131f761" x="193.058094" y="433.539361" style="stroke: #000000; stroke-width: 0.8"/>
      </g>
     </g>
     <g id="text_2">
      <!-- 0.024 -->
      <g transform="translate(180.558094 447.414361) scale(0.1 -0.1)">
       <defs>
        <path id="SimHei-34" d="M 2000 1100 
L 75 1100 
L 75 1525 
L 2100 4450 
L 2475 4450 
L 2475 1525 
L 3075 1525 
L 3075 1100 
L 2475 1100 
L 2475 150 
L 2000 150 
L 2000 1100 
z
M 2000 1525 
L 2000 3500 
L 600 1525 
L 2000 1525 
z
" transform="scale(0.015625)"/>
       </defs>
       <use xlink:href="#SimHei-30"/>
       <use xlink:href="#SimHei-2e" x="50"/>
       <use xlink:href="#SimHei-30" x="100"/>
       <use xlink:href="#SimHei-32" x="150"/>
       <use xlink:href="#SimHei-34" x="200"/>
      </g>
     </g>
    </g>
    <g id="xtick_3">
     <g id="line2d_3">
      <g>
       <use xlink:href="#mc11131f761" x="288.876187" y="433.539361" style="stroke: #000000; stroke-width: 0.8"/>
      </g>
     </g>
     <g id="text_3">
      <!-- 0.026 -->
      <g transform="translate(276.376187 447.414361) scale(0.1 -0.1)">
       <defs>
        <path id="SimHei-36" d="M 250 1612 
Q 275 1975 387 2225 
Q 500 2475 725 2850 
L 1750 4450 
L 2325 4450 
L 1275 2800 
Q 1950 2975 2350 2750 
Q 2750 2525 2887 2237 
Q 3025 1950 3037 1612 
Q 3050 1275 2937 950 
Q 2825 625 2537 362 
Q 2250 100 1737 75 
Q 1225 50 862 262 
Q 500 475 362 862 
Q 225 1250 250 1612 
z
M 1025 787 
Q 1250 550 1625 525 
Q 2000 500 2250 775 
Q 2500 1050 2500 1575 
Q 2500 2100 2187 2300 
Q 1875 2500 1487 2450 
Q 1100 2400 925 2075 
Q 750 1750 775 1387 
Q 800 1025 1025 787 
z
" transform="scale(0.015625)"/>
       </defs>
       <use xlink:href="#SimHei-30"/>
       <use xlink:href="#SimHei-2e" x="50"/>
       <use xlink:href="#SimHei-30" x="100"/>
       <use xlink:href="#SimHei-32" x="150"/>
       <use xlink:href="#SimHei-36" x="200"/>
      </g>
     </g>
    </g>
    <g id="xtick_4">
     <g id="line2d_4">
      <g>
       <use xlink:href="#mc11131f761" x="384.694279" y="433.539361" style="stroke: #000000; stroke-width: 0.8"/>
      </g>
     </g>
     <g id="text_4">
      <!-- 0.028 -->
      <g transform="translate(372.194279 447.414361) scale(0.1 -0.1)">
       <defs>
        <path id="SimHei-38" d="M 175 1375 
Q 175 1675 325 1962 
Q 475 2250 825 2425 
Q 525 2600 425 2812 
Q 325 3025 312 3300 
Q 300 3575 387 3775 
Q 475 3975 650 4150 
Q 825 4325 1037 4387 
Q 1250 4450 1500 4450 
Q 1750 4450 1950 4400 
Q 2150 4350 2375 4187 
Q 2600 4025 2700 3725 
Q 2800 3425 2687 3025 
Q 2575 2625 2100 2400 
Q 2525 2275 2700 2012 
Q 2875 1750 2875 1375 
Q 2875 1000 2762 775 
Q 2650 550 2512 400 
Q 2375 250 2137 162 
Q 1900 75 1537 75 
Q 1175 75 912 162 
Q 650 250 475 425 
Q 300 600 237 837 
Q 175 1075 175 1375 
z
M 687 1400 
Q 675 1100 787 875 
Q 900 650 1200 587 
Q 1500 525 1825 600 
Q 2150 675 2275 950 
Q 2400 1225 2362 1500 
Q 2325 1775 2050 1962 
Q 1775 2150 1450 2125 
Q 1125 2100 912 1900 
Q 700 1700 687 1400 
z
M 775 3350 
Q 775 3100 950 2875 
Q 1125 2650 1500 2650 
Q 1875 2650 2062 2875 
Q 2250 3100 2237 3412 
Q 2225 3725 2012 3875 
Q 1800 4025 1437 4000 
Q 1075 3975 925 3787 
Q 775 3600 775 3350 
z
" transform="scale(0.015625)"/>
       </defs>
       <use xlink:href="#SimHei-30"/>
       <use xlink:href="#SimHei-2e" x="50"/>
       <use xlink:href="#SimHei-30" x="100"/>
       <use xlink:href="#SimHei-32" x="150"/>
       <use xlink:href="#SimHei-38" x="200"/>
      </g>
     </g>
    </g>
    <g id="xtick_5">
     <g id="line2d_5">
      <g>
       <use xlink:href="#mc11131f761" x="480.512371" y="433.539361" style="stroke: #000000; stroke-width: 0.8"/>
      </g>
     </g>
     <g id="text_5">
      <!-- 0.030 -->
      <g transform="translate(468.012371 447.414361) scale(0.1 -0.1)">
       <defs>
        <path id="SimHei-33" d="M 250 1225 
L 700 1300 
Q 800 975 1025 762 
Q 1250 550 1587 562 
Q 1925 575 2125 837 
Q 2325 1100 2300 1437 
Q 2275 1775 2037 1962 
Q 1800 2150 1275 2225 
L 1275 2550 
Q 1800 2600 2037 2825 
Q 2275 3050 2250 3412 
Q 2225 3775 1925 3937 
Q 1625 4100 1287 3975 
Q 950 3850 750 3275 
L 300 3350 
Q 450 3800 712 4100 
Q 975 4400 1425 4450 
Q 1875 4500 2212 4337 
Q 2550 4175 2687 3837 
Q 2825 3500 2725 3100 
Q 2625 2700 2150 2400 
Q 2500 2250 2687 1950 
Q 2875 1650 2812 1162 
Q 2750 675 2375 375 
Q 2000 75 1525 87 
Q 1050 100 700 387 
Q 350 675 250 1225 
z
" transform="scale(0.015625)"/>
       </defs>
       <use xlink:href="#SimHei-30"/>
       <use xlink:href="#SimHei-2e" x="50"/>
       <use xlink:href="#SimHei-30" x="100"/>
       <use xlink:href="#SimHei-33" x="150"/>
       <use xlink:href="#SimHei-30" x="200"/>
      </g>
     </g>
    </g>
    <g id="xtick_6">
     <g id="line2d_6">
      <g>
       <use xlink:href="#mc11131f761" x="576.330463" y="433.539361" style="stroke: #000000; stroke-width: 0.8"/>
      </g>
     </g>
     <g id="text_6">
      <!-- 0.032 -->
      <g transform="translate(563.830463 447.414361) scale(0.1 -0.1)">
       <use xlink:href="#SimHei-30"/>
       <use xlink:href="#SimHei-2e" x="50"/>
       <use xlink:href="#SimHei-30" x="100"/>
       <use xlink:href="#SimHei-33" x="150"/>
       <use xlink:href="#SimHei-32" x="200"/>
      </g>
     </g>
    </g>
    <g id="text_7">
     <!-- +1.214e2 -->
     <g transform="translate(608 458.539361) scale(0.1 -0.1)">
      <defs>
       <path id="SimHei-2b" d="M 3000 2125 
L 1775 2125 
L 1775 900 
L 1350 900 
L 1350 2125 
L 125 2125 
L 125 2525 
L 1350 2525 
L 1350 3750 
L 1775 3750 
L 1775 2525 
L 3000 2525 
L 3000 2125 
z
" transform="scale(0.015625)"/>
       <path id="SimHei-31" d="M 1400 3600 
Q 1075 3275 575 2975 
L 575 3450 
Q 1200 3875 1600 4450 
L 1900 4450 
L 1900 150 
L 1400 150 
L 1400 3600 
z
" transform="scale(0.015625)"/>
       <path id="SimHei-65" d="M 2850 1075 
Q 2800 625 2450 350 
Q 2100 75 1625 75 
Q 1025 75 637 462 
Q 250 850 250 1525 
Q 250 2200 637 2587 
Q 1025 2975 1625 2975 
Q 2150 2975 2487 2637 
Q 2825 2300 2825 1525 
L 800 1525 
Q 800 975 1037 750 
Q 1275 525 1625 525 
Q 1900 525 2075 662 
Q 2250 800 2300 1075 
L 2850 1075 
z
M 2250 1925 
Q 2200 2275 2025 2412 
Q 1850 2550 1575 2550 
Q 1325 2550 1125 2412 
Q 925 2275 825 1925 
L 2250 1925 
z
" transform="scale(0.015625)"/>
      </defs>
      <use xlink:href="#SimHei-2b"/>
      <use xlink:href="#SimHei-31" x="50"/>
      <use xlink:href="#SimHei-2e" x="100"/>
      <use xlink:href="#SimHei-32" x="150"/>
      <use xlink:href="#SimHei-31" x="200"/>
      <use xlink:href="#SimHei-34" x="250"/>
      <use xlink:href="#SimHei-65" x="300"/>
      <use xlink:href="#SimHei-32" x="350"/>
     </g>
    </g>
   </g>
   <g id="matplotlib.axis_2">
    <g id="ytick_1">
     <g id="line2d_7">
      <defs>
       <path id="m8ef9975597" d="M 0 0 
L -3.5 0 
" style="stroke: #000000; stroke-width: 0.8"/>
      </defs>
      <g>
       <use xlink:href="#m8ef9975597" x="90" y="397.081776" style="stroke: #000000; stroke-width: 0.8"/>
      </g>
     </g>
     <g id="text_8">
      <!-- 0.005 -->
      <g transform="translate(58 400.519276) scale(0.1 -0.1)">
       <defs>
        <path id="SimHei-35" d="M 550 1325 
Q 725 650 1150 575 
Q 1575 500 1837 662 
Q 2100 825 2212 1087 
Q 2325 1350 2312 1675 
Q 2300 2000 2137 2225 
Q 1975 2450 1725 2525 
Q 1475 2600 1162 2525 
Q 850 2450 650 2175 
L 225 2225 
Q 275 2375 700 4375 
L 2675 4375 
L 2675 3925 
L 1075 3925 
Q 950 3250 825 2850 
Q 1200 3025 1525 3012 
Q 1850 3000 2150 2862 
Q 2450 2725 2587 2487 
Q 2725 2250 2787 2012 
Q 2850 1775 2837 1500 
Q 2825 1225 2725 937 
Q 2625 650 2425 462 
Q 2225 275 1937 162 
Q 1650 50 1275 75 
Q 900 100 562 350 
Q 225 600 100 1200 
L 550 1325 
z
" transform="scale(0.015625)"/>
       </defs>
       <use xlink:href="#SimHei-30"/>
       <use xlink:href="#SimHei-2e" x="50"/>
       <use xlink:href="#SimHei-30" x="100"/>
       <use xlink:href="#SimHei-30" x="150"/>
       <use xlink:href="#SimHei-35" x="200"/>
      </g>
     </g>
    </g>
    <g id="ytick_2">
     <g id="line2d_8">
      <g>
       <use xlink:href="#m8ef9975597" x="90" y="341.079422" style="stroke: #000000; stroke-width: 0.8"/>
      </g>
     </g>
     <g id="text_9">
      <!-- 0.006 -->
      <g transform="translate(58 344.516922) scale(0.1 -0.1)">
       <use xlink:href="#SimHei-30"/>
       <use xlink:href="#SimHei-2e" x="50"/>
       <use xlink:href="#SimHei-30" x="100"/>
       <use xlink:href="#SimHei-30" x="150"/>
       <use xlink:href="#SimHei-36" x="200"/>
      </g>
     </g>
    </g>
    <g id="ytick_3">
     <g id="line2d_9">
      <g>
       <use xlink:href="#m8ef9975597" x="90" y="285.077067" style="stroke: #000000; stroke-width: 0.8"/>
      </g>
     </g>
     <g id="text_10">
      <!-- 0.007 -->
      <g transform="translate(58 288.514567) scale(0.1 -0.1)">
       <defs>
        <path id="SimHei-37" d="M 850 150 
Q 1300 2050 2425 3925 
L 275 3925 
L 275 4375 
L 2950 4375 
L 2950 3950 
Q 1775 2050 1400 150 
L 850 150 
z
" transform="scale(0.015625)"/>
       </defs>
       <use xlink:href="#SimHei-30"/>
       <use xlink:href="#SimHei-2e" x="50"/>
       <use xlink:href="#SimHei-30" x="100"/>
       <use xlink:href="#SimHei-30" x="150"/>
       <use xlink:href="#SimHei-37" x="200"/>
      </g>
     </g>
    </g>
    <g id="ytick_4">
     <g id="line2d_10">
      <g>
       <use xlink:href="#m8ef9975597" x="90" y="229.074713" style="stroke: #000000; stroke-width: 0.8"/>
      </g>
     </g>
     <g id="text_11">
      <!-- 0.008 -->
      <g transform="translate(58 232.512213) scale(0.1 -0.1)">
       <use xlink:href="#SimHei-30"/>
       <use xlink:href="#SimHei-2e" x="50"/>
       <use xlink:href="#SimHei-30" x="100"/>
       <use xlink:href="#SimHei-30" x="150"/>
       <use xlink:href="#SimHei-38" x="200"/>
      </g>
     </g>
    </g>
    <g id="ytick_5">
     <g id="line2d_11">
      <g>
       <use xlink:href="#m8ef9975597" x="90" y="173.072358" style="stroke: #000000; stroke-width: 0.8"/>
      </g>
     </g>
     <g id="text_12">
      <!-- 0.009 -->
      <g transform="translate(58 176.509858) scale(0.1 -0.1)">
       <defs>
        <path id="SimHei-39" d="M 800 75 
Q 1350 1000 1700 1750 
Q 1075 1650 662 1912 
Q 250 2175 162 2625 
Q 75 3075 175 3437 
Q 275 3800 487 4037 
Q 700 4275 1000 4375 
Q 1300 4475 1537 4475 
Q 1775 4475 2025 4375 
Q 2275 4275 2475 4075 
Q 2675 3875 2750 3662 
Q 2825 3450 2825 3112 
Q 2825 2775 2575 2250 
Q 2325 1725 1350 75 
L 800 75 
z
M 662 2875 
Q 700 2550 937 2337 
Q 1175 2125 1450 2150 
Q 1725 2175 1887 2300 
Q 2050 2425 2200 2725 
Q 2300 3100 2250 3362 
Q 2200 3625 1987 3800 
Q 1775 3975 1525 3975 
Q 1375 4000 1137 3900 
Q 900 3800 762 3500 
Q 625 3200 662 2875 
z
" transform="scale(0.015625)"/>
       </defs>
       <use xlink:href="#SimHei-30"/>
       <use xlink:href="#SimHei-2e" x="50"/>
       <use xlink:href="#SimHei-30" x="100"/>
       <use xlink:href="#SimHei-30" x="150"/>
       <use xlink:href="#SimHei-39" x="200"/>
      </g>
     </g>
    </g>
    <g id="text_13">
     <!-- +3.118e1 -->
     <g transform="translate(90 145.220639) scale(0.1 -0.1)">
      <use xlink:href="#SimHei-2b"/>
      <use xlink:href="#SimHei-33" x="50"/>
      <use xlink:href="#SimHei-2e" x="100"/>
      <use xlink:href="#SimHei-31" x="150"/>
      <use xlink:href="#SimHei-31" x="200"/>
      <use xlink:href="#SimHei-38" x="250"/>
      <use xlink:href="#SimHei-65" x="300"/>
      <use xlink:href="#SimHei-31" x="350"/>
     </g>
    </g>
   </g>
   <g id="LineCollection_1">
    <path d="M 622.636364 408.05606 
L 559.761213 420.570328 
L 496.658801 408.270739 
L 434.158401 392.243514 
L 373.382435 368.992957 
L 313.056356 343.985808 
L 257.104858 307.825184 
L 201.525499 270.715752 
L 155.523487 219.440408 
L 115.363636 161.189672 
" clip-path="url(#p8b6290fea1)" style="fill: none; stroke: #1f77b4; stroke-width: 1.5"/>
   </g>
   <g id="patch_3">
    <path d="M 90 433.539361 
L 90 148.220639 
" style="fill: none; stroke: #000000; stroke-width: 0.8; stroke-linejoin: miter; stroke-linecap: square"/>
   </g>
   <g id="patch_4">
    <path d="M 648 433.539361 
L 648 148.220639 
" style="fill: none; stroke: #000000; stroke-width: 0.8; stroke-linejoin: miter; stroke-linecap: square"/>
   </g>
   <g id="patch_5">
    <path d="M 90 433.539361 
L 648 433.539361 
" style="fill: none; stroke: #000000; stroke-width: 0.8; stroke-linejoin: miter; stroke-linecap: square"/>
   </g>
   <g id="patch_6">
    <path d="M 90 148.220639 
L 648 148.220639 
" style="fill: none; stroke: #000000; stroke-width: 0.8; stroke-linejoin: miter; stroke-linecap: square"/>
   </g>
   <g id="text_14">
    <!-- 四号线环线最后一段检查 -->
    <g transform="translate(303 142.220639) scale(0.12 -0.12)">
     <defs>
      <path id="SimHei-56db" d="M 5750 4750 
Q 5725 4125 5725 3425 
L 5725 950 
Q 5725 300 5750 -450 
L 5225 -450 
L 5225 25 
L 1150 25 
L 1150 -500 
L 625 -500 
Q 650 300 650 1000 
L 650 3425 
Q 650 4050 625 4750 
L 5750 4750 
z
M 5225 450 
L 5225 4350 
L 3975 4350 
L 3975 2225 
Q 3975 1950 4225 1950 
Q 4475 1950 5025 1975 
Q 4900 1700 4875 1500 
Q 4225 1500 3887 1512 
Q 3550 1525 3500 1975 
L 3500 4350 
L 2850 4350 
Q 2850 3050 2562 2412 
Q 2275 1775 1700 1200 
Q 1575 1375 1275 1525 
Q 1650 1800 1900 2175 
Q 2150 2550 2262 3000 
Q 2375 3450 2375 4350 
L 1150 4350 
L 1150 450 
L 5225 450 
z
" transform="scale(0.015625)"/>
      <path id="SimHei-53f7" d="M 5025 4925 
Q 5000 4550 5000 4075 
Q 5000 3600 5025 3175 
L 1400 3175 
Q 1425 3525 1425 4000 
Q 1425 4500 1400 4925 
L 5025 4925 
z
M 5175 2625 
Q 5650 2625 6025 2650 
L 6025 2200 
Q 5650 2225 5175 2225 
L 2450 2225 
Q 2350 1875 2225 1450 
L 5175 1450 
Q 5100 1050 5062 775 
Q 5025 500 4950 112 
Q 4875 -275 4650 -412 
Q 4425 -550 3225 -625 
Q 3125 -350 2975 -50 
Q 3875 -75 4112 -50 
Q 4350 -25 4425 212 
Q 4500 450 4575 1025 
L 1600 1025 
Q 1825 1625 1950 2225 
L 1350 2225 
Q 825 2225 375 2200 
L 375 2650 
Q 825 2625 1350 2625 
L 5175 2625 
z
M 4525 3575 
L 4525 4525 
L 1900 4525 
L 1900 3575 
L 4525 3575 
z
" transform="scale(0.015625)"/>
      <path id="SimHei-7ebf" d="M 3450 4300 
Q 3450 4675 3375 5125 
Q 3700 5100 4050 5050 
Q 3975 4900 3950 4562 
Q 3925 4225 3950 3600 
L 4800 3750 
Q 5225 3850 5650 3975 
L 5750 3500 
Q 5325 3450 4875 3375 
L 3975 3200 
Q 3975 2800 4025 2500 
L 5000 2675 
Q 5500 2775 5950 2925 
L 6025 2450 
Q 5575 2375 5075 2275 
L 4100 2100 
Q 4150 1600 4350 1175 
Q 4575 1350 4787 1575 
Q 5000 1800 5175 2075 
Q 5550 1775 5750 1675 
Q 5425 1525 5237 1337 
Q 5050 1150 4625 750 
Q 4925 250 5162 112 
Q 5400 -25 5500 100 
Q 5600 225 5675 625 
Q 5900 450 6200 350 
Q 5775 -750 5275 -537 
Q 4775 -325 4225 450 
Q 3875 175 3537 -62 
Q 3200 -300 2700 -550 
Q 2575 -300 2325 -100 
Q 2825 75 3175 275 
Q 3525 475 3975 850 
Q 3750 1350 3650 2025 
Q 2900 1900 2600 1800 
L 2525 2275 
Q 2825 2275 3550 2425 
Q 3500 2825 3500 3100 
Q 2825 2950 2575 2875 
L 2475 3350 
Q 2725 3350 3450 3500 
L 3450 4300 
z
M 1950 4875 
Q 1700 4650 1462 4237 
Q 1225 3825 825 3225 
Q 1425 3250 1650 3250 
Q 1875 3625 2050 4075 
Q 2300 3900 2600 3800 
Q 2350 3550 2087 3125 
Q 1825 2700 1175 1675 
Q 1850 1725 2375 1775 
Q 2300 1525 2300 1350 
Q 2125 1350 1525 1287 
Q 925 1225 550 1125 
Q 525 1375 400 1650 
Q 700 1725 950 2050 
Q 1200 2375 1475 2875 
Q 650 2825 425 2675 
Q 350 2950 200 3225 
Q 525 3450 825 3962 
Q 1125 4475 1375 5150 
Q 1625 4975 1950 4875 
z
M 2575 875 
Q 2550 600 2575 450 
Q 1950 325 1450 200 
Q 950 75 525 -75 
Q 450 200 250 475 
Q 950 550 1325 612 
Q 1700 675 2575 875 
z
M 4850 4025 
Q 4675 4300 4375 4675 
L 4775 4875 
Q 4875 4750 5275 4275 
Q 5025 4175 4850 4025 
z
" transform="scale(0.015625)"/>
      <path id="SimHei-73af" d="M 5175 4850 
Q 5550 4850 6025 4875 
L 6025 4400 
Q 5600 4425 5175 4425 
L 4700 4425 
Q 4475 3625 4400 3325 
L 4400 275 
Q 4400 -225 4425 -625 
L 3900 -625 
Q 3925 -250 3925 275 
L 3925 2275 
Q 3400 1250 2650 550 
Q 2500 700 2200 875 
Q 2550 1125 2862 1512 
Q 3175 1900 3475 2425 
Q 3775 2950 3912 3400 
Q 4050 3850 4175 4425 
L 3475 4425 
Q 3075 4425 2650 4400 
L 2650 4875 
Q 3075 4850 3475 4850 
L 5175 4850 
z
M 1875 4850 
Q 2125 4850 2450 4875 
L 2450 4425 
Q 2125 4450 1875 4450 
L 1700 4450 
L 1700 3250 
Q 2050 3250 2475 3275 
L 2475 2825 
Q 2025 2850 1700 2850 
L 1700 1425 
Q 1925 1475 2450 1725 
Q 2450 1525 2475 1250 
Q 1725 975 1337 850 
Q 950 725 500 525 
Q 400 775 250 1050 
Q 425 1050 1250 1275 
L 1250 2850 
Q 825 2850 450 2800 
L 450 3275 
Q 825 3250 1250 3250 
L 1250 4450 
L 1025 4450 
Q 700 4450 375 4425 
L 375 4875 
Q 700 4850 1000 4850 
L 1875 4850 
z
M 5000 3125 
Q 5775 2075 6175 1425 
Q 5925 1275 5700 1125 
Q 5325 1800 5112 2125 
Q 4900 2450 4600 2825 
Q 4825 2950 5000 3125 
z
" transform="scale(0.015625)"/>
      <path id="SimHei-6700" d="M 475 275 
Q 675 300 1100 350 
L 1100 2450 
Q 775 2450 425 2425 
L 425 2850 
Q 775 2825 1125 2825 
L 5025 2825 
Q 5475 2825 5900 2850 
L 5900 2425 
Q 5475 2450 5025 2450 
L 3050 2450 
L 3050 675 
L 3400 775 
Q 3400 550 3425 400 
Q 3225 350 3050 325 
Q 3050 -125 3075 -550 
L 2600 -550 
Q 2625 -125 2625 250 
Q 2350 200 1812 87 
Q 1275 -25 650 -175 
Q 575 100 475 275 
z
M 5100 4925 
Q 5075 4600 5075 4325 
L 5075 3875 
Q 5075 3600 5100 3250 
L 1275 3250 
Q 1300 3600 1300 3875 
L 1300 4325 
Q 1300 4600 1275 4925 
L 5100 4925 
z
M 3300 2050 
Q 3750 2025 4125 2025 
L 5375 2025 
Q 5100 975 4725 400 
Q 5350 0 5925 -100 
Q 5700 -275 5650 -500 
Q 5025 -300 4475 150 
Q 4150 -200 3600 -575 
Q 3500 -425 3250 -275 
Q 3775 -100 4150 350 
Q 3725 775 3500 1675 
L 3300 1675 
L 3300 2050 
z
M 4600 4250 
L 4600 4600 
L 1750 4600 
L 1750 4250 
L 4600 4250 
z
M 4600 3575 
L 4600 3900 
L 1750 3900 
L 1750 3575 
L 4600 3575 
z
M 3900 1675 
Q 4000 1075 4400 625 
Q 4700 1050 4850 1675 
L 3900 1675 
z
M 2625 1250 
L 2625 1675 
L 1525 1675 
L 1525 1250 
L 2625 1250 
z
M 2625 575 
L 2625 925 
L 1525 925 
L 1525 425 
L 2625 575 
z
M 2625 2025 
L 2625 2450 
L 1525 2450 
L 1525 2025 
L 2625 2025 
z
" transform="scale(0.015625)"/>
      <path id="SimHei-540e" d="M 5475 2150 
Q 5450 1750 5450 775 
Q 5450 -175 5500 -550 
L 4975 -550 
L 4975 -25 
L 2525 -25 
L 2525 -600 
L 2025 -600 
Q 2050 -175 2050 775 
Q 2050 1750 2025 2150 
L 5475 2150 
z
M 5175 5075 
Q 5300 4800 5525 4525 
Q 4950 4475 3750 4337 
Q 2550 4200 1575 4175 
L 1575 3375 
L 5200 3375 
Q 5550 3375 5975 3400 
L 5975 2900 
Q 5575 2925 5200 2925 
L 1575 2925 
Q 1550 2425 1487 1875 
Q 1425 1325 1250 712 
Q 1075 100 800 -325 
Q 650 -200 225 -50 
Q 625 325 825 1062 
Q 1025 1800 1050 2825 
Q 1075 3850 1075 4575 
Q 2300 4600 3625 4775 
Q 4950 4950 5175 5075 
z
M 4975 375 
L 4975 1725 
L 2525 1725 
L 2525 375 
L 4975 375 
z
" transform="scale(0.015625)"/>
      <path id="SimHei-4e00" d="M 4875 2675 
Q 5525 2675 6050 2700 
L 6050 2050 
Q 5525 2075 4900 2075 
L 1600 2075 
Q 950 2075 350 2050 
L 350 2700 
Q 950 2675 1600 2675 
L 4875 2675 
z
" transform="scale(0.015625)"/>
      <path id="SimHei-6bb5" d="M 5500 2475 
Q 5350 1775 5100 1237 
Q 4850 700 4600 400 
Q 4825 225 5250 87 
Q 5675 -50 6125 -125 
Q 5950 -275 5825 -650 
Q 5150 -450 4825 -287 
Q 4500 -125 4225 75 
Q 3825 -175 3450 -337 
Q 3075 -500 2625 -650 
Q 2525 -400 2325 -225 
Q 2675 -150 3100 0 
Q 3525 150 3925 425 
Q 3725 675 3525 1150 
Q 3325 1600 3225 2075 
Q 3050 2075 2900 2075 
L 2900 2500 
Q 3375 2475 3800 2475 
L 5500 2475 
z
M 2650 4625 
Q 2300 4550 1887 4475 
Q 1475 4400 1300 4375 
L 1300 3550 
Q 2050 3550 2525 3600 
L 2525 3125 
Q 2050 3150 1300 3150 
L 1300 2350 
Q 2050 2350 2525 2375 
L 2525 1900 
Q 2050 1925 1300 1925 
L 1300 975 
Q 1950 1075 2625 1250 
Q 2600 1000 2600 775 
Q 1900 675 1300 525 
L 1300 100 
Q 1300 -200 1325 -625 
L 800 -625 
Q 825 -200 825 100 
L 825 425 
Q 575 375 350 300 
Q 300 650 250 825 
Q 500 850 825 900 
L 825 3800 
Q 825 4225 800 4725 
Q 1100 4725 1575 4825 
Q 2050 4925 2375 5125 
Q 2475 4850 2650 4625 
z
M 5100 4975 
Q 5075 4600 5075 4275 
L 5075 3650 
Q 5075 3425 5237 3387 
Q 5400 3350 5975 3400 
Q 5875 3225 5850 2950 
L 5075 2950 
Q 4650 2950 4625 3375 
L 4625 4575 
L 3775 4575 
Q 3775 3925 3675 3525 
Q 3575 3125 3200 2725 
Q 3025 2900 2800 3050 
Q 3275 3400 3300 3937 
Q 3325 4475 3300 4975 
L 5100 4975 
z
M 3675 2100 
Q 3775 1675 3962 1287 
Q 4150 900 4275 775 
Q 4450 950 4625 1312 
Q 4800 1675 4900 2100 
L 3800 2100 
L 3675 2100 
z
" transform="scale(0.015625)"/>
      <path id="SimHei-68c0" d="M 1250 4575 
Q 1250 4850 1225 5150 
L 1750 5150 
Q 1700 4850 1700 4575 
L 1700 3900 
L 1950 3900 
Q 2100 3900 2475 3925 
L 2475 3450 
Q 2050 3475 1875 3475 
L 1700 3475 
L 1700 2325 
Q 1900 2400 2050 2525 
Q 2125 2400 2250 2187 
Q 2375 1975 2500 1750 
Q 2325 1675 2075 1500 
Q 2000 1625 1912 1837 
Q 1825 2050 1700 2175 
L 1700 300 
Q 1700 -175 1725 -625 
L 1225 -625 
Q 1250 -225 1250 300 
L 1250 2300 
Q 1150 2050 950 1637 
Q 750 1225 575 950 
Q 400 1200 175 1325 
Q 400 1575 550 1862 
Q 700 2150 837 2437 
Q 975 2725 1062 2987 
Q 1150 3250 1200 3475 
L 950 3475 
Q 825 3475 425 3450 
L 425 3925 
Q 800 3900 950 3900 
L 1250 3900 
L 1250 4575 
z
M 4912 3225 
Q 4675 3425 4462 3712 
Q 4250 4000 3975 4450 
Q 3775 4025 3600 3737 
Q 3425 3450 3225 3200 
L 4850 3200 
L 4850 2750 
Q 4675 2775 4500 2775 
L 3750 2775 
Q 3450 2775 3150 2750 
L 3150 3075 
L 2875 2800 
Q 2700 2600 2550 2450 
Q 2400 2675 2100 2825 
Q 2475 3075 2750 3387 
Q 3025 3700 3212 3987 
Q 3400 4275 3537 4587 
Q 3675 4900 3725 5175 
Q 4050 5100 4325 5025 
Q 4225 4900 4200 4825 
Q 4675 3975 5200 3637 
Q 5725 3300 6150 3150 
Q 5900 2925 5850 2625 
Q 5600 2750 5375 2887 
Q 5150 3025 4912 3225 
z
M 5675 2225 
Q 5400 1650 5225 1187 
Q 5050 725 4800 175 
L 5225 175 
Q 5600 175 5975 200 
L 5975 -250 
Q 5675 -225 5225 -225 
L 3125 -225 
Q 2425 -225 2200 -250 
L 2200 200 
Q 2450 175 3150 175 
L 4325 175 
Q 4500 525 4662 987 
Q 4825 1450 4912 1737 
Q 5000 2025 5075 2425 
Q 5400 2300 5675 2225 
z
M 3000 2200 
Q 3150 1850 3312 1462 
Q 3475 1075 3600 725 
Q 3400 650 3100 500 
Q 2975 950 2875 1200 
Q 2775 1450 2525 1950 
Q 2825 2100 3000 2200 
z
M 4000 2425 
Q 4125 2075 4275 1650 
Q 4425 1225 4500 1025 
Q 4225 975 4000 850 
Q 3900 1250 3787 1575 
Q 3675 1900 3500 2225 
Q 3800 2350 4000 2425 
z
" transform="scale(0.015625)"/>
      <path id="SimHei-67e5" d="M 2950 4375 
Q 2950 4775 2925 5150 
L 3425 5150 
Q 3400 4800 3400 4375 
L 4950 4375 
Q 5300 4375 5800 4400 
L 5800 3925 
Q 5300 3950 4950 3950 
L 4050 3950 
Q 4325 3550 4875 3250 
Q 5425 2950 6125 2775 
Q 5875 2575 5775 2275 
Q 5000 2550 4462 2950 
Q 3925 3350 3550 3950 
L 3400 3950 
L 3400 2575 
L 4975 2575 
Q 4950 2125 4950 1575 
Q 4950 1050 4975 525 
L 1425 525 
Q 1450 1000 1450 1550 
Q 1450 2125 1425 2575 
Q 1100 2375 650 2150 
Q 500 2425 300 2600 
Q 850 2725 1400 3100 
Q 1950 3475 2275 3950 
L 1550 3950 
Q 1100 3950 600 3925 
L 600 4400 
Q 1100 4375 1550 4375 
L 2950 4375 
z
M 5100 0 
Q 5525 0 5925 25 
L 5925 -425 
Q 4975 -400 4600 -400 
L 1425 -400 
Q 975 -400 525 -425 
L 525 25 
Q 1000 0 1425 0 
L 5100 0 
z
M 4500 925 
L 4500 1375 
L 1900 1375 
L 1900 925 
L 4500 925 
z
M 4500 1750 
L 4500 2175 
L 1900 2175 
L 1900 1750 
L 4500 1750 
z
M 2950 2575 
L 2950 3950 
L 2825 3950 
Q 2550 3525 2225 3200 
Q 1900 2875 1450 2575 
L 2950 2575 
z
" transform="scale(0.015625)"/>
     </defs>
     <use xlink:href="#SimHei-56db"/>
     <use xlink:href="#SimHei-53f7" x="100"/>
     <use xlink:href="#SimHei-7ebf" x="200"/>
     <use xlink:href="#SimHei-73af" x="300"/>
     <use xlink:href="#SimHei-7ebf" x="400"/>
     <use xlink:href="#SimHei-6700" x="500"/>
     <use xlink:href="#SimHei-540e" x="600"/>
     <use xlink:href="#SimHei-4e00" x="700"/>
     <use xlink:href="#SimHei-6bb5" x="800"/>
     <use xlink:href="#SimHei-68c0" x="900"/>
     <use xlink:href="#SimHei-67e5" x="1000"/>
    </g>
   </g>
  </g>
 </g>
 <defs>
  <clipPath id="p8b6290fea1">
   <rect x="90" y="148.220639" width="558" height="285.318723"/>
  </clipPath>
 </defs>
</svg>
