<?xml version="1.0" encoding="utf-8" standalone="no"?>
<!DOCTYPE svg PUBLIC "-//W3C//DTD SVG 1.1//EN"
  "http://www.w3.org/Graphics/SVG/1.1/DTD/svg11.dtd">
<svg xmlns:xlink="http://www.w3.org/1999/xlink" width="460.8pt" height="345.6pt" viewBox="0 0 460.8 345.6" xmlns="http://www.w3.org/2000/svg" version="1.1">
 <metadata>
  <rdf:RDF xmlns:dc="http://purl.org/dc/elements/1.1/" xmlns:cc="http://creativecommons.org/ns#" xmlns:rdf="http://www.w3.org/1999/02/22-rdf-syntax-ns#">
   <cc:Work>
    <dc:type rdf:resource="http://purl.org/dc/dcmitype/StillImage"/>
    <dc:date>2025-04-27T20:39:25.164340</dc:date>
    <dc:format>image/svg+xml</dc:format>
    <dc:creator>
     <cc:Agent>
      <dc:title>Matplotlib v3.9.2, https://matplotlib.org/</dc:title>
     </cc:Agent>
    </dc:creator>
   </cc:Work>
  </rdf:RDF>
 </metadata>
 <defs>
  <style type="text/css">*{stroke-linejoin: round; stroke-linecap: butt}</style>
 </defs>
 <g id="figure_1">
  <g id="patch_1">
   <path d="M 0 345.6 
L 460.8 345.6 
L 460.8 0 
L 0 0 
z
" style="fill: #ffffff"/>
  </g>
  <g id="axes_1">
   <g id="patch_2">
    <path d="M 57.6 289.481318 
L 414.72 289.481318 
L 414.72 59.574682 
L 57.6 59.574682 
z
" style="fill: #ffffff"/>
   </g>
   <g id="matplotlib.axis_1">
    <g id="xtick_1">
     <g id="line2d_1">
      <defs>
       <path id="m263e1987e0" d="M 0 0 
L 0 3.5 
" style="stroke: #000000; stroke-width: 0.8"/>
      </defs>
      <g>
       <use xlink:href="#m263e1987e0" x="68.40062" y="289.481318" style="stroke: #000000; stroke-width: 0.8"/>
      </g>
     </g>
     <g id="text_1">
      <!-- 121.0 -->
      <g transform="translate(54.086558 304.079755) scale(0.1 -0.1)">
       <defs>
        <path id="DejaVuSans-31" d="M 794 531 
L 1825 531 
L 1825 4091 
L 703 3866 
L 703 4441 
L 1819 4666 
L 2450 4666 
L 2450 531 
L 3481 531 
L 3481 0 
L 794 0 
L 794 531 
z
" transform="scale(0.015625)"/>
        <path id="DejaVuSans-32" d="M 1228 531 
L 3431 531 
L 3431 0 
L 469 0 
L 469 531 
Q 828 903 1448 1529 
Q 2069 2156 2228 2338 
Q 2531 2678 2651 2914 
Q 2772 3150 2772 3378 
Q 2772 3750 2511 3984 
Q 2250 4219 1831 4219 
Q 1534 4219 1204 4116 
Q 875 4013 500 3803 
L 500 4441 
Q 881 4594 1212 4672 
Q 1544 4750 1819 4750 
Q 2544 4750 2975 4387 
Q 3406 4025 3406 3419 
Q 3406 3131 3298 2873 
Q 3191 2616 2906 2266 
Q 2828 2175 2409 1742 
Q 1991 1309 1228 531 
z
" transform="scale(0.015625)"/>
        <path id="DejaVuSans-2e" d="M 684 794 
L 1344 794 
L 1344 0 
L 684 0 
L 684 794 
z
" transform="scale(0.015625)"/>
        <path id="DejaVuSans-30" d="M 2034 4250 
Q 1547 4250 1301 3770 
Q 1056 3291 1056 2328 
Q 1056 1369 1301 889 
Q 1547 409 2034 409 
Q 2525 409 2770 889 
Q 3016 1369 3016 2328 
Q 3016 3291 2770 3770 
Q 2525 4250 2034 4250 
z
M 2034 4750 
Q 2819 4750 3233 4129 
Q 3647 3509 3647 2328 
Q 3647 1150 3233 529 
Q 2819 -91 2034 -91 
Q 1250 -91 836 529 
Q 422 1150 422 2328 
Q 422 3509 836 4129 
Q 1250 4750 2034 4750 
z
" transform="scale(0.015625)"/>
       </defs>
       <use xlink:href="#DejaVuSans-31"/>
       <use xlink:href="#DejaVuSans-32" x="63.623047"/>
       <use xlink:href="#DejaVuSans-31" x="127.246094"/>
       <use xlink:href="#DejaVuSans-2e" x="190.869141"/>
       <use xlink:href="#DejaVuSans-30" x="222.65625"/>
      </g>
     </g>
    </g>
    <g id="xtick_2">
     <g id="line2d_2">
      <g>
       <use xlink:href="#m263e1987e0" x="139.733171" y="289.481318" style="stroke: #000000; stroke-width: 0.8"/>
      </g>
     </g>
     <g id="text_2">
      <!-- 121.2 -->
      <g transform="translate(125.419108 304.079755) scale(0.1 -0.1)">
       <use xlink:href="#DejaVuSans-31"/>
       <use xlink:href="#DejaVuSans-32" x="63.623047"/>
       <use xlink:href="#DejaVuSans-31" x="127.246094"/>
       <use xlink:href="#DejaVuSans-2e" x="190.869141"/>
       <use xlink:href="#DejaVuSans-32" x="222.65625"/>
      </g>
     </g>
    </g>
    <g id="xtick_3">
     <g id="line2d_3">
      <g>
       <use xlink:href="#m263e1987e0" x="211.065721" y="289.481318" style="stroke: #000000; stroke-width: 0.8"/>
      </g>
     </g>
     <g id="text_3">
      <!-- 121.4 -->
      <g transform="translate(196.751659 304.079755) scale(0.1 -0.1)">
       <defs>
        <path id="DejaVuSans-34" d="M 2419 4116 
L 825 1625 
L 2419 1625 
L 2419 4116 
z
M 2253 4666 
L 3047 4666 
L 3047 1625 
L 3713 1625 
L 3713 1100 
L 3047 1100 
L 3047 0 
L 2419 0 
L 2419 1100 
L 313 1100 
L 313 1709 
L 2253 4666 
z
" transform="scale(0.015625)"/>
       </defs>
       <use xlink:href="#DejaVuSans-31"/>
       <use xlink:href="#DejaVuSans-32" x="63.623047"/>
       <use xlink:href="#DejaVuSans-31" x="127.246094"/>
       <use xlink:href="#DejaVuSans-2e" x="190.869141"/>
       <use xlink:href="#DejaVuSans-34" x="222.65625"/>
      </g>
     </g>
    </g>
    <g id="xtick_4">
     <g id="line2d_4">
      <g>
       <use xlink:href="#m263e1987e0" x="282.398272" y="289.481318" style="stroke: #000000; stroke-width: 0.8"/>
      </g>
     </g>
     <g id="text_4">
      <!-- 121.6 -->
      <g transform="translate(268.084209 304.079755) scale(0.1 -0.1)">
       <defs>
        <path id="DejaVuSans-36" d="M 2113 2584 
Q 1688 2584 1439 2293 
Q 1191 2003 1191 1497 
Q 1191 994 1439 701 
Q 1688 409 2113 409 
Q 2538 409 2786 701 
Q 3034 994 3034 1497 
Q 3034 2003 2786 2293 
Q 2538 2584 2113 2584 
z
M 3366 4563 
L 3366 3988 
Q 3128 4100 2886 4159 
Q 2644 4219 2406 4219 
Q 1781 4219 1451 3797 
Q 1122 3375 1075 2522 
Q 1259 2794 1537 2939 
Q 1816 3084 2150 3084 
Q 2853 3084 3261 2657 
Q 3669 2231 3669 1497 
Q 3669 778 3244 343 
Q 2819 -91 2113 -91 
Q 1303 -91 875 529 
Q 447 1150 447 2328 
Q 447 3434 972 4092 
Q 1497 4750 2381 4750 
Q 2619 4750 2861 4703 
Q 3103 4656 3366 4563 
z
" transform="scale(0.015625)"/>
       </defs>
       <use xlink:href="#DejaVuSans-31"/>
       <use xlink:href="#DejaVuSans-32" x="63.623047"/>
       <use xlink:href="#DejaVuSans-31" x="127.246094"/>
       <use xlink:href="#DejaVuSans-2e" x="190.869141"/>
       <use xlink:href="#DejaVuSans-36" x="222.65625"/>
      </g>
     </g>
    </g>
    <g id="xtick_5">
     <g id="line2d_5">
      <g>
       <use xlink:href="#m263e1987e0" x="353.730823" y="289.481318" style="stroke: #000000; stroke-width: 0.8"/>
      </g>
     </g>
     <g id="text_5">
      <!-- 121.8 -->
      <g transform="translate(339.41676 304.079755) scale(0.1 -0.1)">
       <defs>
        <path id="DejaVuSans-38" d="M 2034 2216 
Q 1584 2216 1326 1975 
Q 1069 1734 1069 1313 
Q 1069 891 1326 650 
Q 1584 409 2034 409 
Q 2484 409 2743 651 
Q 3003 894 3003 1313 
Q 3003 1734 2745 1975 
Q 2488 2216 2034 2216 
z
M 1403 2484 
Q 997 2584 770 2862 
Q 544 3141 544 3541 
Q 544 4100 942 4425 
Q 1341 4750 2034 4750 
Q 2731 4750 3128 4425 
Q 3525 4100 3525 3541 
Q 3525 3141 3298 2862 
Q 3072 2584 2669 2484 
Q 3125 2378 3379 2068 
Q 3634 1759 3634 1313 
Q 3634 634 3220 271 
Q 2806 -91 2034 -91 
Q 1263 -91 848 271 
Q 434 634 434 1313 
Q 434 1759 690 2068 
Q 947 2378 1403 2484 
z
M 1172 3481 
Q 1172 3119 1398 2916 
Q 1625 2713 2034 2713 
Q 2441 2713 2670 2916 
Q 2900 3119 2900 3481 
Q 2900 3844 2670 4047 
Q 2441 4250 2034 4250 
Q 1625 4250 1398 4047 
Q 1172 3844 1172 3481 
z
" transform="scale(0.015625)"/>
       </defs>
       <use xlink:href="#DejaVuSans-31"/>
       <use xlink:href="#DejaVuSans-32" x="63.623047"/>
       <use xlink:href="#DejaVuSans-31" x="127.246094"/>
       <use xlink:href="#DejaVuSans-2e" x="190.869141"/>
       <use xlink:href="#DejaVuSans-38" x="222.65625"/>
      </g>
     </g>
    </g>
   </g>
   <g id="matplotlib.axis_2">
    <g id="ytick_1">
     <g id="line2d_6">
      <defs>
       <path id="mec90aa21af" d="M 0 0 
L -3.5 0 
" style="stroke: #000000; stroke-width: 0.8"/>
      </defs>
      <g>
       <use xlink:href="#mec90aa21af" x="57.6" y="282.965745" style="stroke: #000000; stroke-width: 0.8"/>
      </g>
     </g>
     <g id="text_6">
      <!-- 30.9 -->
      <g transform="translate(28.334375 286.764964) scale(0.1 -0.1)">
       <defs>
        <path id="DejaVuSans-33" d="M 2597 2516 
Q 3050 2419 3304 2112 
Q 3559 1806 3559 1356 
Q 3559 666 3084 287 
Q 2609 -91 1734 -91 
Q 1441 -91 1130 -33 
Q 819 25 488 141 
L 488 750 
Q 750 597 1062 519 
Q 1375 441 1716 441 
Q 2309 441 2620 675 
Q 2931 909 2931 1356 
Q 2931 1769 2642 2001 
Q 2353 2234 1838 2234 
L 1294 2234 
L 1294 2753 
L 1863 2753 
Q 2328 2753 2575 2939 
Q 2822 3125 2822 3475 
Q 2822 3834 2567 4026 
Q 2313 4219 1838 4219 
Q 1578 4219 1281 4162 
Q 984 4106 628 3988 
L 628 4550 
Q 988 4650 1302 4700 
Q 1616 4750 1894 4750 
Q 2613 4750 3031 4423 
Q 3450 4097 3450 3541 
Q 3450 3153 3228 2886 
Q 3006 2619 2597 2516 
z
" transform="scale(0.015625)"/>
        <path id="DejaVuSans-39" d="M 703 97 
L 703 672 
Q 941 559 1184 500 
Q 1428 441 1663 441 
Q 2288 441 2617 861 
Q 2947 1281 2994 2138 
Q 2813 1869 2534 1725 
Q 2256 1581 1919 1581 
Q 1219 1581 811 2004 
Q 403 2428 403 3163 
Q 403 3881 828 4315 
Q 1253 4750 1959 4750 
Q 2769 4750 3195 4129 
Q 3622 3509 3622 2328 
Q 3622 1225 3098 567 
Q 2575 -91 1691 -91 
Q 1453 -91 1209 -44 
Q 966 3 703 97 
z
M 1959 2075 
Q 2384 2075 2632 2365 
Q 2881 2656 2881 3163 
Q 2881 3666 2632 3958 
Q 2384 4250 1959 4250 
Q 1534 4250 1286 3958 
Q 1038 3666 1038 3163 
Q 1038 2656 1286 2365 
Q 1534 2075 1959 2075 
z
" transform="scale(0.015625)"/>
       </defs>
       <use xlink:href="#DejaVuSans-33"/>
       <use xlink:href="#DejaVuSans-30" x="63.623047"/>
       <use xlink:href="#DejaVuSans-2e" x="127.246094"/>
       <use xlink:href="#DejaVuSans-39" x="159.033203"/>
      </g>
     </g>
    </g>
    <g id="ytick_2">
     <g id="line2d_7">
      <g>
       <use xlink:href="#mec90aa21af" x="57.6" y="241.286105" style="stroke: #000000; stroke-width: 0.8"/>
      </g>
     </g>
     <g id="text_7">
      <!-- 31.0 -->
      <g transform="translate(28.334375 245.085324) scale(0.1 -0.1)">
       <use xlink:href="#DejaVuSans-33"/>
       <use xlink:href="#DejaVuSans-31" x="63.623047"/>
       <use xlink:href="#DejaVuSans-2e" x="127.246094"/>
       <use xlink:href="#DejaVuSans-30" x="159.033203"/>
      </g>
     </g>
    </g>
    <g id="ytick_3">
     <g id="line2d_8">
      <g>
       <use xlink:href="#mec90aa21af" x="57.6" y="199.606465" style="stroke: #000000; stroke-width: 0.8"/>
      </g>
     </g>
     <g id="text_8">
      <!-- 31.1 -->
      <g transform="translate(28.334375 203.405684) scale(0.1 -0.1)">
       <use xlink:href="#DejaVuSans-33"/>
       <use xlink:href="#DejaVuSans-31" x="63.623047"/>
       <use xlink:href="#DejaVuSans-2e" x="127.246094"/>
       <use xlink:href="#DejaVuSans-31" x="159.033203"/>
      </g>
     </g>
    </g>
    <g id="ytick_4">
     <g id="line2d_9">
      <g>
       <use xlink:href="#mec90aa21af" x="57.6" y="157.926825" style="stroke: #000000; stroke-width: 0.8"/>
      </g>
     </g>
     <g id="text_9">
      <!-- 31.2 -->
      <g transform="translate(28.334375 161.726044) scale(0.1 -0.1)">
       <use xlink:href="#DejaVuSans-33"/>
       <use xlink:href="#DejaVuSans-31" x="63.623047"/>
       <use xlink:href="#DejaVuSans-2e" x="127.246094"/>
       <use xlink:href="#DejaVuSans-32" x="159.033203"/>
      </g>
     </g>
    </g>
    <g id="ytick_5">
     <g id="line2d_10">
      <g>
       <use xlink:href="#mec90aa21af" x="57.6" y="116.247185" style="stroke: #000000; stroke-width: 0.8"/>
      </g>
     </g>
     <g id="text_10">
      <!-- 31.3 -->
      <g transform="translate(28.334375 120.046404) scale(0.1 -0.1)">
       <use xlink:href="#DejaVuSans-33"/>
       <use xlink:href="#DejaVuSans-31" x="63.623047"/>
       <use xlink:href="#DejaVuSans-2e" x="127.246094"/>
       <use xlink:href="#DejaVuSans-33" x="159.033203"/>
      </g>
     </g>
    </g>
    <g id="ytick_6">
     <g id="line2d_11">
      <g>
       <use xlink:href="#mec90aa21af" x="57.6" y="74.567546" style="stroke: #000000; stroke-width: 0.8"/>
      </g>
     </g>
     <g id="text_11">
      <!-- 31.4 -->
      <g transform="translate(28.334375 78.366764) scale(0.1 -0.1)">
       <use xlink:href="#DejaVuSans-33"/>
       <use xlink:href="#DejaVuSans-31" x="63.623047"/>
       <use xlink:href="#DejaVuSans-2e" x="127.246094"/>
       <use xlink:href="#DejaVuSans-34" x="159.033203"/>
      </g>
     </g>
    </g>
   </g>
   <g id="LineCollection_1">
    <path d="M 204.068105 194.259141 
L 204.58424 193.564416 
L 207.208115 189.701379 
L 209.244167 187.169641 
L 210.526016 185.826623 
L 211.421804 184.715239 
L 216.864135 178.450972 
L 218.107129 177.345743 
L 220.397529 175.666589 
L 220.769382 175.339005 
L 221.244865 174.729591 
L 221.41433 174.287578 
L 222.001786 170.421477 
L 222.001786 170.421477 
L 221.98372 169.611529 
L 222.454064 163.881903 
L 222.528735 162.79878 
L 222.863196 161.190316 
L 223.258747 159.352958 
L 226.457079 154.412364 
L 226.574552 153.147193 
L 226.802833 152.223824 
L 227.31067 151.663337 
L 237.143961 146.715673 
L 237.322183 146.003272 
L 237.218158 145.258155 
L 236.877068 144.362795 
L 235.472008 142.223283 
L 234.684519 141.448459 
L 233.803601 141.010645 
L 233.803601 141.010645 
L 230.827817 139.775294 
L 229.947272 139.725422 
L 229.349239 139.080157 
L 229.048861 138.221744 
L 229.199604 137.777125 
L 230.052336 135.759007 
L 230.583311 133.916236 
L 230.618009 133.001987 
L 230.363168 131.787773 
L 230.418355 129.918719 
L 230.21803 129.08761 
L 228.211764 125.214637 
L 228.008986 123.990131 
L 228.008986 123.990131 
L 227.678889 120.355365 
L 226.955661 116.144017 
L 226.806039 112.056096 
L 226.621238 108.696362 
L 225.775862 106.482289 
L 224.089239 102.165015 
L 222.883585 98.973701 
L 222.883585 98.973701 
L 221.743879 95.835085 
L 221.439943 90.855524 
L 221.051394 88.747197 
L 220.596977 87.259865 
L 220.442262 86.371203 
L 220.442262 86.371203 
L 219.029348 79.937835 
L 218.182874 76.976838 
L 218.182874 76.976838 
" clip-path="url(#p62cf71288e)" style="fill: none; stroke: #1f77b4; stroke-width: 1.5"/>
    <path d="M 218.182874 76.976838 
L 219.486154 82.044922 
L 221.439943 90.855524 
L 221.743879 95.835085 
L 222.088004 96.835175 
L 226.035302 107.15493 
L 226.621238 108.696362 
L 226.729808 109.309458 
L 226.955661 116.144017 
L 228.008986 123.990131 
L 228.008986 123.990131 
L 228.211764 125.214637 
L 228.416797 125.801306 
L 230.317093 129.354016 
L 230.441854 130.565015 
L 230.363168 131.787773 
L 230.618009 133.001987 
L 230.520746 134.223856 
L 230.052336 135.759007 
L 229.045609 138.311849 
L 229.101524 138.564751 
L 229.349239 139.080157 
L 229.988415 139.751243 
L 230.896532 139.786863 
L 234.684519 141.448459 
L 234.950801 141.633397 
L 235.92241 142.846087 
L 237.015327 144.666648 
L 237.28773 145.620216 
L 237.27801 146.352584 
L 237.143961 146.715673 
L 236.804482 147.035718 
L 230.910472 149.913713 
L 230.910472 149.913713 
L 227.134436 151.773733 
L 226.802833 152.223824 
L 226.520257 153.642002 
L 226.403673 154.58676 
L 223.258747 159.352958 
L 222.453888 163.248868 
L 222.389998 165.028045 
L 221.996756 171.003863 
L 221.532856 173.539722 
L 221.244865 174.729591 
L 220.397529 175.666589 
L 219.643711 176.278745 
L 218.107129 177.345743 
L 216.864135 178.450972 
L 216.309296 179.117442 
L 214.94833 180.512069 
L 214.794576 180.843492 
L 210.40519 185.956136 
L 210.40519 185.956136 
L 209.244167 187.169641 
L 206.365026 190.882577 
L 204.068105 194.259141 
L 204.068105 194.259141 
" clip-path="url(#p62cf71288e)" style="fill: none; stroke: #1f77b4; stroke-width: 1.5"/>
    <path d="M 223.620616 70.54149 
L 225.961404 70.682626 
L 227.382029 71.219177 
L 228.121018 71.163869 
L 232.199018 70.262233 
L 233.077772 70.299787 
L 234.571425 70.024984 
L 234.956183 70.104843 
L 235.74914 70.626924 
L 236.380068 71.572113 
L 237.8428 75.666412 
L 237.8428 75.666412 
L 240.159142 80.140588 
L 241.960685 83.394939 
L 242.615343 86.104056 
L 243.621071 87.992502 
L 245.872696 95.020121 
L 245.820413 95.401836 
L 245.172837 96.936199 
L 243.297381 100.436054 
L 239.946694 105.386205 
L 239.752985 106.257216 
L 239.748822 114.102248 
L 239.605217 115.080916 
L 239.450843 117.070777 
L 238.892252 121.841589 
L 238.816781 123.699685 
L 238.098512 125.649317 
L 237.747943 126.48894 
L 237.676285 127.25415 
L 237.676285 127.25415 
L 237.834513 128.326816 
L 237.983648 129.08109 
L 238.050419 132.780575 
L 238.182314 133.922783 
L 238.000241 134.660233 
L 237.623536 135.082537 
L 236.002586 136.136612 
L 234.52377 137.242195 
L 233.685462 137.620469 
L 233.22814 137.659895 
L 232.265495 137.354927 
L 226.248119 134.62846 
L 225.6776 134.370549 
L 224.794228 134.268067 
L 223.514143 134.516025 
L 222.637218 134.939889 
L 220.063305 137.798551 
L 220.063305 137.798551 
L 215.174232 141.205935 
L 214.736158 141.847711 
L 214.136517 143.696291 
L 214.136517 143.696291 
L 213.778217 145.173309 
L 213.725566 146.009019 
L 213.906286 146.886134 
L 214.366153 148.298894 
L 215.073032 149.722237 
L 215.073032 149.722237 
L 215.542196 151.217026 
L 215.620269 152.039881 
L 215.509088 153.139041 
L 215.509088 153.139041 
L 215.49701 154.410829 
L 216.16587 156.477343 
L 217.775727 160.608563 
L 218.661573 162.115791 
L 220.132074 164.091827 
L 222.675027 166.571872 
L 224.011896 167.663639 
L 224.624378 168.309926 
L 225.171618 169.470727 
L 225.407795 170.424735 
L 225.564795 171.365424 
L 226.136068 172.935942 
L 226.059032 173.580429 
L 225.693273 174.169576 
L 224.846131 174.658444 
L 224.846131 174.658444 
L 222.852096 175.340725 
L 221.248131 175.944797 
L 220.37975 176.589621 
L 220.37975 176.589621 
" clip-path="url(#p62cf71288e)" style="fill: none; stroke: #1f77b4; stroke-width: 1.5"/>
    <path d="M 220.37975 176.589621 
L 221.248131 175.944797 
L 225.693273 174.169576 
L 226.059032 173.580429 
L 226.136068 172.935942 
L 225.564795 171.365424 
L 225.171618 169.470727 
L 224.624378 168.309926 
L 224.011896 167.663639 
L 220.132074 164.091827 
L 219.037958 162.663331 
L 219.037958 162.663331 
L 218.355376 161.674908 
L 217.277908 159.580148 
L 215.49701 154.410829 
L 215.44347 153.854475 
L 215.622013 151.616124 
L 215.349848 150.433455 
L 214.904455 149.309522 
L 214.366153 148.298894 
L 213.725566 146.009019 
L 213.778217 145.173309 
L 214.136517 143.696291 
L 214.136517 143.696291 
L 214.736158 141.847711 
L 215.174232 141.205935 
L 220.608805 137.341654 
L 222.637218 134.939889 
L 223.709984 134.470728 
L 225.207509 134.292206 
L 225.6776 134.370549 
L 233.005419 137.609933 
L 233.477435 137.657896 
L 234.168492 137.434588 
L 234.52377 137.242195 
L 238.000241 134.660233 
L 238.182314 133.922783 
L 238.050419 132.780575 
L 237.834513 128.326816 
L 237.71898 127.886305 
L 237.669855 126.893945 
L 237.845106 126.184789 
L 238.603264 124.344133 
L 238.868525 123.245814 
L 238.868525 123.245814 
L 239.111945 119.49966 
L 239.450843 117.070777 
L 239.800661 111.248221 
L 239.825416 105.732575 
L 239.946694 105.386205 
L 242.137598 102.097807 
L 242.137598 102.097807 
L 243.297381 100.436054 
L 245.3368 96.600529 
L 245.3368 96.600529 
L 245.820413 95.401836 
L 245.882211 94.684417 
L 245.847211 94.355055 
L 243.513649 87.680061 
L 242.566481 85.88664 
L 242.566481 85.88664 
L 242.449262 85.217445 
L 241.960685 83.394939 
L 240.89669 81.521856 
L 240.89669 81.521856 
L 239.371426 78.607859 
L 237.659805 75.306658 
L 236.6492 72.30272 
L 236.066411 71.10192 
L 235.424445 70.340025 
L 234.571425 70.024984 
L 233.983379 70.096093 
L 232.725685 70.351031 
L 231.932521 70.268598 
L 227.382029 71.219177 
L 227.105056 71.167468 
L 225.961404 70.682626 
L 223.620616 70.54149 
L 223.620616 70.54149 
" clip-path="url(#p62cf71288e)" style="fill: none; stroke: #1f77b4; stroke-width: 1.5"/>
    <path d="M 219.204838 162.65793 
L 217.374161 159.839601 
L 215.79528 155.339103 
L 215.49701 154.410829 
L 215.44347 153.854475 
L 215.622013 151.616124 
L 215.349848 150.433455 
L 214.904455 149.309522 
L 214.366153 148.298894 
L 213.725566 146.009019 
L 213.778217 145.173309 
L 214.136517 143.696291 
L 214.136517 143.696291 
L 214.736158 141.847711 
L 215.174232 141.205935 
L 220.608805 137.341654 
L 222.637218 134.939889 
L 223.709984 134.470728 
L 225.207509 134.292206 
L 225.6776 134.370549 
L 233.005419 137.609933 
L 233.477435 137.657896 
L 234.168492 137.434588 
L 234.52377 137.242195 
L 238.017054 134.822575 
L 241.015432 132.856541 
L 244.936837 131.809373 
L 247.661002 131.244459 
L 248.38353 131.441388 
L 249.442136 132.403541 
L 250.049865 133.253484 
L 252.032972 136.617829 
L 252.100324 137.323039 
L 251.967092 139.837126 
L 252.268667 140.914432 
L 253.9421 144.336824 
L 254.411211 144.757324 
L 256.019864 145.782653 
L 256.112177 145.937835 
L 256.782583 148.061248 
L 256.923855 149.187863 
L 256.767209 149.83662 
L 255.401254 151.713736 
L 254.317112 153.73564 
L 253.629906 153.685006 
L 252.301948 153.260548 
L 249.429746 151.847766 
L 248.161628 151.390761 
L 247.51583 151.33665 
L 247.168376 151.516182 
L 245.810113 152.928196 
L 242.938654 155.144061 
L 242.069096 155.904855 
L 240.82833 156.522131 
L 239.850864 156.81359 
L 237.54386 157.028324 
L 234.690055 157.997848 
L 233.45474 158.681667 
L 232.137598 159.535704 
L 232.137598 159.535704 
L 229.030767 160.969742 
L 229.030767 160.969742 
L 225.747891 162.441947 
L 223.899339 163.929569 
L 222.332185 164.351619 
L 221.306845 164.110116 
L 220.483755 163.769014 
L 219.401163 162.933958 
L 219.204838 162.65793 
L 219.204838 162.65793 
" clip-path="url(#p62cf71288e)" style="fill: none; stroke: #1f77b4; stroke-width: 1.5"/>
    <path d="M 219.204838 162.65793 
L 219.613601 163.188191 
L 220.483755 163.769014 
L 221.653929 164.209798 
L 222.479998 164.345526 
L 223.899339 163.929569 
L 224.30036 163.71277 
L 225.747891 162.441947 
L 232.440244 159.396118 
L 233.45474 158.681667 
L 234.690055 157.997848 
L 237.54386 157.028324 
L 237.900019 156.953972 
L 240.271124 156.726756 
L 241.387196 156.275396 
L 241.387196 156.275396 
L 242.069096 155.904855 
L 244.119666 154.1724 
L 245.967666 152.777383 
L 247.168376 151.516182 
L 247.51583 151.33665 
L 248.161628 151.390761 
L 249.429746 151.847766 
L 251.411518 152.81159 
L 252.865912 153.467318 
L 254.121406 153.725086 
L 254.415832 153.678062 
L 254.626002 153.337358 
L 255.688791 151.234372 
L 256.852532 149.671823 
L 256.923855 149.187863 
L 256.606324 147.474226 
L 256.606324 147.474226 
L 256.019864 145.782653 
L 253.9421 144.336824 
L 252.112156 140.399003 
L 252.112156 140.399003 
L 251.967092 139.837126 
L 252.032972 136.617829 
L 251.371328 135.435629 
L 251.371328 135.435629 
L 249.442136 132.403541 
L 248.204763 131.337171 
L 247.661002 131.244459 
L 243.909078 132.042188 
L 241.015432 132.856541 
L 233.685462 137.620469 
L 233.22814 137.659895 
L 232.265495 137.354927 
L 226.248119 134.62846 
L 225.6776 134.370549 
L 224.794228 134.268067 
L 223.514143 134.516025 
L 222.637218 134.939889 
L 220.063305 137.798551 
L 220.063305 137.798551 
L 215.174232 141.205935 
L 214.736158 141.847711 
L 214.136517 143.696291 
L 214.136517 143.696291 
L 213.778217 145.173309 
L 213.725566 146.009019 
L 213.906286 146.886134 
L 214.366153 148.298894 
L 215.073032 149.722237 
L 215.073032 149.722237 
L 215.542196 151.217026 
L 215.620269 152.039881 
L 215.509088 153.139041 
L 215.509088 153.139041 
L 215.49701 154.410829 
L 216.16587 156.477343 
L 217.495155 160.08301 
L 219.204838 162.65793 
L 219.204838 162.65793 
" clip-path="url(#p62cf71288e)" style="fill: none; stroke: #1f77b4; stroke-width: 1.5"/>
    <path d="M 193.285977 171.421155 
L 196.732135 169.729897 
L 196.732135 169.729897 
L 199.099508 168.667736 
L 199.178287 168.430836 
L 199.110342 167.824563 
L 198.868958 166.640903 
L 198.868958 166.640903 
L 198.601406 163.557507 
L 198.730573 163.339822 
L 199.645139 162.30055 
L 199.970799 161.510683 
L 200.752982 160.570812 
L 203.940251 158.371462 
L 205.997745 157.653235 
L 208.046942 156.783521 
L 208.333229 156.810014 
L 209.192742 157.04077 
L 212.944412 158.446078 
L 215.893513 158.810185 
L 216.921891 158.773882 
L 218.504757 157.911191 
L 222.447794 155.863195 
L 225.533309 153.563054 
L 229.063643 151.761091 
L 230.132195 150.976285 
L 230.132195 150.976285 
L 231.098453 150.560955 
L 233.970933 150.404569 
L 234.79459 150.634487 
L 235.455389 150.634669 
L 237.720103 149.737401 
L 239.201853 149.188739 
L 239.201853 149.188739 
L 240.051683 148.952334 
L 241.045175 148.099033 
L 241.20843 147.676941 
L 241.202018 147.361865 
L 240.719355 145.935786 
L 240.25062 143.529055 
L 239.493925 140.696096 
L 238.768842 138.556397 
L 238.768842 138.556397 
L 238.533053 136.487328 
L 238.842916 135.977289 
L 239.496265 135.445 
L 239.496265 135.445 
L 240.174358 134.888145 
L 240.384035 134.651369 
L 240.880825 133.443959 
L 241.183533 131.865599 
L 242.525794 129.126346 
L 246.335125 125.058326 
L 246.791916 124.184249 
L 250.565976 115.638003 
L 250.539066 115.060066 
L 250.188791 114.142825 
L 250.188791 114.142825 
L 247.552933 108.655694 
L 247.495906 107.468371 
L 247.507788 103.414153 
L 247.507788 103.414153 
" clip-path="url(#p62cf71288e)" style="fill: none; stroke: #1f77b4; stroke-width: 1.5"/>
    <path d="M 247.507788 103.414153 
L 247.606887 108.936972 
L 248.056749 110.014123 
L 248.056749 110.014123 
L 250.539066 115.060066 
L 250.531657 115.797856 
L 250.390265 116.203552 
L 250.390265 116.203552 
L 248.495957 120.369588 
L 246.335125 125.058326 
L 245.71838 125.794618 
L 242.160636 129.545107 
L 241.626287 130.875917 
L 241.045174 132.427376 
L 241.045174 132.427376 
L 240.880825 133.443959 
L 240.384035 134.651369 
L 239.93895 135.119431 
L 238.710862 136.15394 
L 238.533053 136.487328 
L 238.497566 136.997913 
L 238.947715 139.378444 
L 239.619477 141.101379 
L 239.619477 141.101379 
L 240.259624 143.56491 
L 240.857361 146.508924 
L 241.221216 147.496661 
L 241.11245 147.964739 
L 241.045175 148.099033 
L 240.051683 148.952334 
L 239.201853 149.188739 
L 239.201853 149.188739 
L 238.875631 149.268423 
L 235.455389 150.634669 
L 234.79459 150.634487 
L 233.554986 150.378089 
L 230.740033 150.659662 
L 229.652333 151.286726 
L 229.063643 151.761091 
L 225.243655 153.772879 
L 225.243655 153.772879 
L 221.59666 156.374364 
L 221.59666 156.374364 
L 221.429797 156.46733 
L 217.632855 158.417667 
L 216.921891 158.773882 
L 215.893513 158.810185 
L 212.944412 158.446078 
L 210.885884 157.679369 
L 210.885884 157.679369 
L 208.333229 156.810014 
L 207.78999 156.829678 
L 205.39745 157.902439 
L 203.940251 158.371462 
L 200.471926 160.851807 
L 199.876733 161.721939 
L 199.645139 162.30055 
L 198.549333 163.711565 
L 198.529115 163.879878 
L 199.110342 167.824563 
L 199.178287 168.430836 
L 199.036856 168.741383 
L 198.80929 168.868101 
L 195.44547 170.32422 
L 193.285977 171.421155 
L 193.285977 171.421155 
" clip-path="url(#p62cf71288e)" style="fill: none; stroke: #1f77b4; stroke-width: 1.5"/>
    <path d="M 181.457531 159.647068 
L 183.438783 159.652533 
L 185.018102 159.675565 
L 190.678437 160.703449 
L 190.678437 160.703449 
L 198.910685 161.199625 
L 199.43878 161.09978 
L 200.811195 160.500201 
L 202.236024 159.549581 
L 202.236024 159.549581 
L 203.940251 158.371462 
L 205.997745 157.653235 
L 208.046942 156.783521 
L 208.333229 156.810014 
L 209.192742 157.04077 
L 212.944412 158.446078 
L 215.893513 158.810185 
L 216.921891 158.773882 
L 218.504757 157.911191 
L 222.447794 155.863195 
L 225.533309 153.563054 
L 229.063643 151.761091 
L 230.132195 150.976285 
L 230.132195 150.976285 
L 231.098453 150.560955 
L 233.970933 150.404569 
L 234.79459 150.634487 
L 235.455389 150.634669 
L 237.720103 149.737401 
L 239.201853 149.188739 
L 239.201853 149.188739 
L 240.051683 148.952334 
L 241.045175 148.099033 
L 241.20843 147.676941 
L 241.202018 147.361865 
L 240.719355 145.935786 
L 240.25062 143.529055 
L 239.493925 140.696096 
L 238.768842 138.556397 
L 238.768842 138.556397 
L 238.533053 136.487328 
L 238.842916 135.977289 
L 239.496265 135.445 
L 239.496265 135.445 
L 240.174358 134.888145 
L 240.384035 134.651369 
L 240.880825 133.443959 
L 241.183533 131.865599 
L 242.525794 129.126346 
L 246.335125 125.058326 
L 246.791916 124.184249 
L 250.565976 115.638003 
L 250.539066 115.060066 
L 250.188791 114.142825 
L 250.188791 114.142825 
L 247.552933 108.655694 
L 247.495906 107.468371 
L 247.507788 103.414153 
L 247.507788 103.414153 
" clip-path="url(#p62cf71288e)" style="fill: none; stroke: #1f77b4; stroke-width: 1.5"/>
    <path d="M 247.507788 103.414153 
L 247.606887 108.936972 
L 248.056749 110.014123 
L 248.056749 110.014123 
L 250.539066 115.060066 
L 250.531657 115.797856 
L 250.390265 116.203552 
L 250.390265 116.203552 
L 248.495957 120.369588 
L 246.335125 125.058326 
L 245.71838 125.794618 
L 242.160636 129.545107 
L 241.626287 130.875917 
L 241.045174 132.427376 
L 241.045174 132.427376 
L 240.880825 133.443959 
L 240.384035 134.651369 
L 239.93895 135.119431 
L 238.710862 136.15394 
L 238.533053 136.487328 
L 238.497566 136.997913 
L 238.947715 139.378444 
L 239.619477 141.101379 
L 239.619477 141.101379 
L 240.259624 143.56491 
L 240.857361 146.508924 
L 241.221216 147.496661 
L 241.11245 147.964739 
L 241.045175 148.099033 
L 240.051683 148.952334 
L 239.201853 149.188739 
L 239.201853 149.188739 
L 238.875631 149.268423 
L 235.455389 150.634669 
L 234.79459 150.634487 
L 233.554986 150.378089 
L 230.740033 150.659662 
L 229.652333 151.286726 
L 229.063643 151.761091 
L 225.243655 153.772879 
L 225.243655 153.772879 
L 221.59666 156.374364 
L 221.59666 156.374364 
L 221.429797 156.46733 
L 217.632855 158.417667 
L 216.921891 158.773882 
L 215.893513 158.810185 
L 212.944412 158.446078 
L 210.885884 157.679369 
L 210.885884 157.679369 
L 208.333229 156.810014 
L 207.78999 156.829678 
L 205.39745 157.902439 
L 203.940251 158.371462 
L 200.811195 160.500201 
L 199.43878 161.09978 
L 198.910685 161.199625 
L 196.218821 161.051311 
L 190.115288 160.666035 
L 184.874375 159.661557 
L 181.457531 159.647068 
L 181.457531 159.647068 
" clip-path="url(#p62cf71288e)" style="fill: none; stroke: #1f77b4; stroke-width: 1.5"/>
    <path d="M 174.188257 161.581331 
L 175.735661 160.623423 
L 177.350735 160.097092 
L 180.116731 159.67649 
L 182.132707 159.579145 
L 183.148317 159.345579 
L 183.148317 159.345579 
L 185.604143 159.240537 
L 185.742046 159.083303 
L 186.148973 158.09999 
L 186.103968 157.77268 
L 184.992228 154.897502 
L 184.819304 153.805778 
L 185.116709 151.03044 
L 185.517616 150.170312 
L 185.963488 149.875543 
L 187.705994 149.453133 
L 188.584463 149.329497 
L 189.590231 149.326763 
L 194.883925 149.573345 
L 194.883925 149.573345 
L 198.055164 149.814609 
L 201.776371 150.510335 
L 203.634955 150.698131 
L 208.666049 151.934899 
L 209.497489 152.234775 
L 211.338526 152.603457 
L 211.615835 152.584068 
L 212.561507 152.02776 
L 213.499828 151.011912 
L 214.665666 149.822458 
L 214.99942 149.65555 
L 216.571003 149.273752 
L 218.005812 149.245787 
L 219.810698 149.324888 
L 220.700546 148.9905 
L 221.74074 148.712882 
L 222.093916 148.789414 
L 222.605842 149.043854 
L 222.791549 149.004547 
L 224.013573 148.417932 
L 224.541598 148.30162 
L 227.096875 146.837463 
L 230.487363 144.825727 
L 230.946889 144.647465 
L 230.946889 144.647465 
L 232.145991 144.27124 
L 234.679166 143.846889 
L 236.849055 142.557774 
L 239.329206 141.623687 
L 239.329206 141.623687 
L 240.947056 140.969338 
L 241.587496 140.861209 
L 244.543004 140.844547 
L 245.94363 141.248014 
L 245.94363 141.248014 
L 252.762911 143.988018 
L 254.396193 144.772194 
L 259.193617 147.759528 
L 262.474833 150.160597 
L 263.121487 152.101215 
L 263.715212 154.164006 
L 265.118707 155.708812 
L 268.551146 155.84751 
L 271.142086 155.897866 
L 273.702239 156.715604 
L 274.262899 156.670454 
L 283.673931 154.826385 
L 284.741457 154.485015 
L 287.131713 152.792255 
L 287.710748 152.470616 
L 288.927329 152.324353 
L 295.403167 152.072555 
L 300.077592 151.542267 
L 303.84401 150.510644 
L 304.986324 150.467325 
L 305.708078 150.619565 
L 306.872937 151.202345 
L 308.339235 152.311523 
L 308.723503 152.921435 
L 308.827389 153.240469 
L 309.277627 155.214406 
L 310.102711 160.59602 
L 310.615403 161.867683 
L 311.293275 162.882624 
L 311.798357 163.208218 
L 313.153826 163.430454 
L 313.423037 163.410979 
L 316.555517 162.370527 
L 323.758307 160.552819 
L 327.409075 159.092714 
L 331.419514 158.046813 
L 336.334985 157.310216 
L 336.334985 157.310216 
L 342.370914 157.03038 
L 342.914618 157.247366 
L 343.535548 157.741026 
L 344.072781 158.531226 
L 345.611379 161.984029 
L 346.783963 163.285865 
L 347.921368 164.760072 
L 353.145731 174.003174 
L 353.940329 175.929826 
L 354.587721 178.090779 
L 354.587721 178.090779 
" clip-path="url(#p62cf71288e)" style="fill: none; stroke: #1f77b4; stroke-width: 1.5"/>
    <path d="M 354.587721 178.090779 
L 353.543122 174.858815 
L 353.145731 174.003174 
L 351.064566 170.146826 
L 351.064566 170.146826 
L 347.921368 164.760072 
L 346.783963 163.285865 
L 345.611379 161.984029 
L 344.072781 158.531226 
L 343.535548 157.741026 
L 342.914618 157.247366 
L 341.819573 156.912894 
L 334.801103 157.470621 
L 331.419514 158.046813 
L 327.409075 159.092714 
L 322.950016 160.760327 
L 315.82901 162.612453 
L 315.82901 162.612453 
L 313.153826 163.430454 
L 311.798357 163.208218 
L 311.293275 162.882624 
L 310.615403 161.867683 
L 310.032424 160.338841 
L 308.723503 152.921435 
L 308.339235 152.311523 
L 307.688824 151.747352 
L 306.115283 150.79909 
L 305.351839 150.514683 
L 304.54655 150.444358 
L 303.259854 150.602438 
L 300.077592 151.542267 
L 295.403167 152.072555 
L 287.710748 152.470616 
L 287.131713 152.792255 
L 286.505248 153.180269 
L 284.741457 154.485015 
L 283.673931 154.826385 
L 280.877592 155.431517 
L 273.702239 156.715604 
L 273.252435 156.61762 
L 270.648968 155.810241 
L 267.95532 155.851616 
L 265.000109 155.638769 
L 263.715212 154.164006 
L 263.311111 153.0201 
L 263.311111 153.0201 
L 263.121487 152.101215 
L 262.474833 150.160597 
L 260.194751 148.492904 
L 258.672344 147.39804 
L 254.032064 144.538666 
L 250.668827 143.176961 
L 250.668827 143.176961 
L 249.389619 142.681267 
L 245.406222 141.043965 
L 244.543004 140.844547 
L 243.792645 140.802935 
L 240.947056 140.969338 
L 236.008539 143.055061 
L 234.377725 143.975592 
L 231.714662 144.365726 
L 230.487363 144.825727 
L 223.840973 148.475597 
L 222.605842 149.043854 
L 222.438334 149.025238 
L 221.996408 148.758571 
L 221.408545 148.757748 
L 219.45407 149.337132 
L 218.005812 149.245787 
L 216.571003 149.273752 
L 214.665666 149.822458 
L 212.561507 152.02776 
L 211.615835 152.584068 
L 210.934017 152.547432 
L 210.934017 152.547432 
L 209.497489 152.234775 
L 207.95233 151.764353 
L 203.24269 150.647587 
L 200.153631 150.297013 
L 200.153631 150.297013 
L 198.827991 149.972814 
L 197.869921 149.79387 
L 192.203007 149.405851 
L 188.584463 149.329497 
L 187.29502 149.52486 
L 185.6643 150.059519 
L 185.345573 150.365331 
L 185.116709 151.03044 
L 184.951472 151.984019 
L 184.819304 153.805778 
L 184.992228 154.897502 
L 186.148973 158.09999 
L 185.742046 159.083303 
L 185.604143 159.240537 
L 185.001884 159.401587 
L 182.837214 159.370702 
L 181.982828 159.6018 
L 180.116731 159.67649 
L 176.700058 160.240639 
L 175.735661 160.623423 
L 174.188257 161.581331 
L 174.188257 161.581331 
" clip-path="url(#p62cf71288e)" style="fill: none; stroke: #1f77b4; stroke-width: 1.5"/>
    <path d="M 198.691434 240.217602 
L 202.54133 238.990217 
L 202.54133 238.990217 
L 204.698555 238.329038 
L 207.647069 237.40725 
L 207.647069 237.40725 
L 211.663345 236.164679 
L 212.994499 235.816196 
L 212.994499 235.816196 
L 213.657482 235.648167 
L 214.312589 235.508295 
L 216.170504 234.847444 
L 216.365001 234.723309 
L 216.537709 234.529146 
L 216.668645 234.290594 
L 216.753889 233.999907 
L 216.76098 233.702494 
L 216.708508 233.471064 
L 216.545358 232.979472 
L 216.545358 232.979472 
L 216.025853 231.522511 
L 215.303691 229.448583 
L 215.303691 229.448583 
L 214.339365 226.555006 
L 214.22858 226.172175 
L 214.209588 225.914305 
L 214.272062 225.195424 
L 214.238644 224.881543 
L 214.101202 224.494141 
L 213.771763 223.847368 
L 213.162652 222.274784 
L 212.981162 221.666154 
L 212.981162 221.666154 
L 212.469719 219.717222 
L 211.989105 218.066339 
L 210.752739 214.254262 
L 210.092873 212.562335 
L 210.092873 212.562335 
L 209.878207 211.979259 
L 209.074216 210.296198 
L 207.326306 206.447172 
L 205.946711 203.231154 
L 205.946711 203.231154 
L 204.806111 200.689301 
L 204.675266 200.313341 
L 204.322667 199.518669 
L 204.322667 199.518669 
L 203.940412 198.65151 
L 203.208517 197.217038 
L 203.124635 196.662099 
L 203.14645 196.226121 
L 203.201013 195.760011 
L 203.301199 195.372567 
L 203.412739 195.135725 
L 204.068105 194.259141 
L 204.068105 194.259141 
" clip-path="url(#p62cf71288e)" style="fill: none; stroke: #1f77b4; stroke-width: 1.5"/>
    <path d="M 204.068105 194.259141 
L 203.412739 195.135725 
L 203.301199 195.372567 
L 203.201013 195.760011 
L 203.14645 196.226121 
L 203.124635 196.662099 
L 203.208517 197.217038 
L 203.940412 198.65151 
L 204.322667 199.518669 
L 204.322667 199.518669 
L 204.675266 200.313341 
L 204.806111 200.689301 
L 205.946711 203.231154 
L 205.946711 203.231154 
L 207.326306 206.447172 
L 209.074216 210.296198 
L 209.878207 211.979259 
L 210.092873 212.562335 
L 210.092873 212.562335 
L 210.752739 214.254262 
L 211.989105 218.066339 
L 212.469719 219.717222 
L 212.981162 221.666154 
L 212.981162 221.666154 
L 213.162652 222.274784 
L 213.771763 223.847368 
L 214.101202 224.494141 
L 214.238644 224.881543 
L 214.272062 225.195424 
L 214.209588 225.914305 
L 214.22858 226.172175 
L 214.339365 226.555006 
L 215.303691 229.448583 
L 215.303691 229.448583 
L 216.025853 231.522511 
L 216.503143 232.848595 
L 216.54713 232.978892 
L 217.052561 234.476376 
L 217.1487 234.665781 
L 217.279232 234.892791 
L 217.404789 235.093927 
L 217.504742 235.299156 
L 217.566286 235.501515 
L 217.590828 235.624188 
L 217.609474 235.753536 
L 217.61041 235.886367 
L 217.598054 236.013374 
L 217.555841 236.201692 
L 217.430026 236.605068 
L 217.392646 236.746096 
L 217.36918 236.932229 
L 217.367803 237.070504 
L 217.399642 237.282222 
L 217.47733 237.502143 
L 217.777843 238.174766 
L 217.777843 238.174766 
L 218.280653 239.294469 
L 218.475869 239.733909 
L 218.625494 240.060248 
L 218.792518 240.423772 
L 218.913278 240.661218 
L 219.014325 240.852758 
L 219.16655 241.105355 
L 219.613149 241.800305 
L 220.073888 242.51801 
L 220.150933 242.662666 
L 220.213055 242.790465 
L 220.27106 242.920084 
L 221.00661 244.927423 
L 221.00661 244.927423 
L 222.379895 248.646681 
L 222.963167 250.275896 
L 223.736287 252.307762 
L 224.012561 253.174744 
L 224.40391 254.658435 
L 224.40391 254.658435 
L 224.864938 256.388513 
L 225.178939 257.665452 
L 227.025644 264.692306 
L 227.025644 264.692306 
L 227.513991 266.310535 
L 228.144412 268.960284 
L 228.300179 269.436159 
L 228.476009 269.720266 
L 228.71444 269.907568 
L 228.934624 270.013606 
L 229.090246 270.043295 
L 229.290129 270.02229 
L 231.049492 269.457548 
L 231.813821 269.277471 
L 232.145707 269.167982 
L 232.145707 269.167982 
L 232.63135 268.99152 
L 232.755191 268.970548 
L 232.867198 268.964047 
L 233.559472 268.932593 
L 234.132673 268.928272 
L 236.366025 268.890318 
L 238.062976 268.857517 
L 238.737796 268.861293 
L 238.903361 268.851595 
L 239.040819 268.838856 
L 239.344872 268.755557 
L 239.344872 268.755557 
L 240.03755 268.54405 
L 240.371337 268.400427 
L 240.646458 268.25598 
L 241.003843 268.018953 
L 241.127824 267.961371 
L 241.296161 267.88586 
L 241.489058 267.835995 
L 241.645132 267.827528 
L 241.752086 267.854426 
L 241.845419 267.907508 
L 241.915498 267.96093 
L 241.957315 268.022131 
L 241.984088 268.089409 
L 242.468081 269.998255 
L 242.468081 269.998255 
L 242.724519 271.049184 
L 243.14877 272.757891 
L 243.411614 274.043414 
L 243.795335 276.140809 
L 243.795335 276.140809 
" clip-path="url(#p62cf71288e)" style="fill: none; stroke: #1f77b4; stroke-width: 1.5"/>
    <path d="M 243.795335 276.140809 
L 243.411614 274.043414 
L 243.14877 272.757891 
L 242.724519 271.049184 
L 242.468081 269.998255 
L 242.468081 269.998255 
L 241.984088 268.089409 
L 241.957315 268.022131 
L 241.915498 267.96093 
L 241.845419 267.907508 
L 241.752086 267.854426 
L 241.645132 267.827528 
L 241.489058 267.835995 
L 241.296161 267.88586 
L 241.127824 267.961371 
L 241.003843 268.018953 
L 240.646458 268.25598 
L 240.371337 268.400427 
L 240.03755 268.54405 
L 239.344872 268.755557 
L 239.344872 268.755557 
L 239.040819 268.838856 
L 238.903361 268.851595 
L 238.737796 268.861293 
L 238.062976 268.857517 
L 236.366025 268.890318 
L 234.132673 268.928272 
L 233.559472 268.932593 
L 232.867198 268.964047 
L 232.755191 268.970548 
L 232.63135 268.99152 
L 232.145707 269.167982 
L 232.145707 269.167982 
L 231.813821 269.277471 
L 231.049492 269.457548 
L 229.290129 270.02229 
L 229.090246 270.043295 
L 228.934624 270.013606 
L 228.71444 269.907568 
L 228.476009 269.720266 
L 228.300179 269.436159 
L 228.144412 268.960284 
L 227.513991 266.310535 
L 227.025644 264.692306 
L 227.025644 264.692306 
L 225.178939 257.665452 
L 224.864938 256.388513 
L 224.40391 254.658435 
L 224.40391 254.658435 
L 224.012561 253.174744 
L 223.736287 252.307762 
L 222.963167 250.275896 
L 222.379895 248.646681 
L 221.00661 244.927423 
L 221.00661 244.927423 
L 220.27106 242.920084 
L 220.213055 242.790465 
L 220.150933 242.662666 
L 220.073888 242.51801 
L 219.613149 241.800305 
L 219.16655 241.105355 
L 219.014325 240.852758 
L 218.913278 240.661218 
L 218.792518 240.423772 
L 218.625494 240.060248 
L 218.475869 239.733909 
L 218.280653 239.294469 
L 217.777843 238.174766 
L 217.777843 238.174766 
L 217.47733 237.502143 
L 217.399642 237.282222 
L 217.367803 237.070504 
L 217.36918 236.932229 
L 217.392646 236.746096 
L 217.430026 236.605068 
L 217.555841 236.201692 
L 217.598054 236.013374 
L 217.61041 235.886367 
L 217.609474 235.753536 
L 217.590828 235.624188 
L 217.566286 235.501515 
L 217.504742 235.299156 
L 217.404789 235.093927 
L 217.279232 234.892791 
L 217.1487 234.665781 
L 217.052561 234.476376 
L 216.54713 232.978892 
L 216.503143 232.848595 
L 216.025853 231.522511 
L 215.303691 229.448583 
L 215.303691 229.448583 
L 214.339365 226.555006 
L 214.22858 226.172175 
L 214.209588 225.914305 
L 214.272062 225.195424 
L 214.238644 224.881543 
L 214.101202 224.494141 
L 213.771763 223.847368 
L 213.162652 222.274784 
L 212.981162 221.666154 
L 212.981162 221.666154 
L 212.469719 219.717222 
L 211.989105 218.066339 
L 210.752739 214.254262 
L 210.092873 212.562335 
L 210.092873 212.562335 
L 209.878207 211.979259 
L 209.074216 210.296198 
L 207.326306 206.447172 
L 205.946711 203.231154 
L 205.946711 203.231154 
L 204.806111 200.689301 
L 204.675266 200.313341 
L 204.322667 199.518669 
L 204.322667 199.518669 
L 203.940412 198.65151 
L 203.208517 197.217038 
L 203.124635 196.662099 
L 203.14645 196.226121 
L 203.201013 195.760011 
L 203.301199 195.372567 
L 203.412739 195.135725 
L 204.068105 194.259141 
L 204.068105 194.259141 
" clip-path="url(#p62cf71288e)" style="fill: none; stroke: #1f77b4; stroke-width: 1.5"/>
    <path d="M 204.068105 194.259141 
L 203.412739 195.135725 
L 203.301199 195.372567 
L 203.201013 195.760011 
L 203.14645 196.226121 
L 203.124635 196.662099 
L 203.208517 197.217038 
L 203.940412 198.65151 
L 204.322667 199.518669 
L 204.322667 199.518669 
L 204.675266 200.313341 
L 204.806111 200.689301 
L 205.946711 203.231154 
L 205.946711 203.231154 
L 207.326306 206.447172 
L 209.074216 210.296198 
L 209.878207 211.979259 
L 210.092873 212.562335 
L 210.092873 212.562335 
L 210.752739 214.254262 
L 211.989105 218.066339 
L 212.469719 219.717222 
L 212.981162 221.666154 
L 212.981162 221.666154 
L 213.162652 222.274784 
L 213.771763 223.847368 
L 214.101202 224.494141 
L 214.238644 224.881543 
L 214.272062 225.195424 
L 214.209588 225.914305 
L 214.22858 226.172175 
L 214.339365 226.555006 
L 215.303691 229.448583 
L 215.303691 229.448583 
L 216.025853 231.522511 
L 216.545358 232.979472 
L 216.545358 232.979472 
L 216.708508 233.471064 
L 216.76098 233.702494 
L 216.753889 233.999907 
L 216.668645 234.290594 
L 216.537709 234.529146 
L 216.365001 234.723309 
L 216.170504 234.847444 
L 214.312589 235.508295 
L 213.657482 235.648167 
L 212.994499 235.816196 
L 212.994499 235.816196 
L 211.663345 236.164679 
L 207.647069 237.40725 
L 207.647069 237.40725 
L 204.698555 238.329038 
L 202.54133 238.990217 
L 202.54133 238.990217 
L 198.691434 240.217602 
L 198.691434 240.217602 
" clip-path="url(#p62cf71288e)" style="fill: none; stroke: #1f77b4; stroke-width: 1.5"/>
    <path d="M 238.165558 176.455889 
L 238.598709 176.679811 
L 240.787009 177.991335 
L 242.224154 178.528292 
L 244.263551 178.44213 
L 245.312083 178.454954 
L 250.935519 177.827319 
L 251.616728 177.498712 
L 251.930153 177.131555 
L 251.940214 176.528115 
L 251.702938 175.877363 
L 249.89455 172.199739 
L 249.384383 170.754538 
L 248.968013 168.094863 
L 248.64933 167.199875 
L 248.679007 162.756178 
L 248.970326 161.919214 
L 249.455371 161.118945 
L 251.721873 159.338651 
L 255.373735 151.455513 
L 255.639965 150.457186 
L 255.507917 148.685357 
L 255.507917 148.685357 
L 255.373851 148.246351 
L 254.623078 145.998516 
L 254.675914 145.488995 
L 255.54667 144.221514 
L 256.211238 143.779476 
L 262.333972 141.517525 
L 265.217315 140.068161 
L 271.218378 136.023762 
L 271.218378 136.023762 
L 273.666775 134.055066 
L 274.621798 132.967949 
L 275.626941 131.709521 
L 276.096359 130.813715 
L 276.336374 129.82208 
L 276.638936 127.019393 
L 276.638936 127.019393 
L 277.1033 114.252154 
L 277.1033 114.252154 
L 277.152847 109.539006 
L 277.311376 109.124196 
L 277.85595 108.674505 
L 278.154896 108.592002 
L 281.069285 108.502722 
L 281.54599 108.199373 
L 281.795576 107.852448 
L 281.914079 107.107716 
L 281.864593 106.851367 
L 275.980574 94.690177 
L 275.871601 93.647222 
L 275.578771 93.127961 
L 275.139433 92.919909 
L 271.864881 93.252021 
L 271.864881 93.252021 
" clip-path="url(#p62cf71288e)" style="fill: none; stroke: #1f77b4; stroke-width: 1.5"/>
    <path d="M 271.864881 93.252021 
L 275.36671 92.980069 
L 275.684902 93.293229 
L 275.871601 93.647222 
L 275.980574 94.690177 
L 276.333004 95.627094 
L 281.864593 106.851367 
L 281.912596 107.431536 
L 281.795576 107.852448 
L 281.281215 108.392357 
L 280.815784 108.570064 
L 277.85595 108.674505 
L 277.311376 109.124196 
L 277.13049 109.83288 
L 277.1033 114.252154 
L 277.1033 114.252154 
L 276.571343 128.104842 
L 276.096359 130.813715 
L 276.047378 130.976243 
L 275.626941 131.709521 
L 273.666775 134.055066 
L 270.809411 136.350322 
L 265.217315 140.068161 
L 262.333972 141.517525 
L 260.706488 142.084089 
L 260.706488 142.084089 
L 256.211238 143.779476 
L 255.263342 144.504412 
L 254.625474 145.726217 
L 254.654171 146.212652 
L 255.591595 149.034432 
L 255.639965 150.457186 
L 255.08058 152.179317 
L 255.08058 152.179317 
L 253.475667 155.582815 
L 253.475667 155.582815 
L 251.721873 159.338651 
L 250.546977 160.314295 
L 249.455371 161.118945 
L 248.970326 161.919214 
L 248.670859 163.083051 
L 248.670859 163.083051 
L 248.64933 167.199875 
L 249.137019 168.877563 
L 249.384383 170.754538 
L 249.89455 172.199739 
L 251.702938 175.877363 
L 251.959281 176.863211 
L 251.800889 177.345345 
L 251.371353 177.649796 
L 250.375391 177.959133 
L 250.375391 177.959133 
L 249.437377 178.102901 
L 244.263551 178.44213 
L 243.399292 178.447153 
L 243.399292 178.447153 
L 241.918948 178.45551 
L 240.787009 177.991335 
L 238.165558 176.455889 
L 238.165558 176.455889 
" clip-path="url(#p62cf71288e)" style="fill: none; stroke: #1f77b4; stroke-width: 1.5"/>
    <path d="M 191.56995 73.034024 
L 192.268199 73.727885 
L 192.729256 74.466741 
L 194.143248 78.016008 
L 194.442304 79.084509 
L 194.435853 79.881972 
L 194.218058 80.23929 
L 193.720682 80.728769 
L 193.282303 81.392112 
L 192.918243 82.170585 
L 192.654011 84.623598 
L 192.870455 86.173781 
L 193.446041 88.411497 
L 194.181589 89.35792 
L 196.796615 92.466439 
L 200.271906 97.856006 
L 200.265557 98.024411 
L 198.560555 101.310016 
L 198.402937 102.045347 
L 198.617752 103.256686 
L 200.564007 107.325989 
L 200.863974 107.544393 
L 201.446638 107.678349 
L 202.04681 107.686625 
L 205.774331 106.8355 
L 209.927948 106.566524 
L 211.992186 106.70445 
L 212.037167 107.072342 
L 212.291238 108.797402 
L 212.72185 110.261512 
L 213.832924 112.313502 
L 214.249829 113.468096 
L 214.306886 114.215885 
L 214.432675 116.258169 
L 214.948877 117.50142 
L 217.378583 122.366102 
L 217.523905 123.343854 
L 217.665479 126.66525 
L 217.690012 127.04066 
L 217.555889 129.934804 
L 217.389346 131.840637 
L 217.199915 134.116647 
L 217.363006 134.67411 
L 217.954186 135.407201 
L 220.369741 137.115991 
L 221.0494 138.350198 
L 221.235218 139.02481 
L 221.431761 139.416112 
L 222.160672 139.864854 
L 223.084713 140.526221 
L 223.084713 140.526221 
L 223.328354 140.778942 
L 224.119038 142.14444 
L 224.746562 143.259927 
L 225.495311 144.137235 
L 226.07796 145.010864 
L 226.296186 146.260205 
L 226.628743 147.113514 
L 226.96049 148.208598 
L 226.854214 151.195681 
L 227.244062 152.544573 
L 227.241678 153.237212 
L 226.942401 153.762614 
L 226.79655 154.698329 
L 227.573404 158.409534 
L 229.318653 161.746266 
L 230.11916 164.060958 
L 232.710865 166.590247 
L 234.409668 168.303642 
L 234.930998 168.591882 
L 236.217877 168.903756 
L 237.982955 168.914304 
L 240.67458 167.326537 
L 242.115649 166.276361 
L 242.821435 166.125688 
L 243.807417 165.923895 
L 244.520231 165.470847 
L 245.16029 164.765491 
L 245.803989 164.07934 
L 246.318488 163.670055 
L 247.18274 163.469602 
L 248.145457 163.251361 
L 250.078343 162.561564 
L 253.66614 162.170789 
L 255.121385 162.291822 
L 262.2712 162.074077 
L 262.619778 161.948521 
L 263.046561 161.437933 
L 263.229883 160.770544 
L 263.241395 160.343364 
L 262.668023 158.638529 
L 262.80603 157.672331 
L 263.311913 156.647067 
L 263.839561 156.039644 
L 264.663295 155.684636 
L 265.769351 155.527601 
L 265.769351 155.527601 
L 266.704389 155.456523 
L 267.076457 155.209231 
L 267.682782 154.55121 
L 267.964206 153.710035 
L 267.622057 152.345581 
L 267.622057 152.345581 
" clip-path="url(#p62cf71288e)" style="fill: none; stroke: #1f77b4; stroke-width: 1.5"/>
    <path d="M 267.622057 152.345581 
L 267.938088 153.992792 
L 267.471251 154.780613 
L 266.840573 155.38961 
L 266.346213 155.535955 
L 265.021464 155.612241 
L 264.179932 155.846075 
L 263.839561 156.039644 
L 263.140589 156.941792 
L 262.80603 157.672331 
L 262.668023 158.638529 
L 262.731098 159.002039 
L 263.249984 160.446128 
L 263.166544 161.102865 
L 263.046561 161.437933 
L 262.619778 161.948521 
L 262.2712 162.074077 
L 260.665361 162.215339 
L 257.23591 162.226832 
L 254.151035 162.236245 
L 253.428765 162.165776 
L 250.078343 162.561564 
L 247.18274 163.469602 
L 246.318488 163.670055 
L 245.486006 164.379628 
L 244.101805 165.780968 
L 243.547175 166.011436 
L 241.906595 166.374589 
L 240.642082 167.352023 
L 240.321779 167.57935 
L 239.776337 167.922795 
L 237.982955 168.914304 
L 237.576319 168.980007 
L 235.681952 168.79434 
L 235.681952 168.79434 
L 234.930998 168.591882 
L 234.409668 168.303642 
L 234.010826 167.954789 
L 231.007378 164.888953 
L 229.913108 163.732467 
L 229.567596 162.840954 
L 229.239959 161.496545 
L 228.87624 160.75427 
L 228.87624 160.75427 
L 227.573404 158.409534 
L 227.253349 157.210963 
L 226.811329 154.271802 
L 226.942401 153.762614 
L 227.273739 153.06982 
L 227.108136 151.95332 
L 226.826668 150.936668 
L 226.915319 147.931161 
L 226.185367 145.789657 
L 226.038645 144.890171 
L 225.584623 144.245404 
L 224.38543 142.717153 
L 223.64008 141.274638 
L 223.084713 140.526221 
L 223.084713 140.526221 
L 222.435879 140.039391 
L 221.281781 139.191365 
L 220.919126 137.945995 
L 220.067634 136.847283 
L 217.954186 135.407201 
L 217.363006 134.67411 
L 217.199915 134.116647 
L 217.389346 131.840637 
L 217.690012 127.04066 
L 217.263406 122.001067 
L 214.479091 116.39976 
L 214.328451 115.610365 
L 214.167998 113.132388 
L 213.691597 112.011077 
L 212.551093 109.693025 
L 212.291238 108.797402 
L 211.843026 106.605338 
L 211.71848 106.582026 
L 208.382061 106.624642 
L 205.379414 106.916591 
L 205.379414 106.916591 
L 203.341927 107.371356 
L 202.04681 107.686625 
L 201.446638 107.678349 
L 200.863974 107.544393 
L 200.564007 107.325989 
L 198.617752 103.256686 
L 198.402937 102.045347 
L 198.560555 101.310016 
L 200.271906 97.856006 
L 199.666837 96.760474 
L 196.796615 92.466439 
L 193.410258 88.314069 
L 192.870455 86.173781 
L 192.654011 84.623598 
L 192.918243 82.170585 
L 193.282303 81.392112 
L 193.720682 80.728769 
L 194.435853 79.881972 
L 194.487211 79.619966 
L 194.3157 78.593214 
L 194.3157 78.593214 
L 193.796629 77.119004 
L 192.624389 74.285828 
L 191.89881 73.323129 
L 191.56995 73.034024 
L 191.56995 73.034024 
" clip-path="url(#p62cf71288e)" style="fill: none; stroke: #1f77b4; stroke-width: 1.5"/>
    <path d="M 249.54259 214.821384 
L 249.48032 213.543136 
L 248.881936 209.18003 
L 247.239947 199.532139 
L 243.739421 188.795735 
L 242.334125 184.15458 
L 241.295411 181.145686 
L 240.632854 180.404645 
L 238.850835 178.843096 
L 237.957094 177.230415 
L 238.001727 176.861062 
L 238.507428 175.895587 
L 239.382104 175.367461 
L 242.700238 173.570264 
L 243.421206 172.650504 
L 243.819407 171.0381 
L 243.918175 170.074421 
L 242.899874 163.286509 
L 243.857028 161.891447 
L 244.077678 161.203399 
L 243.842066 160.165501 
L 241.398872 156.243383 
L 241.398872 156.243383 
L 240.955342 155.101172 
L 240.364002 152.750869 
L 238.996588 149.144115 
L 238.474478 147.972446 
L 238.270114 146.703651 
L 237.367554 145.069494 
L 235.928469 142.510039 
L 235.588397 141.190628 
L 234.998825 139.849931 
L 234.81176 138.367517 
L 234.023909 135.031309 
L 234.023909 135.031309 
L 233.915575 134.369923 
L 233.532638 133.376169 
L 233.43672 131.494223 
L 233.501464 131.152773 
L 233.969851 130.713702 
L 233.969851 130.713702 
L 234.35422 130.405133 
L 235.44863 129.152293 
L 236.342107 128.558586 
L 237.787043 127.960042 
L 237.787043 127.960042 
L 238.938083 127.555038 
L 239.219019 127.224507 
L 239.305295 126.994194 
L 239.617791 125.843145 
L 240.05564 125.387697 
L 240.638086 125.190179 
L 244.659978 125.309161 
L 245.270852 125.560757 
L 245.942893 126.158292 
L 246.370378 126.396947 
L 247.763957 126.715217 
L 252.010267 125.698872 
L 253.7985 125.105238 
L 257.362659 122.762794 
L 257.530588 122.341318 
L 257.675241 119.54707 
L 257.669404 118.594573 
L 257.035686 117.095902 
L 257.035686 117.095902 
L 256.606303 115.950888 
L 256.613825 106.015304 
L 256.613825 106.015304 
" clip-path="url(#p62cf71288e)" style="fill: none; stroke: #1f77b4; stroke-width: 1.5"/>
    <path d="M 256.613825 106.015304 
L 256.599779 113.995428 
L 256.673965 116.24214 
L 257.669404 118.594573 
L 257.597005 121.479619 
L 257.530588 122.341318 
L 257.362659 122.762794 
L 256.789386 123.310318 
L 253.7985 125.105238 
L 251.687296 125.798496 
L 251.687296 125.798496 
L 249.966025 126.314562 
L 247.763957 126.715217 
L 246.370378 126.396947 
L 245.595497 125.858975 
L 245.595497 125.858975 
L 245.029688 125.431309 
L 244.659978 125.309161 
L 240.638086 125.190179 
L 239.835578 125.562886 
L 239.617791 125.843145 
L 239.099653 127.413849 
L 238.75978 127.645159 
L 236.342107 128.558586 
L 235.44863 129.152293 
L 233.501464 131.152773 
L 233.43672 131.494223 
L 233.532638 133.376169 
L 233.915575 134.369923 
L 234.293187 136.441221 
L 234.81176 138.367517 
L 235.061803 140.086472 
L 235.588397 141.190628 
L 236.132123 143.036778 
L 237.367554 145.069494 
L 238.270114 146.703651 
L 238.629822 148.417779 
L 239.585455 150.439145 
L 240.441379 152.985704 
L 241.482091 156.43748 
L 242.346778 157.961413 
L 242.818224 158.549007 
L 243.842066 160.165501 
L 244.039907 161.457307 
L 243.857028 161.891447 
L 242.757208 163.519108 
L 242.764412 163.686652 
L 243.931697 170.380919 
L 243.685407 171.821511 
L 243.421206 172.650504 
L 242.550584 173.702388 
L 238.712828 175.740555 
L 238.312888 176.128674 
L 238.001727 176.861062 
L 238.016656 177.396132 
L 238.184255 177.716396 
L 238.850835 178.843096 
L 240.632854 180.404645 
L 241.295411 181.145686 
L 244.35541 190.714698 
L 244.35541 190.714698 
L 247.542184 200.661172 
L 248.935251 209.568636 
L 248.935251 209.568636 
L 249.48032 213.543136 
L 249.54259 214.821384 
L 249.54259 214.821384 
" clip-path="url(#p62cf71288e)" style="fill: none; stroke: #1f77b4; stroke-width: 1.5"/>
    <path d="M 310.481244 127.391134 
L 297.21991 130.261835 
L 295.64676 130.273674 
L 289.077176 130.251825 
L 288.099448 130.441995 
L 284.175842 131.957846 
L 283.465141 132.363455 
L 279.986361 134.988409 
L 279.986361 134.988409 
L 274.991148 138.741821 
L 274.001419 139.286863 
L 272.943799 139.80203 
L 272.943799 139.80203 
L 266.990751 143.285405 
L 266.362451 143.756511 
L 263.766442 145.092419 
L 258.887692 146.991293 
L 258.12891 146.870158 
L 257.518451 146.622099 
L 253.620067 144.400469 
L 252.315972 143.942776 
L 249.508279 145.037661 
L 247.742391 146.118255 
L 244.792529 148.539103 
L 244.665049 148.86993 
L 244.538581 149.993122 
L 244.538581 149.993122 
L 244.186986 151.504244 
L 244.058402 151.601611 
L 239.662576 152.317437 
L 238.395172 152.561437 
L 236.975429 153.222374 
L 236.975429 153.222374 
L 235.378724 153.759885 
L 234.022167 154.59584 
L 234.022167 154.59584 
L 232.456048 155.603398 
L 232.182342 155.696328 
L 230.269216 156.258078 
L 227.592417 157.199657 
L 226.944034 157.503245 
L 225.143742 158.479416 
L 222.585773 158.987731 
L 222.585773 158.987731 
L 222.002897 159.137789 
L 221.692701 159.33735 
L 220.690824 160.440683 
L 219.141655 163.769726 
L 217.75678 166.65858 
L 217.100714 167.225433 
L 216.608176 167.471147 
L 215.260556 167.829715 
L 210.424316 168.942521 
L 208.562448 169.468379 
L 208.562448 169.468379 
L 203.523267 171.212338 
L 202.388428 171.713155 
L 201.953691 172.117746 
L 200.829228 173.971409 
L 200.372697 174.359189 
L 199.393735 174.531136 
L 196.558806 174.657279 
L 191.920174 175.419212 
L 187.82755 177.857402 
L 185.651107 179.012684 
L 183.185934 180.896856 
L 181.538685 182.728475 
L 175.230025 185.489847 
L 174.930155 185.789042 
L 173.336035 187.695844 
L 170.240536 190.121915 
L 169.058076 190.345405 
L 167.821981 190.423882 
L 164.979307 190.437481 
L 157.874906 191.295471 
L 154.885417 191.481288 
L 154.38713 191.617433 
L 149.494316 193.373838 
L 149.057275 193.793149 
L 148.725625 194.325125 
L 148.556134 195.041372 
L 148.946342 198.602494 
L 149.442371 201.390629 
L 149.400283 202.018907 
L 149.091058 203.98269 
L 149.022663 206.504332 
L 149.630368 211.578675 
L 149.822532 218.247508 
L 149.535143 221.140599 
L 149.22109 225.311546 
L 149.131519 227.803179 
L 149.131519 227.803179 
L 148.995995 234.79564 
L 148.729854 236.152593 
L 148.550195 239.18658 
L 148.711027 240.907325 
L 149.162937 246.638063 
L 149.162937 246.638063 
" clip-path="url(#p62cf71288e)" style="fill: none; stroke: #1f77b4; stroke-width: 1.5"/>
    <path d="M 149.162937 246.638063 
L 148.941967 244.110125 
L 148.584671 237.824778 
L 148.729854 236.152593 
L 149.057714 234.019398 
L 149.535143 221.140599 
L 149.822532 218.247508 
L 149.754137 216.263896 
L 149.60104 210.911008 
L 149.022663 206.504332 
L 149.091058 203.98269 
L 149.442371 201.390629 
L 149.407067 201.008953 
L 148.946342 198.602494 
L 148.556134 195.041372 
L 148.725625 194.325125 
L 149.057275 193.793149 
L 149.494316 193.373838 
L 150.078655 193.07039 
L 152.110786 192.408837 
L 154.885417 191.481288 
L 155.553238 191.35968 
L 157.874906 191.295471 
L 159.78743 191.099005 
L 159.78743 191.099005 
L 164.979307 190.437481 
L 169.058076 190.345405 
L 170.240536 190.121915 
L 171.070014 189.516936 
L 173.336035 187.695844 
L 175.230025 185.489847 
L 175.962843 185.079865 
L 181.538685 182.728475 
L 182.303818 182.123749 
L 183.185934 180.896856 
L 185.651107 179.012684 
L 187.82755 177.857402 
L 191.920174 175.419212 
L 196.558806 174.657279 
L 200.372697 174.359189 
L 200.829228 173.971409 
L 201.953691 172.117746 
L 202.388428 171.713155 
L 203.91778 171.074001 
L 203.91778 171.074001 
L 209.514903 169.180504 
L 213.42393 168.220496 
L 216.608176 167.471147 
L 217.450059 166.966857 
L 218.031444 166.308368 
L 220.690824 160.440683 
L 221.073454 159.93598 
L 222.002897 159.137789 
L 223.419201 158.76052 
L 225.143742 158.479416 
L 227.592417 157.199657 
L 231.109985 155.969884 
L 231.109985 155.969884 
L 232.715881 155.493334 
L 233.517142 154.962302 
L 234.504048 154.228518 
L 235.378724 153.759885 
L 237.800431 152.928346 
L 238.395172 152.561437 
L 239.662576 152.317437 
L 244.186986 151.504244 
L 244.270829 151.337393 
L 244.792529 148.539103 
L 247.742391 146.118255 
L 249.508279 145.037661 
L 252.315972 143.942776 
L 252.652415 144.0125 
L 254.38237 144.785831 
L 257.518451 146.622099 
L 258.338777 146.92538 
L 258.887692 146.991293 
L 264.255011 144.855207 
L 266.74064 143.522424 
L 267.259713 143.066835 
L 274.001419 139.286863 
L 274.991148 138.741821 
L 276.493801 137.665414 
L 283.465141 132.363455 
L 284.175842 131.957846 
L 288.099448 130.441995 
L 289.305955 130.239934 
L 297.835785 130.185075 
L 310.481244 127.391134 
L 310.481244 127.391134 
" clip-path="url(#p62cf71288e)" style="fill: none; stroke: #1f77b4; stroke-width: 1.5"/>
    <path d="M 305.24407 181.463508 
L 304.759214 181.650849 
L 302.158826 183.203584 
L 300.704669 184.231034 
L 296.906362 184.927251 
L 289.901214 185.78617 
L 283.331531 186.237604 
L 282.680767 186.017175 
L 281.918808 185.577379 
L 281.273955 184.921288 
L 280.312168 182.593735 
L 279.847663 180.245365 
L 279.72959 178.82671 
L 279.602656 178.435823 
L 278.463044 176.469825 
L 278.463044 176.469825 
L 277.582391 174.492331 
L 277.260636 174.122643 
L 275.335196 173.516048 
L 274.082728 173.640624 
L 273.515034 173.78459 
L 269.925971 174.503259 
L 259.14421 177.452648 
L 259.14421 177.452648 
L 249.817078 180.565965 
L 247.77991 181.2301 
L 246.58443 181.035082 
L 243.431431 179.548546 
L 241.624514 178.158791 
L 240.827829 177.648858 
L 237.751537 176.272948 
L 230.986514 174.570793 
L 230.801061 174.391443 
L 230.608582 173.42763 
L 229.912881 168.886426 
L 229.345914 168.646903 
L 228.300676 168.462241 
L 228.300676 168.462241 
L 226.4768 168.125285 
L 225.764401 167.696368 
L 223.551778 164.892281 
L 222.13353 158.664088 
L 222.150563 158.287744 
L 222.393288 157.180212 
L 222.251071 156.581985 
L 221.737428 155.816437 
L 221.381231 154.762067 
L 221.209829 153.207954 
L 221.591669 152.444083 
L 221.448419 151.911854 
L 219.958096 147.73915 
L 219.308291 147.064735 
L 218.638249 146.563985 
L 218.499528 146.330034 
L 217.722491 144.122531 
L 216.380851 141.867968 
L 212.860879 139.206766 
L 212.78763 139.015589 
L 210.728224 131.348624 
L 210.337132 131.137637 
L 209.197143 130.82182 
L 208.531419 129.264292 
L 208.061607 128.899773 
L 206.332362 128.483794 
L 205.325854 128.366815 
L 198.795811 126.884803 
L 197.800942 126.221414 
L 197.181738 125.619963 
L 195.968997 123.828608 
L 195.549157 123.724593 
L 190.826881 123.031703 
L 190.448993 122.81773 
L 189.56628 121.990582 
L 189.071195 121.315933 
L 188.06673 119.591716 
L 187.726324 119.258355 
L 185.482804 117.894812 
L 179.209283 115.632309 
L 178.053287 114.864319 
L 177.060207 113.868894 
L 176.392862 112.988391 
L 172.479809 107.103483 
L 171.943887 106.533451 
L 171.385624 106.1346 
L 170.800944 105.90689 
L 170.19003 105.793132 
L 169.5908 105.798055 
L 168.938476 105.920376 
L 165.562308 107.242918 
L 165.562308 107.242918 
L 163.269947 108.046268 
L 162.603176 108.079401 
L 161.944252 107.987743 
L 160.592429 107.559766 
L 159.930051 107.108993 
L 159.412136 106.479355 
L 158.595064 104.95938 
L 153.730074 95.355069 
L 152.573959 92.991741 
L 151.715057 91.24394 
L 148.250771 84.572333 
L 148.172704 84.308469 
L 148.101247 82.655344 
L 148.262296 81.148783 
L 148.50922 80.450488 
L 149.125454 79.476333 
L 150.787979 77.769464 
L 151.51863 77.272574 
L 151.51863 77.272574 
" clip-path="url(#p62cf71288e)" style="fill: none; stroke: #1f77b4; stroke-width: 1.5"/>
    <path d="M 103.934348 116.016926 
L 105.446426 116.182091 
L 112.339754 118.123195 
L 113.444255 118.644807 
L 115.517861 118.947065 
L 116.913674 118.756452 
L 117.212021 118.833469 
L 119.098293 119.719554 
L 121.212396 120.274947 
L 122.574457 120.325823 
L 126.955225 120.259949 
L 127.786461 120.62063 
L 128.654213 120.951283 
L 133.04845 121.897662 
L 133.935296 121.798547 
L 134.433372 121.568248 
L 135.30092 120.929048 
L 139.566456 116.784291 
L 140.057164 115.400579 
L 140.415107 113.777963 
L 143.38754 105.16889 
L 143.909966 104.021989 
L 144.771773 102.785016 
L 145.244227 102.4125 
L 145.870093 102.141948 
L 148.590595 102.090503 
L 150.780836 101.846028 
L 153.783764 100.921996 
L 155.0899 100.328528 
L 155.644781 100.351794 
L 156.044455 100.513853 
L 156.588833 101.049607 
L 159.930051 107.108993 
L 160.592429 107.559766 
L 161.944252 107.987743 
L 162.603176 108.079401 
L 163.269947 108.046268 
L 167.897989 106.36282 
L 168.938476 105.920376 
L 170.19003 105.793132 
L 170.800944 105.90689 
L 171.385624 106.1346 
L 171.943887 106.533451 
L 172.479809 107.103483 
L 177.060207 113.868894 
L 178.053287 114.864319 
L 178.525603 115.239913 
L 179.697503 115.877552 
L 185.795073 118.041169 
L 187.726324 119.258355 
L 188.06673 119.591716 
L 189.56628 121.990582 
L 190.826881 123.031703 
L 192.341055 123.307488 
L 196.075456 123.86814 
L 196.245862 124.008887 
L 197.00623 125.339342 
L 197.411216 125.888187 
L 198.198981 126.519476 
L 199.237913 127.102981 
L 202.048709 127.532309 
L 205.325854 128.366815 
L 207.265405 128.659256 
L 208.061607 128.899773 
L 208.531419 129.264292 
L 208.980936 130.336488 
L 209.280122 130.888973 
L 210.550152 131.218729 
L 210.728224 131.348624 
L 212.014308 136.0985 
L 212.014308 136.0985 
L 212.946789 139.331293 
L 213.340752 139.639806 
L 213.340752 139.639806 
L 216.504626 141.995802 
L 216.747705 142.367114 
L 217.98429 144.713998 
L 218.640438 146.566491 
L 218.870491 146.786975 
L 219.3529 147.100899 
L 220.148093 148.030511 
L 220.3519 148.646997 
L 220.3519 148.646997 
L 221.563814 152.580701 
L 221.209829 153.207954 
L 221.171096 153.596837 
L 221.381231 154.762067 
L 221.894313 156.08202 
L 221.894313 156.08202 
L 222.251071 156.581985 
L 222.393288 157.180212 
L 222.351892 157.539065 
L 222.13353 158.664088 
L 222.226454 159.291812 
L 222.226454 159.291812 
L 223.631932 165.097818 
L 225.764401 167.696368 
L 226.4768 168.125285 
L 226.855326 168.227134 
L 229.715203 168.759624 
L 230.003051 169.010078 
L 230.072461 169.231796 
L 230.801061 174.391443 
L 230.986514 174.570793 
L 231.952591 174.909069 
L 238.165558 176.455889 
L 238.165558 176.455889 
L 240.827829 177.648858 
L 242.663354 178.924203 
L 243.431431 179.548546 
L 244.779481 180.238693 
L 247.200524 181.185907 
L 247.77991 181.2301 
L 249.084667 180.813363 
L 249.084667 180.813363 
L 259.14421 177.452648 
L 259.14421 177.452648 
L 271.246476 174.195213 
L 275.335196 173.516048 
L 276.026805 173.667975 
L 277.260636 174.122643 
L 277.864187 174.921537 
L 278.635217 176.906882 
L 279.72959 178.82671 
L 280.197372 182.088098 
L 280.469071 183.072542 
L 281.532802 185.240707 
L 282.310145 185.850899 
L 283.331531 186.237604 
L 289.901214 185.78617 
L 296.906362 184.927251 
L 300.704669 184.231034 
L 301.209134 183.923149 
L 303.352394 182.436961 
L 305.24407 181.463508 
L 305.24407 181.463508 
" clip-path="url(#p62cf71288e)" style="fill: none; stroke: #1f77b4; stroke-width: 1.5"/>
    <path d="M 305.24407 181.463508 
L 304.759214 181.650849 
L 302.158826 183.203584 
L 300.704669 184.231034 
L 296.906362 184.927251 
L 289.901214 185.78617 
L 283.331531 186.237604 
L 282.680767 186.017175 
L 281.918808 185.577379 
L 281.273955 184.921288 
L 280.312168 182.593735 
L 279.847663 180.245365 
L 279.72959 178.82671 
L 279.602656 178.435823 
L 278.463044 176.469825 
L 278.463044 176.469825 
L 277.582391 174.492331 
L 277.260636 174.122643 
L 275.335196 173.516048 
L 274.082728 173.640624 
L 273.515034 173.78459 
L 269.925971 174.503259 
L 259.14421 177.452648 
L 259.14421 177.452648 
L 249.817078 180.565965 
L 247.77991 181.2301 
L 246.58443 181.035082 
L 243.431431 179.548546 
L 241.624514 178.158791 
L 240.827829 177.648858 
L 237.751537 176.272948 
L 230.986514 174.570793 
L 230.801061 174.391443 
L 230.608582 173.42763 
L 229.912881 168.886426 
L 229.345914 168.646903 
L 228.300676 168.462241 
L 228.300676 168.462241 
L 226.4768 168.125285 
L 225.764401 167.696368 
L 223.551778 164.892281 
L 222.13353 158.664088 
L 222.150563 158.287744 
L 222.393288 157.180212 
L 222.251071 156.581985 
L 221.737428 155.816437 
L 221.381231 154.762067 
L 221.209829 153.207954 
L 221.591669 152.444083 
L 221.448419 151.911854 
L 219.958096 147.73915 
L 219.308291 147.064735 
L 218.638249 146.563985 
L 218.499528 146.330034 
L 217.722491 144.122531 
L 216.380851 141.867968 
L 212.860879 139.206766 
L 212.78763 139.015589 
L 210.728224 131.348624 
L 210.337132 131.137637 
L 209.197143 130.82182 
L 208.531419 129.264292 
L 208.061607 128.899773 
L 206.332362 128.483794 
L 205.325854 128.366815 
L 198.795811 126.884803 
L 197.800942 126.221414 
L 197.181738 125.619963 
L 195.968997 123.828608 
L 195.549157 123.724593 
L 190.826881 123.031703 
L 190.448993 122.81773 
L 189.56628 121.990582 
L 189.071195 121.315933 
L 188.06673 119.591716 
L 187.726324 119.258355 
L 185.482804 117.894812 
L 179.209283 115.632309 
L 178.053287 114.864319 
L 177.060207 113.868894 
L 176.392862 112.988391 
L 172.479809 107.103483 
L 171.943887 106.533451 
L 171.385624 106.1346 
L 170.800944 105.90689 
L 170.19003 105.793132 
L 169.5908 105.798055 
L 168.938476 105.920376 
L 165.562308 107.242918 
L 165.562308 107.242918 
L 163.269947 108.046268 
L 162.603176 108.079401 
L 161.944252 107.987743 
L 160.592429 107.559766 
L 159.930051 107.108993 
L 159.412136 106.479355 
L 158.595064 104.95938 
L 156.588833 101.049607 
L 156.044455 100.513853 
L 155.644781 100.351794 
L 155.0899 100.328528 
L 154.652841 100.443876 
L 153.783764 100.921996 
L 150.780836 101.846028 
L 147.468895 102.143606 
L 147.468895 102.143606 
L 145.870093 102.141948 
L 145.244227 102.4125 
L 144.771773 102.785016 
L 143.909966 104.021989 
L 143.38754 105.16889 
L 140.415107 113.777963 
L 140.057164 115.400579 
L 139.566456 116.784291 
L 139.258107 117.221362 
L 134.433372 121.568248 
L 133.935296 121.798547 
L 133.04845 121.897662 
L 128.290158 120.830999 
L 126.462399 120.213504 
L 121.212396 120.274947 
L 118.902092 119.667049 
L 117.713001 119.084438 
L 116.913674 118.756452 
L 116.528262 118.760274 
L 115.517861 118.947065 
L 113.444255 118.644807 
L 111.886968 117.96412 
L 105.446426 116.182091 
L 103.934348 116.016926 
L 103.934348 116.016926 
" clip-path="url(#p62cf71288e)" style="fill: none; stroke: #1f77b4; stroke-width: 1.5"/>
    <path d="M 151.51863 77.272574 
L 150.492707 78.023085 
L 149.125454 79.476333 
L 148.50922 80.450488 
L 148.262296 81.148783 
L 148.088884 82.915898 
L 148.250771 84.572333 
L 148.538318 85.287813 
L 149.759364 87.508307 
L 152.531524 92.892189 
L 153.590811 95.096741 
L 155.984523 99.75054 
L 159.412136 106.479355 
L 159.930051 107.108993 
L 160.592429 107.559766 
L 161.944252 107.987743 
L 162.603176 108.079401 
L 163.269947 108.046268 
L 167.897989 106.36282 
L 168.938476 105.920376 
L 170.19003 105.793132 
L 170.800944 105.90689 
L 171.385624 106.1346 
L 171.943887 106.533451 
L 172.479809 107.103483 
L 177.060207 113.868894 
L 178.053287 114.864319 
L 178.525603 115.239913 
L 179.697503 115.877552 
L 185.795073 118.041169 
L 187.726324 119.258355 
L 188.06673 119.591716 
L 189.56628 121.990582 
L 190.826881 123.031703 
L 192.341055 123.307488 
L 196.075456 123.86814 
L 196.245862 124.008887 
L 197.00623 125.339342 
L 197.411216 125.888187 
L 198.198981 126.519476 
L 199.237913 127.102981 
L 202.048709 127.532309 
L 205.325854 128.366815 
L 207.265405 128.659256 
L 208.061607 128.899773 
L 208.531419 129.264292 
L 208.980936 130.336488 
L 209.280122 130.888973 
L 210.550152 131.218729 
L 210.728224 131.348624 
L 212.014308 136.0985 
L 212.014308 136.0985 
L 212.946789 139.331293 
L 213.340752 139.639806 
L 213.340752 139.639806 
L 216.504626 141.995802 
L 216.747705 142.367114 
L 217.98429 144.713998 
L 218.640438 146.566491 
L 218.870491 146.786975 
L 219.3529 147.100899 
L 220.148093 148.030511 
L 220.3519 148.646997 
L 220.3519 148.646997 
L 221.563814 152.580701 
L 221.209829 153.207954 
L 221.171096 153.596837 
L 221.381231 154.762067 
L 221.894313 156.08202 
L 221.894313 156.08202 
L 222.251071 156.581985 
L 222.393288 157.180212 
L 222.351892 157.539065 
L 222.13353 158.664088 
L 222.226454 159.291812 
L 222.226454 159.291812 
L 223.631932 165.097818 
L 225.764401 167.696368 
L 226.4768 168.125285 
L 226.855326 168.227134 
L 229.715203 168.759624 
L 230.003051 169.010078 
L 230.072461 169.231796 
L 230.801061 174.391443 
L 230.986514 174.570793 
L 231.952591 174.909069 
L 238.165558 176.455889 
L 238.165558 176.455889 
L 240.827829 177.648858 
L 242.663354 178.924203 
L 243.431431 179.548546 
L 244.779481 180.238693 
L 247.200524 181.185907 
L 247.77991 181.2301 
L 249.084667 180.813363 
L 249.084667 180.813363 
L 259.14421 177.452648 
L 259.14421 177.452648 
L 271.246476 174.195213 
L 275.335196 173.516048 
L 276.026805 173.667975 
L 277.260636 174.122643 
L 277.864187 174.921537 
L 278.635217 176.906882 
L 279.72959 178.82671 
L 280.197372 182.088098 
L 280.469071 183.072542 
L 281.532802 185.240707 
L 282.310145 185.850899 
L 283.331531 186.237604 
L 289.901214 185.78617 
L 296.906362 184.927251 
L 300.704669 184.231034 
L 301.209134 183.923149 
L 303.352394 182.436961 
L 305.24407 181.463508 
L 305.24407 181.463508 
" clip-path="url(#p62cf71288e)" style="fill: none; stroke: #1f77b4; stroke-width: 1.5"/>
    <path d="M 294.6746 130.707172 
L 294.739324 130.093849 
L 293.376335 124.706645 
L 292.944361 123.992954 
L 292.630164 123.7821 
L 291.959298 123.605111 
L 289.956479 123.606129 
L 286.471517 123.771543 
L 286.471517 123.771543 
L 277.188009 123.609337 
L 277.188009 123.609337 
L 275.676926 123.491983 
L 273.582708 122.624163 
L 272.604192 122.667161 
L 263.536703 123.796952 
L 262.714055 124.259105 
L 259.843627 126.731723 
L 258.707433 127.363053 
L 257.966387 127.694492 
L 256.814228 128.410383 
L 256.814228 128.410383 
L 251.026859 131.642021 
L 250.777581 131.875449 
L 248.245563 134.45357 
L 247.543853 134.790685 
L 247.543853 134.790685 
L 244.525413 136.16984 
L 244.525413 136.16984 
L 239.54678 138.645847 
L 238.815941 138.821644 
L 238.815941 138.821644 
L 234.443061 139.531296 
L 230.835923 139.972636 
L 230.066256 140.423603 
L 229.889173 140.651655 
L 229.67677 141.118188 
L 229.623504 141.723792 
L 230.645024 145.489412 
L 230.645024 145.489412 
L 230.967308 146.446026 
L 230.96749 147.063226 
L 230.716884 147.608042 
L 230.306058 149.2832 
L 230.445694 150.153664 
L 231.084537 152.039191 
L 230.885045 153.927347 
L 231.14161 155.919807 
L 231.698326 158.602265 
L 232.762466 160.972383 
L 232.774529 161.754641 
L 232.479252 162.158527 
L 232.314998 162.266919 
L 229.426132 163.627425 
L 228.361254 164.455055 
L 228.28379 164.56216 
L 227.996306 165.755456 
L 228.234734 167.578524 
L 228.234734 167.578524 
L 228.002937 168.476222 
L 227.569981 168.673451 
L 225.122505 169.43489 
L 225.122505 169.43489 
L 222.232173 170.275418 
L 219.667395 170.429507 
L 215.774655 171.013707 
L 214.507536 171.791984 
L 213.151112 172.126503 
L 213.151112 172.126503 
L 210.322279 172.899289 
L 208.478862 173.694039 
L 208.478862 173.694039 
L 207.450042 174.103497 
L 206.742966 174.658935 
L 206.531965 175.250121 
L 206.618032 175.817127 
L 206.618032 175.817127 
L 207.76885 180.966036 
L 207.650763 181.252963 
L 205.295639 182.369078 
L 203.869187 182.985301 
L 198.912108 183.872404 
L 196.314843 185.458426 
L 196.314843 185.458426 
" clip-path="url(#p62cf71288e)" style="fill: none; stroke: #1f77b4; stroke-width: 1.5"/>
    <path d="M 196.314843 185.458426 
L 199.137829 183.787003 
L 200.098252 183.618085 
L 204.432459 182.761892 
L 207.751571 181.153706 
L 207.771167 180.797342 
L 207.636177 180.132105 
L 206.544507 175.149642 
L 206.742966 174.658935 
L 207.562131 174.029831 
L 209.248454 173.40434 
L 211.071867 172.621488 
L 214.507536 171.791984 
L 216.064063 170.948762 
L 216.064063 170.948762 
L 220.557617 170.369819 
L 222.602596 170.210149 
L 228.054779 168.427247 
L 228.092493 168.362658 
L 228.280924 166.782657 
L 228.026771 165.330822 
L 228.361254 164.455055 
L 229.426132 163.627425 
L 230.227443 163.15256 
L 232.314998 162.266919 
L 232.701308 161.902373 
L 232.814045 161.49796 
L 232.696086 160.694353 
L 232.187668 159.619893 
L 232.187668 159.619893 
L 231.562963 158.069331 
L 230.94484 154.719168 
L 230.908974 153.135507 
L 231.048273 151.591955 
L 230.314886 149.507504 
L 230.386562 148.722601 
L 230.967308 146.446026 
L 230.645024 145.489412 
L 230.645024 145.489412 
L 230.2846 144.388147 
L 229.623504 141.723792 
L 229.67677 141.118188 
L 230.066256 140.423603 
L 230.835923 139.972636 
L 231.207508 139.893183 
L 235.378158 139.435287 
L 239.818631 138.563703 
L 240.374296 138.32283 
L 244.525413 136.16984 
L 244.525413 136.16984 
L 248.539169 134.21764 
L 251.026859 131.642021 
L 253.65516 130.127518 
L 253.65516 130.127518 
L 260.308351 126.38566 
L 262.714055 124.259105 
L 263.769683 123.738149 
L 267.134245 123.344442 
L 267.134245 123.344442 
L 273.70494 122.638553 
L 273.985361 122.714965 
L 276.059001 123.574945 
L 277.188009 123.609337 
L 277.188009 123.609337 
L 292.630164 123.7821 
L 293.034884 124.081694 
L 293.21576 124.377475 
L 293.600153 125.383746 
L 294.745675 130.188839 
L 294.6746 130.707172 
L 294.6746 130.707172 
" clip-path="url(#p62cf71288e)" style="fill: none; stroke: #1f77b4; stroke-width: 1.5"/>
    <path d="M 291.21988 161.479949 
L 289.776652 161.954698 
L 287.984247 162.708204 
L 285.986821 163.895491 
L 285.986821 163.895491 
L 284.359538 165.074346 
L 283.322299 165.520981 
L 282.529142 165.737588 
L 281.291341 165.836784 
L 278.996288 165.924769 
L 278.361776 166.032965 
L 276.784915 166.600467 
L 273.95751 167.842772 
L 267.803819 170.223519 
L 267.052632 170.076008 
L 266.824661 169.889724 
L 265.778499 167.439733 
L 265.778499 167.439733 
L 265.105067 165.371761 
L 264.708873 165.24228 
L 259.243979 165.694168 
L 255.267469 166.654984 
L 253.187051 167.397937 
L 250.091456 168.300635 
L 249.050515 168.436873 
L 242.695533 169.003134 
L 242.089734 168.845396 
L 241.615397 168.503252 
L 240.858535 167.672901 
L 239.907174 166.012558 
L 239.786839 165.176059 
L 239.045096 162.231678 
L 239.245935 160.485126 
L 239.006702 159.079138 
L 237.721316 156.252643 
L 237.404216 155.148955 
L 236.814745 153.50528 
L 236.54493 152.412496 
L 236.297435 151.038407 
L 235.955554 150.165647 
L 235.424021 149.696463 
L 234.561536 149.587091 
L 233.363109 149.517036 
L 232.503408 148.994138 
L 232.071002 148.336794 
L 231.998649 147.896579 
L 231.922251 145.902009 
L 231.550694 144.417177 
L 231.861425 142.394171 
L 231.708541 141.594218 
L 230.936874 140.511828 
L 229.779152 139.67739 
L 228.589336 138.350777 
L 228.066751 138.151273 
L 227.922887 138.147432 
L 226.330102 138.426697 
L 224.603406 138.940003 
L 223.892495 139.317506 
L 222.007162 141.299481 
L 220.90268 141.715309 
L 220.663675 142.10108 
L 220.198896 142.997127 
L 220.198896 142.997127 
L 219.504321 143.805068 
L 218.619347 144.135769 
L 217.715512 144.460789 
L 217.715512 144.460789 
L 216.067142 145.113677 
L 214.917298 144.18158 
L 212.96606 144.14908 
L 210.712714 143.821582 
L 209.672372 143.799236 
L 205.300137 144.083947 
L 202.340956 143.565806 
L 201.149534 143.192868 
L 197.30261 141.246402 
L 196.874862 140.891279 
L 195.441987 140.002498 
L 192.503874 139.206475 
L 191.208134 139.224016 
L 188.479155 139.579245 
L 186.341916 139.984187 
L 186.341916 139.984187 
L 184.042943 140.03968 
L 180.780917 140.030224 
L 180.780917 140.030224 
" clip-path="url(#p62cf71288e)" style="fill: none; stroke: #1f77b4; stroke-width: 1.5"/>
    <path d="M 180.780917 140.030224 
L 184.042943 140.03968 
L 186.341916 139.984187 
L 186.341916 139.984187 
L 187.107381 139.906258 
L 189.434359 139.444604 
L 192.017191 139.17681 
L 192.954412 139.241296 
L 195.441987 140.002498 
L 197.842863 141.541589 
L 197.842863 141.541589 
L 201.149534 143.192868 
L 203.088251 143.730575 
L 203.088251 143.730575 
L 205.300137 144.083947 
L 209.672372 143.799236 
L 211.683909 143.942997 
L 213.468454 144.153392 
L 215.13625 144.257131 
L 216.227704 145.142221 
L 218.619347 144.135769 
L 219.504321 143.805068 
L 219.754089 143.595695 
L 220.506892 142.484237 
L 220.90268 141.715309 
L 221.23372 141.524836 
L 222.163766 141.22742 
L 223.892495 139.317506 
L 224.954079 138.797434 
L 226.330102 138.426697 
L 228.066751 138.151273 
L 228.589336 138.350777 
L 229.072877 138.861431 
L 230.461422 140.212479 
L 230.461422 140.212479 
L 231.111683 140.674177 
L 231.733536 141.669077 
L 231.863825 142.805713 
L 231.542263 144.659299 
L 232.024903 146.813912 
L 232.071002 148.336794 
L 232.335752 148.754746 
L 232.335752 148.754746 
L 232.748717 149.163164 
L 233.603066 149.56246 
L 235.567027 149.783351 
L 235.955554 150.165647 
L 236.223663 150.769914 
L 236.483806 151.823772 
L 236.699105 153.093182 
L 236.699105 153.093182 
L 237.052184 154.306834 
L 237.602676 155.722925 
L 237.741002 156.321139 
L 239.094295 159.391708 
L 239.252326 160.87977 
L 239.050444 162.358171 
L 240.158054 166.476069 
L 241.126403 167.981769 
L 241.126403 167.981769 
L 241.878991 168.719698 
L 242.277749 168.932831 
L 243.291132 169.029325 
L 246.208233 168.732566 
L 251.008168 168.138533 
L 253.187051 167.397937 
L 257.010805 166.172478 
L 260.242219 165.506353 
L 264.978101 165.295128 
L 265.213451 165.468984 
L 265.508666 166.289083 
L 265.920241 167.862225 
L 266.923213 169.990635 
L 267.385964 170.177079 
L 268.047758 170.198567 
L 268.821192 169.925275 
L 268.821192 169.925275 
L 275.009301 167.387454 
L 277.526689 166.291814 
L 278.996288 165.924769 
L 279.649513 165.83068 
L 282.529142 165.737588 
L 283.322299 165.520981 
L 284.359538 165.074346 
L 284.772472 164.840245 
L 286.280773 163.663951 
L 287.984247 162.708204 
L 290.481266 161.687491 
L 291.21988 161.479949 
L 291.21988 161.479949 
" clip-path="url(#p62cf71288e)" style="fill: none; stroke: #1f77b4; stroke-width: 1.5"/>
    <path d="M 398.487273 279.031016 
L 391.631335 271.959514 
L 391.631335 271.959514 
L 384.447531 264.697637 
L 377.253364 260.812309 
L 370.307571 257.281334 
L 370.307571 257.281334 
L 366.195317 255.135604 
L 362.746486 253.437864 
L 356.97268 250.417153 
L 351.570699 247.723624 
L 350.957796 247.01013 
L 350.504725 246.247091 
L 350.25364 245.722 
L 350.09701 245.15517 
L 350.041177 244.638036 
L 350.002638 244.068245 
L 350.005056 239.135789 
L 349.893364 236.070286 
L 350.008779 229.629427 
L 350.004121 229.324164 
L 350.004121 229.324164 
L 349.886957 220.314331 
L 349.850354 219.97487 
L 349.65727 219.509651 
L 349.303364 218.998103 
L 349.058888 218.706213 
L 348.7499 218.484362 
L 348.382951 218.377642 
L 346.74336 218.308311 
L 343.111346 218.340606 
L 340.030344 218.042245 
L 339.101541 217.951694 
L 338.600517 217.977083 
L 338.600517 217.977083 
L 331.438906 218.317335 
L 330.320589 218.451693 
L 328.883109 218.659747 
L 328.441741 218.77842 
L 326.499016 219.59592 
L 325.905196 219.726035 
L 325.262123 219.79324 
L 318.427509 219.616219 
L 316.43379 219.454768 
L 316.43379 219.454768 
L 315.964371 219.423799 
L 314.997027 219.382515 
L 314.05967 219.398229 
L 304.102208 219.895242 
L 303.278802 219.982839 
L 302.774833 220.075784 
L 301.816043 220.416041 
L 299.582782 221.095329 
L 298.284213 221.376416 
L 298.284213 221.376416 
L 296.622301 221.694684 
L 296.207717 221.743172 
L 294.898261 221.721208 
L 291.007458 221.64872 
L 289.981455 221.368543 
L 289.085877 220.79585 
L 288.320959 220.190149 
L 287.880618 219.552614 
L 287.591577 219.005581 
L 287.440306 218.593352 
L 287.135984 217.38486 
L 287.135984 217.38486 
L 286.076973 213.692245 
L 285.773325 212.109101 
L 285.17516 209.305422 
L 284.902255 207.939127 
L 284.902255 207.939127 
L 284.476062 205.586053 
L 284.095928 202.66457 
L 284.015868 201.643091 
L 283.942857 200.31141 
L 283.584046 196.177451 
L 283.508346 195.418035 
L 283.450943 194.90794 
L 283.378949 194.462894 
L 283.378949 194.462894 
L 283.000315 192.01252 
L 282.808546 190.887276 
L 282.328676 188.880959 
L 282.041511 187.674594 
L 281.644233 186.304167 
L 281.35001 185.340369 
L 281.178895 184.970163 
L 280.446008 183.433851 
L 280.234013 182.829188 
L 280.028935 182.044393 
L 279.502565 180.131646 
L 279.311407 179.194633 
L 279.031007 178.017724 
L 278.494629 176.460268 
L 278.494629 176.460268 
L 277.778794 174.64368 
L 276.578973 171.756255 
L 275.889977 169.95362 
L 275.154928 167.994576 
L 274.978086 167.401294 
L 274.885847 167.056858 
L 274.794008 166.714084 
L 273.309651 160.228089 
L 272.97056 159.326767 
L 272.226683 158.111761 
L 271.362488 157.198499 
L 270.390041 156.699303 
L 269.254959 156.416317 
L 268.473144 156.354094 
L 267.337881 156.293876 
L 266.808564 156.251855 
L 265.785936 156.192584 
L 265.785936 156.192584 
" clip-path="url(#p62cf71288e)" style="fill: none; stroke: #1f77b4; stroke-width: 1.5"/>
    <path d="M 265.785936 156.192584 
L 266.808564 156.251855 
L 267.337881 156.293876 
L 268.473144 156.354094 
L 269.254959 156.416317 
L 270.390041 156.699303 
L 271.362488 157.198499 
L 272.226683 158.111761 
L 272.97056 159.326767 
L 273.309651 160.228089 
L 274.794008 166.714084 
L 274.885847 167.056858 
L 274.978086 167.401294 
L 275.154928 167.994576 
L 275.889977 169.95362 
L 276.578973 171.756255 
L 277.778794 174.64368 
L 278.494629 176.460268 
L 278.494629 176.460268 
L 279.031007 178.017724 
L 279.311407 179.194633 
L 279.502565 180.131646 
L 280.028935 182.044393 
L 280.234013 182.829188 
L 280.446008 183.433851 
L 281.178895 184.970163 
L 281.35001 185.340369 
L 281.644233 186.304167 
L 282.041511 187.674594 
L 282.328676 188.880959 
L 282.808546 190.887276 
L 283.000315 192.01252 
L 283.378949 194.462894 
L 283.378949 194.462894 
L 283.450943 194.90794 
L 283.508346 195.418035 
L 283.584046 196.177451 
L 283.942857 200.31141 
L 284.015868 201.643091 
L 284.095928 202.66457 
L 284.476062 205.586053 
L 284.902255 207.939127 
L 284.902255 207.939127 
L 285.17516 209.305422 
L 285.773325 212.109101 
L 286.076973 213.692245 
L 287.135984 217.38486 
L 287.135984 217.38486 
L 287.440306 218.593352 
L 287.591577 219.005581 
L 287.880618 219.552614 
L 288.320959 220.190149 
L 289.085877 220.79585 
L 289.981455 221.368543 
L 291.007458 221.64872 
L 294.898261 221.721208 
L 296.207717 221.743172 
L 296.622301 221.694684 
L 298.284213 221.376416 
L 298.284213 221.376416 
L 299.582782 221.095329 
L 301.816043 220.416041 
L 302.774833 220.075784 
L 303.278802 219.982839 
L 304.102208 219.895242 
L 314.05967 219.398229 
L 314.997027 219.382515 
L 315.964371 219.423799 
L 316.43379 219.454768 
L 316.43379 219.454768 
L 318.427509 219.616219 
L 325.262123 219.79324 
L 325.905196 219.726035 
L 326.499016 219.59592 
L 328.441741 218.77842 
L 328.883109 218.659747 
L 330.320589 218.451693 
L 331.438906 218.317335 
L 338.600517 217.977083 
L 338.600517 217.977083 
L 339.101541 217.951694 
L 340.030344 218.042245 
L 343.111346 218.340606 
L 346.74336 218.308311 
L 348.382951 218.377642 
L 348.7499 218.484362 
L 349.058888 218.706213 
L 349.303364 218.998103 
L 349.65727 219.509651 
L 349.850354 219.97487 
L 349.886957 220.314331 
L 350.004121 229.324164 
L 350.004121 229.324164 
L 350.008779 229.629427 
L 349.893364 236.070286 
L 350.005056 239.135789 
L 350.002638 244.068245 
L 350.041177 244.638036 
L 350.09701 245.15517 
L 350.25364 245.722 
L 350.504725 246.247091 
L 350.957796 247.01013 
L 351.570699 247.723624 
L 356.97268 250.417153 
L 362.746486 253.437864 
L 366.195317 255.135604 
L 370.307571 257.281334 
L 370.307571 257.281334 
L 377.253364 260.812309 
L 384.447531 264.697637 
L 391.631335 271.959514 
L 391.631335 271.959514 
L 398.487273 279.031016 
L 398.487273 279.031016 
" clip-path="url(#p62cf71288e)" style="fill: none; stroke: #1f77b4; stroke-width: 1.5"/>
    <path d="M 73.832727 199.37132 
L 77.226302 199.167985 
L 80.846643 198.902487 
L 83.257546 198.624212 
L 84.685363 198.372101 
L 84.685395 198.372102 
L 86.849027 197.906225 
L 90.023564 197.133794 
L 90.809438 196.759629 
L 91.731502 196.220187 
L 92.274141 195.763724 
L 93.212661 194.986408 
L 93.563548 194.597196 
L 93.71951 194.245516 
L 93.781658 193.782949 
L 93.733122 192.60208 
L 93.282773 188.333693 
L 93.263564 188.024895 
L 93.272245 187.702858 
L 93.350126 187.351379 
L 93.532724 186.925289 
L 93.72731 186.572383 
L 94.092184 186.110421 
L 94.687657 185.502297 
L 96.051091 184.484915 
L 96.051091 184.484915 
L 97.176742 183.637235 
L 98.8624 182.433137 
L 99.718857 181.783144 
L 99.996008 181.436535 
L 100.064274 181.180862 
L 100.035567 180.618004 
L 99.909916 179.772356 
L 99.881282 179.033099 
L 99.911024 178.23931 
L 100.01281 176.953982 
L 100.020938 176.436565 
L 99.965338 176.067591 
L 99.915325 175.550865 
L 99.867556 174.823811 
L 99.887212 174.397505 
L 99.984397 174.156299 
L 100.135074 173.923969 
L 100.346988 173.803968 
L 100.574063 173.724236 
L 101.099134 173.645509 
L 101.099134 173.645509 
L 103.389296 173.397187 
L 103.951828 173.360791 
L 104.502207 173.354822 
L 105.385227 173.438768 
L 108.295038 174.025938 
L 109.278806 174.187993 
L 110.764604 174.354539 
L 111.027638 174.374033 
L 111.126772 174.367983 
L 111.395901 174.318863 
L 111.395901 174.318863 
L 112.593751 174.079553 
L 116.716541 173.391711 
L 117.459232 173.324227 
L 118.17799 173.301147 
L 120.907845 173.278794 
L 120.907845 173.278794 
L 125.989844 173.282387 
L 130.871521 173.241861 
L 131.709057 173.249542 
L 133.468625 173.451127 
L 133.648779 173.465442 
L 134.396624 173.503891 
L 134.529469 173.509742 
L 134.660219 173.487527 
L 135.399117 173.2976 
L 135.399117 173.2976 
L 137.156938 172.77385 
L 138.265705 172.50564 
L 139.004398 172.377829 
L 139.606311 172.328972 
L 147.016425 172.113515 
L 147.016425 172.113515 
L 147.367535 172.087271 
L 147.635105 172.035452 
L 147.966713 171.914861 
L 149.626739 171.285303 
L 149.817789 171.167139 
L 150.092688 170.945082 
L 150.310575 170.659394 
L 151.556899 168.31206 
L 151.838392 167.875415 
L 151.958557 167.726094 
L 152.121201 167.591796 
L 152.287397 167.478352 
L 152.564147 167.362726 
L 153.077538 167.290779 
L 153.077538 167.290779 
L 153.411545 167.253863 
L 153.960378 167.160012 
L 154.625891 166.973333 
L 155.510374 166.718925 
L 156.632218 166.377605 
L 157.014099 166.25934 
L 157.645337 166.059194 
L 157.645337 166.059194 
L 159.041099 165.56969 
L 160.852886 164.78167 
L 166.493428 162.483481 
L 166.493428 162.483481 
L 171.017972 160.653657 
L 171.368427 160.500368 
L 171.368427 160.500368 
L 171.698498 160.363594 
L 173.817808 159.37917 
L 174.181639 159.272871 
L 174.607993 159.25873 
L 177.710256 159.703484 
L 180.004053 159.658738 
L 181.455446 159.602587 
L 181.455446 159.602587 
" clip-path="url(#p62cf71288e)" style="fill: none; stroke: #1f77b4; stroke-width: 1.5"/>
    <path d="M 181.455446 159.602587 
L 180.004053 159.658738 
L 177.710256 159.703484 
L 174.607993 159.25873 
L 174.181639 159.272871 
L 173.817808 159.37917 
L 171.698498 160.363594 
L 171.368427 160.500368 
L 171.368427 160.500368 
L 171.017972 160.653657 
L 166.493428 162.483481 
L 166.493428 162.483481 
L 160.852886 164.78167 
L 159.041099 165.56969 
L 157.645337 166.059194 
L 157.645337 166.059194 
L 157.014099 166.25934 
L 156.632218 166.377605 
L 155.510374 166.718925 
L 154.625891 166.973333 
L 153.960378 167.160012 
L 153.411545 167.253863 
L 153.077538 167.290779 
L 153.077538 167.290779 
L 152.564147 167.362726 
L 152.287397 167.478352 
L 152.121201 167.591796 
L 151.958557 167.726094 
L 151.838392 167.875415 
L 151.556899 168.31206 
L 150.310575 170.659394 
L 150.092688 170.945082 
L 149.817789 171.167139 
L 149.626739 171.285303 
L 147.966713 171.914861 
L 147.635105 172.035452 
L 147.367535 172.087271 
L 147.016425 172.113515 
L 147.016425 172.113515 
L 139.606311 172.328972 
L 139.004398 172.377829 
L 138.265705 172.50564 
L 137.156938 172.77385 
L 135.399117 173.2976 
L 135.399117 173.2976 
L 134.660219 173.487527 
L 134.529469 173.509742 
L 134.396624 173.503891 
L 133.648779 173.465442 
L 133.468625 173.451127 
L 131.709057 173.249542 
L 130.871521 173.241861 
L 125.989844 173.282387 
L 120.907845 173.278794 
L 120.907845 173.278794 
L 118.17799 173.301147 
L 117.459232 173.324227 
L 116.716541 173.391711 
L 112.593751 174.079553 
L 111.395901 174.318863 
L 111.395901 174.318863 
L 111.126772 174.367983 
L 111.027638 174.374033 
L 110.764604 174.354539 
L 109.278806 174.187993 
L 108.295038 174.025938 
L 105.385227 173.438768 
L 104.502207 173.354822 
L 103.951828 173.360791 
L 103.389296 173.397187 
L 101.099134 173.645509 
L 101.099134 173.645509 
L 100.574063 173.724236 
L 100.346988 173.803968 
L 100.135074 173.923969 
L 99.984397 174.156299 
L 99.887212 174.397505 
L 99.867556 174.823811 
L 99.915325 175.550865 
L 99.965338 176.067591 
L 100.020938 176.436565 
L 100.01281 176.953982 
L 99.911024 178.23931 
L 99.881282 179.033099 
L 99.909916 179.772356 
L 100.035567 180.618004 
L 100.064274 181.180862 
L 99.996008 181.436535 
L 99.718857 181.783144 
L 98.8624 182.433137 
L 97.176742 183.637235 
L 96.051091 184.484915 
L 96.051091 184.484915 
L 94.687657 185.502297 
L 94.092184 186.110421 
L 93.72731 186.572383 
L 93.532724 186.925289 
L 93.350126 187.351379 
L 93.272245 187.702858 
L 93.263564 188.024895 
L 93.282773 188.333693 
L 93.733122 192.60208 
L 93.781658 193.782949 
L 93.71951 194.245516 
L 93.563548 194.597196 
L 93.212661 194.986408 
L 92.274141 195.763724 
L 91.731502 196.220187 
L 90.809438 196.759629 
L 90.023564 197.133794 
L 86.849027 197.906225 
L 84.685395 198.372102 
L 84.685363 198.372101 
L 83.257546 198.624212 
L 80.846643 198.902487 
L 77.226302 199.167985 
L 73.832727 199.37132 
L 73.832727 199.37132 
" clip-path="url(#p62cf71288e)" style="fill: none; stroke: #1f77b4; stroke-width: 1.5"/>
    <path d="M 253.985691 229.839074 
L 254.128829 229.846406 
L 256.302505 229.904136 
L 256.614303 229.904874 
L 256.723411 229.891407 
L 256.817043 229.841316 
L 256.87563 229.710108 
L 256.91213 229.531906 
L 256.884643 229.236782 
L 256.717637 227.894147 
L 256.691968 227.741308 
L 256.691968 227.741308 
L 256.66633 227.588856 
L 256.29417 224.964305 
L 256.1593 223.361101 
L 256.145093 223.247051 
L 256.145093 223.247051 
L 256.131273 223.132943 
L 256.058625 222.325393 
L 256.053128 221.229697 
L 256.045145 220.312509 
L 256.045145 220.312509 
L 256.043725 220.197497 
L 256.028562 219.672588 
L 255.909775 218.801729 
L 255.838249 218.346855 
L 255.780982 218.043408 
L 255.672169 217.67337 
L 255.549032 217.198994 
L 255.516146 217.082891 
L 255.467712 217.033365 
L 255.40065 217.010706 
L 255.162216 217.014413 
L 255.010379 217.025825 
L 255.010379 217.025825 
L 254.859318 217.037101 
L 254.571313 217.055317 
L 254.303666 217.088941 
L 253.529608 217.272617 
L 252.363134 217.680893 
L 251.448413 217.889508 
L 250.856861 217.845889 
L 250.368705 217.722503 
L 249.906376 217.523131 
L 249.781747 217.386738 
L 249.716814 217.240914 
L 249.672712 217.087551 
L 249.67983 215.044097 
L 249.666894 214.797929 
L 249.666894 214.797929 
" clip-path="url(#p62cf71288e)" style="fill: none; stroke: #1f77b4; stroke-width: 1.5"/>
    <path d="M 249.666894 214.797929 
L 249.67983 215.044097 
L 249.672712 217.087551 
L 249.716814 217.240914 
L 249.781747 217.386738 
L 249.906376 217.523131 
L 250.368705 217.722503 
L 250.856861 217.845889 
L 251.448413 217.889508 
L 252.363134 217.680893 
L 253.529608 217.272617 
L 254.303666 217.088941 
L 254.571313 217.055317 
L 254.859318 217.037101 
L 255.010379 217.025825 
L 255.010379 217.025825 
L 255.162215 217.013253 
L 255.40065 217.010706 
L 255.467712 217.033365 
L 255.516146 217.082891 
L 255.549032 217.198994 
L 255.672169 217.67337 
L 255.780982 218.043408 
L 255.838249 218.346855 
L 255.909775 218.801729 
L 256.028562 219.672588 
L 256.043725 220.197497 
L 256.045145 220.312509 
L 256.045145 220.312509 
L 256.053128 221.229697 
L 256.058625 222.325393 
L 256.131273 223.132943 
L 256.145093 223.247051 
L 256.145093 223.247051 
L 256.1593 223.361101 
L 256.29417 224.964305 
L 256.66633 227.588856 
L 256.691968 227.741308 
L 256.691968 227.741308 
L 256.717637 227.894147 
L 256.884643 229.236782 
L 256.91213 229.531906 
L 256.87563 229.710108 
L 256.817043 229.841316 
L 256.723411 229.891407 
L 256.614303 229.904874 
L 256.302505 229.904136 
L 254.128829 229.846406 
L 253.985691 229.839074 
L 253.985691 229.839074 
" clip-path="url(#p62cf71288e)" style="fill: none; stroke: #1f77b4; stroke-width: 1.5"/>
   </g>
   <g id="patch_3">
    <path d="M 57.6 289.481318 
L 57.6 59.574682 
" style="fill: none; stroke: #000000; stroke-width: 0.8; stroke-linejoin: miter; stroke-linecap: square"/>
   </g>
   <g id="patch_4">
    <path d="M 414.72 289.481318 
L 414.72 59.574682 
" style="fill: none; stroke: #000000; stroke-width: 0.8; stroke-linejoin: miter; stroke-linecap: square"/>
   </g>
   <g id="patch_5">
    <path d="M 57.6 289.481318 
L 414.72 289.481318 
" style="fill: none; stroke: #000000; stroke-width: 0.8; stroke-linejoin: miter; stroke-linecap: square"/>
   </g>
   <g id="patch_6">
    <path d="M 57.6 59.574682 
L 414.72 59.574682 
" style="fill: none; stroke: #000000; stroke-width: 0.8; stroke-linejoin: miter; stroke-linecap: square"/>
   </g>
  </g>
 </g>
 <defs>
  <clipPath id="p62cf71288e">
   <rect x="57.6" y="59.574682" width="357.12" height="229.906635"/>
  </clipPath>
 </defs>
</svg>
